<svg width="243" height="243" viewBox="0 0 243 243" fill="none" xmlns="http://www.w3.org/2000/svg">
<g filter="url(#filter0_d_1800_2954)">
<rect x="4" width="235" height="235" rx="15" fill="#BAEBDA"/>
<path d="M40.88 136L48.44 119.2H51.512L59.096 136H55.832L49.328 120.856H50.576L44.096 136H40.88ZM44.36 132.112L45.2 129.664H54.272L55.112 132.112H44.36ZM60.9446 136V123.184H63.9446V136H60.9446ZM62.4566 121.072C61.8966 121.072 61.4326 120.896 61.0646 120.544C60.7126 120.192 60.5366 119.768 60.5366 119.272C60.5366 118.76 60.7126 118.336 61.0646 118C61.4326 117.648 61.8966 117.472 62.4566 117.472C63.0166 117.472 63.4726 117.64 63.8246 117.976C64.1926 118.296 64.3766 118.704 64.3766 119.2C64.3766 119.728 64.2006 120.176 63.8486 120.544C63.4966 120.896 63.0326 121.072 62.4566 121.072ZM67.8821 136V123.184H70.7381V126.712L70.4021 125.68C70.7861 124.816 71.3861 124.16 72.2021 123.712C73.0341 123.264 74.0661 123.04 75.2981 123.04V125.896C75.1701 125.864 75.0501 125.848 74.9381 125.848C74.8261 125.832 74.7141 125.824 74.6021 125.824C73.4661 125.824 72.5621 126.16 71.8901 126.832C71.2181 127.488 70.8821 128.472 70.8821 129.784V136H67.8821ZM90.473 136.168C89.129 136.168 87.929 135.888 86.873 135.328C85.833 134.752 85.017 133.968 84.425 132.976C83.833 131.984 83.537 130.856 83.537 129.592C83.537 128.312 83.833 127.184 84.425 126.208C85.017 125.216 85.833 124.44 86.873 123.88C87.929 123.32 89.129 123.04 90.473 123.04C91.721 123.04 92.817 123.296 93.761 123.808C94.721 124.304 95.449 125.04 95.945 126.016L93.641 127.36C93.257 126.752 92.785 126.304 92.225 126.016C91.681 125.728 91.089 125.584 90.449 125.584C89.713 125.584 89.049 125.744 88.457 126.064C87.865 126.384 87.401 126.848 87.065 127.456C86.729 128.048 86.561 128.76 86.561 129.592C86.561 130.424 86.729 131.144 87.065 131.752C87.401 132.344 87.865 132.8 88.457 133.12C89.049 133.44 89.713 133.6 90.449 133.6C91.089 133.6 91.681 133.456 92.225 133.168C92.785 132.88 93.257 132.432 93.641 131.824L95.945 133.168C95.449 134.128 94.721 134.872 93.761 135.4C92.817 135.912 91.721 136.168 90.473 136.168ZM104.111 136.168C102.799 136.168 101.631 135.888 100.607 135.328C99.5828 134.752 98.7748 133.968 98.1828 132.976C97.5908 131.984 97.2948 130.856 97.2948 129.592C97.2948 128.312 97.5908 127.184 98.1828 126.208C98.7748 125.216 99.5828 124.44 100.607 123.88C101.631 123.32 102.799 123.04 104.111 123.04C105.439 123.04 106.615 123.32 107.639 123.88C108.679 124.44 109.487 125.208 110.063 126.184C110.655 127.16 110.951 128.296 110.951 129.592C110.951 130.856 110.655 131.984 110.063 132.976C109.487 133.968 108.679 134.752 107.639 135.328C106.615 135.888 105.439 136.168 104.111 136.168ZM104.111 133.6C104.847 133.6 105.503 133.44 106.079 133.12C106.655 132.8 107.103 132.336 107.423 131.728C107.759 131.12 107.927 130.408 107.927 129.592C107.927 128.76 107.759 128.048 107.423 127.456C107.103 126.848 106.655 126.384 106.079 126.064C105.503 125.744 104.855 125.584 104.135 125.584C103.399 125.584 102.743 125.744 102.167 126.064C101.607 126.384 101.159 126.848 100.823 127.456C100.487 128.048 100.319 128.76 100.319 129.592C100.319 130.408 100.487 131.12 100.823 131.728C101.159 132.336 101.607 132.8 102.167 133.12C102.743 133.44 103.391 133.6 104.111 133.6ZM121.092 123.04C122.116 123.04 123.028 123.24 123.828 123.64C124.644 124.04 125.284 124.656 125.748 125.488C126.212 126.304 126.444 127.36 126.444 128.656V136H123.444V129.04C123.444 127.904 123.172 127.056 122.628 126.496C122.1 125.936 121.356 125.656 120.396 125.656C119.692 125.656 119.068 125.8 118.524 126.088C117.98 126.376 117.556 126.808 117.252 127.384C116.964 127.944 116.82 128.656 116.82 129.52V136H113.82V123.184H116.676V126.64L116.172 125.584C116.62 124.768 117.268 124.144 118.116 123.712C118.98 123.264 119.972 123.04 121.092 123.04ZM135.697 136.168C134.465 136.168 133.353 135.896 132.361 135.352C131.385 134.792 130.617 134.024 130.057 133.048C129.497 132.072 129.217 130.92 129.217 129.592C129.217 128.264 129.497 127.112 130.057 126.136C130.617 125.16 131.385 124.4 132.361 123.856C133.353 123.312 134.465 123.04 135.697 123.04C136.769 123.04 137.729 123.28 138.577 123.76C139.425 124.224 140.097 124.936 140.593 125.896C141.089 126.856 141.337 128.088 141.337 129.592C141.337 131.08 141.097 132.312 140.617 133.288C140.137 134.248 139.473 134.968 138.625 135.448C137.777 135.928 136.801 136.168 135.697 136.168ZM136.057 133.6C136.777 133.6 137.417 133.44 137.977 133.12C138.553 132.8 139.009 132.336 139.345 131.728C139.697 131.12 139.873 130.408 139.873 129.592C139.873 128.76 139.697 128.048 139.345 127.456C139.009 126.848 138.553 126.384 137.977 126.064C137.417 125.744 136.777 125.584 136.057 125.584C135.337 125.584 134.689 125.744 134.113 126.064C133.553 126.384 133.097 126.848 132.745 127.456C132.409 128.048 132.241 128.76 132.241 129.592C132.241 130.408 132.409 131.12 132.745 131.728C133.097 132.336 133.553 132.8 134.113 133.12C134.689 133.44 135.337 133.6 136.057 133.6ZM139.945 136V132.976L140.065 129.568L139.825 126.16V118.192H142.801V136H139.945ZM146.749 136V123.184H149.749V136H146.749ZM148.261 121.072C147.701 121.072 147.237 120.896 146.869 120.544C146.517 120.192 146.341 119.768 146.341 119.272C146.341 118.76 146.517 118.336 146.869 118C147.237 117.648 147.701 117.472 148.261 117.472C148.821 117.472 149.277 117.64 149.629 117.976C149.997 118.296 150.181 118.704 150.181 119.2C150.181 119.728 150.005 120.176 149.653 120.544C149.301 120.896 148.837 121.072 148.261 121.072ZM158.511 136.168C157.103 136.168 156.015 135.808 155.247 135.088C154.479 134.352 154.095 133.272 154.095 131.848V120.352H157.095V131.776C157.095 132.384 157.247 132.856 157.551 133.192C157.871 133.528 158.311 133.696 158.871 133.696C159.543 133.696 160.103 133.52 160.551 133.168L161.391 135.304C161.039 135.592 160.607 135.808 160.095 135.952C159.583 136.096 159.055 136.168 158.511 136.168ZM151.983 125.68V123.28H160.527V125.68H151.983ZM163.859 136V123.184H166.859V136H163.859ZM165.371 121.072C164.811 121.072 164.347 120.896 163.979 120.544C163.627 120.192 163.451 119.768 163.451 119.272C163.451 118.76 163.627 118.336 163.979 118C164.347 117.648 164.811 117.472 165.371 117.472C165.931 117.472 166.387 117.64 166.739 117.976C167.107 118.296 167.291 118.704 167.291 119.2C167.291 119.728 167.115 120.176 166.763 120.544C166.411 120.896 165.947 121.072 165.371 121.072ZM176.556 136.168C175.244 136.168 174.076 135.888 173.052 135.328C172.028 134.752 171.22 133.968 170.628 132.976C170.036 131.984 169.74 130.856 169.74 129.592C169.74 128.312 170.036 127.184 170.628 126.208C171.22 125.216 172.028 124.44 173.052 123.88C174.076 123.32 175.244 123.04 176.556 123.04C177.884 123.04 179.06 123.32 180.084 123.88C181.124 124.44 181.932 125.208 182.508 126.184C183.1 127.16 183.396 128.296 183.396 129.592C183.396 130.856 183.1 131.984 182.508 132.976C181.932 133.968 181.124 134.752 180.084 135.328C179.06 135.888 177.884 136.168 176.556 136.168ZM176.556 133.6C177.292 133.6 177.948 133.44 178.524 133.12C179.1 132.8 179.548 132.336 179.868 131.728C180.204 131.12 180.372 130.408 180.372 129.592C180.372 128.76 180.204 128.048 179.868 127.456C179.548 126.848 179.1 126.384 178.524 126.064C177.948 125.744 177.3 125.584 176.58 125.584C175.844 125.584 175.188 125.744 174.612 126.064C174.052 126.384 173.604 126.848 173.268 127.456C172.932 128.048 172.764 128.76 172.764 129.592C172.764 130.408 172.932 131.12 173.268 131.728C173.604 132.336 174.052 132.8 174.612 133.12C175.188 133.44 175.836 133.6 176.556 133.6ZM193.537 123.04C194.561 123.04 195.473 123.24 196.273 123.64C197.089 124.04 197.729 124.656 198.193 125.488C198.657 126.304 198.889 127.36 198.889 128.656V136H195.889V129.04C195.889 127.904 195.617 127.056 195.073 126.496C194.545 125.936 193.801 125.656 192.841 125.656C192.137 125.656 191.513 125.8 190.969 126.088C190.425 126.376 190.001 126.808 189.697 127.384C189.409 127.944 189.265 128.656 189.265 129.52V136H186.265V123.184H189.121V126.64L188.617 125.584C189.065 124.768 189.713 124.144 190.561 123.712C191.425 123.264 192.417 123.04 193.537 123.04Z" fill="black"/>
<mask id="mask0_1800_2954" style="mask-type:alpha" maskUnits="userSpaceOnUse" x="101" y="63" width="40" height="40">
<rect x="101" y="63" width="40" height="40" fill="#D9D9D9"/>
</mask>
<g mask="url(#mask0_1800_2954)">
<path d="M106 98V73C106 71.6111 106.486 70.4306 107.458 69.4583C108.431 68.4861 109.611 68 111 68H117.667C119.056 68 120.236 68.4861 121.208 69.4583C122.181 70.4306 122.667 71.6111 122.667 73V98H106ZM117.667 88H119.333V79.6667H117.667V88ZM109.333 94.6667H119.333V91.3333H117.667C116.75 91.3333 115.965 91.0069 115.312 90.3542C114.66 89.7014 114.333 88.9167 114.333 88V79.6667C114.333 78.75 114.66 77.9653 115.312 77.3125C115.965 76.6597 116.75 76.3333 117.667 76.3333H119.333V73C119.333 72.5278 119.174 72.1319 118.854 71.8125C118.535 71.4931 118.139 71.3333 117.667 71.3333H111C110.528 71.3333 110.132 71.4931 109.813 71.8125C109.493 72.1319 109.333 72.5278 109.333 73V94.6667ZM129.667 85.625C128.944 85.625 128.236 85.5278 127.542 85.3333C126.847 85.1389 126.167 84.8889 125.5 84.5833L126.542 81.4167C127.097 81.6667 127.646 81.875 128.187 82.0417C128.729 82.2083 129.236 82.2917 129.708 82.2917C130.042 82.2917 130.375 82.2361 130.708 82.125C131.042 82.0139 131.389 81.8472 131.75 81.625C132.417 81.1528 133.083 80.8333 133.75 80.6667C134.417 80.5 135.056 80.4167 135.667 80.4167C136.361 80.4167 137.076 80.5069 137.812 80.6875C138.549 80.8681 139.236 81.1111 139.875 81.4167L138.833 84.5833C138.194 84.3611 137.604 84.1667 137.063 84C136.521 83.8333 136.056 83.75 135.667 83.75C135.333 83.75 134.965 83.8125 134.563 83.9375C134.16 84.0625 133.736 84.2778 133.292 84.5833C132.708 84.9722 132.118 85.2431 131.521 85.3958C130.924 85.5486 130.306 85.625 129.667 85.625ZM129.708 79.125C128.986 79.125 128.264 79.0278 127.542 78.8333C126.819 78.6389 126.139 78.3889 125.5 78.0833L126.542 74.9167C127.264 75.2222 127.875 75.4444 128.375 75.5833C128.875 75.7222 129.319 75.7917 129.708 75.7917C130.042 75.7917 130.375 75.7431 130.708 75.6458C131.042 75.5486 131.389 75.375 131.75 75.125C132.444 74.6528 133.118 74.3333 133.771 74.1667C134.424 74 135.056 73.9167 135.667 73.9167C136.361 73.9167 137.056 74.0069 137.75 74.1875C138.444 74.3681 139.153 74.6111 139.875 74.9167L138.833 78.0833C138.111 77.8333 137.5 77.6319 137 77.4792C136.5 77.3264 136.056 77.25 135.667 77.25C135.306 77.25 134.938 77.3056 134.563 77.4167C134.188 77.5278 133.764 77.75 133.292 78.0833C132.792 78.4444 132.229 78.7083 131.604 78.875C130.979 79.0417 130.347 79.125 129.708 79.125ZM129.708 92.125C128.986 92.125 128.271 92.0278 127.562 91.8333C126.854 91.6389 126.167 91.3889 125.5 91.0833L126.542 87.9167C127.153 88.1944 127.722 88.4097 128.25 88.5625C128.778 88.7153 129.264 88.7917 129.708 88.7917C130.042 88.7917 130.375 88.7431 130.708 88.6458C131.042 88.5486 131.389 88.375 131.75 88.125C132.389 87.6806 133.069 87.3681 133.792 87.1875C134.514 87.0069 135.153 86.9167 135.708 86.9167C136.403 86.9167 137.111 87.0139 137.833 87.2083C138.556 87.4028 139.236 87.6389 139.875 87.9167L138.833 91.0833C138.111 90.8333 137.493 90.6319 136.979 90.4792C136.465 90.3264 136.028 90.25 135.667 90.25C135.278 90.25 134.882 90.3125 134.479 90.4375C134.076 90.5625 133.681 90.7778 133.292 91.0833C132.819 91.4167 132.271 91.6736 131.646 91.8542C131.021 92.0347 130.375 92.125 129.708 92.125Z" fill="#1C1B1F"/>
</g>
<path opacity="0.7" d="M57.816 160V150.2H62.1C63.164 150.2 64.0973 150.405 64.9 150.816C65.7027 151.227 66.328 151.796 66.776 152.524C67.224 153.252 67.448 154.111 67.448 155.1C67.448 156.08 67.224 156.939 66.776 157.676C66.328 158.404 65.7027 158.973 64.9 159.384C64.0973 159.795 63.164 160 62.1 160H57.816ZM59.636 158.46H62.016C62.7533 158.46 63.388 158.32 63.92 158.04C64.4613 157.76 64.8767 157.368 65.166 156.864C65.4647 156.36 65.614 155.772 65.614 155.1C65.614 154.419 65.4647 153.831 65.166 153.336C64.8767 152.832 64.4613 152.44 63.92 152.16C63.388 151.88 62.7533 151.74 62.016 151.74H59.636V158.46ZM72.3784 160.098C71.7437 160.098 71.1837 159.981 70.6984 159.748C70.2131 159.505 69.8351 159.141 69.5644 158.656C69.2937 158.161 69.1584 157.541 69.1584 156.794V152.524H70.9084V156.556C70.9084 157.228 71.0577 157.732 71.3564 158.068C71.6644 158.395 72.0984 158.558 72.6584 158.558C73.0691 158.558 73.4237 158.474 73.7224 158.306C74.0304 158.138 74.2684 157.886 74.4364 157.55C74.6137 157.214 74.7024 156.799 74.7024 156.304V152.524H76.4524V160H74.7864V157.984L75.0804 158.6C74.8284 159.085 74.4597 159.459 73.9744 159.72C73.4891 159.972 72.9571 160.098 72.3784 160.098ZM83.3497 160V158.488L83.2517 158.166V155.52C83.2517 155.007 83.0977 154.61 82.7897 154.33C82.4817 154.041 82.015 153.896 81.3897 153.896C80.9697 153.896 80.5544 153.961 80.1437 154.092C79.7424 154.223 79.4017 154.405 79.1217 154.638L78.4357 153.364C78.837 153.056 79.313 152.827 79.8637 152.678C80.4237 152.519 81.0024 152.44 81.5997 152.44C82.6824 152.44 83.5177 152.701 84.1057 153.224C84.703 153.737 85.0017 154.535 85.0017 155.618V160H83.3497ZM80.9977 160.098C80.4377 160.098 79.9477 160.005 79.5277 159.818C79.1077 159.622 78.781 159.356 78.5477 159.02C78.3237 158.675 78.2117 158.287 78.2117 157.858C78.2117 157.438 78.3097 157.06 78.5057 156.724C78.711 156.388 79.0424 156.122 79.4997 155.926C79.957 155.73 80.5637 155.632 81.3197 155.632H83.4897V156.794H81.4457C80.8484 156.794 80.447 156.892 80.2417 157.088C80.0364 157.275 79.9337 157.508 79.9337 157.788C79.9337 158.105 80.0597 158.357 80.3117 158.544C80.5637 158.731 80.9137 158.824 81.3617 158.824C81.791 158.824 82.1737 158.726 82.5097 158.53C82.855 158.334 83.1024 158.045 83.2517 157.662L83.5457 158.712C83.3777 159.151 83.0744 159.491 82.6357 159.734C82.2064 159.977 81.6604 160.098 80.9977 160.098ZM87.2476 160V149.612H88.9976V160H87.2476ZM99.7696 160V158.488L99.6716 158.166V155.52C99.6716 155.007 99.5176 154.61 99.2096 154.33C98.9016 154.041 98.435 153.896 97.8096 153.896C97.3896 153.896 96.9743 153.961 96.5636 154.092C96.1623 154.223 95.8216 154.405 95.5416 154.638L94.8556 153.364C95.257 153.056 95.733 152.827 96.2836 152.678C96.8436 152.519 97.4223 152.44 98.0196 152.44C99.1023 152.44 99.9376 152.701 100.526 153.224C101.123 153.737 101.422 154.535 101.422 155.618V160H99.7696ZM97.4176 160.098C96.8576 160.098 96.3676 160.005 95.9476 159.818C95.5276 159.622 95.201 159.356 94.9676 159.02C94.7436 158.675 94.6316 158.287 94.6316 157.858C94.6316 157.438 94.7296 157.06 94.9256 156.724C95.131 156.388 95.4623 156.122 95.9196 155.926C96.377 155.73 96.9836 155.632 97.7396 155.632H99.9096V156.794H97.8656C97.2683 156.794 96.867 156.892 96.6616 157.088C96.4563 157.275 96.3536 157.508 96.3536 157.788C96.3536 158.105 96.4796 158.357 96.7316 158.544C96.9836 158.731 97.3336 158.824 97.7816 158.824C98.211 158.824 98.5936 158.726 98.9296 158.53C99.275 158.334 99.5223 158.045 99.6716 157.662L99.9656 158.712C99.7976 159.151 99.4943 159.491 99.0556 159.734C98.6263 159.977 98.0803 160.098 97.4176 160.098ZM103.668 160V152.524H105.418V160H103.668ZM104.55 151.292C104.223 151.292 103.952 151.189 103.738 150.984C103.532 150.779 103.43 150.531 103.43 150.242C103.43 149.943 103.532 149.696 103.738 149.5C103.952 149.295 104.223 149.192 104.55 149.192C104.876 149.192 105.142 149.29 105.348 149.486C105.562 149.673 105.67 149.911 105.67 150.2C105.67 150.508 105.567 150.769 105.362 150.984C105.156 151.189 104.886 151.292 104.55 151.292ZM107.714 160V152.524H109.38V154.582L109.184 153.98C109.408 153.476 109.758 153.093 110.234 152.832C110.72 152.571 111.322 152.44 112.04 152.44V154.106C111.966 154.087 111.896 154.078 111.83 154.078C111.765 154.069 111.7 154.064 111.634 154.064C110.972 154.064 110.444 154.26 110.052 154.652C109.66 155.035 109.464 155.609 109.464 156.374V160H107.714ZM120.892 160.098C120.108 160.098 119.408 159.935 118.792 159.608C118.186 159.272 117.71 158.815 117.364 158.236C117.019 157.657 116.846 156.999 116.846 156.262C116.846 155.515 117.019 154.857 117.364 154.288C117.71 153.709 118.186 153.257 118.792 152.93C119.408 152.603 120.108 152.44 120.892 152.44C121.62 152.44 122.26 152.589 122.81 152.888C123.37 153.177 123.795 153.607 124.084 154.176L122.74 154.96C122.516 154.605 122.241 154.344 121.914 154.176C121.597 154.008 121.252 153.924 120.878 153.924C120.449 153.924 120.062 154.017 119.716 154.204C119.371 154.391 119.1 154.661 118.904 155.016C118.708 155.361 118.61 155.777 118.61 156.262C118.61 156.747 118.708 157.167 118.904 157.522C119.1 157.867 119.371 158.133 119.716 158.32C120.062 158.507 120.449 158.6 120.878 158.6C121.252 158.6 121.597 158.516 121.914 158.348C122.241 158.18 122.516 157.919 122.74 157.564L124.084 158.348C123.795 158.908 123.37 159.342 122.81 159.65C122.26 159.949 121.62 160.098 120.892 160.098ZM128.848 160.098C128.083 160.098 127.401 159.935 126.804 159.608C126.207 159.272 125.735 158.815 125.39 158.236C125.045 157.657 124.872 156.999 124.872 156.262C124.872 155.515 125.045 154.857 125.39 154.288C125.735 153.709 126.207 153.257 126.804 152.93C127.401 152.603 128.083 152.44 128.848 152.44C129.623 152.44 130.309 152.603 130.906 152.93C131.513 153.257 131.984 153.705 132.32 154.274C132.665 154.843 132.838 155.506 132.838 156.262C132.838 156.999 132.665 157.657 132.32 158.236C131.984 158.815 131.513 159.272 130.906 159.608C130.309 159.935 129.623 160.098 128.848 160.098ZM128.848 158.6C129.277 158.6 129.66 158.507 129.996 158.32C130.332 158.133 130.593 157.863 130.78 157.508C130.976 157.153 131.074 156.738 131.074 156.262C131.074 155.777 130.976 155.361 130.78 155.016C130.593 154.661 130.332 154.391 129.996 154.204C129.66 154.017 129.282 153.924 128.862 153.924C128.433 153.924 128.05 154.017 127.714 154.204C127.387 154.391 127.126 154.661 126.93 155.016C126.734 155.361 126.636 155.777 126.636 156.262C126.636 156.738 126.734 157.153 126.93 157.508C127.126 157.863 127.387 158.133 127.714 158.32C128.05 158.507 128.428 158.6 128.848 158.6ZM138.753 152.44C139.351 152.44 139.883 152.557 140.349 152.79C140.825 153.023 141.199 153.383 141.469 153.868C141.74 154.344 141.875 154.96 141.875 155.716V160H140.125V155.94C140.125 155.277 139.967 154.783 139.649 154.456C139.341 154.129 138.907 153.966 138.347 153.966C137.937 153.966 137.573 154.05 137.255 154.218C136.938 154.386 136.691 154.638 136.513 154.974C136.345 155.301 136.261 155.716 136.261 156.22V160H134.511V152.524H136.177V154.54L135.883 153.924C136.145 153.448 136.523 153.084 137.017 152.832C137.521 152.571 138.1 152.44 138.753 152.44ZM147.273 160.098C146.554 160.098 145.906 159.939 145.327 159.622C144.758 159.295 144.31 158.847 143.983 158.278C143.656 157.709 143.493 157.037 143.493 156.262C143.493 155.487 143.656 154.815 143.983 154.246C144.31 153.677 144.758 153.233 145.327 152.916C145.906 152.599 146.554 152.44 147.273 152.44C147.898 152.44 148.458 152.58 148.953 152.86C149.448 153.131 149.84 153.546 150.129 154.106C150.418 154.666 150.563 155.385 150.563 156.262C150.563 157.13 150.423 157.849 150.143 158.418C149.863 158.978 149.476 159.398 148.981 159.678C148.486 159.958 147.917 160.098 147.273 160.098ZM147.483 158.6C147.903 158.6 148.276 158.507 148.603 158.32C148.939 158.133 149.205 157.863 149.401 157.508C149.606 157.153 149.709 156.738 149.709 156.262C149.709 155.777 149.606 155.361 149.401 155.016C149.205 154.661 148.939 154.391 148.603 154.204C148.276 154.017 147.903 153.924 147.483 153.924C147.063 153.924 146.685 154.017 146.349 154.204C146.022 154.391 145.756 154.661 145.551 155.016C145.355 155.361 145.257 155.777 145.257 156.262C145.257 156.738 145.355 157.153 145.551 157.508C145.756 157.863 146.022 158.133 146.349 158.32C146.685 158.507 147.063 158.6 147.483 158.6ZM149.751 160V158.236L149.821 156.248L149.681 154.26V149.612H151.417V160H149.751ZM153.72 160V152.524H155.47V160H153.72ZM154.602 151.292C154.276 151.292 154.005 151.189 153.79 150.984C153.585 150.779 153.482 150.531 153.482 150.242C153.482 149.943 153.585 149.696 153.79 149.5C154.005 149.295 154.276 149.192 154.602 149.192C154.929 149.192 155.195 149.29 155.4 149.486C155.615 149.673 155.722 149.911 155.722 150.2C155.722 150.508 155.62 150.769 155.414 150.984C155.209 151.189 154.938 151.292 154.602 151.292ZM160.581 160.098C159.76 160.098 159.125 159.888 158.677 159.468C158.229 159.039 158.005 158.409 158.005 157.578V150.872H159.755V157.536C159.755 157.891 159.844 158.166 160.021 158.362C160.208 158.558 160.464 158.656 160.791 158.656C161.183 158.656 161.51 158.553 161.771 158.348L162.261 159.594C162.056 159.762 161.804 159.888 161.505 159.972C161.206 160.056 160.898 160.098 160.581 160.098ZM156.773 153.98V152.58H161.757V153.98H156.773ZM163.701 160V152.524H165.451V160H163.701ZM164.583 151.292C164.256 151.292 163.985 151.189 163.771 150.984C163.565 150.779 163.463 150.531 163.463 150.242C163.463 149.943 163.565 149.696 163.771 149.5C163.985 149.295 164.256 149.192 164.583 149.192C164.909 149.192 165.175 149.29 165.381 149.486C165.595 149.673 165.703 149.911 165.703 150.2C165.703 150.508 165.6 150.769 165.395 150.984C165.189 151.189 164.919 151.292 164.583 151.292ZM171.108 160.098C170.342 160.098 169.661 159.935 169.064 159.608C168.466 159.272 167.995 158.815 167.65 158.236C167.304 157.657 167.132 156.999 167.132 156.262C167.132 155.515 167.304 154.857 167.65 154.288C167.995 153.709 168.466 153.257 169.064 152.93C169.661 152.603 170.342 152.44 171.108 152.44C171.882 152.44 172.568 152.603 173.166 152.93C173.772 153.257 174.244 153.705 174.58 154.274C174.925 154.843 175.098 155.506 175.098 156.262C175.098 156.999 174.925 157.657 174.58 158.236C174.244 158.815 173.772 159.272 173.166 159.608C172.568 159.935 171.882 160.098 171.108 160.098ZM171.108 158.6C171.537 158.6 171.92 158.507 172.256 158.32C172.592 158.133 172.853 157.863 173.04 157.508C173.236 157.153 173.334 156.738 173.334 156.262C173.334 155.777 173.236 155.361 173.04 155.016C172.853 154.661 172.592 154.391 172.256 154.204C171.92 154.017 171.542 153.924 171.122 153.924C170.692 153.924 170.31 154.017 169.974 154.204C169.647 154.391 169.386 154.661 169.19 155.016C168.994 155.361 168.896 155.777 168.896 156.262C168.896 156.738 168.994 157.153 169.19 157.508C169.386 157.863 169.647 158.133 169.974 158.32C170.31 158.507 170.688 158.6 171.108 158.6ZM181.013 152.44C181.61 152.44 182.142 152.557 182.609 152.79C183.085 153.023 183.458 153.383 183.729 153.868C184 154.344 184.135 154.96 184.135 155.716V160H182.385V155.94C182.385 155.277 182.226 154.783 181.909 154.456C181.601 154.129 181.167 153.966 180.607 153.966C180.196 153.966 179.832 154.05 179.515 154.218C179.198 154.386 178.95 154.638 178.773 154.974C178.605 155.301 178.521 155.716 178.521 156.22V160H176.771V152.524H178.437V154.54L178.143 153.924C178.404 153.448 178.782 153.084 179.277 152.832C179.781 152.571 180.36 152.44 181.013 152.44Z" fill="black"/>
</g>
<defs>
<filter id="filter0_d_1800_2954" x="0" y="0" width="243" height="243" filterUnits="userSpaceOnUse" color-interpolation-filters="sRGB">
<feFlood flood-opacity="0" result="BackgroundImageFix"/>
<feColorMatrix in="SourceAlpha" type="matrix" values="0 0 0 0 0 0 0 0 0 0 0 0 0 0 0 0 0 0 127 0" result="hardAlpha"/>
<feOffset dy="4"/>
<feGaussianBlur stdDeviation="2"/>
<feComposite in2="hardAlpha" operator="out"/>
<feColorMatrix type="matrix" values="0 0 0 0 0 0 0 0 0 0 0 0 0 0 0 0 0 0 0.25 0"/>
<feBlend mode="normal" in2="BackgroundImageFix" result="effect1_dropShadow_1800_2954"/>
<feBlend mode="normal" in="SourceGraphic" in2="effect1_dropShadow_1800_2954" result="shape"/>
</filter>
</defs>
</svg>
