<svg width="243" height="243" viewBox="0 0 243 243" fill="none" xmlns="http://www.w3.org/2000/svg">
<g filter="url(#filter0_d_1802_3089)">
<rect x="4" width="235" height="235" rx="15" fill="#BAEBDA"/>
<path d="M54.38 136L61.94 119.2H65.012L72.596 136H69.332L62.828 120.856H64.076L57.596 136H54.38ZM57.86 132.112L58.7 129.664H67.772L68.612 132.112H57.86ZM79.7514 136.168C78.5194 136.168 77.4074 135.896 76.4154 135.352C75.4394 134.792 74.6714 134.024 74.1114 133.048C73.5514 132.072 73.2714 130.92 73.2714 129.592C73.2714 128.264 73.5514 127.112 74.1114 126.136C74.6714 125.16 75.4394 124.4 76.4154 123.856C77.4074 123.312 78.5194 123.04 79.7514 123.04C80.8234 123.04 81.7834 123.28 82.6314 123.76C83.4794 124.224 84.1514 124.936 84.6474 125.896C85.1434 126.856 85.3914 128.088 85.3914 129.592C85.3914 131.08 85.1514 132.312 84.6714 133.288C84.1914 134.248 83.5274 134.968 82.6794 135.448C81.8314 135.928 80.8554 136.168 79.7514 136.168ZM80.1114 133.6C80.8314 133.6 81.4714 133.44 82.0314 133.12C82.6074 132.8 83.0634 132.336 83.3994 131.728C83.7514 131.12 83.9274 130.408 83.9274 129.592C83.9274 128.76 83.7514 128.048 83.3994 127.456C83.0634 126.848 82.6074 126.384 82.0314 126.064C81.4714 125.744 80.8314 125.584 80.1114 125.584C79.3914 125.584 78.7434 125.744 78.1674 126.064C77.6074 126.384 77.1514 126.848 76.7994 127.456C76.4634 128.048 76.2954 128.76 76.2954 129.592C76.2954 130.408 76.4634 131.12 76.7994 131.728C77.1514 132.336 77.6074 132.8 78.1674 133.12C78.7434 133.44 79.3914 133.6 80.1114 133.6ZM83.9994 136V132.976L84.1194 129.568L83.8794 126.16V118.192H86.8554V136H83.9994ZM89.4839 140.824C88.9239 140.824 88.3959 140.76 87.8999 140.632C87.3879 140.52 86.9559 140.336 86.6039 140.08L87.4679 137.848C87.9319 138.184 88.5159 138.352 89.2199 138.352C89.7639 138.352 90.1879 138.176 90.4919 137.824C90.7959 137.488 90.9479 136.984 90.9479 136.312V123.184H93.9479V136.24C93.9479 137.648 93.5559 138.76 92.7719 139.576C92.0039 140.408 90.9079 140.824 89.4839 140.824ZM92.4359 121.072C91.8759 121.072 91.4119 120.896 91.0439 120.544C90.6919 120.192 90.5159 119.768 90.5159 119.272C90.5159 118.76 90.6919 118.336 91.0439 118C91.4119 117.648 91.8759 117.472 92.4359 117.472C92.9959 117.472 93.4519 117.64 93.8039 117.976C94.1719 118.296 94.3559 118.704 94.3559 119.2C94.3559 119.728 94.1799 120.176 93.8279 120.544C93.4759 120.896 93.0119 121.072 92.4359 121.072ZM103.306 136.168C102.218 136.168 101.258 135.968 100.426 135.568C99.5941 135.152 98.9461 134.528 98.4821 133.696C98.0181 132.848 97.7861 131.784 97.7861 130.504V123.184H100.786V130.096C100.786 131.248 101.042 132.112 101.554 132.688C102.082 133.248 102.826 133.528 103.786 133.528C104.49 133.528 105.098 133.384 105.61 133.096C106.138 132.808 106.546 132.376 106.834 131.8C107.138 131.224 107.29 130.512 107.29 129.664V123.184H110.29V136H107.434V132.544L107.938 133.6C107.506 134.432 106.874 135.072 106.042 135.52C105.21 135.952 104.298 136.168 103.306 136.168ZM118.178 136.168C117.106 136.168 116.074 136.032 115.082 135.76C114.106 135.472 113.33 135.128 112.754 134.728L113.906 132.448C114.482 132.816 115.17 133.12 115.97 133.36C116.77 133.6 117.57 133.72 118.37 133.72C119.314 133.72 119.994 133.592 120.41 133.336C120.842 133.08 121.058 132.736 121.058 132.304C121.058 131.952 120.914 131.688 120.626 131.512C120.338 131.32 119.962 131.176 119.498 131.08C119.034 130.984 118.514 130.896 117.938 130.816C117.378 130.736 116.81 130.632 116.234 130.504C115.674 130.36 115.162 130.16 114.698 129.904C114.234 129.632 113.858 129.272 113.57 128.824C113.282 128.376 113.138 127.784 113.138 127.048C113.138 126.232 113.37 125.528 113.834 124.936C114.298 124.328 114.946 123.864 115.778 123.544C116.626 123.208 117.626 123.04 118.778 123.04C119.642 123.04 120.514 123.136 121.394 123.328C122.274 123.52 123.002 123.792 123.578 124.144L122.426 126.424C121.818 126.056 121.202 125.808 120.578 125.68C119.97 125.536 119.362 125.464 118.754 125.464C117.842 125.464 117.162 125.6 116.714 125.872C116.282 126.144 116.066 126.488 116.066 126.904C116.066 127.288 116.21 127.576 116.498 127.768C116.786 127.96 117.162 128.112 117.626 128.224C118.09 128.336 118.602 128.432 119.162 128.512C119.738 128.576 120.306 128.68 120.866 128.824C121.426 128.968 121.938 129.168 122.402 129.424C122.882 129.664 123.266 130.008 123.554 130.456C123.842 130.904 123.986 131.488 123.986 132.208C123.986 133.008 123.746 133.704 123.266 134.296C122.802 134.888 122.138 135.352 121.274 135.688C120.41 136.008 119.378 136.168 118.178 136.168ZM131.394 136.168C129.986 136.168 128.898 135.808 128.13 135.088C127.362 134.352 126.978 133.272 126.978 131.848V120.352H129.978V131.776C129.978 132.384 130.13 132.856 130.434 133.192C130.754 133.528 131.194 133.696 131.754 133.696C132.426 133.696 132.986 133.52 133.434 133.168L134.274 135.304C133.922 135.592 133.49 135.808 132.978 135.952C132.466 136.096 131.938 136.168 131.394 136.168ZM124.866 125.68V123.28H133.41V125.68H124.866ZM144.637 136V133.408L144.469 132.856V128.32C144.469 127.44 144.205 126.76 143.677 126.28C143.149 125.784 142.349 125.536 141.277 125.536C140.557 125.536 139.845 125.648 139.141 125.872C138.453 126.096 137.869 126.408 137.389 126.808L136.213 124.624C136.901 124.096 137.717 123.704 138.661 123.448C139.621 123.176 140.613 123.04 141.637 123.04C143.493 123.04 144.925 123.488 145.933 124.384C146.957 125.264 147.469 126.632 147.469 128.488V136H144.637ZM140.605 136.168C139.645 136.168 138.805 136.008 138.085 135.688C137.365 135.352 136.805 134.896 136.405 134.32C136.021 133.728 135.829 133.064 135.829 132.328C135.829 131.608 135.997 130.96 136.333 130.384C136.685 129.808 137.253 129.352 138.037 129.016C138.821 128.68 139.861 128.512 141.157 128.512H144.877V130.504H141.373C140.349 130.504 139.661 130.672 139.309 131.008C138.957 131.328 138.781 131.728 138.781 132.208C138.781 132.752 138.997 133.184 139.429 133.504C139.861 133.824 140.461 133.984 141.229 133.984C141.965 133.984 142.621 133.816 143.197 133.48C143.789 133.144 144.213 132.648 144.469 131.992L144.973 133.792C144.685 134.544 144.165 135.128 143.413 135.544C142.677 135.96 141.741 136.168 140.605 136.168ZM158.424 136.168C157.336 136.168 156.368 135.928 155.52 135.448C154.672 134.968 154 134.248 153.504 133.288C153.024 132.312 152.784 131.08 152.784 129.592C152.784 128.088 153.032 126.856 153.528 125.896C154.04 124.936 154.72 124.224 155.568 123.76C156.432 123.28 157.384 123.04 158.424 123.04C159.688 123.04 160.8 123.312 161.76 123.856C162.736 124.4 163.504 125.16 164.064 126.136C164.64 127.112 164.928 128.264 164.928 129.592C164.928 130.92 164.64 132.072 164.064 133.048C163.504 134.024 162.736 134.792 161.76 135.352C160.8 135.896 159.688 136.168 158.424 136.168ZM151.32 136V118.192H154.32V126.16L154.08 129.568L154.176 132.976V136H151.32ZM158.088 133.6C158.808 133.6 159.448 133.44 160.008 133.12C160.584 132.8 161.04 132.336 161.376 131.728C161.712 131.12 161.88 130.408 161.88 129.592C161.88 128.76 161.712 128.048 161.376 127.456C161.04 126.848 160.584 126.384 160.008 126.064C159.448 125.744 158.808 125.584 158.088 125.584C157.368 125.584 156.72 125.744 156.144 126.064C155.568 126.384 155.112 126.848 154.776 127.456C154.44 128.048 154.272 128.76 154.272 129.592C154.272 130.408 154.44 131.12 154.776 131.728C155.112 132.336 155.568 132.8 156.144 133.12C156.72 133.44 157.368 133.6 158.088 133.6ZM167.773 136V118.192H170.773V136H167.773ZM180.734 136.168C179.31 136.168 178.062 135.888 176.99 135.328C175.934 134.752 175.11 133.968 174.518 132.976C173.942 131.984 173.654 130.856 173.654 129.592C173.654 128.312 173.934 127.184 174.494 126.208C175.07 125.216 175.854 124.44 176.846 123.88C177.854 123.32 178.998 123.04 180.278 123.04C181.526 123.04 182.638 123.312 183.614 123.856C184.59 124.4 185.358 125.168 185.918 126.16C186.478 127.152 186.758 128.32 186.758 129.664C186.758 129.792 186.75 129.936 186.734 130.096C186.734 130.256 186.726 130.408 186.71 130.552H176.03V128.56H185.126L183.95 129.184C183.966 128.448 183.814 127.8 183.494 127.24C183.174 126.68 182.734 126.24 182.174 125.92C181.63 125.6 180.998 125.44 180.278 125.44C179.542 125.44 178.894 125.6 178.334 125.92C177.79 126.24 177.358 126.688 177.038 127.264C176.734 127.824 176.582 128.488 176.582 129.256V129.736C176.582 130.504 176.758 131.184 177.11 131.776C177.462 132.368 177.958 132.824 178.598 133.144C179.238 133.464 179.974 133.624 180.806 133.624C181.526 133.624 182.174 133.512 182.75 133.288C183.326 133.064 183.838 132.712 184.286 132.232L185.894 134.08C185.318 134.752 184.59 135.272 183.71 135.64C182.846 135.992 181.854 136.168 180.734 136.168Z" fill="black"/>
<mask id="mask0_1802_3089" style="mask-type:alpha" maskUnits="userSpaceOnUse" x="101" y="63" width="40" height="40">
<rect x="101" y="63" width="40" height="40" fill="#D9D9D9"/>
</mask>
<g mask="url(#mask0_1802_3089)">
<path d="M116 76.334L114.25 74.584L116.208 72.584H111V70.084H116.208L114.25 68.084L116 66.334L121 71.334L116 76.334ZM109.333 86.334L104.333 81.334L106.083 79.584L108.083 81.5423V76.334H110.583V81.5423L112.583 79.584L114.333 81.334L109.333 86.334ZM127.667 73.0007C126.75 73.0007 125.965 72.6743 125.313 72.0215C124.66 71.3687 124.333 70.584 124.333 69.6673C124.333 68.7507 124.66 67.9659 125.313 67.3132C125.965 66.6604 126.75 66.334 127.667 66.334C128.583 66.334 129.368 66.6604 130.021 67.3132C130.674 67.9659 131 68.7507 131 69.6673C131 70.584 130.674 71.3687 130.021 72.0215C129.368 72.6743 128.583 73.0007 127.667 73.0007ZM110.542 99.6673L107.667 98.0007L113.417 88.0007C113.722 87.4729 114.132 87.0632 114.646 86.7715C115.16 86.4798 115.722 86.334 116.333 86.334H120.167L122.583 77.959C122.861 76.9868 123.375 76.1951 124.125 75.584C124.875 74.9729 125.722 74.6673 126.667 74.6673C128 74.6673 129.09 75.1743 129.938 76.1882C130.785 77.202 131.083 78.3757 130.833 79.709L129.042 88.6673C128.903 89.4451 128.521 90.084 127.896 90.584C127.271 91.084 126.556 91.334 125.75 91.334H115.375L110.542 99.6673ZM115.917 99.6673V98.0007C115.917 97.084 116.243 96.2993 116.896 95.6465C117.549 94.9937 118.347 94.6673 119.292 94.6673H127.792C128.292 94.6673 128.806 94.7576 129.333 94.9382C129.861 95.1187 130.403 95.4034 130.958 95.7923V93.959C130.958 92.209 131.188 90.4104 131.646 88.5632C132.104 86.7159 132.792 84.8062 133.708 82.834L134.542 81.084C134.875 80.3618 134.986 79.6326 134.875 78.8965C134.764 78.1604 134.444 77.5284 133.917 77.0007C133.694 76.7784 133.528 76.5284 133.417 76.2507C133.306 75.9729 133.25 75.6812 133.25 75.3757C133.25 74.7368 133.486 74.1812 133.958 73.709C134.431 73.2368 134.986 73.0007 135.625 73.0007C136.181 73.0007 136.688 73.1465 137.146 73.4382C137.604 73.7298 137.958 74.1257 138.208 74.6257C138.569 75.3479 138.84 76.084 139.021 76.834C139.201 77.584 139.292 78.334 139.292 79.084C139.292 79.4729 139.264 79.8826 139.208 80.3132C139.153 80.7437 139.056 81.1951 138.917 81.6673L134.917 97.209C134.694 97.9312 134.292 98.5215 133.708 98.9798C133.125 99.4381 132.458 99.6673 131.708 99.6673H115.917Z" fill="#1C1B1F"/>
</g>
<path opacity="0.7" d="M61.93 160L66.34 150.2H68.132L72.556 160H70.652L66.858 151.166H67.586L63.806 160H61.93ZM63.96 157.732L64.45 156.304H69.742L70.232 157.732H63.96ZM76.73 160.098C76.0113 160.098 75.3626 159.939 74.784 159.622C74.2146 159.295 73.7666 158.847 73.44 158.278C73.1133 157.709 72.95 157.037 72.95 156.262C72.95 155.487 73.1133 154.815 73.44 154.246C73.7666 153.677 74.2146 153.233 74.784 152.916C75.3626 152.599 76.0113 152.44 76.73 152.44C77.3553 152.44 77.9153 152.58 78.41 152.86C78.9046 153.131 79.2966 153.546 79.586 154.106C79.8753 154.666 80.02 155.385 80.02 156.262C80.02 157.13 79.88 157.849 79.6 158.418C79.32 158.978 78.9326 159.398 78.438 159.678C77.9433 159.958 77.374 160.098 76.73 160.098ZM76.94 158.6C77.36 158.6 77.7333 158.507 78.06 158.32C78.396 158.133 78.662 157.863 78.858 157.508C79.0633 157.153 79.166 156.738 79.166 156.262C79.166 155.777 79.0633 155.361 78.858 155.016C78.662 154.661 78.396 154.391 78.06 154.204C77.7333 154.017 77.36 153.924 76.94 153.924C76.52 153.924 76.142 154.017 75.806 154.204C75.4793 154.391 75.2133 154.661 75.008 155.016C74.812 155.361 74.714 155.777 74.714 156.262C74.714 156.738 74.812 157.153 75.008 157.508C75.2133 157.863 75.4793 158.133 75.806 158.32C76.142 158.507 76.52 158.6 76.94 158.6ZM79.208 160V158.236L79.278 156.248L79.138 154.26V149.612H80.874V160H79.208ZM82.4073 162.814C82.0806 162.814 81.7726 162.777 81.4833 162.702C81.1846 162.637 80.9326 162.529 80.7273 162.38L81.2313 161.078C81.502 161.274 81.8426 161.372 82.2533 161.372C82.5706 161.372 82.818 161.269 82.9953 161.064C83.1726 160.868 83.2613 160.574 83.2613 160.182V152.524H85.0113V160.14C85.0113 160.961 84.7826 161.61 84.3253 162.086C83.8773 162.571 83.238 162.814 82.4073 162.814ZM84.1293 151.292C83.8026 151.292 83.532 151.189 83.3173 150.984C83.112 150.779 83.0093 150.531 83.0093 150.242C83.0093 149.943 83.112 149.696 83.3173 149.5C83.532 149.295 83.8026 149.192 84.1293 149.192C84.456 149.192 84.722 149.29 84.9273 149.486C85.142 149.673 85.2493 149.911 85.2493 150.2C85.2493 150.508 85.1466 150.769 84.9413 150.984C84.736 151.189 84.4653 151.292 84.1293 151.292ZM90.4702 160.098C89.8355 160.098 89.2755 159.981 88.7902 159.748C88.3049 159.505 87.9269 159.141 87.6562 158.656C87.3855 158.161 87.2502 157.541 87.2502 156.794V152.524H89.0002V156.556C89.0002 157.228 89.1495 157.732 89.4482 158.068C89.7562 158.395 90.1902 158.558 90.7502 158.558C91.1609 158.558 91.5155 158.474 91.8142 158.306C92.1222 158.138 92.3602 157.886 92.5282 157.55C92.7055 157.214 92.7942 156.799 92.7942 156.304V152.524H94.5442V160H92.8782V157.984L93.1722 158.6C92.9202 159.085 92.5515 159.459 92.0662 159.72C91.5809 159.972 91.0489 160.098 90.4702 160.098ZM99.1455 160.098C98.5202 160.098 97.9182 160.019 97.3395 159.86C96.7702 159.692 96.3175 159.491 95.9815 159.258L96.6535 157.928C96.9895 158.143 97.3908 158.32 97.8575 158.46C98.3242 158.6 98.7908 158.67 99.2575 158.67C99.8082 158.67 100.205 158.595 100.448 158.446C100.7 158.297 100.826 158.096 100.826 157.844C100.826 157.639 100.742 157.485 100.574 157.382C100.406 157.27 100.186 157.186 99.9155 157.13C99.6448 157.074 99.3415 157.023 99.0055 156.976C98.6788 156.929 98.3475 156.869 98.0115 156.794C97.6848 156.71 97.3862 156.593 97.1155 156.444C96.8448 156.285 96.6255 156.075 96.4575 155.814C96.2895 155.553 96.2055 155.207 96.2055 154.778C96.2055 154.302 96.3408 153.891 96.6115 153.546C96.8822 153.191 97.2602 152.921 97.7455 152.734C98.2402 152.538 98.8235 152.44 99.4955 152.44C99.9995 152.44 100.508 152.496 101.022 152.608C101.535 152.72 101.96 152.879 102.296 153.084L101.624 154.414C101.269 154.199 100.91 154.055 100.546 153.98C100.191 153.896 99.8362 153.854 99.4815 153.854C98.9495 153.854 98.5528 153.933 98.2915 154.092C98.0395 154.251 97.9135 154.451 97.9135 154.694C97.9135 154.918 97.9975 155.086 98.1655 155.198C98.3335 155.31 98.5528 155.399 98.8235 155.464C99.0942 155.529 99.3928 155.585 99.7195 155.632C100.056 155.669 100.387 155.73 100.714 155.814C101.04 155.898 101.339 156.015 101.61 156.164C101.89 156.304 102.114 156.505 102.282 156.766C102.45 157.027 102.534 157.368 102.534 157.788C102.534 158.255 102.394 158.661 102.114 159.006C101.843 159.351 101.456 159.622 100.952 159.818C100.448 160.005 99.8455 160.098 99.1455 160.098ZM106.855 160.098C106.033 160.098 105.399 159.888 104.951 159.468C104.503 159.039 104.279 158.409 104.279 157.578V150.872H106.029V157.536C106.029 157.891 106.117 158.166 106.295 158.362C106.481 158.558 106.738 158.656 107.065 158.656C107.457 158.656 107.783 158.553 108.045 158.348L108.535 159.594C108.329 159.762 108.077 159.888 107.779 159.972C107.48 160.056 107.172 160.098 106.855 160.098ZM103.047 153.98V152.58H108.031V153.98H103.047ZM114.58 160V158.488L114.482 158.166V155.52C114.482 155.007 114.328 154.61 114.02 154.33C113.712 154.041 113.246 153.896 112.62 153.896C112.2 153.896 111.785 153.961 111.374 154.092C110.973 154.223 110.632 154.405 110.352 154.638L109.666 153.364C110.068 153.056 110.544 152.827 111.094 152.678C111.654 152.519 112.233 152.44 112.83 152.44C113.913 152.44 114.748 152.701 115.336 153.224C115.934 153.737 116.232 154.535 116.232 155.618V160H114.58ZM112.228 160.098C111.668 160.098 111.178 160.005 110.758 159.818C110.338 159.622 110.012 159.356 109.778 159.02C109.554 158.675 109.442 158.287 109.442 157.858C109.442 157.438 109.54 157.06 109.736 156.724C109.942 156.388 110.273 156.122 110.73 155.926C111.188 155.73 111.794 155.632 112.55 155.632H114.72V156.794H112.676C112.079 156.794 111.678 156.892 111.472 157.088C111.267 157.275 111.164 157.508 111.164 157.788C111.164 158.105 111.29 158.357 111.542 158.544C111.794 158.731 112.144 158.824 112.592 158.824C113.022 158.824 113.404 158.726 113.74 158.53C114.086 158.334 114.333 158.045 114.482 157.662L114.776 158.712C114.608 159.151 114.305 159.491 113.866 159.734C113.437 159.977 112.891 160.098 112.228 160.098ZM122.622 160.098C121.987 160.098 121.423 159.958 120.928 159.678C120.433 159.398 120.041 158.978 119.752 158.418C119.472 157.849 119.332 157.13 119.332 156.262C119.332 155.385 119.477 154.666 119.766 154.106C120.065 153.546 120.461 153.131 120.956 152.86C121.46 152.58 122.015 152.44 122.622 152.44C123.359 152.44 124.008 152.599 124.568 152.916C125.137 153.233 125.585 153.677 125.912 154.246C126.248 154.815 126.416 155.487 126.416 156.262C126.416 157.037 126.248 157.709 125.912 158.278C125.585 158.847 125.137 159.295 124.568 159.622C124.008 159.939 123.359 160.098 122.622 160.098ZM118.478 160V149.612H120.228V154.26L120.088 156.248L120.144 158.236V160H118.478ZM122.426 158.6C122.846 158.6 123.219 158.507 123.546 158.32C123.882 158.133 124.148 157.863 124.344 157.508C124.54 157.153 124.638 156.738 124.638 156.262C124.638 155.777 124.54 155.361 124.344 155.016C124.148 154.661 123.882 154.391 123.546 154.204C123.219 154.017 122.846 153.924 122.426 153.924C122.006 153.924 121.628 154.017 121.292 154.204C120.956 154.391 120.69 154.661 120.494 155.016C120.298 155.361 120.2 155.777 120.2 156.262C120.2 156.738 120.298 157.153 120.494 157.508C120.69 157.863 120.956 158.133 121.292 158.32C121.628 158.507 122.006 158.6 122.426 158.6ZM128.076 160V149.612H129.826V160H128.076ZM135.637 160.098C134.806 160.098 134.078 159.935 133.453 159.608C132.837 159.272 132.356 158.815 132.011 158.236C131.675 157.657 131.507 156.999 131.507 156.262C131.507 155.515 131.67 154.857 131.997 154.288C132.333 153.709 132.79 153.257 133.369 152.93C133.957 152.603 134.624 152.44 135.371 152.44C136.099 152.44 136.747 152.599 137.317 152.916C137.886 153.233 138.334 153.681 138.661 154.26C138.987 154.839 139.151 155.52 139.151 156.304C139.151 156.379 139.146 156.463 139.137 156.556C139.137 156.649 139.132 156.738 139.123 156.822H132.893V155.66H138.199L137.513 156.024C137.522 155.595 137.433 155.217 137.247 154.89C137.06 154.563 136.803 154.307 136.477 154.12C136.159 153.933 135.791 153.84 135.371 153.84C134.941 153.84 134.563 153.933 134.237 154.12C133.919 154.307 133.667 154.568 133.481 154.904C133.303 155.231 133.215 155.618 133.215 156.066V156.346C133.215 156.794 133.317 157.191 133.523 157.536C133.728 157.881 134.017 158.147 134.391 158.334C134.764 158.521 135.193 158.614 135.679 158.614C136.099 158.614 136.477 158.549 136.813 158.418C137.149 158.287 137.447 158.082 137.709 157.802L138.647 158.88C138.311 159.272 137.886 159.575 137.373 159.79C136.869 159.995 136.29 160.098 135.637 160.098ZM147.011 160.098C146.385 160.098 145.783 160.019 145.205 159.86C144.635 159.692 144.183 159.491 143.847 159.258L144.519 157.928C144.855 158.143 145.256 158.32 145.723 158.46C146.189 158.6 146.656 158.67 147.123 158.67C147.673 158.67 148.07 158.595 148.313 158.446C148.565 158.297 148.691 158.096 148.691 157.844C148.691 157.639 148.607 157.485 148.439 157.382C148.271 157.27 148.051 157.186 147.781 157.13C147.51 157.074 147.207 157.023 146.871 156.976C146.544 156.929 146.213 156.869 145.877 156.794C145.55 156.71 145.251 156.593 144.981 156.444C144.71 156.285 144.491 156.075 144.323 155.814C144.155 155.553 144.071 155.207 144.071 154.778C144.071 154.302 144.206 153.891 144.477 153.546C144.747 153.191 145.125 152.921 145.611 152.734C146.105 152.538 146.689 152.44 147.361 152.44C147.865 152.44 148.373 152.496 148.887 152.608C149.4 152.72 149.825 152.879 150.161 153.084L149.489 154.414C149.134 154.199 148.775 154.055 148.411 153.98C148.056 153.896 147.701 153.854 147.347 153.854C146.815 153.854 146.418 153.933 146.157 154.092C145.905 154.251 145.779 154.451 145.779 154.694C145.779 154.918 145.863 155.086 146.031 155.198C146.199 155.31 146.418 155.399 146.689 155.464C146.959 155.529 147.258 155.585 147.585 155.632C147.921 155.669 148.252 155.73 148.579 155.814C148.905 155.898 149.204 156.015 149.475 156.164C149.755 156.304 149.979 156.505 150.147 156.766C150.315 157.027 150.399 157.368 150.399 157.788C150.399 158.255 150.259 158.661 149.979 159.006C149.708 159.351 149.321 159.622 148.817 159.818C148.313 160.005 147.711 160.098 147.011 160.098ZM155.42 160.098C154.589 160.098 153.861 159.935 153.236 159.608C152.62 159.272 152.139 158.815 151.794 158.236C151.458 157.657 151.29 156.999 151.29 156.262C151.29 155.515 151.453 154.857 151.78 154.288C152.116 153.709 152.573 153.257 153.152 152.93C153.74 152.603 154.407 152.44 155.154 152.44C155.882 152.44 156.53 152.599 157.1 152.916C157.669 153.233 158.117 153.681 158.444 154.26C158.77 154.839 158.934 155.52 158.934 156.304C158.934 156.379 158.929 156.463 158.92 156.556C158.92 156.649 158.915 156.738 158.906 156.822H152.676V155.66H157.982L157.296 156.024C157.305 155.595 157.216 155.217 157.03 154.89C156.843 154.563 156.586 154.307 156.26 154.12C155.942 153.933 155.574 153.84 155.154 153.84C154.724 153.84 154.346 153.933 154.02 154.12C153.702 154.307 153.45 154.568 153.264 154.904C153.086 155.231 152.998 155.618 152.998 156.066V156.346C152.998 156.794 153.1 157.191 153.306 157.536C153.511 157.881 153.8 158.147 154.174 158.334C154.547 158.521 154.976 158.614 155.462 158.614C155.882 158.614 156.26 158.549 156.596 158.418C156.932 158.287 157.23 158.082 157.492 157.802L158.43 158.88C158.094 159.272 157.669 159.575 157.156 159.79C156.652 159.995 156.073 160.098 155.42 160.098ZM165.016 160V158.488L164.918 158.166V155.52C164.918 155.007 164.764 154.61 164.456 154.33C164.148 154.041 163.681 153.896 163.056 153.896C162.636 153.896 162.22 153.961 161.81 154.092C161.408 154.223 161.068 154.405 160.788 154.638L160.102 153.364C160.503 153.056 160.979 152.827 161.53 152.678C162.09 152.519 162.668 152.44 163.266 152.44C164.348 152.44 165.184 152.701 165.772 153.224C166.369 153.737 166.668 154.535 166.668 155.618V160H165.016ZM162.664 160.098C162.104 160.098 161.614 160.005 161.194 159.818C160.774 159.622 160.447 159.356 160.214 159.02C159.99 158.675 159.878 158.287 159.878 157.858C159.878 157.438 159.976 157.06 160.172 156.724C160.377 156.388 160.708 156.122 161.166 155.926C161.623 155.73 162.23 155.632 162.986 155.632H165.156V156.794H163.112C162.514 156.794 162.113 156.892 161.908 157.088C161.702 157.275 161.6 157.508 161.6 157.788C161.6 158.105 161.726 158.357 161.978 158.544C162.23 158.731 162.58 158.824 163.028 158.824C163.457 158.824 163.84 158.726 164.176 158.53C164.521 158.334 164.768 158.045 164.918 157.662L165.212 158.712C165.044 159.151 164.74 159.491 164.302 159.734C163.872 159.977 163.326 160.098 162.664 160.098ZM171.728 160.098C170.906 160.098 170.272 159.888 169.824 159.468C169.376 159.039 169.152 158.409 169.152 157.578V150.872H170.902V157.536C170.902 157.891 170.99 158.166 171.168 158.362C171.354 158.558 171.611 158.656 171.938 158.656C172.33 158.656 172.656 158.553 172.918 158.348L173.408 159.594C173.202 159.762 172.95 159.888 172.652 159.972C172.353 160.056 172.045 160.098 171.728 160.098ZM167.92 153.98V152.58H172.904V153.98H167.92ZM177.157 160.098C176.532 160.098 175.93 160.019 175.351 159.86C174.782 159.692 174.329 159.491 173.993 159.258L174.665 157.928C175.001 158.143 175.403 158.32 175.869 158.46C176.336 158.6 176.803 158.67 177.269 158.67C177.82 158.67 178.217 158.595 178.459 158.446C178.711 158.297 178.837 158.096 178.837 157.844C178.837 157.639 178.753 157.485 178.585 157.382C178.417 157.27 178.198 157.186 177.927 157.13C177.657 157.074 177.353 157.023 177.017 156.976C176.691 156.929 176.359 156.869 176.023 156.794C175.697 156.71 175.398 156.593 175.127 156.444C174.857 156.285 174.637 156.075 174.469 155.814C174.301 155.553 174.217 155.207 174.217 154.778C174.217 154.302 174.353 153.891 174.623 153.546C174.894 153.191 175.272 152.921 175.757 152.734C176.252 152.538 176.835 152.44 177.507 152.44C178.011 152.44 178.52 152.496 179.033 152.608C179.547 152.72 179.971 152.879 180.307 153.084L179.635 154.414C179.281 154.199 178.921 154.055 178.557 153.98C178.203 153.896 177.848 153.854 177.493 153.854C176.961 153.854 176.565 153.933 176.303 154.092C176.051 154.251 175.925 154.451 175.925 154.694C175.925 154.918 176.009 155.086 176.177 155.198C176.345 155.31 176.565 155.399 176.835 155.464C177.106 155.529 177.405 155.585 177.731 155.632C178.067 155.669 178.399 155.73 178.725 155.814C179.052 155.898 179.351 156.015 179.621 156.164C179.901 156.304 180.125 156.505 180.293 156.766C180.461 157.027 180.545 157.368 180.545 157.788C180.545 158.255 180.405 158.661 180.125 159.006C179.855 159.351 179.467 159.622 178.963 159.818C178.459 160.005 177.857 160.098 177.157 160.098Z" fill="black"/>
</g>
<defs>
<filter id="filter0_d_1802_3089" x="0" y="0" width="243" height="243" filterUnits="userSpaceOnUse" color-interpolation-filters="sRGB">
<feFlood flood-opacity="0" result="BackgroundImageFix"/>
<feColorMatrix in="SourceAlpha" type="matrix" values="0 0 0 0 0 0 0 0 0 0 0 0 0 0 0 0 0 0 127 0" result="hardAlpha"/>
<feOffset dy="4"/>
<feGaussianBlur stdDeviation="2"/>
<feComposite in2="hardAlpha" operator="out"/>
<feColorMatrix type="matrix" values="0 0 0 0 0 0 0 0 0 0 0 0 0 0 0 0 0 0 0.25 0"/>
<feBlend mode="normal" in2="BackgroundImageFix" result="effect1_dropShadow_1802_3089"/>
<feBlend mode="normal" in="SourceGraphic" in2="effect1_dropShadow_1802_3089" result="shape"/>
</filter>
</defs>
</svg>
