<svg width="243" height="243" viewBox="0 0 243 243" fill="none" xmlns="http://www.w3.org/2000/svg">
<g filter="url(#filter0_d_1802_3026)">
<rect x="4" width="235" height="235" rx="15" fill="#BAEBDA"/>
<path d="M68.032 136.24C66.752 136.24 65.56 136.032 64.456 135.616C63.368 135.184 62.416 134.584 61.6 133.816C60.8 133.032 60.176 132.112 59.728 131.056C59.28 130 59.056 128.848 59.056 127.6C59.056 126.352 59.28 125.2 59.728 124.144C60.176 123.088 60.808 122.176 61.624 121.408C62.44 120.624 63.392 120.024 64.48 119.608C65.568 119.176 66.76 118.96 68.056 118.96C69.432 118.96 70.688 119.2 71.824 119.68C72.96 120.144 73.92 120.84 74.704 121.768L72.688 123.664C72.08 123.008 71.4 122.52 70.648 122.2C69.896 121.864 69.08 121.696 68.2 121.696C67.32 121.696 66.512 121.84 65.776 122.128C65.056 122.416 64.424 122.824 63.88 123.352C63.352 123.88 62.936 124.504 62.632 125.224C62.344 125.944 62.2 126.736 62.2 127.6C62.2 128.464 62.344 129.256 62.632 129.976C62.936 130.696 63.352 131.32 63.88 131.848C64.424 132.376 65.056 132.784 65.776 133.072C66.512 133.36 67.32 133.504 68.2 133.504C69.08 133.504 69.896 133.344 70.648 133.024C71.4 132.688 72.08 132.184 72.688 131.512L74.704 133.432C73.92 134.344 72.96 135.04 71.824 135.52C70.688 136 69.424 136.24 68.032 136.24ZM84.6775 123.04C85.7015 123.04 86.6135 123.24 87.4135 123.64C88.2295 124.04 88.8695 124.656 89.3335 125.488C89.7975 126.304 90.0295 127.36 90.0295 128.656V136H87.0295V129.04C87.0295 127.904 86.7575 127.056 86.2135 126.496C85.6855 125.936 84.9415 125.656 83.9815 125.656C83.2775 125.656 82.6535 125.8 82.1095 126.088C81.5655 126.376 81.1415 126.808 80.8375 127.384C80.5495 127.944 80.4055 128.656 80.4055 129.52V136H77.4055V118.192H80.4055V126.64L79.7575 125.584C80.2055 124.768 80.8535 124.144 81.7015 123.712C82.5655 123.264 83.5575 123.04 84.6775 123.04ZM93.8352 136V123.184H96.8352V136H93.8352ZM95.3472 121.072C94.7872 121.072 94.3232 120.896 93.9552 120.544C93.6032 120.192 93.4272 119.768 93.4272 119.272C93.4272 118.76 93.6032 118.336 93.9552 118C94.3232 117.648 94.7872 117.472 95.3472 117.472C95.9072 117.472 96.3632 117.64 96.7152 117.976C97.0832 118.296 97.2672 118.704 97.2672 119.2C97.2672 119.728 97.0912 120.176 96.7392 120.544C96.3872 120.896 95.9232 121.072 95.3472 121.072ZM100.773 136V118.192H103.773V136H100.773ZM113.134 136.168C111.902 136.168 110.79 135.896 109.798 135.352C108.822 134.792 108.054 134.024 107.494 133.048C106.934 132.072 106.654 130.92 106.654 129.592C106.654 128.264 106.934 127.112 107.494 126.136C108.054 125.16 108.822 124.4 109.798 123.856C110.79 123.312 111.902 123.04 113.134 123.04C114.206 123.04 115.166 123.28 116.014 123.76C116.862 124.224 117.534 124.936 118.03 125.896C118.526 126.856 118.774 128.088 118.774 129.592C118.774 131.08 118.534 132.312 118.054 133.288C117.574 134.248 116.91 134.968 116.062 135.448C115.214 135.928 114.238 136.168 113.134 136.168ZM113.494 133.6C114.214 133.6 114.854 133.44 115.414 133.12C115.99 132.8 116.446 132.336 116.782 131.728C117.134 131.12 117.31 130.408 117.31 129.592C117.31 128.76 117.134 128.048 116.782 127.456C116.446 126.848 115.99 126.384 115.414 126.064C114.854 125.744 114.214 125.584 113.494 125.584C112.774 125.584 112.126 125.744 111.55 126.064C110.99 126.384 110.534 126.848 110.182 127.456C109.846 128.048 109.678 128.76 109.678 129.592C109.678 130.408 109.846 131.12 110.182 131.728C110.534 132.336 110.99 132.8 111.55 133.12C112.126 133.44 112.774 133.6 113.494 133.6ZM117.382 136V132.976L117.502 129.568L117.262 126.16V118.192H120.238V136H117.382ZM136.316 136.24C135.004 136.24 133.748 136.056 132.548 135.688C131.348 135.304 130.396 134.816 129.692 134.224L130.772 131.8C131.444 132.328 132.276 132.768 133.268 133.12C134.26 133.472 135.276 133.648 136.316 133.648C137.196 133.648 137.908 133.552 138.452 133.36C138.996 133.168 139.396 132.912 139.652 132.592C139.908 132.256 140.036 131.88 140.036 131.464C140.036 130.952 139.852 130.544 139.484 130.24C139.116 129.92 138.636 129.672 138.044 129.496C137.468 129.304 136.82 129.128 136.1 128.968C135.396 128.808 134.684 128.624 133.964 128.416C133.26 128.192 132.612 127.912 132.02 127.576C131.444 127.224 130.972 126.76 130.604 126.184C130.236 125.608 130.052 124.872 130.052 123.976C130.052 123.064 130.292 122.232 130.772 121.48C131.268 120.712 132.012 120.104 133.004 119.656C134.012 119.192 135.284 118.96 136.82 118.96C137.828 118.96 138.828 119.088 139.82 119.344C140.812 119.6 141.676 119.968 142.412 120.448L141.428 122.872C140.676 122.424 139.9 122.096 139.1 121.888C138.3 121.664 137.532 121.552 136.796 121.552C135.932 121.552 135.228 121.656 134.684 121.864C134.156 122.072 133.764 122.344 133.508 122.68C133.268 123.016 133.148 123.4 133.148 123.832C133.148 124.344 133.324 124.76 133.676 125.08C134.044 125.384 134.516 125.624 135.092 125.8C135.684 125.976 136.34 126.152 137.06 126.328C137.78 126.488 138.492 126.672 139.196 126.88C139.916 127.088 140.564 127.36 141.14 127.696C141.732 128.032 142.204 128.488 142.556 129.064C142.924 129.64 143.108 130.368 143.108 131.248C143.108 132.144 142.86 132.976 142.364 133.744C141.884 134.496 141.14 135.104 140.132 135.568C139.124 136.016 137.852 136.24 136.316 136.24ZM151.937 136.168C150.513 136.168 149.265 135.888 148.193 135.328C147.137 134.752 146.313 133.968 145.721 132.976C145.145 131.984 144.857 130.856 144.857 129.592C144.857 128.312 145.137 127.184 145.697 126.208C146.273 125.216 147.057 124.44 148.049 123.88C149.057 123.32 150.201 123.04 151.481 123.04C152.729 123.04 153.841 123.312 154.817 123.856C155.793 124.4 156.561 125.168 157.121 126.16C157.681 127.152 157.961 128.32 157.961 129.664C157.961 129.792 157.953 129.936 157.937 130.096C157.937 130.256 157.929 130.408 157.913 130.552H147.233V128.56H156.329L155.153 129.184C155.169 128.448 155.017 127.8 154.697 127.24C154.377 126.68 153.937 126.24 153.377 125.92C152.833 125.6 152.201 125.44 151.481 125.44C150.745 125.44 150.097 125.6 149.537 125.92C148.993 126.24 148.561 126.688 148.241 127.264C147.937 127.824 147.785 128.488 147.785 129.256V129.736C147.785 130.504 147.961 131.184 148.313 131.776C148.665 132.368 149.161 132.824 149.801 133.144C150.441 133.464 151.177 133.624 152.009 133.624C152.729 133.624 153.377 133.512 153.953 133.288C154.529 133.064 155.041 132.712 155.489 132.232L157.097 134.08C156.521 134.752 155.793 135.272 154.913 135.64C154.049 135.992 153.057 136.168 151.937 136.168ZM168.387 136V133.408L168.219 132.856V128.32C168.219 127.44 167.955 126.76 167.427 126.28C166.899 125.784 166.099 125.536 165.027 125.536C164.307 125.536 163.595 125.648 162.891 125.872C162.203 126.096 161.619 126.408 161.139 126.808L159.963 124.624C160.651 124.096 161.467 123.704 162.411 123.448C163.371 123.176 164.363 123.04 165.387 123.04C167.243 123.04 168.675 123.488 169.683 124.384C170.707 125.264 171.219 126.632 171.219 128.488V136H168.387ZM164.355 136.168C163.395 136.168 162.555 136.008 161.835 135.688C161.115 135.352 160.555 134.896 160.155 134.32C159.771 133.728 159.579 133.064 159.579 132.328C159.579 131.608 159.747 130.96 160.083 130.384C160.435 129.808 161.003 129.352 161.787 129.016C162.571 128.68 163.611 128.512 164.907 128.512H168.627V130.504H165.123C164.099 130.504 163.411 130.672 163.059 131.008C162.707 131.328 162.531 131.728 162.531 132.208C162.531 132.752 162.747 133.184 163.179 133.504C163.611 133.824 164.211 133.984 164.979 133.984C165.715 133.984 166.371 133.816 166.947 133.48C167.539 133.144 167.963 132.648 168.219 131.992L168.723 133.792C168.435 134.544 167.915 135.128 167.163 135.544C166.427 135.96 165.491 136.168 164.355 136.168ZM179.894 136.168C178.486 136.168 177.398 135.808 176.63 135.088C175.862 134.352 175.478 133.272 175.478 131.848V120.352H178.478V131.776C178.478 132.384 178.63 132.856 178.934 133.192C179.254 133.528 179.694 133.696 180.254 133.696C180.926 133.696 181.486 133.52 181.934 133.168L182.774 135.304C182.422 135.592 181.99 135.808 181.478 135.952C180.966 136.096 180.438 136.168 179.894 136.168ZM173.366 125.68V123.28H181.91V125.68H173.366Z" fill="black"/>
<mask id="mask0_1802_3026" style="mask-type:alpha" maskUnits="userSpaceOnUse" x="102" y="63" width="40" height="40">
<rect x="102" y="63" width="40" height="40" fill="#D9D9D9"/>
</mask>
<g mask="url(#mask0_1802_3026)">
<path d="M121.875 99.6654C120.709 99.6654 119.577 99.5404 118.479 99.2904C117.382 99.0404 116.389 98.7209 115.5 98.332C114.223 97.7765 113.181 97.1029 112.375 96.3112C111.57 95.5195 111.167 94.6376 111.167 93.6654V84.0404C111.167 83.1793 111.493 82.3876 112.146 81.6654C112.799 80.9431 113.639 80.3043 114.667 79.7487C115.723 79.1931 116.882 78.7626 118.146 78.457C119.41 78.1515 120.695 77.9987 122 77.9987C123.306 77.9987 124.591 78.1515 125.854 78.457C127.118 78.7626 128.278 79.1931 129.334 79.7487C130.389 80.3043 131.236 80.9431 131.875 81.6654C132.514 82.3876 132.834 83.1793 132.834 84.0404V93.6654C132.834 94.1376 132.729 94.5959 132.521 95.0404C132.313 95.4848 132.014 95.9015 131.625 96.2904C131.236 96.6793 130.785 97.0473 130.271 97.3945C129.757 97.7418 129.181 98.0543 128.542 98.332C128.57 98.1931 128.611 97.8043 128.667 97.1654C128.667 95.5543 128.098 94.1793 126.959 93.0404C125.82 91.9015 124.445 91.332 122.834 91.332C121.639 91.332 120.584 91.6515 119.667 92.2904C118.75 92.9293 118.056 93.7487 117.584 94.7487C118.473 94.9709 119.285 95.1237 120.021 95.207C120.757 95.2904 121.403 95.332 121.959 95.332C122.431 95.332 122.813 95.3181 123.104 95.2904C123.396 95.2626 123.584 95.2487 123.667 95.2487V99.582C123.361 99.6098 123.063 99.6306 122.771 99.6445C122.479 99.6584 122.181 99.6654 121.875 99.6654ZM127 90.4987C127.917 90.4987 128.702 90.1723 129.354 89.5195C130.007 88.8668 130.334 88.082 130.334 87.1654C130.334 86.2487 130.007 85.464 129.354 84.8112C128.702 84.1584 127.917 83.832 127 83.832C126.084 83.832 125.299 84.1584 124.646 84.8112C123.993 85.464 123.667 86.2487 123.667 87.1654C123.667 88.082 123.993 88.8668 124.646 89.5195C125.299 90.1723 126.084 90.4987 127 90.4987ZM122 76.332C123.389 76.332 124.57 75.8529 125.542 74.8945C126.514 73.9362 127 72.7487 127 71.332C127 69.9431 126.514 68.7626 125.542 67.7904C124.57 66.8181 123.389 66.332 122 66.332C120.584 66.332 119.396 66.8181 118.438 67.7904C117.479 68.7626 117 69.9431 117 71.332C117 72.7487 117.479 73.9362 118.438 74.8945C119.396 75.8529 120.584 76.332 122 76.332Z" fill="#1C1B1F"/>
</g>
<path opacity="0.7" d="M57.578 160.098C56.794 160.098 56.094 159.935 55.478 159.608C54.8713 159.272 54.3953 158.815 54.05 158.236C53.7047 157.657 53.532 156.999 53.532 156.262C53.532 155.515 53.7047 154.857 54.05 154.288C54.3953 153.709 54.8713 153.257 55.478 152.93C56.094 152.603 56.794 152.44 57.578 152.44C58.306 152.44 58.9453 152.589 59.496 152.888C60.056 153.177 60.4807 153.607 60.77 154.176L59.426 154.96C59.202 154.605 58.9267 154.344 58.6 154.176C58.2827 154.008 57.9373 153.924 57.564 153.924C57.1347 153.924 56.7473 154.017 56.402 154.204C56.0567 154.391 55.786 154.661 55.59 155.016C55.394 155.361 55.296 155.777 55.296 156.262C55.296 156.747 55.394 157.167 55.59 157.522C55.786 157.867 56.0567 158.133 56.402 158.32C56.7473 158.507 57.1347 158.6 57.564 158.6C57.9373 158.6 58.2827 158.516 58.6 158.348C58.9267 158.18 59.202 157.919 59.426 157.564L60.77 158.348C60.4807 158.908 60.056 159.342 59.496 159.65C58.9453 159.949 58.306 160.098 57.578 160.098ZM66.4564 152.44C67.0537 152.44 67.5857 152.557 68.0524 152.79C68.5284 153.023 68.9017 153.383 69.1724 153.868C69.4431 154.344 69.5784 154.96 69.5784 155.716V160H67.8284V155.94C67.8284 155.277 67.6697 154.783 67.3524 154.456C67.0444 154.129 66.6104 153.966 66.0504 153.966C65.6397 153.966 65.2757 154.05 64.9584 154.218C64.6411 154.386 64.3937 154.638 64.2164 154.974C64.0484 155.301 63.9644 155.716 63.9644 156.22V160H62.2144V149.612H63.9644V154.54L63.5864 153.924C63.8477 153.448 64.2257 153.084 64.7204 152.832C65.2244 152.571 65.8031 152.44 66.4564 152.44ZM71.7984 160V152.524H73.5484V160H71.7984ZM72.6804 151.292C72.3537 151.292 72.0831 151.189 71.8684 150.984C71.6631 150.779 71.5604 150.531 71.5604 150.242C71.5604 149.943 71.6631 149.696 71.8684 149.5C72.0831 149.295 72.3537 149.192 72.6804 149.192C73.0071 149.192 73.2731 149.29 73.4784 149.486C73.6931 149.673 73.8004 149.911 73.8004 150.2C73.8004 150.508 73.6977 150.769 73.4924 150.984C73.2871 151.189 73.0164 151.292 72.6804 151.292ZM75.8453 160V149.612H77.5953V160H75.8453ZM83.0561 160.098C82.3375 160.098 81.6888 159.939 81.1101 159.622C80.5408 159.295 80.0928 158.847 79.7661 158.278C79.4395 157.709 79.2761 157.037 79.2761 156.262C79.2761 155.487 79.4395 154.815 79.7661 154.246C80.0928 153.677 80.5408 153.233 81.1101 152.916C81.6888 152.599 82.3375 152.44 83.0561 152.44C83.6815 152.44 84.2415 152.58 84.7361 152.86C85.2308 153.131 85.6228 153.546 85.9121 154.106C86.2015 154.666 86.3461 155.385 86.3461 156.262C86.3461 157.13 86.2061 157.849 85.9261 158.418C85.6461 158.978 85.2588 159.398 84.7641 159.678C84.2695 159.958 83.7001 160.098 83.0561 160.098ZM83.2661 158.6C83.6861 158.6 84.0595 158.507 84.3861 158.32C84.7221 158.133 84.9881 157.863 85.1841 157.508C85.3895 157.153 85.4921 156.738 85.4921 156.262C85.4921 155.777 85.3895 155.361 85.1841 155.016C84.9881 154.661 84.7221 154.391 84.3861 154.204C84.0595 154.017 83.6861 153.924 83.2661 153.924C82.8461 153.924 82.4681 154.017 82.1321 154.204C81.8055 154.391 81.5395 154.661 81.3341 155.016C81.1381 155.361 81.0401 155.777 81.0401 156.262C81.0401 156.738 81.1381 157.153 81.3341 157.508C81.5395 157.863 81.8055 158.133 82.1321 158.32C82.4681 158.507 82.8461 158.6 83.2661 158.6ZM85.5341 160V158.236L85.6041 156.248L85.4641 154.26V149.612H87.2001V160H85.5341ZM95.6826 160.098C95.0573 160.098 94.4553 160.019 93.8766 159.86C93.3073 159.692 92.8546 159.491 92.5186 159.258L93.1906 157.928C93.5266 158.143 93.9279 158.32 94.3946 158.46C94.8613 158.6 95.3279 158.67 95.7946 158.67C96.3453 158.67 96.7419 158.595 96.9846 158.446C97.2366 158.297 97.3626 158.096 97.3626 157.844C97.3626 157.639 97.2786 157.485 97.1106 157.382C96.9426 157.27 96.7233 157.186 96.4526 157.13C96.1819 157.074 95.8786 157.023 95.5426 156.976C95.2159 156.929 94.8846 156.869 94.5486 156.794C94.2219 156.71 93.9233 156.593 93.6526 156.444C93.3819 156.285 93.1626 156.075 92.9946 155.814C92.8266 155.553 92.7426 155.207 92.7426 154.778C92.7426 154.302 92.8779 153.891 93.1486 153.546C93.4193 153.191 93.7973 152.921 94.2826 152.734C94.7773 152.538 95.3606 152.44 96.0326 152.44C96.5366 152.44 97.0453 152.496 97.5586 152.608C98.0719 152.72 98.4966 152.879 98.8326 153.084L98.1606 154.414C97.8059 154.199 97.4466 154.055 97.0826 153.98C96.7279 153.896 96.3733 153.854 96.0186 153.854C95.4866 153.854 95.0899 153.933 94.8286 154.092C94.5766 154.251 94.4506 154.451 94.4506 154.694C94.4506 154.918 94.5346 155.086 94.7026 155.198C94.8706 155.31 95.0899 155.399 95.3606 155.464C95.6313 155.529 95.9299 155.585 96.2566 155.632C96.5926 155.669 96.9239 155.73 97.2506 155.814C97.5773 155.898 97.8759 156.015 98.1466 156.164C98.4266 156.304 98.6506 156.505 98.8186 156.766C98.9866 157.027 99.0706 157.368 99.0706 157.788C99.0706 158.255 98.9306 158.661 98.6506 159.006C98.3799 159.351 97.9926 159.622 97.4886 159.818C96.9846 160.005 96.3826 160.098 95.6826 160.098ZM104.092 160.098C103.261 160.098 102.533 159.935 101.908 159.608C101.292 159.272 100.811 158.815 100.466 158.236C100.13 157.657 99.9617 156.999 99.9617 156.262C99.9617 155.515 100.125 154.857 100.452 154.288C100.788 153.709 101.245 153.257 101.824 152.93C102.412 152.603 103.079 152.44 103.826 152.44C104.554 152.44 105.202 152.599 105.772 152.916C106.341 153.233 106.789 153.681 107.116 154.26C107.442 154.839 107.606 155.52 107.606 156.304C107.606 156.379 107.601 156.463 107.592 156.556C107.592 156.649 107.587 156.738 107.578 156.822H101.348V155.66H106.654L105.968 156.024C105.977 155.595 105.888 155.217 105.702 154.89C105.515 154.563 105.258 154.307 104.932 154.12C104.614 153.933 104.246 153.84 103.826 153.84C103.396 153.84 103.018 153.933 102.692 154.12C102.374 154.307 102.122 154.568 101.936 154.904C101.758 155.231 101.67 155.618 101.67 156.066V156.346C101.67 156.794 101.772 157.191 101.978 157.536C102.183 157.881 102.472 158.147 102.846 158.334C103.219 158.521 103.648 158.614 104.134 158.614C104.554 158.614 104.932 158.549 105.268 158.418C105.604 158.287 105.902 158.082 106.164 157.802L107.102 158.88C106.766 159.272 106.341 159.575 105.828 159.79C105.324 159.995 104.745 160.098 104.092 160.098ZM113.688 160V158.488L113.59 158.166V155.52C113.59 155.007 113.436 154.61 113.128 154.33C112.82 154.041 112.353 153.896 111.728 153.896C111.308 153.896 110.892 153.961 110.482 154.092C110.08 154.223 109.74 154.405 109.46 154.638L108.774 153.364C109.175 153.056 109.651 152.827 110.202 152.678C110.762 152.519 111.34 152.44 111.938 152.44C113.02 152.44 113.856 152.701 114.444 153.224C115.041 153.737 115.34 154.535 115.34 155.618V160H113.688ZM111.336 160.098C110.776 160.098 110.286 160.005 109.866 159.818C109.446 159.622 109.119 159.356 108.886 159.02C108.662 158.675 108.55 158.287 108.55 157.858C108.55 157.438 108.648 157.06 108.844 156.724C109.049 156.388 109.38 156.122 109.838 155.926C110.295 155.73 110.902 155.632 111.658 155.632H113.828V156.794H111.784C111.186 156.794 110.785 156.892 110.58 157.088C110.374 157.275 110.272 157.508 110.272 157.788C110.272 158.105 110.398 158.357 110.65 158.544C110.902 158.731 111.252 158.824 111.7 158.824C112.129 158.824 112.512 158.726 112.848 158.53C113.193 158.334 113.44 158.045 113.59 157.662L113.884 158.712C113.716 159.151 113.412 159.491 112.974 159.734C112.544 159.977 111.998 160.098 111.336 160.098ZM120.4 160.098C119.578 160.098 118.944 159.888 118.495 159.468C118.048 159.039 117.824 158.409 117.824 157.578V150.872H119.574V157.536C119.574 157.891 119.662 158.166 119.84 158.362C120.026 158.558 120.283 158.656 120.61 158.656C121.002 158.656 121.328 158.553 121.59 158.348L122.08 159.594C121.874 159.762 121.622 159.888 121.324 159.972C121.025 160.056 120.717 160.098 120.4 160.098ZM116.592 153.98V152.58H121.576V153.98H116.592ZM131.994 160V158.488L131.896 158.166V155.52C131.896 155.007 131.742 154.61 131.434 154.33C131.126 154.041 130.66 153.896 130.034 153.896C129.614 153.896 129.199 153.961 128.788 154.092C128.387 154.223 128.046 154.405 127.766 154.638L127.08 153.364C127.482 153.056 127.958 152.827 128.508 152.678C129.068 152.519 129.647 152.44 130.244 152.44C131.327 152.44 132.162 152.701 132.75 153.224C133.348 153.737 133.646 154.535 133.646 155.618V160H131.994ZM129.642 160.098C129.082 160.098 128.592 160.005 128.172 159.818C127.752 159.622 127.426 159.356 127.192 159.02C126.968 158.675 126.856 158.287 126.856 157.858C126.856 157.438 126.954 157.06 127.15 156.724C127.356 156.388 127.687 156.122 128.144 155.926C128.602 155.73 129.208 155.632 129.964 155.632H132.134V156.794H130.09C129.493 156.794 129.092 156.892 128.886 157.088C128.681 157.275 128.578 157.508 128.578 157.788C128.578 158.105 128.704 158.357 128.956 158.544C129.208 158.731 129.558 158.824 130.006 158.824C130.436 158.824 130.818 158.726 131.154 158.53C131.5 158.334 131.747 158.045 131.896 157.662L132.19 158.712C132.022 159.151 131.719 159.491 131.28 159.734C130.851 159.977 130.305 160.098 129.642 160.098ZM137.743 160L134.537 152.524H136.357L139.115 159.118H138.219L141.075 152.524H142.755L139.549 160H137.743ZM148.223 160V158.488L148.125 158.166V155.52C148.125 155.007 147.971 154.61 147.663 154.33C147.355 154.041 146.888 153.896 146.263 153.896C145.843 153.896 145.427 153.961 145.017 154.092C144.615 154.223 144.275 154.405 143.995 154.638L143.309 153.364C143.71 153.056 144.186 152.827 144.737 152.678C145.297 152.519 145.875 152.44 146.473 152.44C147.555 152.44 148.391 152.701 148.979 153.224C149.576 153.737 149.875 154.535 149.875 155.618V160H148.223ZM145.871 160.098C145.311 160.098 144.821 160.005 144.401 159.818C143.981 159.622 143.654 159.356 143.421 159.02C143.197 158.675 143.085 158.287 143.085 157.858C143.085 157.438 143.183 157.06 143.379 156.724C143.584 156.388 143.915 156.122 144.373 155.926C144.83 155.73 145.437 155.632 146.193 155.632H148.363V156.794H146.319C145.721 156.794 145.32 156.892 145.115 157.088C144.909 157.275 144.807 157.508 144.807 157.788C144.807 158.105 144.933 158.357 145.185 158.544C145.437 158.731 145.787 158.824 146.235 158.824C146.664 158.824 147.047 158.726 147.383 158.53C147.728 158.334 147.975 158.045 148.125 157.662L148.419 158.712C148.251 159.151 147.947 159.491 147.509 159.734C147.079 159.977 146.533 160.098 145.871 160.098ZM152.121 160V152.524H153.871V160H152.121ZM153.003 151.292C152.676 151.292 152.405 151.189 152.191 150.984C151.985 150.779 151.883 150.531 151.883 150.242C151.883 149.943 151.985 149.696 152.191 149.5C152.405 149.295 152.676 149.192 153.003 149.192C153.329 149.192 153.595 149.29 153.801 149.486C154.015 149.673 154.123 149.911 154.123 150.2C154.123 150.508 154.02 150.769 153.815 150.984C153.609 151.189 153.339 151.292 153.003 151.292ZM156.168 160V149.612H157.918V160H156.168ZM164.82 160V158.488L164.722 158.166V155.52C164.722 155.007 164.568 154.61 164.26 154.33C163.952 154.041 163.486 153.896 162.86 153.896C162.44 153.896 162.025 153.961 161.614 154.092C161.213 154.223 160.872 154.405 160.592 154.638L159.906 153.364C160.308 153.056 160.784 152.827 161.334 152.678C161.894 152.519 162.473 152.44 163.07 152.44C164.153 152.44 164.988 152.701 165.576 153.224C166.174 153.737 166.472 154.535 166.472 155.618V160H164.82ZM162.468 160.098C161.908 160.098 161.418 160.005 160.998 159.818C160.578 159.622 160.252 159.356 160.018 159.02C159.794 158.675 159.682 158.287 159.682 157.858C159.682 157.438 159.78 157.06 159.976 156.724C160.182 156.388 160.513 156.122 160.97 155.926C161.428 155.73 162.034 155.632 162.79 155.632H164.96V156.794H162.916C162.319 156.794 161.918 156.892 161.712 157.088C161.507 157.275 161.404 157.508 161.404 157.788C161.404 158.105 161.53 158.357 161.782 158.544C162.034 158.731 162.384 158.824 162.832 158.824C163.262 158.824 163.644 158.726 163.98 158.53C164.326 158.334 164.573 158.045 164.722 157.662L165.016 158.712C164.848 159.151 164.545 159.491 164.106 159.734C163.677 159.977 163.131 160.098 162.468 160.098ZM172.862 160.098C172.228 160.098 171.663 159.958 171.168 159.678C170.674 159.398 170.282 158.978 169.992 158.418C169.712 157.849 169.572 157.13 169.572 156.262C169.572 155.385 169.717 154.666 170.006 154.106C170.305 153.546 170.702 153.131 171.196 152.86C171.7 152.58 172.256 152.44 172.862 152.44C173.6 152.44 174.248 152.599 174.808 152.916C175.378 153.233 175.826 153.677 176.152 154.246C176.488 154.815 176.656 155.487 176.656 156.262C176.656 157.037 176.488 157.709 176.152 158.278C175.826 158.847 175.378 159.295 174.808 159.622C174.248 159.939 173.6 160.098 172.862 160.098ZM168.718 160V149.612H170.468V154.26L170.328 156.248L170.384 158.236V160H168.718ZM172.666 158.6C173.086 158.6 173.46 158.507 173.786 158.32C174.122 158.133 174.388 157.863 174.584 157.508C174.78 157.153 174.878 156.738 174.878 156.262C174.878 155.777 174.78 155.361 174.584 155.016C174.388 154.661 174.122 154.391 173.786 154.204C173.46 154.017 173.086 153.924 172.666 153.924C172.246 153.924 171.868 154.017 171.532 154.204C171.196 154.391 170.93 154.661 170.734 155.016C170.538 155.361 170.44 155.777 170.44 156.262C170.44 156.738 170.538 157.153 170.734 157.508C170.93 157.863 171.196 158.133 171.532 158.32C171.868 158.507 172.246 158.6 172.666 158.6ZM178.316 160V149.612H180.066V160H178.316ZM185.877 160.098C185.046 160.098 184.318 159.935 183.693 159.608C183.077 159.272 182.596 158.815 182.251 158.236C181.915 157.657 181.747 156.999 181.747 156.262C181.747 155.515 181.91 154.857 182.237 154.288C182.573 153.709 183.03 153.257 183.609 152.93C184.197 152.603 184.864 152.44 185.611 152.44C186.339 152.44 186.988 152.599 187.557 152.916C188.126 153.233 188.574 153.681 188.901 154.26C189.228 154.839 189.391 155.52 189.391 156.304C189.391 156.379 189.386 156.463 189.377 156.556C189.377 156.649 189.372 156.738 189.363 156.822H183.133V155.66H188.439L187.753 156.024C187.762 155.595 187.674 155.217 187.487 154.89C187.3 154.563 187.044 154.307 186.717 154.12C186.4 153.933 186.031 153.84 185.611 153.84C185.182 153.84 184.804 153.933 184.477 154.12C184.16 154.307 183.908 154.568 183.721 154.904C183.544 155.231 183.455 155.618 183.455 156.066V156.346C183.455 156.794 183.558 157.191 183.763 157.536C183.968 157.881 184.258 158.147 184.631 158.334C185.004 158.521 185.434 158.614 185.919 158.614C186.339 158.614 186.717 158.549 187.053 158.418C187.389 158.287 187.688 158.082 187.949 157.802L188.887 158.88C188.551 159.272 188.126 159.575 187.613 159.79C187.109 159.995 186.53 160.098 185.877 160.098Z" fill="black"/>
</g>
<defs>
<filter id="filter0_d_1802_3026" x="0" y="0" width="243" height="243" filterUnits="userSpaceOnUse" color-interpolation-filters="sRGB">
<feFlood flood-opacity="0" result="BackgroundImageFix"/>
<feColorMatrix in="SourceAlpha" type="matrix" values="0 0 0 0 0 0 0 0 0 0 0 0 0 0 0 0 0 0 127 0" result="hardAlpha"/>
<feOffset dy="4"/>
<feGaussianBlur stdDeviation="2"/>
<feComposite in2="hardAlpha" operator="out"/>
<feColorMatrix type="matrix" values="0 0 0 0 0 0 0 0 0 0 0 0 0 0 0 0 0 0 0.25 0"/>
<feBlend mode="normal" in2="BackgroundImageFix" result="effect1_dropShadow_1802_3026"/>
<feBlend mode="normal" in="SourceGraphic" in2="effect1_dropShadow_1802_3026" result="shape"/>
</filter>
</defs>
</svg>
