<svg width="243" height="243" viewBox="0 0 243 243" fill="none" xmlns="http://www.w3.org/2000/svg">
<g filter="url(#filter0_d_1802_3131)">
<rect x="4" width="235" height="235" rx="15" fill="#BAEBDA"/>
<path d="M55.316 132.184V130.024L63.596 119.2H66.932L58.772 130.024L57.212 129.544H70.532V132.184H55.316ZM64.532 136V132.184L64.628 129.544V126.16H67.556V136H64.532ZM75.6926 136L70.1246 119.2H73.3646L78.3326 134.392H76.7246L81.8846 119.2H84.7646L89.7806 134.392H88.2206L93.3086 119.2H96.2846L90.7166 136H87.4046L82.8206 122.296H83.6846L79.0286 136H75.6926ZM98.8263 136V119.2H106.17C107.994 119.2 109.594 119.552 110.97 120.256C112.346 120.96 113.418 121.936 114.186 123.184C114.954 124.432 115.338 125.904 115.338 127.6C115.338 129.28 114.954 130.752 114.186 132.016C113.418 133.264 112.346 134.24 110.97 134.944C109.594 135.648 107.994 136 106.17 136H98.8263ZM101.946 133.36H106.026C107.29 133.36 108.378 133.12 109.29 132.64C110.218 132.16 110.93 131.488 111.426 130.624C111.938 129.76 112.194 128.752 112.194 127.6C112.194 126.432 111.938 125.424 111.426 124.576C110.93 123.712 110.218 123.04 109.29 122.56C108.378 122.08 107.29 121.84 106.026 121.84H101.946V133.36ZM115.21 138.4L123.13 115.792H125.818L117.898 138.4H115.21ZM123.755 136L131.315 119.2H134.387L141.971 136H138.707L132.203 120.856H133.451L126.971 136H123.755ZM127.235 132.112L128.075 129.664H137.147L137.987 132.112H127.235ZM147.177 136L141.609 119.2H144.849L149.817 134.392H148.209L153.369 119.2H156.249L161.265 134.392H159.705L164.793 119.2H167.769L162.201 136H158.889L154.305 122.296H155.169L150.513 136H147.177ZM170.311 136V119.2H177.655C179.479 119.2 181.079 119.552 182.455 120.256C183.831 120.96 184.903 121.936 185.671 123.184C186.439 124.432 186.823 125.904 186.823 127.6C186.823 129.28 186.439 130.752 185.671 132.016C184.903 133.264 183.831 134.24 182.455 134.944C181.079 135.648 179.479 136 177.655 136H170.311ZM173.431 133.36H177.511C178.775 133.36 179.863 133.12 180.775 132.64C181.703 132.16 182.415 131.488 182.911 130.624C183.423 129.76 183.679 128.752 183.679 127.6C183.679 126.432 183.423 125.424 182.911 124.576C182.415 123.712 181.703 123.04 180.775 122.56C179.863 122.08 178.775 121.84 177.511 121.84H173.431V133.36Z" fill="black"/>
<mask id="mask0_1802_3131" style="mask-type:alpha" maskUnits="userSpaceOnUse" x="102" y="63" width="40" height="40">
<rect x="102" y="63" width="40" height="40" fill="#D9D9D9"/>
</mask>
<g mask="url(#mask0_1802_3131)">
<path d="M122 99.6673C119.694 99.6673 117.528 99.2298 115.5 98.3548C113.472 97.4798 111.708 96.2923 110.208 94.7923C108.708 93.2923 107.521 91.5284 106.646 89.5007C105.771 87.4729 105.333 85.3062 105.333 83.0007C105.333 80.6951 105.771 78.5284 106.646 76.5007C107.521 74.4729 108.708 72.709 110.208 71.209C111.708 69.709 113.472 68.5215 115.5 67.6465C117.528 66.7715 119.694 66.334 122 66.334C124.305 66.334 126.472 66.7715 128.5 67.6465C130.528 68.5215 132.292 69.709 133.792 71.209C135.292 72.709 136.479 74.4729 137.354 76.5007C138.229 78.5284 138.667 80.6951 138.667 83.0007C138.667 85.3062 138.229 87.4729 137.354 89.5007C136.479 91.5284 135.292 93.2923 133.792 94.7923C132.292 96.2923 130.528 97.4798 128.5 98.3548C126.472 99.2298 124.305 99.6673 122 99.6673ZM120.333 96.1673V91.1673C118.667 90.834 117.25 90.084 116.083 88.9173C114.917 87.7507 114.167 86.334 113.833 84.6673H108.833C109.167 87.6951 110.41 90.2645 112.562 92.3757C114.715 94.4868 117.305 95.7506 120.333 96.1673ZM123.667 96.1673C126.694 95.834 129.285 94.5909 131.437 92.4382C133.59 90.2854 134.833 87.6951 135.167 84.6673H130.167C129.833 86.334 129.083 87.7507 127.917 88.9173C126.75 90.084 125.333 90.834 123.667 91.1673V96.1673ZM108.833 81.334H113.667L118.667 76.334H125.333L130.333 81.334H135.167C134.75 77.9729 133.292 75.1882 130.792 72.9798C128.292 70.7715 125.361 69.6673 122 69.6673C118.639 69.6673 115.708 70.7715 113.208 72.9798C110.708 75.1882 109.25 77.9729 108.833 81.334Z" fill="#1C1B1F"/>
</g>
<path opacity="0.7" d="M63.982 154.708H68.868V156.248H63.982V154.708ZM64.136 160H62.316V150.2H69.47V151.726H64.136V160ZM74.217 160.098C73.4517 160.098 72.7703 159.935 72.173 159.608C71.5757 159.272 71.1043 158.815 70.759 158.236C70.4137 157.657 70.241 156.999 70.241 156.262C70.241 155.515 70.4137 154.857 70.759 154.288C71.1043 153.709 71.5757 153.257 72.173 152.93C72.7703 152.603 73.4517 152.44 74.217 152.44C74.9917 152.44 75.6777 152.603 76.275 152.93C76.8817 153.257 77.353 153.705 77.689 154.274C78.0343 154.843 78.207 155.506 78.207 156.262C78.207 156.999 78.0343 157.657 77.689 158.236C77.353 158.815 76.8817 159.272 76.275 159.608C75.6777 159.935 74.9917 160.098 74.217 160.098ZM74.217 158.6C74.6463 158.6 75.029 158.507 75.365 158.32C75.701 158.133 75.9623 157.863 76.149 157.508C76.345 157.153 76.443 156.738 76.443 156.262C76.443 155.777 76.345 155.361 76.149 155.016C75.9623 154.661 75.701 154.391 75.365 154.204C75.029 154.017 74.651 153.924 74.231 153.924C73.8017 153.924 73.419 154.017 73.083 154.204C72.7563 154.391 72.495 154.661 72.299 155.016C72.103 155.361 72.005 155.777 72.005 156.262C72.005 156.738 72.103 157.153 72.299 157.508C72.495 157.863 72.7563 158.133 73.083 158.32C73.419 158.507 73.797 158.6 74.217 158.6ZM83.0444 160.098C82.4098 160.098 81.8498 159.981 81.3644 159.748C80.8791 159.505 80.5011 159.141 80.2304 158.656C79.9598 158.161 79.8244 157.541 79.8244 156.794V152.524H81.5744V156.556C81.5744 157.228 81.7238 157.732 82.0224 158.068C82.3304 158.395 82.7644 158.558 83.3244 158.558C83.7351 158.558 84.0898 158.474 84.3884 158.306C84.6964 158.138 84.9344 157.886 85.1024 157.55C85.2798 157.214 85.3684 156.799 85.3684 156.304V152.524H87.1184V160H85.4524V157.984L85.7464 158.6C85.4944 159.085 85.1258 159.459 84.6404 159.72C84.1551 159.972 83.6231 160.098 83.0444 160.098ZM89.4097 160V152.524H91.0757V154.582L90.8797 153.98C91.1037 153.476 91.4537 153.093 91.9297 152.832C92.4151 152.571 93.0171 152.44 93.7357 152.44V154.106C93.6611 154.087 93.5911 154.078 93.5257 154.078C93.4604 154.069 93.3951 154.064 93.3297 154.064C92.6671 154.064 92.1397 154.26 91.7477 154.652C91.3557 155.035 91.1597 155.609 91.1597 156.374V160H89.4097ZM100.81 160L98.0658 152.524H99.7178L102.07 159.118H101.286L103.75 152.524H105.22L107.614 159.118H106.844L109.266 152.524H110.82L108.062 160H106.382L104.198 154.162H104.716L102.49 160H100.81ZM116.265 152.44C116.862 152.44 117.394 152.557 117.861 152.79C118.337 153.023 118.71 153.383 118.981 153.868C119.252 154.344 119.387 154.96 119.387 155.716V160H117.637V155.94C117.637 155.277 117.478 154.783 117.161 154.456C116.853 154.129 116.419 153.966 115.859 153.966C115.448 153.966 115.084 154.05 114.767 154.218C114.45 154.386 114.202 154.638 114.025 154.974C113.857 155.301 113.773 155.716 113.773 156.22V160H112.023V149.612H113.773V154.54L113.395 153.924C113.656 153.448 114.034 153.084 114.529 152.832C115.033 152.571 115.612 152.44 116.265 152.44ZM125.135 160.098C124.304 160.098 123.576 159.935 122.951 159.608C122.335 159.272 121.854 158.815 121.509 158.236C121.173 157.657 121.005 156.999 121.005 156.262C121.005 155.515 121.168 154.857 121.495 154.288C121.831 153.709 122.288 153.257 122.867 152.93C123.455 152.603 124.122 152.44 124.869 152.44C125.597 152.44 126.245 152.599 126.815 152.916C127.384 153.233 127.832 153.681 128.159 154.26C128.485 154.839 128.649 155.52 128.649 156.304C128.649 156.379 128.644 156.463 128.635 156.556C128.635 156.649 128.63 156.738 128.621 156.822H122.391V155.66H127.697L127.011 156.024C127.02 155.595 126.931 155.217 126.745 154.89C126.558 154.563 126.301 154.307 125.975 154.12C125.657 153.933 125.289 153.84 124.869 153.84C124.439 153.84 124.061 153.933 123.735 154.12C123.417 154.307 123.165 154.568 122.979 154.904C122.801 155.231 122.713 155.618 122.713 156.066V156.346C122.713 156.794 122.815 157.191 123.021 157.536C123.226 157.881 123.515 158.147 123.889 158.334C124.262 158.521 124.691 158.614 125.177 158.614C125.597 158.614 125.975 158.549 126.311 158.418C126.647 158.287 126.945 158.082 127.207 157.802L128.145 158.88C127.809 159.272 127.384 159.575 126.871 159.79C126.367 159.995 125.788 160.098 125.135 160.098ZM133.844 160.098C133.013 160.098 132.285 159.935 131.66 159.608C131.044 159.272 130.563 158.815 130.218 158.236C129.882 157.657 129.714 156.999 129.714 156.262C129.714 155.515 129.877 154.857 130.204 154.288C130.54 153.709 130.997 153.257 131.576 152.93C132.164 152.603 132.831 152.44 133.578 152.44C134.306 152.44 134.954 152.599 135.524 152.916C136.093 153.233 136.541 153.681 136.868 154.26C137.194 154.839 137.358 155.52 137.358 156.304C137.358 156.379 137.353 156.463 137.344 156.556C137.344 156.649 137.339 156.738 137.33 156.822H131.1V155.66H136.406L135.72 156.024C135.729 155.595 135.64 155.217 135.454 154.89C135.267 154.563 135.01 154.307 134.684 154.12C134.366 153.933 133.998 153.84 133.578 153.84C133.148 153.84 132.77 153.933 132.444 154.12C132.126 154.307 131.874 154.568 131.688 154.904C131.51 155.231 131.422 155.618 131.422 156.066V156.346C131.422 156.794 131.524 157.191 131.73 157.536C131.935 157.881 132.224 158.147 132.598 158.334C132.971 158.521 133.4 158.614 133.886 158.614C134.306 158.614 134.684 158.549 135.02 158.418C135.356 158.287 135.654 158.082 135.916 157.802L136.854 158.88C136.518 159.272 136.093 159.575 135.58 159.79C135.076 159.995 134.497 160.098 133.844 160.098ZM139.039 160V149.612H140.789V160H139.039ZM150.119 160.098C149.4 160.098 148.751 159.939 148.173 159.622C147.603 159.295 147.155 158.847 146.829 158.278C146.502 157.709 146.339 157.037 146.339 156.262C146.339 155.487 146.502 154.815 146.829 154.246C147.155 153.677 147.603 153.233 148.173 152.916C148.751 152.599 149.4 152.44 150.119 152.44C150.744 152.44 151.304 152.58 151.799 152.86C152.293 153.131 152.685 153.546 152.975 154.106C153.264 154.666 153.409 155.385 153.409 156.262C153.409 157.13 153.269 157.849 152.989 158.418C152.709 158.978 152.321 159.398 151.827 159.678C151.332 159.958 150.763 160.098 150.119 160.098ZM150.329 158.6C150.749 158.6 151.122 158.507 151.449 158.32C151.785 158.133 152.051 157.863 152.247 157.508C152.452 157.153 152.555 156.738 152.555 156.262C152.555 155.777 152.452 155.361 152.247 155.016C152.051 154.661 151.785 154.391 151.449 154.204C151.122 154.017 150.749 153.924 150.329 153.924C149.909 153.924 149.531 154.017 149.195 154.204C148.868 154.391 148.602 154.661 148.397 155.016C148.201 155.361 148.103 155.777 148.103 156.262C148.103 156.738 148.201 157.153 148.397 157.508C148.602 157.863 148.868 158.133 149.195 158.32C149.531 158.507 149.909 158.6 150.329 158.6ZM152.597 160V158.236L152.667 156.248L152.527 154.26V149.612H154.263V160H152.597ZM156.566 160V152.524H158.232V154.582L158.036 153.98C158.26 153.476 158.61 153.093 159.086 152.832C159.571 152.571 160.173 152.44 160.892 152.44V154.106C160.817 154.087 160.747 154.078 160.682 154.078C160.617 154.069 160.551 154.064 160.486 154.064C159.823 154.064 159.296 154.26 158.904 154.652C158.512 155.035 158.316 155.609 158.316 156.374V160H156.566ZM162.377 160V152.524H164.127V160H162.377ZM163.259 151.292C162.932 151.292 162.661 151.189 162.447 150.984C162.241 150.779 162.139 150.531 162.139 150.242C162.139 149.943 162.241 149.696 162.447 149.5C162.661 149.295 162.932 149.192 163.259 149.192C163.585 149.192 163.851 149.29 164.057 149.486C164.271 149.673 164.379 149.911 164.379 150.2C164.379 150.508 164.276 150.769 164.071 150.984C163.865 151.189 163.595 151.292 163.259 151.292ZM168.411 160L165.205 152.524H167.025L169.783 159.118H168.887L171.743 152.524H173.423L170.217 160H168.411ZM177.826 160.098C176.995 160.098 176.267 159.935 175.642 159.608C175.026 159.272 174.545 158.815 174.2 158.236C173.864 157.657 173.696 156.999 173.696 156.262C173.696 155.515 173.859 154.857 174.186 154.288C174.522 153.709 174.979 153.257 175.558 152.93C176.146 152.603 176.813 152.44 177.56 152.44C178.288 152.44 178.937 152.599 179.506 152.916C180.075 153.233 180.523 153.681 180.85 154.26C181.177 154.839 181.34 155.52 181.34 156.304C181.34 156.379 181.335 156.463 181.326 156.556C181.326 156.649 181.321 156.738 181.312 156.822H175.082V155.66H180.388L179.702 156.024C179.711 155.595 179.623 155.217 179.436 154.89C179.249 154.563 178.993 154.307 178.666 154.12C178.349 153.933 177.98 153.84 177.56 153.84C177.131 153.84 176.753 153.933 176.426 154.12C176.109 154.307 175.857 154.568 175.67 154.904C175.493 155.231 175.404 155.618 175.404 156.066V156.346C175.404 156.794 175.507 157.191 175.712 157.536C175.917 157.881 176.207 158.147 176.58 158.334C176.953 158.521 177.383 158.614 177.868 158.614C178.288 158.614 178.666 158.549 179.002 158.418C179.338 158.287 179.637 158.082 179.898 157.802L180.836 158.88C180.5 159.272 180.075 159.575 179.562 159.79C179.058 159.995 178.479 160.098 177.826 160.098Z" fill="black"/>
</g>
<defs>
<filter id="filter0_d_1802_3131" x="0" y="0" width="243" height="243" filterUnits="userSpaceOnUse" color-interpolation-filters="sRGB">
<feFlood flood-opacity="0" result="BackgroundImageFix"/>
<feColorMatrix in="SourceAlpha" type="matrix" values="0 0 0 0 0 0 0 0 0 0 0 0 0 0 0 0 0 0 127 0" result="hardAlpha"/>
<feOffset dy="4"/>
<feGaussianBlur stdDeviation="2"/>
<feComposite in2="hardAlpha" operator="out"/>
<feColorMatrix type="matrix" values="0 0 0 0 0 0 0 0 0 0 0 0 0 0 0 0 0 0 0.25 0"/>
<feBlend mode="normal" in2="BackgroundImageFix" result="effect1_dropShadow_1802_3131"/>
<feBlend mode="normal" in="SourceGraphic" in2="effect1_dropShadow_1802_3131" result="shape"/>
</filter>
</defs>
</svg>
