<svg width="243" height="243" viewBox="0 0 243 243" fill="none" xmlns="http://www.w3.org/2000/svg">
<g filter="url(#filter0_d_1802_2975)">
<rect x="4" width="235" height="235" rx="15" fill="#BAEBDA"/>
<path d="M76.816 132.184V130.024L85.096 119.2H88.432L80.272 130.024L78.712 129.544H92.032V132.184H76.816ZM86.032 136V132.184L86.128 129.544V126.16H89.056V136H86.032ZM106.386 136.24C105.074 136.24 103.818 136.056 102.618 135.688C101.418 135.304 100.466 134.816 99.7619 134.224L100.842 131.8C101.514 132.328 102.346 132.768 103.338 133.12C104.33 133.472 105.346 133.648 106.386 133.648C107.266 133.648 107.978 133.552 108.522 133.36C109.066 133.168 109.466 132.912 109.722 132.592C109.978 132.256 110.106 131.88 110.106 131.464C110.106 130.952 109.922 130.544 109.554 130.24C109.186 129.92 108.706 129.672 108.114 129.496C107.538 129.304 106.89 129.128 106.17 128.968C105.466 128.808 104.754 128.624 104.034 128.416C103.33 128.192 102.682 127.912 102.09 127.576C101.514 127.224 101.042 126.76 100.674 126.184C100.306 125.608 100.122 124.872 100.122 123.976C100.122 123.064 100.362 122.232 100.842 121.48C101.338 120.712 102.082 120.104 103.074 119.656C104.082 119.192 105.354 118.96 106.89 118.96C107.898 118.96 108.898 119.088 109.89 119.344C110.882 119.6 111.746 119.968 112.482 120.448L111.498 122.872C110.746 122.424 109.97 122.096 109.17 121.888C108.37 121.664 107.602 121.552 106.866 121.552C106.002 121.552 105.298 121.656 104.754 121.864C104.226 122.072 103.834 122.344 103.578 122.68C103.338 123.016 103.218 123.4 103.218 123.832C103.218 124.344 103.394 124.76 103.746 125.08C104.114 125.384 104.586 125.624 105.162 125.8C105.754 125.976 106.41 126.152 107.13 126.328C107.85 126.488 108.562 126.672 109.266 126.88C109.986 127.088 110.634 127.36 111.21 127.696C111.802 128.032 112.274 128.488 112.626 129.064C112.994 129.64 113.178 130.368 113.178 131.248C113.178 132.144 112.93 132.976 112.434 133.744C111.954 134.496 111.21 135.104 110.202 135.568C109.194 136.016 107.922 136.24 106.386 136.24ZM122.008 136.168C120.584 136.168 119.336 135.888 118.264 135.328C117.208 134.752 116.384 133.968 115.792 132.976C115.216 131.984 114.928 130.856 114.928 129.592C114.928 128.312 115.208 127.184 115.768 126.208C116.344 125.216 117.128 124.44 118.12 123.88C119.128 123.32 120.272 123.04 121.552 123.04C122.8 123.04 123.912 123.312 124.888 123.856C125.864 124.4 126.632 125.168 127.192 126.16C127.752 127.152 128.032 128.32 128.032 129.664C128.032 129.792 128.024 129.936 128.008 130.096C128.008 130.256 128 130.408 127.984 130.552H117.304V128.56H126.4L125.224 129.184C125.24 128.448 125.088 127.8 124.768 127.24C124.448 126.68 124.008 126.24 123.448 125.92C122.904 125.6 122.272 125.44 121.552 125.44C120.816 125.44 120.168 125.6 119.608 125.92C119.064 126.24 118.632 126.688 118.312 127.264C118.008 127.824 117.856 128.488 117.856 129.256V129.736C117.856 130.504 118.032 131.184 118.384 131.776C118.736 132.368 119.232 132.824 119.872 133.144C120.512 133.464 121.248 133.624 122.08 133.624C122.8 133.624 123.448 133.512 124.024 133.288C124.6 133.064 125.112 132.712 125.56 132.232L127.168 134.08C126.592 134.752 125.864 135.272 124.984 135.64C124.12 135.992 123.128 136.168 122.008 136.168ZM138.458 136V133.408L138.29 132.856V128.32C138.29 127.44 138.026 126.76 137.498 126.28C136.97 125.784 136.17 125.536 135.098 125.536C134.378 125.536 133.666 125.648 132.962 125.872C132.274 126.096 131.69 126.408 131.21 126.808L130.034 124.624C130.722 124.096 131.538 123.704 132.482 123.448C133.442 123.176 134.434 123.04 135.458 123.04C137.314 123.04 138.746 123.488 139.754 124.384C140.778 125.264 141.29 126.632 141.29 128.488V136H138.458ZM134.426 136.168C133.466 136.168 132.626 136.008 131.906 135.688C131.186 135.352 130.626 134.896 130.226 134.32C129.842 133.728 129.65 133.064 129.65 132.328C129.65 131.608 129.818 130.96 130.154 130.384C130.506 129.808 131.074 129.352 131.858 129.016C132.642 128.68 133.682 128.512 134.978 128.512H138.698V130.504H135.194C134.17 130.504 133.482 130.672 133.13 131.008C132.778 131.328 132.602 131.728 132.602 132.208C132.602 132.752 132.818 133.184 133.25 133.504C133.682 133.824 134.282 133.984 135.05 133.984C135.786 133.984 136.442 133.816 137.018 133.48C137.61 133.144 138.034 132.648 138.29 131.992L138.794 133.792C138.506 134.544 137.986 135.128 137.234 135.544C136.498 135.96 135.562 136.168 134.426 136.168ZM149.964 136.168C148.556 136.168 147.468 135.808 146.7 135.088C145.932 134.352 145.548 133.272 145.548 131.848V120.352H148.548V131.776C148.548 132.384 148.7 132.856 149.004 133.192C149.324 133.528 149.764 133.696 150.324 133.696C150.996 133.696 151.556 133.52 152.004 133.168L152.844 135.304C152.492 135.592 152.06 135.808 151.548 135.952C151.036 136.096 150.508 136.168 149.964 136.168ZM143.436 125.68V123.28H151.98V125.68H143.436ZM159.272 136.168C158.2 136.168 157.168 136.032 156.176 135.76C155.2 135.472 154.424 135.128 153.848 134.728L155 132.448C155.576 132.816 156.264 133.12 157.064 133.36C157.864 133.6 158.664 133.72 159.464 133.72C160.408 133.72 161.088 133.592 161.504 133.336C161.936 133.08 162.152 132.736 162.152 132.304C162.152 131.952 162.008 131.688 161.72 131.512C161.432 131.32 161.056 131.176 160.592 131.08C160.128 130.984 159.608 130.896 159.032 130.816C158.472 130.736 157.904 130.632 157.328 130.504C156.768 130.36 156.256 130.16 155.792 129.904C155.328 129.632 154.952 129.272 154.664 128.824C154.376 128.376 154.232 127.784 154.232 127.048C154.232 126.232 154.464 125.528 154.928 124.936C155.392 124.328 156.04 123.864 156.872 123.544C157.72 123.208 158.72 123.04 159.872 123.04C160.736 123.04 161.608 123.136 162.488 123.328C163.368 123.52 164.096 123.792 164.672 124.144L163.52 126.424C162.912 126.056 162.296 125.808 161.672 125.68C161.064 125.536 160.456 125.464 159.848 125.464C158.936 125.464 158.256 125.6 157.808 125.872C157.376 126.144 157.16 126.488 157.16 126.904C157.16 127.288 157.304 127.576 157.592 127.768C157.88 127.96 158.256 128.112 158.72 128.224C159.184 128.336 159.696 128.432 160.256 128.512C160.832 128.576 161.4 128.68 161.96 128.824C162.52 128.968 163.032 129.168 163.496 129.424C163.976 129.664 164.36 130.008 164.648 130.456C164.936 130.904 165.08 131.488 165.08 132.208C165.08 133.008 164.84 133.704 164.36 134.296C163.896 134.888 163.232 135.352 162.368 135.688C161.504 136.008 160.472 136.168 159.272 136.168Z" fill="black"/>
<mask id="mask0_1802_2975" style="mask-type:alpha" maskUnits="userSpaceOnUse" x="101" y="63" width="40" height="40">
<rect x="101" y="63" width="40" height="40" fill="#D9D9D9"/>
</mask>
<g mask="url(#mask0_1802_2975)">
<path d="M126 96.334H114.333C113.417 96.334 112.632 96.0076 111.979 95.3548C111.326 94.702 111 93.9173 111 93.0007V74.6673H114.333V93.0007H126V96.334ZM120.167 73.0007C119.25 73.0007 118.465 72.6743 117.812 72.0215C117.16 71.3687 116.833 70.584 116.833 69.6673C116.833 68.7507 117.16 67.9659 117.812 67.3132C118.465 66.6604 119.25 66.334 120.167 66.334C121.083 66.334 121.868 66.6604 122.521 67.3132C123.174 67.9659 123.5 68.7507 123.5 69.6673C123.5 70.584 123.174 71.3687 122.521 72.0215C121.868 72.6743 121.083 73.0007 120.167 73.0007ZM127.667 99.6673V91.334H119.333C118.417 91.334 117.632 91.0076 116.979 90.3548C116.326 89.702 116 88.9173 116 88.0007V78.834C116 77.6673 116.403 76.6812 117.208 75.8757C118.014 75.0701 119 74.6673 120.167 74.6673C121.333 74.6673 122.319 75.0701 123.125 75.8757C123.931 76.6812 124.333 77.6673 124.333 78.834V86.334H127.667C128.583 86.334 129.368 86.6604 130.021 87.3132C130.674 87.9659 131 88.7507 131 89.6673V99.6673H127.667Z" fill="#1C1B1F"/>
</g>
<path opacity="0.7" d="M50.352 160.14C49.6053 160.14 48.91 160.019 48.266 159.776C47.6313 159.524 47.076 159.174 46.6 158.726C46.1333 158.269 45.7693 157.732 45.508 157.116C45.2467 156.5 45.116 155.828 45.116 155.1C45.116 154.372 45.2467 153.7 45.508 153.084C45.7693 152.468 46.138 151.936 46.614 151.488C47.09 151.031 47.6453 150.681 48.28 150.438C48.9147 150.186 49.61 150.06 50.366 150.06C51.1687 150.06 51.9013 150.2 52.564 150.48C53.2267 150.751 53.7867 151.157 54.244 151.698L53.068 152.804C52.7133 152.421 52.3167 152.137 51.878 151.95C51.4393 151.754 50.9633 151.656 50.45 151.656C49.9367 151.656 49.4653 151.74 49.036 151.908C48.616 152.076 48.2473 152.314 47.93 152.622C47.622 152.93 47.3793 153.294 47.202 153.714C47.034 154.134 46.95 154.596 46.95 155.1C46.95 155.604 47.034 156.066 47.202 156.486C47.3793 156.906 47.622 157.27 47.93 157.578C48.2473 157.886 48.616 158.124 49.036 158.292C49.4653 158.46 49.9367 158.544 50.45 158.544C50.9633 158.544 51.4393 158.451 51.878 158.264C52.3167 158.068 52.7133 157.774 53.068 157.382L54.244 158.502C53.7867 159.034 53.2267 159.44 52.564 159.72C51.9013 160 51.164 160.14 50.352 160.14ZM58.8928 160.098C58.1274 160.098 57.4461 159.935 56.8488 159.608C56.2514 159.272 55.7801 158.815 55.4348 158.236C55.0894 157.657 54.9168 156.999 54.9168 156.262C54.9168 155.515 55.0894 154.857 55.4348 154.288C55.7801 153.709 56.2514 153.257 56.8488 152.93C57.4461 152.603 58.1274 152.44 58.8928 152.44C59.6674 152.44 60.3534 152.603 60.9508 152.93C61.5574 153.257 62.0288 153.705 62.3648 154.274C62.7101 154.843 62.8828 155.506 62.8828 156.262C62.8828 156.999 62.7101 157.657 62.3648 158.236C62.0288 158.815 61.5574 159.272 60.9508 159.608C60.3534 159.935 59.6674 160.098 58.8928 160.098ZM58.8928 158.6C59.3221 158.6 59.7048 158.507 60.0408 158.32C60.3768 158.133 60.6381 157.863 60.8248 157.508C61.0208 157.153 61.1188 156.738 61.1188 156.262C61.1188 155.777 61.0208 155.361 60.8248 155.016C60.6381 154.661 60.3768 154.391 60.0408 154.204C59.7048 154.017 59.3268 153.924 58.9068 153.924C58.4774 153.924 58.0948 154.017 57.7588 154.204C57.4321 154.391 57.1708 154.661 56.9748 155.016C56.7788 155.361 56.6808 155.777 56.6808 156.262C56.6808 156.738 56.7788 157.153 56.9748 157.508C57.1708 157.863 57.4321 158.133 57.7588 158.32C58.0948 158.507 58.4728 158.6 58.8928 158.6ZM73.9922 152.44C74.5895 152.44 75.1169 152.557 75.5742 152.79C76.0409 153.023 76.4049 153.383 76.6662 153.868C76.9275 154.344 77.0582 154.96 77.0582 155.716V160H75.3082V155.94C75.3082 155.277 75.1635 154.783 74.8742 154.456C74.5849 154.129 74.1695 153.966 73.6282 153.966C73.2455 153.966 72.9049 154.05 72.6062 154.218C72.3169 154.386 72.0882 154.633 71.9202 154.96C71.7615 155.287 71.6822 155.702 71.6822 156.206V160H69.9322V155.94C69.9322 155.277 69.7875 154.783 69.4982 154.456C69.2089 154.129 68.7935 153.966 68.2522 153.966C67.8695 153.966 67.5289 154.05 67.2302 154.218C66.9409 154.386 66.7122 154.633 66.5442 154.96C66.3855 155.287 66.3062 155.702 66.3062 156.206V160H64.5562V152.524H66.2222V154.512L65.9282 153.924C66.1802 153.439 66.5442 153.07 67.0202 152.818C67.5055 152.566 68.0562 152.44 68.6722 152.44C69.3722 152.44 69.9789 152.613 70.4922 152.958C71.0149 153.303 71.3602 153.826 71.5282 154.526L70.8422 154.288C71.0849 153.728 71.4862 153.28 72.0462 152.944C72.6062 152.608 73.2549 152.44 73.9922 152.44ZM79.5325 160V152.104C79.5325 151.32 79.7612 150.695 80.2185 150.228C80.6852 149.752 81.3478 149.514 82.2065 149.514C82.5145 149.514 82.8038 149.547 83.0745 149.612C83.3545 149.677 83.5878 149.78 83.7745 149.92L83.2985 151.236C83.1678 151.133 83.0185 151.059 82.8505 151.012C82.6825 150.956 82.5098 150.928 82.3325 150.928C81.9685 150.928 81.6932 151.031 81.5065 151.236C81.3198 151.432 81.2265 151.731 81.2265 152.132V152.972L81.2825 153.756V160H79.5325ZM78.3005 153.98V152.58H83.2845V153.98H78.3005ZM87.7131 160.098C86.9477 160.098 86.2664 159.935 85.6691 159.608C85.0717 159.272 84.6004 158.815 84.2551 158.236C83.9097 157.657 83.7371 156.999 83.7371 156.262C83.7371 155.515 83.9097 154.857 84.2551 154.288C84.6004 153.709 85.0717 153.257 85.6691 152.93C86.2664 152.603 86.9477 152.44 87.7131 152.44C88.4877 152.44 89.1737 152.603 89.7711 152.93C90.3777 153.257 90.8491 153.705 91.1851 154.274C91.5304 154.843 91.7031 155.506 91.7031 156.262C91.7031 156.999 91.5304 157.657 91.1851 158.236C90.8491 158.815 90.3777 159.272 89.7711 159.608C89.1737 159.935 88.4877 160.098 87.7131 160.098ZM87.7131 158.6C88.1424 158.6 88.5251 158.507 88.8611 158.32C89.1971 158.133 89.4584 157.863 89.6451 157.508C89.8411 157.153 89.9391 156.738 89.9391 156.262C89.9391 155.777 89.8411 155.361 89.6451 155.016C89.4584 154.661 89.1971 154.391 88.8611 154.204C88.5251 154.017 88.1471 153.924 87.7271 153.924C87.2977 153.924 86.9151 154.017 86.5791 154.204C86.2524 154.391 85.9911 154.661 85.7951 155.016C85.5991 155.361 85.5011 155.777 85.5011 156.262C85.5011 156.738 85.5991 157.153 85.7951 157.508C85.9911 157.863 86.2524 158.133 86.5791 158.32C86.9151 158.507 87.2931 158.6 87.7131 158.6ZM93.3765 160V152.524H95.0425V154.582L94.8465 153.98C95.0705 153.476 95.4205 153.093 95.8965 152.832C96.3818 152.571 96.9838 152.44 97.7025 152.44V154.106C97.6278 154.087 97.5578 154.078 97.4925 154.078C97.4272 154.069 97.3618 154.064 97.2965 154.064C96.6338 154.064 96.1065 154.26 95.7145 154.652C95.3225 155.035 95.1265 155.609 95.1265 156.374V160H93.3765ZM102.275 160.098C101.453 160.098 100.819 159.888 100.37 159.468C99.9225 159.039 99.6985 158.409 99.6985 157.578V150.872H101.449V157.536C101.449 157.891 101.537 158.166 101.715 158.362C101.901 158.558 102.158 158.656 102.485 158.656C102.877 158.656 103.203 158.553 103.465 158.348L103.955 159.594C103.749 159.762 103.497 159.888 103.199 159.972C102.9 160.056 102.592 160.098 102.275 160.098ZM98.4665 153.98V152.58H103.451V153.98H98.4665ZM110 160V158.488L109.902 158.166V155.52C109.902 155.007 109.748 154.61 109.44 154.33C109.132 154.041 108.665 153.896 108.04 153.896C107.62 153.896 107.205 153.961 106.794 154.092C106.393 154.223 106.052 154.405 105.772 154.638L105.086 153.364C105.487 153.056 105.963 152.827 106.514 152.678C107.074 152.519 107.653 152.44 108.25 152.44C109.333 152.44 110.168 152.701 110.756 153.224C111.353 153.737 111.652 154.535 111.652 155.618V160H110ZM107.648 160.098C107.088 160.098 106.598 160.005 106.178 159.818C105.758 159.622 105.431 159.356 105.198 159.02C104.974 158.675 104.862 158.287 104.862 157.858C104.862 157.438 104.96 157.06 105.156 156.724C105.361 156.388 105.693 156.122 106.15 155.926C106.607 155.73 107.214 155.632 107.97 155.632H110.14V156.794H108.096C107.499 156.794 107.097 156.892 106.892 157.088C106.687 157.275 106.584 157.508 106.584 157.788C106.584 158.105 106.71 158.357 106.962 158.544C107.214 158.731 107.564 158.824 108.012 158.824C108.441 158.824 108.824 158.726 109.16 158.53C109.505 158.334 109.753 158.045 109.902 157.662L110.196 158.712C110.028 159.151 109.725 159.491 109.286 159.734C108.857 159.977 108.311 160.098 107.648 160.098ZM118.042 160.098C117.407 160.098 116.843 159.958 116.348 159.678C115.853 159.398 115.461 158.978 115.172 158.418C114.892 157.849 114.752 157.13 114.752 156.262C114.752 155.385 114.897 154.666 115.186 154.106C115.485 153.546 115.881 153.131 116.376 152.86C116.88 152.58 117.435 152.44 118.042 152.44C118.779 152.44 119.428 152.599 119.988 152.916C120.557 153.233 121.005 153.677 121.332 154.246C121.668 154.815 121.836 155.487 121.836 156.262C121.836 157.037 121.668 157.709 121.332 158.278C121.005 158.847 120.557 159.295 119.988 159.622C119.428 159.939 118.779 160.098 118.042 160.098ZM113.898 160V149.612H115.648V154.26L115.508 156.248L115.564 158.236V160H113.898ZM117.846 158.6C118.266 158.6 118.639 158.507 118.966 158.32C119.302 158.133 119.568 157.863 119.764 157.508C119.96 157.153 120.058 156.738 120.058 156.262C120.058 155.777 119.96 155.361 119.764 155.016C119.568 154.661 119.302 154.391 118.966 154.204C118.639 154.017 118.266 153.924 117.846 153.924C117.426 153.924 117.048 154.017 116.712 154.204C116.376 154.391 116.11 154.661 115.914 155.016C115.718 155.361 115.62 155.777 115.62 156.262C115.62 156.738 115.718 157.153 115.914 157.508C116.11 157.863 116.376 158.133 116.712 158.32C117.048 158.507 117.426 158.6 117.846 158.6ZM123.496 160V149.612H125.246V160H123.496ZM131.057 160.098C130.226 160.098 129.498 159.935 128.873 159.608C128.257 159.272 127.776 158.815 127.431 158.236C127.095 157.657 126.927 156.999 126.927 156.262C126.927 155.515 127.09 154.857 127.417 154.288C127.753 153.709 128.21 153.257 128.789 152.93C129.377 152.603 130.044 152.44 130.791 152.44C131.519 152.44 132.167 152.599 132.737 152.916C133.306 153.233 133.754 153.681 134.081 154.26C134.407 154.839 134.571 155.52 134.571 156.304C134.571 156.379 134.566 156.463 134.557 156.556C134.557 156.649 134.552 156.738 134.543 156.822H128.313V155.66H133.619L132.933 156.024C132.942 155.595 132.853 155.217 132.667 154.89C132.48 154.563 132.223 154.307 131.897 154.12C131.579 153.933 131.211 153.84 130.791 153.84C130.361 153.84 129.983 153.933 129.657 154.12C129.339 154.307 129.087 154.568 128.901 154.904C128.723 155.231 128.635 155.618 128.635 156.066V156.346C128.635 156.794 128.737 157.191 128.943 157.536C129.148 157.881 129.437 158.147 129.811 158.334C130.184 158.521 130.613 158.614 131.099 158.614C131.519 158.614 131.897 158.549 132.233 158.418C132.569 158.287 132.867 158.082 133.129 157.802L134.067 158.88C133.731 159.272 133.306 159.575 132.793 159.79C132.289 159.995 131.71 160.098 131.057 160.098ZM139.449 157.774V156.514L144.279 150.2H146.225L141.465 156.514L140.555 156.234H148.325V157.774H139.449ZM144.825 160V157.774L144.881 156.234V154.26H146.589V160H144.825ZM155.802 160.098C155.176 160.098 154.574 160.019 153.996 159.86C153.426 159.692 152.974 159.491 152.638 159.258L153.31 157.928C153.646 158.143 154.047 158.32 154.514 158.46C154.98 158.6 155.447 158.67 155.914 158.67C156.464 158.67 156.861 158.595 157.104 158.446C157.356 158.297 157.482 158.096 157.482 157.844C157.482 157.639 157.398 157.485 157.23 157.382C157.062 157.27 156.842 157.186 156.572 157.13C156.301 157.074 155.998 157.023 155.662 156.976C155.335 156.929 155.004 156.869 154.668 156.794C154.341 156.71 154.042 156.593 153.772 156.444C153.501 156.285 153.282 156.075 153.114 155.814C152.946 155.553 152.862 155.207 152.862 154.778C152.862 154.302 152.997 153.891 153.268 153.546C153.538 153.191 153.916 152.921 154.402 152.734C154.896 152.538 155.48 152.44 156.152 152.44C156.656 152.44 157.164 152.496 157.678 152.608C158.191 152.72 158.616 152.879 158.952 153.084L158.28 154.414C157.925 154.199 157.566 154.055 157.202 153.98C156.847 153.896 156.492 153.854 156.138 153.854C155.606 153.854 155.209 153.933 154.948 154.092C154.696 154.251 154.57 154.451 154.57 154.694C154.57 154.918 154.654 155.086 154.822 155.198C154.99 155.31 155.209 155.399 155.48 155.464C155.75 155.529 156.049 155.585 156.376 155.632C156.712 155.669 157.043 155.73 157.37 155.814C157.696 155.898 157.995 156.015 158.266 156.164C158.546 156.304 158.77 156.505 158.938 156.766C159.106 157.027 159.19 157.368 159.19 157.788C159.19 158.255 159.05 158.661 158.77 159.006C158.499 159.351 158.112 159.622 157.608 159.818C157.104 160.005 156.502 160.098 155.802 160.098ZM164.211 160.098C163.38 160.098 162.652 159.935 162.027 159.608C161.411 159.272 160.93 158.815 160.585 158.236C160.249 157.657 160.081 156.999 160.081 156.262C160.081 155.515 160.244 154.857 160.571 154.288C160.907 153.709 161.364 153.257 161.943 152.93C162.531 152.603 163.198 152.44 163.945 152.44C164.673 152.44 165.321 152.599 165.891 152.916C166.46 153.233 166.908 153.681 167.235 154.26C167.561 154.839 167.725 155.52 167.725 156.304C167.725 156.379 167.72 156.463 167.711 156.556C167.711 156.649 167.706 156.738 167.697 156.822H161.467V155.66H166.773L166.087 156.024C166.096 155.595 166.007 155.217 165.821 154.89C165.634 154.563 165.377 154.307 165.051 154.12C164.733 153.933 164.365 153.84 163.945 153.84C163.515 153.84 163.137 153.933 162.811 154.12C162.493 154.307 162.241 154.568 162.055 154.904C161.877 155.231 161.789 155.618 161.789 156.066V156.346C161.789 156.794 161.891 157.191 162.097 157.536C162.302 157.881 162.591 158.147 162.965 158.334C163.338 158.521 163.767 158.614 164.253 158.614C164.673 158.614 165.051 158.549 165.387 158.418C165.723 158.287 166.021 158.082 166.283 157.802L167.221 158.88C166.885 159.272 166.46 159.575 165.947 159.79C165.443 159.995 164.864 160.098 164.211 160.098ZM173.807 160V158.488L173.709 158.166V155.52C173.709 155.007 173.555 154.61 173.247 154.33C172.939 154.041 172.472 153.896 171.847 153.896C171.427 153.896 171.011 153.961 170.601 154.092C170.199 154.223 169.859 154.405 169.579 154.638L168.893 153.364C169.294 153.056 169.77 152.827 170.321 152.678C170.881 152.519 171.459 152.44 172.057 152.44C173.139 152.44 173.975 152.701 174.563 153.224C175.16 153.737 175.459 154.535 175.459 155.618V160H173.807ZM171.455 160.098C170.895 160.098 170.405 160.005 169.985 159.818C169.565 159.622 169.238 159.356 169.005 159.02C168.781 158.675 168.669 158.287 168.669 157.858C168.669 157.438 168.767 157.06 168.963 156.724C169.168 156.388 169.499 156.122 169.957 155.926C170.414 155.73 171.021 155.632 171.777 155.632H173.947V156.794H171.903C171.305 156.794 170.904 156.892 170.699 157.088C170.493 157.275 170.391 157.508 170.391 157.788C170.391 158.105 170.517 158.357 170.769 158.544C171.021 158.731 171.371 158.824 171.819 158.824C172.248 158.824 172.631 158.726 172.967 158.53C173.312 158.334 173.559 158.045 173.709 157.662L174.003 158.712C173.835 159.151 173.531 159.491 173.093 159.734C172.663 159.977 172.117 160.098 171.455 160.098ZM180.519 160.098C179.697 160.098 179.063 159.888 178.615 159.468C178.167 159.039 177.943 158.409 177.943 157.578V150.872H179.693V157.536C179.693 157.891 179.781 158.166 179.959 158.362C180.145 158.558 180.402 158.656 180.729 158.656C181.121 158.656 181.447 158.553 181.709 158.348L182.199 159.594C181.993 159.762 181.741 159.888 181.443 159.972C181.144 160.056 180.836 160.098 180.519 160.098ZM176.711 153.98V152.58H181.695V153.98H176.711ZM186.906 160.098C186.075 160.098 185.347 159.935 184.722 159.608C184.106 159.272 183.625 158.815 183.28 158.236C182.944 157.657 182.776 156.999 182.776 156.262C182.776 155.515 182.939 154.857 183.266 154.288C183.602 153.709 184.059 153.257 184.638 152.93C185.226 152.603 185.893 152.44 186.64 152.44C187.368 152.44 188.017 152.599 188.586 152.916C189.155 153.233 189.603 153.681 189.93 154.26C190.257 154.839 190.42 155.52 190.42 156.304C190.42 156.379 190.415 156.463 190.406 156.556C190.406 156.649 190.401 156.738 190.392 156.822H184.162V155.66H189.468L188.782 156.024C188.791 155.595 188.703 155.217 188.516 154.89C188.329 154.563 188.073 154.307 187.746 154.12C187.429 153.933 187.06 153.84 186.64 153.84C186.211 153.84 185.833 153.933 185.506 154.12C185.189 154.307 184.937 154.568 184.75 154.904C184.573 155.231 184.484 155.618 184.484 156.066V156.346C184.484 156.794 184.587 157.191 184.792 157.536C184.997 157.881 185.287 158.147 185.66 158.334C186.033 158.521 186.463 158.614 186.948 158.614C187.368 158.614 187.746 158.549 188.082 158.418C188.418 158.287 188.717 158.082 188.978 157.802L189.916 158.88C189.58 159.272 189.155 159.575 188.642 159.79C188.138 159.995 187.559 160.098 186.906 160.098ZM192.101 160V152.524H193.767V154.582L193.571 153.98C193.795 153.476 194.145 153.093 194.621 152.832C195.106 152.571 195.708 152.44 196.427 152.44V154.106C196.352 154.087 196.282 154.078 196.217 154.078C196.152 154.069 196.086 154.064 196.021 154.064C195.358 154.064 194.831 154.26 194.439 154.652C194.047 155.035 193.851 155.609 193.851 156.374V160H192.101Z" fill="black"/>
</g>
<defs>
<filter id="filter0_d_1802_2975" x="0" y="0" width="243" height="243" filterUnits="userSpaceOnUse" color-interpolation-filters="sRGB">
<feFlood flood-opacity="0" result="BackgroundImageFix"/>
<feColorMatrix in="SourceAlpha" type="matrix" values="0 0 0 0 0 0 0 0 0 0 0 0 0 0 0 0 0 0 127 0" result="hardAlpha"/>
<feOffset dy="4"/>
<feGaussianBlur stdDeviation="2"/>
<feComposite in2="hardAlpha" operator="out"/>
<feColorMatrix type="matrix" values="0 0 0 0 0 0 0 0 0 0 0 0 0 0 0 0 0 0 0.25 0"/>
<feBlend mode="normal" in2="BackgroundImageFix" result="effect1_dropShadow_1802_2975"/>
<feBlend mode="normal" in="SourceGraphic" in2="effect1_dropShadow_1802_2975" result="shape"/>
</filter>
</defs>
</svg>
