<svg width="243" height="243" viewBox="0 0 243 243" fill="none" xmlns="http://www.w3.org/2000/svg">
<g filter="url(#filter0_d_1802_3116)">
<rect x="4" width="235" height="235" rx="15" fill="#BAEBDA"/>
<path d="M102.216 136L96.648 119.2H99.888L104.856 134.392H103.248L108.408 119.2H111.288L116.304 134.392H114.744L119.832 119.2H122.808L117.24 136H113.928L109.344 122.296H110.208L105.552 136H102.216ZM125.179 136V123.184H128.179V136H125.179ZM126.691 121.072C126.131 121.072 125.667 120.896 125.299 120.544C124.947 120.192 124.771 119.768 124.771 119.272C124.771 118.76 124.947 118.336 125.299 118C125.667 117.648 126.131 117.472 126.691 117.472C127.251 117.472 127.707 117.64 128.059 117.976C128.427 118.296 128.611 118.704 128.611 119.2C128.611 119.728 128.435 120.176 128.083 120.544C127.731 120.896 127.267 121.072 126.691 121.072ZM132.524 136V122.464C132.524 121.12 132.916 120.048 133.7 119.248C134.5 118.432 135.636 118.024 137.108 118.024C137.636 118.024 138.132 118.08 138.596 118.192C139.076 118.304 139.476 118.48 139.796 118.72L138.98 120.976C138.756 120.8 138.5 120.672 138.212 120.592C137.924 120.496 137.628 120.448 137.324 120.448C136.7 120.448 136.228 120.624 135.908 120.976C135.588 121.312 135.428 121.824 135.428 122.512V123.952L135.524 125.296V136H132.524ZM130.412 125.68V123.28H138.956V125.68H130.412ZM141.068 136V123.184H144.068V136H141.068ZM142.58 121.072C142.02 121.072 141.556 120.896 141.188 120.544C140.836 120.192 140.66 119.768 140.66 119.272C140.66 118.76 140.836 118.336 141.188 118C141.556 117.648 142.02 117.472 142.58 117.472C143.14 117.472 143.596 117.64 143.948 117.976C144.316 118.296 144.5 118.704 144.5 119.2C144.5 119.728 144.324 120.176 143.972 120.544C143.62 120.896 143.156 121.072 142.58 121.072Z" fill="black"/>
<mask id="mask0_1802_3116" style="mask-type:alpha" maskUnits="userSpaceOnUse" x="102" y="63" width="40" height="40">
<rect x="102" y="63" width="40" height="40" fill="#D9D9D9"/>
</mask>
<g mask="url(#mask0_1802_3116)">
<path d="M122 97.9994C120.833 97.9994 119.847 97.5966 119.042 96.791C118.236 95.9855 117.833 94.9994 117.833 93.8327C117.833 92.666 118.236 91.6799 119.042 90.8744C119.847 90.0688 120.833 89.666 122 89.666C123.167 89.666 124.153 90.0688 124.958 90.8744C125.764 91.6799 126.167 92.666 126.167 93.8327C126.167 94.9994 125.764 95.9855 124.958 96.791C124.153 97.5966 123.167 97.9994 122 97.9994ZM112.583 88.5827L109.083 84.9993C110.722 83.3605 112.646 82.0618 114.854 81.1035C117.062 80.1452 119.444 79.666 122 79.666C124.556 79.666 126.937 80.1521 129.146 81.1243C131.354 82.0966 133.278 83.416 134.917 85.0827L131.417 88.5827C130.194 87.3605 128.778 86.4021 127.167 85.7077C125.556 85.0132 123.833 84.666 122 84.666C120.167 84.666 118.444 85.0132 116.833 85.7077C115.222 86.4021 113.806 87.3605 112.583 88.5827ZM105.5 81.4993L102 77.9993C104.556 75.3882 107.542 73.3466 110.958 71.8743C114.375 70.4021 118.056 69.666 122 69.666C125.944 69.666 129.625 70.4021 133.042 71.8743C136.458 73.3466 139.444 75.3882 142 77.9993L138.5 81.4993C136.361 79.3605 133.882 77.6868 131.062 76.4785C128.243 75.2702 125.222 74.666 122 74.666C118.778 74.666 115.757 75.2702 112.937 76.4785C110.118 77.6868 107.639 79.3605 105.5 81.4993Z" fill="#1C1B1F"/>
</g>
<path opacity="0.7" d="M55.982 154.708H60.868V156.248H55.982V154.708ZM56.136 160H54.316V150.2H61.47V151.726H56.136V160ZM62.9253 160V152.524H64.5913V154.582L64.3953 153.98C64.6193 153.476 64.9693 153.093 65.4453 152.832C65.9307 152.571 66.5327 152.44 67.2513 152.44V154.106C67.1767 154.087 67.1067 154.078 67.0413 154.078C66.976 154.069 66.9107 154.064 66.8453 154.064C66.1827 154.064 65.6553 154.26 65.2633 154.652C64.8713 155.035 64.6753 155.609 64.6753 156.374V160H62.9253ZM72.1815 160.098C71.3509 160.098 70.6229 159.935 69.9975 159.608C69.3815 159.272 68.9009 158.815 68.5555 158.236C68.2195 157.657 68.0515 156.999 68.0515 156.262C68.0515 155.515 68.2149 154.857 68.5415 154.288C68.8775 153.709 69.3349 153.257 69.9135 152.93C70.5015 152.603 71.1689 152.44 71.9155 152.44C72.6435 152.44 73.2922 152.599 73.8615 152.916C74.4309 153.233 74.8789 153.681 75.2055 154.26C75.5322 154.839 75.6955 155.52 75.6955 156.304C75.6955 156.379 75.6909 156.463 75.6815 156.556C75.6815 156.649 75.6769 156.738 75.6675 156.822H69.4375V155.66H74.7435L74.0575 156.024C74.0669 155.595 73.9782 155.217 73.7915 154.89C73.6049 154.563 73.3482 154.307 73.0215 154.12C72.7042 153.933 72.3355 153.84 71.9155 153.84C71.4862 153.84 71.1082 153.933 70.7815 154.12C70.4642 154.307 70.2122 154.568 70.0255 154.904C69.8482 155.231 69.7595 155.618 69.7595 156.066V156.346C69.7595 156.794 69.8622 157.191 70.0675 157.536C70.2729 157.881 70.5622 158.147 70.9355 158.334C71.3089 158.521 71.7382 158.614 72.2235 158.614C72.6435 158.614 73.0215 158.549 73.3575 158.418C73.6935 158.287 73.9922 158.082 74.2535 157.802L75.1915 158.88C74.8555 159.272 74.4309 159.575 73.9175 159.79C73.4135 159.995 72.8349 160.098 72.1815 160.098ZM80.8905 160.098C80.0598 160.098 79.3318 159.935 78.7065 159.608C78.0905 159.272 77.6098 158.815 77.2645 158.236C76.9285 157.657 76.7605 156.999 76.7605 156.262C76.7605 155.515 76.9238 154.857 77.2505 154.288C77.5865 153.709 78.0438 153.257 78.6225 152.93C79.2105 152.603 79.8778 152.44 80.6245 152.44C81.3525 152.44 82.0012 152.599 82.5705 152.916C83.1398 153.233 83.5878 153.681 83.9145 154.26C84.2412 154.839 84.4045 155.52 84.4045 156.304C84.4045 156.379 84.3998 156.463 84.3905 156.556C84.3905 156.649 84.3858 156.738 84.3765 156.822H78.1465V155.66H83.4525L82.7665 156.024C82.7758 155.595 82.6872 155.217 82.5005 154.89C82.3138 154.563 82.0572 154.307 81.7305 154.12C81.4132 153.933 81.0445 153.84 80.6245 153.84C80.1952 153.84 79.8172 153.933 79.4905 154.12C79.1732 154.307 78.9212 154.568 78.7345 154.904C78.5572 155.231 78.4685 155.618 78.4685 156.066V156.346C78.4685 156.794 78.5712 157.191 78.7765 157.536C78.9818 157.881 79.2712 158.147 79.6445 158.334C80.0178 158.521 80.4472 158.614 80.9325 158.614C81.3525 158.614 81.7305 158.549 82.0665 158.418C82.4025 158.287 82.7012 158.082 82.9625 157.802L83.9005 158.88C83.5645 159.272 83.1398 159.575 82.6265 159.79C82.1225 159.995 81.5438 160.098 80.8905 160.098ZM92.4326 160L89.1846 150.2H91.0746L93.9726 159.062H93.0346L96.0446 150.2H97.7246L100.651 159.062H99.7406L102.709 150.2H104.445L101.197 160H99.2646L96.5906 152.006H97.0946L94.3786 160H92.4326ZM105.828 160V152.524H107.578V160H105.828ZM106.71 151.292C106.383 151.292 106.112 151.189 105.898 150.984C105.692 150.779 105.59 150.531 105.59 150.242C105.59 149.943 105.692 149.696 105.898 149.5C106.112 149.295 106.383 149.192 106.71 149.192C107.036 149.192 107.302 149.29 107.508 149.486C107.722 149.673 107.83 149.911 107.83 150.2C107.83 150.508 107.727 150.769 107.522 150.984C107.316 151.189 107.046 151.292 106.71 151.292ZM111.709 154.708H116.595V156.248H111.709V154.708ZM111.863 160H110.043V150.2H117.197V151.726H111.863V160ZM118.789 160V152.524H120.539V160H118.789ZM119.671 151.292C119.344 151.292 119.073 151.189 118.859 150.984C118.653 150.779 118.551 150.531 118.551 150.242C118.551 149.943 118.653 149.696 118.859 149.5C119.073 149.295 119.344 149.192 119.671 149.192C119.997 149.192 120.263 149.29 120.469 149.486C120.683 149.673 120.791 149.911 120.791 150.2C120.791 150.508 120.688 150.769 120.483 150.984C120.277 151.189 120.007 151.292 119.671 151.292ZM131.311 160V158.488L131.213 158.166V155.52C131.213 155.007 131.059 154.61 130.751 154.33C130.443 154.041 129.976 153.896 129.351 153.896C128.931 153.896 128.515 153.961 128.105 154.092C127.703 154.223 127.363 154.405 127.083 154.638L126.397 153.364C126.798 153.056 127.274 152.827 127.825 152.678C128.385 152.519 128.963 152.44 129.561 152.44C130.643 152.44 131.479 152.701 132.067 153.224C132.664 153.737 132.963 154.535 132.963 155.618V160H131.311ZM128.959 160.098C128.399 160.098 127.909 160.005 127.489 159.818C127.069 159.622 126.742 159.356 126.509 159.02C126.285 158.675 126.173 158.287 126.173 157.858C126.173 157.438 126.271 157.06 126.467 156.724C126.672 156.388 127.003 156.122 127.461 155.926C127.918 155.73 128.525 155.632 129.281 155.632H131.451V156.794H129.407C128.809 156.794 128.408 156.892 128.203 157.088C127.997 157.275 127.895 157.508 127.895 157.788C127.895 158.105 128.021 158.357 128.273 158.544C128.525 158.731 128.875 158.824 129.323 158.824C129.752 158.824 130.135 158.726 130.471 158.53C130.816 158.334 131.063 158.045 131.213 157.662L131.507 158.712C131.339 159.151 131.035 159.491 130.597 159.734C130.167 159.977 129.621 160.098 128.959 160.098ZM137.06 160L133.854 152.524H135.674L138.432 159.118H137.536L140.392 152.524H142.072L138.866 160H137.06ZM147.539 160V158.488L147.441 158.166V155.52C147.441 155.007 147.287 154.61 146.979 154.33C146.671 154.041 146.204 153.896 145.579 153.896C145.159 153.896 144.744 153.961 144.333 154.092C143.932 154.223 143.591 154.405 143.311 154.638L142.625 153.364C143.026 153.056 143.502 152.827 144.053 152.678C144.613 152.519 145.192 152.44 145.789 152.44C146.872 152.44 147.707 152.701 148.295 153.224C148.892 153.737 149.191 154.535 149.191 155.618V160H147.539ZM145.187 160.098C144.627 160.098 144.137 160.005 143.717 159.818C143.297 159.622 142.97 159.356 142.737 159.02C142.513 158.675 142.401 158.287 142.401 157.858C142.401 157.438 142.499 157.06 142.695 156.724C142.9 156.388 143.232 156.122 143.689 155.926C144.146 155.73 144.753 155.632 145.509 155.632H147.679V156.794H145.635C145.038 156.794 144.636 156.892 144.431 157.088C144.226 157.275 144.123 157.508 144.123 157.788C144.123 158.105 144.249 158.357 144.501 158.544C144.753 158.731 145.103 158.824 145.551 158.824C145.98 158.824 146.363 158.726 146.699 158.53C147.044 158.334 147.292 158.045 147.441 157.662L147.735 158.712C147.567 159.151 147.264 159.491 146.825 159.734C146.396 159.977 145.85 160.098 145.187 160.098ZM151.437 160V152.524H153.187V160H151.437ZM152.319 151.292C151.992 151.292 151.722 151.189 151.507 150.984C151.302 150.779 151.199 150.531 151.199 150.242C151.199 149.943 151.302 149.696 151.507 149.5C151.722 149.295 151.992 149.192 152.319 149.192C152.646 149.192 152.912 149.29 153.117 149.486C153.332 149.673 153.439 149.911 153.439 150.2C153.439 150.508 153.336 150.769 153.131 150.984C152.926 151.189 152.655 151.292 152.319 151.292ZM155.484 160V149.612H157.234V160H155.484ZM164.137 160V158.488L164.039 158.166V155.52C164.039 155.007 163.885 154.61 163.577 154.33C163.269 154.041 162.802 153.896 162.177 153.896C161.757 153.896 161.341 153.961 160.931 154.092C160.529 154.223 160.189 154.405 159.909 154.638L159.223 153.364C159.624 153.056 160.1 152.827 160.651 152.678C161.211 152.519 161.789 152.44 162.387 152.44C163.469 152.44 164.305 152.701 164.893 153.224C165.49 153.737 165.789 154.535 165.789 155.618V160H164.137ZM161.785 160.098C161.225 160.098 160.735 160.005 160.315 159.818C159.895 159.622 159.568 159.356 159.335 159.02C159.111 158.675 158.999 158.287 158.999 157.858C158.999 157.438 159.097 157.06 159.293 156.724C159.498 156.388 159.829 156.122 160.287 155.926C160.744 155.73 161.351 155.632 162.107 155.632H164.277V156.794H162.233C161.635 156.794 161.234 156.892 161.029 157.088C160.823 157.275 160.721 157.508 160.721 157.788C160.721 158.105 160.847 158.357 161.099 158.544C161.351 158.731 161.701 158.824 162.149 158.824C162.578 158.824 162.961 158.726 163.297 158.53C163.642 158.334 163.889 158.045 164.039 157.662L164.333 158.712C164.165 159.151 163.861 159.491 163.423 159.734C162.993 159.977 162.447 160.098 161.785 160.098ZM172.179 160.098C171.544 160.098 170.979 159.958 170.485 159.678C169.99 159.398 169.598 158.978 169.309 158.418C169.029 157.849 168.889 157.13 168.889 156.262C168.889 155.385 169.033 154.666 169.323 154.106C169.621 153.546 170.018 153.131 170.513 152.86C171.017 152.58 171.572 152.44 172.179 152.44C172.916 152.44 173.565 152.599 174.125 152.916C174.694 153.233 175.142 153.677 175.469 154.246C175.805 154.815 175.973 155.487 175.973 156.262C175.973 157.037 175.805 157.709 175.469 158.278C175.142 158.847 174.694 159.295 174.125 159.622C173.565 159.939 172.916 160.098 172.179 160.098ZM168.035 160V149.612H169.785V154.26L169.645 156.248L169.701 158.236V160H168.035ZM171.983 158.6C172.403 158.6 172.776 158.507 173.103 158.32C173.439 158.133 173.705 157.863 173.901 157.508C174.097 157.153 174.195 156.738 174.195 156.262C174.195 155.777 174.097 155.361 173.901 155.016C173.705 154.661 173.439 154.391 173.103 154.204C172.776 154.017 172.403 153.924 171.983 153.924C171.563 153.924 171.185 154.017 170.849 154.204C170.513 154.391 170.247 154.661 170.051 155.016C169.855 155.361 169.757 155.777 169.757 156.262C169.757 156.738 169.855 157.153 170.051 157.508C170.247 157.863 170.513 158.133 170.849 158.32C171.185 158.507 171.563 158.6 171.983 158.6ZM177.632 160V149.612H179.382V160H177.632ZM185.193 160.098C184.363 160.098 183.635 159.935 183.009 159.608C182.393 159.272 181.913 158.815 181.567 158.236C181.231 157.657 181.063 156.999 181.063 156.262C181.063 155.515 181.227 154.857 181.553 154.288C181.889 153.709 182.347 153.257 182.925 152.93C183.513 152.603 184.181 152.44 184.927 152.44C185.655 152.44 186.304 152.599 186.873 152.916C187.443 153.233 187.891 153.681 188.217 154.26C188.544 154.839 188.707 155.52 188.707 156.304C188.707 156.379 188.703 156.463 188.693 156.556C188.693 156.649 188.689 156.738 188.679 156.822H182.449V155.66H187.755L187.069 156.024C187.079 155.595 186.99 155.217 186.803 154.89C186.617 154.563 186.36 154.307 186.033 154.12C185.716 153.933 185.347 153.84 184.927 153.84C184.498 153.84 184.12 153.933 183.793 154.12C183.476 154.307 183.224 154.568 183.037 154.904C182.86 155.231 182.771 155.618 182.771 156.066V156.346C182.771 156.794 182.874 157.191 183.079 157.536C183.285 157.881 183.574 158.147 183.947 158.334C184.321 158.521 184.75 158.614 185.235 158.614C185.655 158.614 186.033 158.549 186.369 158.418C186.705 158.287 187.004 158.082 187.265 157.802L188.203 158.88C187.867 159.272 187.443 159.575 186.929 159.79C186.425 159.995 185.847 160.098 185.193 160.098Z" fill="black"/>
</g>
<defs>
<filter id="filter0_d_1802_3116" x="0" y="0" width="243" height="243" filterUnits="userSpaceOnUse" color-interpolation-filters="sRGB">
<feFlood flood-opacity="0" result="BackgroundImageFix"/>
<feColorMatrix in="SourceAlpha" type="matrix" values="0 0 0 0 0 0 0 0 0 0 0 0 0 0 0 0 0 0 127 0" result="hardAlpha"/>
<feOffset dy="4"/>
<feGaussianBlur stdDeviation="2"/>
<feComposite in2="hardAlpha" operator="out"/>
<feColorMatrix type="matrix" values="0 0 0 0 0 0 0 0 0 0 0 0 0 0 0 0 0 0 0.25 0"/>
<feBlend mode="normal" in2="BackgroundImageFix" result="effect1_dropShadow_1802_3116"/>
<feBlend mode="normal" in="SourceGraphic" in2="effect1_dropShadow_1802_3116" result="shape"/>
</filter>
</defs>
</svg>
