<svg width="243" height="243" viewBox="0 0 243 243" fill="none" xmlns="http://www.w3.org/2000/svg">
<g filter="url(#filter0_d_1802_3035)">
<rect x="4" width="235" height="235" rx="15" fill="#BAEBDA"/>
<path d="M53.104 136.24C51.792 136.24 50.584 136.032 49.48 135.616C48.392 135.184 47.44 134.584 46.624 133.816C45.808 133.032 45.176 132.112 44.728 131.056C44.28 130 44.056 128.848 44.056 127.6C44.056 126.352 44.28 125.2 44.728 124.144C45.176 123.088 45.808 122.176 46.624 121.408C47.456 120.624 48.424 120.024 49.528 119.608C50.632 119.176 51.84 118.96 53.152 118.96C54.576 118.96 55.856 119.192 56.992 119.656C58.144 120.12 59.112 120.8 59.896 121.696L57.928 123.616C57.272 122.96 56.56 122.48 55.792 122.176C55.04 121.856 54.208 121.696 53.296 121.696C52.416 121.696 51.6 121.84 50.848 122.128C50.096 122.416 49.448 122.824 48.904 123.352C48.36 123.88 47.936 124.504 47.632 125.224C47.344 125.944 47.2 126.736 47.2 127.6C47.2 128.448 47.344 129.232 47.632 129.952C47.936 130.672 48.36 131.304 48.904 131.848C49.448 132.376 50.088 132.784 50.824 133.072C51.56 133.36 52.376 133.504 53.272 133.504C54.104 133.504 54.904 133.376 55.672 133.12C56.456 132.848 57.2 132.4 57.904 131.776L59.68 134.104C58.8 134.808 57.776 135.344 56.608 135.712C55.456 136.064 54.288 136.24 53.104 136.24ZM56.728 133.696V127.408H59.68V134.104L56.728 133.696ZM63.7951 136V119.2H70.7071C72.1951 119.2 73.4671 119.44 74.5231 119.92C75.5951 120.4 76.4191 121.088 76.9951 121.984C77.5711 122.88 77.8591 123.944 77.8591 125.176C77.8591 126.408 77.5711 127.472 76.9951 128.368C76.4191 129.264 75.5951 129.952 74.5231 130.432C73.4671 130.912 72.1951 131.152 70.7071 131.152H65.5231L66.9151 129.688V136H63.7951ZM66.9151 130.024L65.5231 128.512H70.5631C71.9391 128.512 72.9711 128.224 73.6591 127.648C74.3631 127.056 74.7151 126.232 74.7151 125.176C74.7151 124.104 74.3631 123.28 73.6591 122.704C72.9711 122.128 71.9391 121.84 70.5631 121.84H65.5231L66.9151 120.304V130.024ZM86.4171 136.24C85.1051 136.24 83.8491 136.056 82.6491 135.688C81.4491 135.304 80.4971 134.816 79.7931 134.224L80.8731 131.8C81.5451 132.328 82.3771 132.768 83.3691 133.12C84.3611 133.472 85.3771 133.648 86.4171 133.648C87.2971 133.648 88.0091 133.552 88.5531 133.36C89.0971 133.168 89.4971 132.912 89.7531 132.592C90.0091 132.256 90.1371 131.88 90.1371 131.464C90.1371 130.952 89.9531 130.544 89.5851 130.24C89.2171 129.92 88.7371 129.672 88.1451 129.496C87.5691 129.304 86.9211 129.128 86.2011 128.968C85.4971 128.808 84.7851 128.624 84.0651 128.416C83.3611 128.192 82.7131 127.912 82.1211 127.576C81.5451 127.224 81.0731 126.76 80.7051 126.184C80.3371 125.608 80.1531 124.872 80.1531 123.976C80.1531 123.064 80.3931 122.232 80.8731 121.48C81.3691 120.712 82.1131 120.104 83.1051 119.656C84.1131 119.192 85.3851 118.96 86.9211 118.96C87.9291 118.96 88.9291 119.088 89.9211 119.344C90.9131 119.6 91.7771 119.968 92.5131 120.448L91.5291 122.872C90.7771 122.424 90.0011 122.096 89.2011 121.888C88.4011 121.664 87.6331 121.552 86.8971 121.552C86.0331 121.552 85.3291 121.656 84.7851 121.864C84.2571 122.072 83.8651 122.344 83.6091 122.68C83.3691 123.016 83.2491 123.4 83.2491 123.832C83.2491 124.344 83.4251 124.76 83.7771 125.08C84.1451 125.384 84.6171 125.624 85.1931 125.8C85.7851 125.976 86.4411 126.152 87.1611 126.328C87.8811 126.488 88.5931 126.672 89.2971 126.88C90.0171 127.088 90.6651 127.36 91.2411 127.696C91.8331 128.032 92.3051 128.488 92.6571 129.064C93.0251 129.64 93.2091 130.368 93.2091 131.248C93.2091 132.144 92.9611 132.976 92.4651 133.744C91.9851 134.496 91.2411 135.104 90.2331 135.568C89.2251 136.016 87.9531 136.24 86.4171 136.24ZM107.472 136.168C106.064 136.168 104.976 135.808 104.208 135.088C103.44 134.352 103.056 133.272 103.056 131.848V120.352H106.056V131.776C106.056 132.384 106.208 132.856 106.512 133.192C106.832 133.528 107.272 133.696 107.832 133.696C108.504 133.696 109.064 133.52 109.512 133.168L110.352 135.304C110 135.592 109.568 135.808 109.056 135.952C108.544 136.096 108.016 136.168 107.472 136.168ZM100.944 125.68V123.28H109.488V125.68H100.944ZM112.82 136V123.184H115.676V126.712L115.34 125.68C115.724 124.816 116.324 124.16 117.14 123.712C117.972 123.264 119.004 123.04 120.236 123.04V125.896C120.108 125.864 119.988 125.848 119.876 125.848C119.764 125.832 119.652 125.824 119.54 125.824C118.404 125.824 117.5 126.16 116.828 126.832C116.156 127.488 115.82 128.472 115.82 129.784V136H112.82ZM129.762 136V133.408L129.594 132.856V128.32C129.594 127.44 129.33 126.76 128.802 126.28C128.274 125.784 127.474 125.536 126.402 125.536C125.682 125.536 124.97 125.648 124.266 125.872C123.578 126.096 122.994 126.408 122.514 126.808L121.338 124.624C122.026 124.096 122.842 123.704 123.786 123.448C124.746 123.176 125.738 123.04 126.762 123.04C128.618 123.04 130.05 123.488 131.058 124.384C132.082 125.264 132.594 126.632 132.594 128.488V136H129.762ZM125.73 136.168C124.77 136.168 123.93 136.008 123.21 135.688C122.49 135.352 121.93 134.896 121.53 134.32C121.146 133.728 120.954 133.064 120.954 132.328C120.954 131.608 121.122 130.96 121.458 130.384C121.81 129.808 122.378 129.352 123.162 129.016C123.946 128.68 124.986 128.512 126.282 128.512H130.002V130.504H126.498C125.474 130.504 124.786 130.672 124.434 131.008C124.082 131.328 123.906 131.728 123.906 132.208C123.906 132.752 124.122 133.184 124.554 133.504C124.986 133.824 125.586 133.984 126.354 133.984C127.09 133.984 127.746 133.816 128.322 133.48C128.914 133.144 129.338 132.648 129.594 131.992L130.098 133.792C129.81 134.544 129.29 135.128 128.538 135.544C127.802 135.96 126.866 136.168 125.73 136.168ZM142.348 136.168C141.004 136.168 139.804 135.888 138.748 135.328C137.708 134.752 136.892 133.968 136.3 132.976C135.708 131.984 135.412 130.856 135.412 129.592C135.412 128.312 135.708 127.184 136.3 126.208C136.892 125.216 137.708 124.44 138.748 123.88C139.804 123.32 141.004 123.04 142.348 123.04C143.596 123.04 144.692 123.296 145.636 123.808C146.596 124.304 147.324 125.04 147.82 126.016L145.516 127.36C145.132 126.752 144.66 126.304 144.1 126.016C143.556 125.728 142.964 125.584 142.324 125.584C141.588 125.584 140.924 125.744 140.332 126.064C139.74 126.384 139.276 126.848 138.94 127.456C138.604 128.048 138.436 128.76 138.436 129.592C138.436 130.424 138.604 131.144 138.94 131.752C139.276 132.344 139.74 132.8 140.332 133.12C140.924 133.44 141.588 133.6 142.324 133.6C142.964 133.6 143.556 133.456 144.1 133.168C144.66 132.88 145.132 132.432 145.516 131.824L147.82 133.168C147.324 134.128 146.596 134.872 145.636 135.4C144.692 135.912 143.596 136.168 142.348 136.168ZM152.744 133.144L152.816 129.376L159.512 123.184H163.112L157.424 128.896L155.84 130.216L152.744 133.144ZM150.296 136V118.192H153.296V136H150.296ZM159.968 136L155.288 130.216L157.184 127.816L163.616 136H159.968ZM171.062 136.168C169.638 136.168 168.39 135.888 167.318 135.328C166.262 134.752 165.438 133.968 164.846 132.976C164.27 131.984 163.982 130.856 163.982 129.592C163.982 128.312 164.262 127.184 164.822 126.208C165.398 125.216 166.182 124.44 167.174 123.88C168.182 123.32 169.326 123.04 170.606 123.04C171.854 123.04 172.966 123.312 173.942 123.856C174.918 124.4 175.686 125.168 176.246 126.16C176.806 127.152 177.086 128.32 177.086 129.664C177.086 129.792 177.078 129.936 177.062 130.096C177.062 130.256 177.054 130.408 177.038 130.552H166.358V128.56H175.454L174.278 129.184C174.294 128.448 174.142 127.8 173.822 127.24C173.502 126.68 173.062 126.24 172.502 125.92C171.958 125.6 171.326 125.44 170.606 125.44C169.87 125.44 169.222 125.6 168.662 125.92C168.118 126.24 167.686 126.688 167.366 127.264C167.062 127.824 166.91 128.488 166.91 129.256V129.736C166.91 130.504 167.086 131.184 167.438 131.776C167.79 132.368 168.286 132.824 168.926 133.144C169.566 133.464 170.302 133.624 171.134 133.624C171.854 133.624 172.502 133.512 173.078 133.288C173.654 133.064 174.166 132.712 174.614 132.232L176.222 134.08C175.646 134.752 174.918 135.272 174.038 135.64C173.174 135.992 172.182 136.168 171.062 136.168ZM179.968 136V123.184H182.824V126.712L182.488 125.68C182.872 124.816 183.472 124.16 184.288 123.712C185.12 123.264 186.152 123.04 187.384 123.04V125.896C187.256 125.864 187.136 125.848 187.024 125.848C186.912 125.832 186.8 125.824 186.688 125.824C185.552 125.824 184.648 126.16 183.976 126.832C183.304 127.488 182.968 128.472 182.968 129.784V136H179.968Z" fill="black"/>
<mask id="mask0_1802_3035" style="mask-type:alpha" maskUnits="userSpaceOnUse" x="101" y="63" width="40" height="40">
<rect x="101" y="63" width="40" height="40" fill="#D9D9D9"/>
</mask>
<g mask="url(#mask0_1802_3035)">
<path d="M119.333 101.25V97.9167C115.861 97.5278 112.882 96.0903 110.396 93.6042C107.91 91.1181 106.472 88.1389 106.083 84.6667H102.75V81.3333H106.083C106.472 77.8611 107.91 74.8819 110.396 72.3958C112.882 69.9097 115.861 68.4722 119.333 68.0833V64.75H122.667V68.0833C126.139 68.4722 129.118 69.9097 131.604 72.3958C134.09 74.8819 135.528 77.8611 135.917 81.3333H139.25V84.6667H135.917C135.528 88.1389 134.09 91.1181 131.604 93.6042C129.118 96.0903 126.139 97.5278 122.667 97.9167V101.25H119.333ZM121 94.6667C124.222 94.6667 126.972 93.5278 129.25 91.25C131.528 88.9722 132.667 86.2222 132.667 83C132.667 79.7778 131.528 77.0278 129.25 74.75C126.972 72.4722 124.222 71.3333 121 71.3333C117.778 71.3333 115.028 72.4722 112.75 74.75C110.472 77.0278 109.333 79.7778 109.333 83C109.333 86.2222 110.472 88.9722 112.75 91.25C115.028 93.5278 117.778 94.6667 121 94.6667ZM121 89.6667C119.167 89.6667 117.597 89.0139 116.292 87.7083C114.986 86.4028 114.333 84.8333 114.333 83C114.333 81.1667 114.986 79.5972 116.292 78.2917C117.597 76.9861 119.167 76.3333 121 76.3333C122.833 76.3333 124.403 76.9861 125.708 78.2917C127.014 79.5972 127.667 81.1667 127.667 83C127.667 84.8333 127.014 86.4028 125.708 87.7083C124.403 89.0139 122.833 89.6667 121 89.6667ZM121 86.3333C121.917 86.3333 122.701 86.0069 123.354 85.3542C124.007 84.7014 124.333 83.9167 124.333 83C124.333 82.0833 124.007 81.2986 123.354 80.6458C122.701 79.9931 121.917 79.6667 121 79.6667C120.083 79.6667 119.299 79.9931 118.646 80.6458C117.993 81.2986 117.667 82.0833 117.667 83C117.667 83.9167 117.993 84.7014 118.646 85.3542C119.299 86.0069 120.083 86.3333 121 86.3333Z" fill="#1C1B1F"/>
</g>
<path opacity="0.7" d="M37.316 160V150.2H38.814L43.098 157.354H42.314L46.528 150.2H48.026L48.04 160H46.318L46.304 152.902H46.668L43.084 158.88H42.272L38.632 152.902H39.052V160H37.316ZM53.8791 160.098C53.1138 160.098 52.4324 159.935 51.8351 159.608C51.2378 159.272 50.7664 158.815 50.4211 158.236C50.0758 157.657 49.9031 156.999 49.9031 156.262C49.9031 155.515 50.0758 154.857 50.4211 154.288C50.7664 153.709 51.2378 153.257 51.8351 152.93C52.4324 152.603 53.1138 152.44 53.8791 152.44C54.6538 152.44 55.3398 152.603 55.9371 152.93C56.5438 153.257 57.0151 153.705 57.3511 154.274C57.6964 154.843 57.8691 155.506 57.8691 156.262C57.8691 156.999 57.6964 157.657 57.3511 158.236C57.0151 158.815 56.5438 159.272 55.9371 159.608C55.3398 159.935 54.6538 160.098 53.8791 160.098ZM53.8791 158.6C54.3084 158.6 54.6911 158.507 55.0271 158.32C55.3631 158.133 55.6244 157.863 55.8111 157.508C56.0071 157.153 56.1051 156.738 56.1051 156.262C56.1051 155.777 56.0071 155.361 55.8111 155.016C55.6244 154.661 55.3631 154.391 55.0271 154.204C54.6911 154.017 54.3131 153.924 53.8931 153.924C53.4638 153.924 53.0811 154.017 52.7451 154.204C52.4184 154.391 52.1571 154.661 51.9611 155.016C51.7651 155.361 51.6671 155.777 51.6671 156.262C51.6671 156.738 51.7651 157.153 51.9611 157.508C52.1571 157.863 52.4184 158.133 52.7451 158.32C53.0811 158.507 53.4591 158.6 53.8791 158.6ZM63.6865 160.098C63.0519 160.098 62.4872 159.958 61.9925 159.678C61.4979 159.398 61.1059 158.978 60.8165 158.418C60.5365 157.849 60.3965 157.13 60.3965 156.262C60.3965 155.385 60.5412 154.666 60.8305 154.106C61.1292 153.546 61.5259 153.131 62.0205 152.86C62.5245 152.58 63.0799 152.44 63.6865 152.44C64.4239 152.44 65.0725 152.599 65.6325 152.916C66.2019 153.233 66.6499 153.677 66.9765 154.246C67.3125 154.815 67.4805 155.487 67.4805 156.262C67.4805 157.037 67.3125 157.709 66.9765 158.278C66.6499 158.847 66.2019 159.295 65.6325 159.622C65.0725 159.939 64.4239 160.098 63.6865 160.098ZM59.5425 160V149.612H61.2925V154.26L61.1525 156.248L61.2085 158.236V160H59.5425ZM63.4905 158.6C63.9105 158.6 64.2839 158.507 64.6105 158.32C64.9465 158.133 65.2125 157.863 65.4085 157.508C65.6045 157.153 65.7025 156.738 65.7025 156.262C65.7025 155.777 65.6045 155.361 65.4085 155.016C65.2125 154.661 64.9465 154.391 64.6105 154.204C64.2839 154.017 63.9105 153.924 63.4905 153.924C63.0705 153.924 62.6925 154.017 62.3565 154.204C62.0205 154.391 61.7545 154.661 61.5585 155.016C61.3625 155.361 61.2645 155.777 61.2645 156.262C61.2645 156.738 61.3625 157.153 61.5585 157.508C61.7545 157.863 62.0205 158.133 62.3565 158.32C62.6925 158.507 63.0705 158.6 63.4905 158.6ZM69.1402 160V152.524H70.8902V160H69.1402ZM70.0222 151.292C69.6955 151.292 69.4249 151.189 69.2102 150.984C69.0049 150.779 68.9022 150.531 68.9022 150.242C68.9022 149.943 69.0049 149.696 69.2102 149.5C69.4249 149.295 69.6955 149.192 70.0222 149.192C70.3489 149.192 70.6149 149.29 70.8202 149.486C71.0349 149.673 71.1422 149.911 71.1422 150.2C71.1422 150.508 71.0395 150.769 70.8342 150.984C70.6289 151.189 70.3582 151.292 70.0222 151.292ZM73.1871 160V149.612H74.9371V160H73.1871ZM80.7479 160.098C79.9173 160.098 79.1893 159.935 78.5639 159.608C77.9479 159.272 77.4673 158.815 77.1219 158.236C76.7859 157.657 76.6179 156.999 76.6179 156.262C76.6179 155.515 76.7813 154.857 77.1079 154.288C77.4439 153.709 77.9013 153.257 78.4799 152.93C79.0679 152.603 79.7353 152.44 80.4819 152.44C81.2099 152.44 81.8586 152.599 82.4279 152.916C82.9973 153.233 83.4453 153.681 83.7719 154.26C84.0986 154.839 84.2619 155.52 84.2619 156.304C84.2619 156.379 84.2573 156.463 84.2479 156.556C84.2479 156.649 84.2433 156.738 84.2339 156.822H78.0039V155.66H83.3099L82.6239 156.024C82.6333 155.595 82.5446 155.217 82.3579 154.89C82.1713 154.563 81.9146 154.307 81.5879 154.12C81.2706 153.933 80.9019 153.84 80.4819 153.84C80.0526 153.84 79.6746 153.933 79.3479 154.12C79.0306 154.307 78.7786 154.568 78.5919 154.904C78.4146 155.231 78.3259 155.618 78.3259 156.066V156.346C78.3259 156.794 78.4286 157.191 78.6339 157.536C78.8393 157.881 79.1286 158.147 79.5019 158.334C79.8753 158.521 80.3046 158.614 80.7899 158.614C81.2099 158.614 81.5879 158.549 81.9239 158.418C82.2599 158.287 82.5586 158.082 82.8199 157.802L83.7579 158.88C83.4219 159.272 82.9973 159.575 82.4839 159.79C81.9799 159.995 81.4013 160.098 80.7479 160.098ZM94.0541 152.44C94.6514 152.44 95.1834 152.557 95.6501 152.79C96.1261 153.023 96.4994 153.383 96.7701 153.868C97.0407 154.344 97.1761 154.96 97.1761 155.716V160H95.4261V155.94C95.4261 155.277 95.2674 154.783 94.9501 154.456C94.6421 154.129 94.2081 153.966 93.6481 153.966C93.2374 153.966 92.8734 154.05 92.5561 154.218C92.2387 154.386 91.9914 154.638 91.8141 154.974C91.6461 155.301 91.5621 155.716 91.5621 156.22V160H89.8121V149.612H91.5621V154.54L91.1841 153.924C91.4454 153.448 91.8234 153.084 92.3181 152.832C92.8221 152.571 93.4007 152.44 94.0541 152.44ZM102.77 160.098C102.004 160.098 101.323 159.935 100.726 159.608C100.128 159.272 99.6571 158.815 99.3117 158.236C98.9664 157.657 98.7937 156.999 98.7937 156.262C98.7937 155.515 98.9664 154.857 99.3117 154.288C99.6571 153.709 100.128 153.257 100.726 152.93C101.323 152.603 102.004 152.44 102.77 152.44C103.544 152.44 104.23 152.603 104.828 152.93C105.434 153.257 105.906 153.705 106.242 154.274C106.587 154.843 106.76 155.506 106.76 156.262C106.76 156.999 106.587 157.657 106.242 158.236C105.906 158.815 105.434 159.272 104.828 159.608C104.23 159.935 103.544 160.098 102.77 160.098ZM102.77 158.6C103.199 158.6 103.582 158.507 103.918 158.32C104.254 158.133 104.515 157.863 104.702 157.508C104.898 157.153 104.996 156.738 104.996 156.262C104.996 155.777 104.898 155.361 104.702 155.016C104.515 154.661 104.254 154.391 103.918 154.204C103.582 154.017 103.204 153.924 102.784 153.924C102.354 153.924 101.972 154.017 101.636 154.204C101.309 154.391 101.048 154.661 100.852 155.016C100.656 155.361 100.558 155.777 100.558 156.262C100.558 156.738 100.656 157.153 100.852 157.508C101.048 157.863 101.309 158.133 101.636 158.32C101.972 158.507 102.35 158.6 102.77 158.6ZM108.433 160V149.612H110.183V160H108.433ZM115.644 160.098C114.925 160.098 114.277 159.939 113.698 159.622C113.129 159.295 112.681 158.847 112.354 158.278C112.027 157.709 111.864 157.037 111.864 156.262C111.864 155.487 112.027 154.815 112.354 154.246C112.681 153.677 113.129 153.233 113.698 152.916C114.277 152.599 114.925 152.44 115.644 152.44C116.269 152.44 116.829 152.58 117.324 152.86C117.819 153.131 118.211 153.546 118.5 154.106C118.789 154.666 118.934 155.385 118.934 156.262C118.934 157.13 118.794 157.849 118.514 158.418C118.234 158.978 117.847 159.398 117.352 159.678C116.857 159.958 116.288 160.098 115.644 160.098ZM115.854 158.6C116.274 158.6 116.647 158.507 116.974 158.32C117.31 158.133 117.576 157.863 117.772 157.508C117.977 157.153 118.08 156.738 118.08 156.262C118.08 155.777 117.977 155.361 117.772 155.016C117.576 154.661 117.31 154.391 116.974 154.204C116.647 154.017 116.274 153.924 115.854 153.924C115.434 153.924 115.056 154.017 114.72 154.204C114.393 154.391 114.127 154.661 113.922 155.016C113.726 155.361 113.628 155.777 113.628 156.262C113.628 156.738 113.726 157.153 113.922 157.508C114.127 157.863 114.393 158.133 114.72 158.32C115.056 158.507 115.434 158.6 115.854 158.6ZM118.122 160V158.236L118.192 156.248L118.052 154.26V149.612H119.788V160H118.122ZM125.605 160.098C124.775 160.098 124.047 159.935 123.421 159.608C122.805 159.272 122.325 158.815 121.979 158.236C121.643 157.657 121.475 156.999 121.475 156.262C121.475 155.515 121.639 154.857 121.965 154.288C122.301 153.709 122.759 153.257 123.337 152.93C123.925 152.603 124.593 152.44 125.339 152.44C126.067 152.44 126.716 152.599 127.285 152.916C127.855 153.233 128.303 153.681 128.629 154.26C128.956 154.839 129.119 155.52 129.119 156.304C129.119 156.379 129.115 156.463 129.105 156.556C129.105 156.649 129.101 156.738 129.091 156.822H122.861V155.66H128.167L127.481 156.024C127.491 155.595 127.402 155.217 127.215 154.89C127.029 154.563 126.772 154.307 126.445 154.12C126.128 153.933 125.759 153.84 125.339 153.84C124.91 153.84 124.532 153.933 124.205 154.12C123.888 154.307 123.636 154.568 123.449 154.904C123.272 155.231 123.183 155.618 123.183 156.066V156.346C123.183 156.794 123.286 157.191 123.491 157.536C123.697 157.881 123.986 158.147 124.359 158.334C124.733 158.521 125.162 158.614 125.647 158.614C126.067 158.614 126.445 158.549 126.781 158.418C127.117 158.287 127.416 158.082 127.677 157.802L128.615 158.88C128.279 159.272 127.855 159.575 127.341 159.79C126.837 159.995 126.259 160.098 125.605 160.098ZM130.8 160V152.524H132.466V154.582L132.27 153.98C132.494 153.476 132.844 153.093 133.32 152.832C133.806 152.571 134.408 152.44 135.126 152.44V154.106C135.052 154.087 134.982 154.078 134.916 154.078C134.851 154.069 134.786 154.064 134.72 154.064C134.058 154.064 133.53 154.26 133.138 154.652C132.746 155.035 132.55 155.609 132.55 156.374V160H130.8ZM142.2 160L139.456 152.524H141.108L143.46 159.118H142.676L145.14 152.524H146.61L149.004 159.118H148.234L150.656 152.524H152.21L149.452 160H147.772L145.588 154.162H146.106L143.88 160H142.2ZM153.414 160V152.524H155.164V160H153.414ZM154.296 151.292C153.969 151.292 153.698 151.189 153.484 150.984C153.278 150.779 153.176 150.531 153.176 150.242C153.176 149.943 153.278 149.696 153.484 149.5C153.698 149.295 153.969 149.192 154.296 149.192C154.622 149.192 154.888 149.29 155.094 149.486C155.308 149.673 155.416 149.911 155.416 150.2C155.416 150.508 155.313 150.769 155.108 150.984C154.902 151.189 154.632 151.292 154.296 151.292ZM160.275 160.098C159.453 160.098 158.819 159.888 158.37 159.468C157.923 159.039 157.699 158.409 157.699 157.578V150.872H159.449V157.536C159.449 157.891 159.537 158.166 159.715 158.362C159.901 158.558 160.158 158.656 160.485 158.656C160.877 158.656 161.203 158.553 161.465 158.348L161.955 159.594C161.749 159.762 161.497 159.888 161.199 159.972C160.9 160.056 160.592 160.098 160.275 160.098ZM156.467 153.98V152.58H161.451V153.98H156.467ZM167.636 152.44C168.233 152.44 168.765 152.557 169.232 152.79C169.708 153.023 170.081 153.383 170.352 153.868C170.623 154.344 170.758 154.96 170.758 155.716V160H169.008V155.94C169.008 155.277 168.849 154.783 168.532 154.456C168.224 154.129 167.79 153.966 167.23 153.966C166.819 153.966 166.455 154.05 166.138 154.218C165.821 154.386 165.573 154.638 165.396 154.974C165.228 155.301 165.144 155.716 165.144 156.22V160H163.394V149.612H165.144V154.54L164.766 153.924C165.027 153.448 165.405 153.084 165.9 152.832C166.404 152.571 166.983 152.44 167.636 152.44ZM181.593 160.14C180.828 160.14 180.123 160.019 179.479 159.776C178.845 159.524 178.289 159.174 177.813 158.726C177.337 158.269 176.969 157.732 176.707 157.116C176.446 156.5 176.315 155.828 176.315 155.1C176.315 154.372 176.446 153.7 176.707 153.084C176.969 152.468 177.337 151.936 177.813 151.488C178.299 151.031 178.863 150.681 179.507 150.438C180.151 150.186 180.856 150.06 181.621 150.06C182.452 150.06 183.199 150.195 183.861 150.466C184.533 150.737 185.098 151.133 185.555 151.656L184.407 152.776C184.025 152.393 183.609 152.113 183.161 151.936C182.723 151.749 182.237 151.656 181.705 151.656C181.192 151.656 180.716 151.74 180.277 151.908C179.839 152.076 179.461 152.314 179.143 152.622C178.826 152.93 178.579 153.294 178.401 153.714C178.233 154.134 178.149 154.596 178.149 155.1C178.149 155.595 178.233 156.052 178.401 156.472C178.579 156.892 178.826 157.261 179.143 157.578C179.461 157.886 179.834 158.124 180.263 158.292C180.693 158.46 181.169 158.544 181.691 158.544C182.177 158.544 182.643 158.469 183.091 158.32C183.549 158.161 183.983 157.9 184.393 157.536L185.429 158.894C184.916 159.305 184.319 159.617 183.637 159.832C182.965 160.037 182.284 160.14 181.593 160.14ZM183.707 158.656V154.988H185.429V158.894L183.707 158.656ZM187.83 160V150.2H191.862C192.73 150.2 193.472 150.34 194.088 150.62C194.713 150.9 195.194 151.301 195.53 151.824C195.866 152.347 196.034 152.967 196.034 153.686C196.034 154.405 195.866 155.025 195.53 155.548C195.194 156.071 194.713 156.472 194.088 156.752C193.472 157.032 192.73 157.172 191.862 157.172H188.838L189.65 156.318V160H187.83ZM189.65 156.514L188.838 155.632H191.778C192.58 155.632 193.182 155.464 193.584 155.128C193.994 154.783 194.2 154.302 194.2 153.686C194.2 153.061 193.994 152.58 193.584 152.244C193.182 151.908 192.58 151.74 191.778 151.74H188.838L189.65 150.844V156.514ZM201.026 160.14C200.261 160.14 199.528 160.033 198.828 159.818C198.128 159.594 197.573 159.309 197.162 158.964L197.792 157.55C198.184 157.858 198.669 158.115 199.248 158.32C199.827 158.525 200.419 158.628 201.026 158.628C201.539 158.628 201.955 158.572 202.272 158.46C202.589 158.348 202.823 158.199 202.972 158.012C203.121 157.816 203.196 157.597 203.196 157.354C203.196 157.055 203.089 156.817 202.874 156.64C202.659 156.453 202.379 156.309 202.034 156.206C201.698 156.094 201.32 155.991 200.9 155.898C200.489 155.805 200.074 155.697 199.654 155.576C199.243 155.445 198.865 155.282 198.52 155.086C198.184 154.881 197.909 154.61 197.694 154.274C197.479 153.938 197.372 153.509 197.372 152.986C197.372 152.454 197.512 151.969 197.792 151.53C198.081 151.082 198.515 150.727 199.094 150.466C199.682 150.195 200.424 150.06 201.32 150.06C201.908 150.06 202.491 150.135 203.07 150.284C203.649 150.433 204.153 150.648 204.582 150.928L204.008 152.342C203.569 152.081 203.117 151.889 202.65 151.768C202.183 151.637 201.735 151.572 201.306 151.572C200.802 151.572 200.391 151.633 200.074 151.754C199.766 151.875 199.537 152.034 199.388 152.23C199.248 152.426 199.178 152.65 199.178 152.902C199.178 153.201 199.281 153.443 199.486 153.63C199.701 153.807 199.976 153.947 200.312 154.05C200.657 154.153 201.04 154.255 201.46 154.358C201.88 154.451 202.295 154.559 202.706 154.68C203.126 154.801 203.504 154.96 203.84 155.156C204.185 155.352 204.461 155.618 204.666 155.954C204.881 156.29 204.988 156.715 204.988 157.228C204.988 157.751 204.843 158.236 204.554 158.684C204.274 159.123 203.84 159.477 203.252 159.748C202.664 160.009 201.922 160.14 201.026 160.14Z" fill="black"/>
</g>
<defs>
<filter id="filter0_d_1802_3035" x="0" y="0" width="243" height="243" filterUnits="userSpaceOnUse" color-interpolation-filters="sRGB">
<feFlood flood-opacity="0" result="BackgroundImageFix"/>
<feColorMatrix in="SourceAlpha" type="matrix" values="0 0 0 0 0 0 0 0 0 0 0 0 0 0 0 0 0 0 127 0" result="hardAlpha"/>
<feOffset dy="4"/>
<feGaussianBlur stdDeviation="2"/>
<feComposite in2="hardAlpha" operator="out"/>
<feColorMatrix type="matrix" values="0 0 0 0 0 0 0 0 0 0 0 0 0 0 0 0 0 0 0.25 0"/>
<feBlend mode="normal" in2="BackgroundImageFix" result="effect1_dropShadow_1802_3035"/>
<feBlend mode="normal" in="SourceGraphic" in2="effect1_dropShadow_1802_3035" result="shape"/>
</filter>
</defs>
</svg>
