<svg width="243" height="243" viewBox="0 0 243 243" fill="none" xmlns="http://www.w3.org/2000/svg">
<g filter="url(#filter0_d_1802_3170)">
<rect x="4" width="235" height="235" rx="15" fill="#BAEBDA"/>
<path d="M53.064 119.2H56.184V136H53.064V119.2ZM44.376 136H41.256V119.2H44.376V136ZM53.304 128.8H44.112V126.136H53.304V128.8ZM66.4217 136.168C64.9977 136.168 63.7497 135.888 62.6777 135.328C61.6217 134.752 60.7977 133.968 60.2057 132.976C59.6297 131.984 59.3417 130.856 59.3417 129.592C59.3417 128.312 59.6217 127.184 60.1817 126.208C60.7577 125.216 61.5417 124.44 62.5337 123.88C63.5417 123.32 64.6857 123.04 65.9657 123.04C67.2137 123.04 68.3257 123.312 69.3017 123.856C70.2777 124.4 71.0457 125.168 71.6057 126.16C72.1657 127.152 72.4457 128.32 72.4457 129.664C72.4457 129.792 72.4377 129.936 72.4217 130.096C72.4217 130.256 72.4137 130.408 72.3977 130.552H61.7177V128.56H70.8137L69.6377 129.184C69.6537 128.448 69.5017 127.8 69.1817 127.24C68.8617 126.68 68.4217 126.24 67.8617 125.92C67.3177 125.6 66.6857 125.44 65.9657 125.44C65.2297 125.44 64.5817 125.6 64.0217 125.92C63.4777 126.24 63.0457 126.688 62.7257 127.264C62.4217 127.824 62.2697 128.488 62.2697 129.256V129.736C62.2697 130.504 62.4457 131.184 62.7977 131.776C63.1497 132.368 63.6457 132.824 64.2857 133.144C64.9257 133.464 65.6617 133.624 66.4937 133.624C67.2137 133.624 67.8617 133.512 68.4377 133.288C69.0137 133.064 69.5257 132.712 69.9737 132.232L71.5817 134.08C71.0057 134.752 70.2777 135.272 69.3977 135.64C68.5337 135.992 67.5417 136.168 66.4217 136.168ZM82.8718 136V133.408L82.7038 132.856V128.32C82.7038 127.44 82.4398 126.76 81.9118 126.28C81.3838 125.784 80.5838 125.536 79.5118 125.536C78.7918 125.536 78.0798 125.648 77.3758 125.872C76.6878 126.096 76.1038 126.408 75.6238 126.808L74.4478 124.624C75.1358 124.096 75.9518 123.704 76.8958 123.448C77.8558 123.176 78.8478 123.04 79.8718 123.04C81.7278 123.04 83.1598 123.488 84.1678 124.384C85.1918 125.264 85.7038 126.632 85.7038 128.488V136H82.8718ZM78.8398 136.168C77.8798 136.168 77.0398 136.008 76.3198 135.688C75.5998 135.352 75.0398 134.896 74.6398 134.32C74.2558 133.728 74.0638 133.064 74.0638 132.328C74.0638 131.608 74.2318 130.96 74.5678 130.384C74.9198 129.808 75.4878 129.352 76.2718 129.016C77.0558 128.68 78.0958 128.512 79.3918 128.512H83.1118V130.504H79.6078C78.5838 130.504 77.8958 130.672 77.5438 131.008C77.1918 131.328 77.0158 131.728 77.0158 132.208C77.0158 132.752 77.2318 133.184 77.6638 133.504C78.0958 133.824 78.6958 133.984 79.4638 133.984C80.1998 133.984 80.8558 133.816 81.4318 133.48C82.0238 133.144 82.4478 132.648 82.7038 131.992L83.2078 133.792C82.9198 134.544 82.3998 135.128 81.6478 135.544C80.9118 135.96 79.9758 136.168 78.8398 136.168ZM94.3779 136.168C92.9699 136.168 91.8819 135.808 91.1139 135.088C90.3459 134.352 89.9619 133.272 89.9619 131.848V120.352H92.9619V131.776C92.9619 132.384 93.1139 132.856 93.4179 133.192C93.7379 133.528 94.1779 133.696 94.7379 133.696C95.4099 133.696 95.9699 133.52 96.4179 133.168L97.2579 135.304C96.9059 135.592 96.4739 135.808 95.9619 135.952C95.4499 136.096 94.9219 136.168 94.3779 136.168ZM87.8499 125.68V123.28H96.3939V125.68H87.8499ZM105.328 136.168C103.904 136.168 102.656 135.888 101.584 135.328C100.528 134.752 99.7039 133.968 99.1119 132.976C98.5359 131.984 98.2479 130.856 98.2479 129.592C98.2479 128.312 98.5279 127.184 99.0879 126.208C99.6639 125.216 100.448 124.44 101.44 123.88C102.448 123.32 103.592 123.04 104.872 123.04C106.12 123.04 107.232 123.312 108.208 123.856C109.184 124.4 109.952 125.168 110.512 126.16C111.072 127.152 111.352 128.32 111.352 129.664C111.352 129.792 111.344 129.936 111.328 130.096C111.328 130.256 111.32 130.408 111.304 130.552H100.624V128.56H109.72L108.544 129.184C108.56 128.448 108.408 127.8 108.088 127.24C107.768 126.68 107.328 126.24 106.768 125.92C106.224 125.6 105.592 125.44 104.872 125.44C104.136 125.44 103.488 125.6 102.928 125.92C102.384 126.24 101.952 126.688 101.632 127.264C101.328 127.824 101.176 128.488 101.176 129.256V129.736C101.176 130.504 101.352 131.184 101.704 131.776C102.056 132.368 102.552 132.824 103.192 133.144C103.832 133.464 104.568 133.624 105.4 133.624C106.12 133.624 106.768 133.512 107.344 133.288C107.92 133.064 108.432 132.712 108.88 132.232L110.488 134.08C109.912 134.752 109.184 135.272 108.304 135.64C107.44 135.992 106.448 136.168 105.328 136.168ZM119.658 136.168C118.426 136.168 117.314 135.896 116.322 135.352C115.346 134.792 114.578 134.024 114.018 133.048C113.458 132.072 113.178 130.92 113.178 129.592C113.178 128.264 113.458 127.112 114.018 126.136C114.578 125.16 115.346 124.4 116.322 123.856C117.314 123.312 118.426 123.04 119.658 123.04C120.73 123.04 121.69 123.28 122.538 123.76C123.386 124.224 124.058 124.936 124.554 125.896C125.05 126.856 125.298 128.088 125.298 129.592C125.298 131.08 125.058 132.312 124.578 133.288C124.098 134.248 123.434 134.968 122.586 135.448C121.738 135.928 120.762 136.168 119.658 136.168ZM120.018 133.6C120.738 133.6 121.378 133.44 121.938 133.12C122.514 132.8 122.97 132.336 123.306 131.728C123.658 131.12 123.834 130.408 123.834 129.592C123.834 128.76 123.658 128.048 123.306 127.456C122.97 126.848 122.514 126.384 121.938 126.064C121.378 125.744 120.738 125.584 120.018 125.584C119.298 125.584 118.65 125.744 118.074 126.064C117.514 126.384 117.058 126.848 116.706 127.456C116.37 128.048 116.202 128.76 116.202 129.592C116.202 130.408 116.37 131.12 116.706 131.728C117.058 132.336 117.514 132.8 118.074 133.12C118.65 133.44 119.298 133.6 120.018 133.6ZM123.906 136V132.976L124.026 129.568L123.786 126.16V118.192H126.762V136H123.906ZM142.839 136.24C141.527 136.24 140.271 136.056 139.071 135.688C137.871 135.304 136.919 134.816 136.215 134.224L137.295 131.8C137.967 132.328 138.799 132.768 139.791 133.12C140.783 133.472 141.799 133.648 142.839 133.648C143.719 133.648 144.431 133.552 144.975 133.36C145.519 133.168 145.919 132.912 146.175 132.592C146.431 132.256 146.559 131.88 146.559 131.464C146.559 130.952 146.375 130.544 146.007 130.24C145.639 129.92 145.159 129.672 144.567 129.496C143.991 129.304 143.343 129.128 142.623 128.968C141.919 128.808 141.207 128.624 140.487 128.416C139.783 128.192 139.135 127.912 138.543 127.576C137.967 127.224 137.495 126.76 137.127 126.184C136.759 125.608 136.575 124.872 136.575 123.976C136.575 123.064 136.815 122.232 137.295 121.48C137.791 120.712 138.535 120.104 139.527 119.656C140.535 119.192 141.807 118.96 143.343 118.96C144.351 118.96 145.351 119.088 146.343 119.344C147.335 119.6 148.199 119.968 148.935 120.448L147.951 122.872C147.199 122.424 146.423 122.096 145.623 121.888C144.823 121.664 144.055 121.552 143.319 121.552C142.455 121.552 141.751 121.656 141.207 121.864C140.679 122.072 140.287 122.344 140.031 122.68C139.791 123.016 139.671 123.4 139.671 123.832C139.671 124.344 139.847 124.76 140.199 125.08C140.567 125.384 141.039 125.624 141.615 125.8C142.207 125.976 142.863 126.152 143.583 126.328C144.303 126.488 145.015 126.672 145.719 126.88C146.439 127.088 147.087 127.36 147.663 127.696C148.255 128.032 148.727 128.488 149.079 129.064C149.447 129.64 149.631 130.368 149.631 131.248C149.631 132.144 149.383 132.976 148.887 133.744C148.407 134.496 147.663 135.104 146.655 135.568C145.647 136.016 144.375 136.24 142.839 136.24ZM158.461 136.168C157.037 136.168 155.789 135.888 154.717 135.328C153.661 134.752 152.837 133.968 152.245 132.976C151.669 131.984 151.381 130.856 151.381 129.592C151.381 128.312 151.661 127.184 152.221 126.208C152.797 125.216 153.581 124.44 154.573 123.88C155.581 123.32 156.725 123.04 158.005 123.04C159.253 123.04 160.365 123.312 161.341 123.856C162.317 124.4 163.085 125.168 163.645 126.16C164.205 127.152 164.485 128.32 164.485 129.664C164.485 129.792 164.477 129.936 164.461 130.096C164.461 130.256 164.453 130.408 164.437 130.552H153.757V128.56H162.853L161.677 129.184C161.693 128.448 161.541 127.8 161.221 127.24C160.901 126.68 160.461 126.24 159.901 125.92C159.357 125.6 158.725 125.44 158.005 125.44C157.269 125.44 156.621 125.6 156.061 125.92C155.517 126.24 155.085 126.688 154.765 127.264C154.461 127.824 154.309 128.488 154.309 129.256V129.736C154.309 130.504 154.485 131.184 154.837 131.776C155.189 132.368 155.685 132.824 156.325 133.144C156.965 133.464 157.701 133.624 158.533 133.624C159.253 133.624 159.901 133.512 160.477 133.288C161.053 133.064 161.565 132.712 162.013 132.232L163.621 134.08C163.045 134.752 162.317 135.272 161.437 135.64C160.573 135.992 159.581 136.168 158.461 136.168ZM174.911 136V133.408L174.743 132.856V128.32C174.743 127.44 174.479 126.76 173.951 126.28C173.423 125.784 172.623 125.536 171.551 125.536C170.831 125.536 170.119 125.648 169.415 125.872C168.727 126.096 168.143 126.408 167.663 126.808L166.487 124.624C167.175 124.096 167.991 123.704 168.935 123.448C169.895 123.176 170.887 123.04 171.911 123.04C173.767 123.04 175.199 123.488 176.207 124.384C177.231 125.264 177.743 126.632 177.743 128.488V136H174.911ZM170.879 136.168C169.919 136.168 169.079 136.008 168.359 135.688C167.639 135.352 167.079 134.896 166.679 134.32C166.295 133.728 166.103 133.064 166.103 132.328C166.103 131.608 166.271 130.96 166.607 130.384C166.959 129.808 167.527 129.352 168.311 129.016C169.095 128.68 170.135 128.512 171.431 128.512H175.151V130.504H171.647C170.623 130.504 169.935 130.672 169.583 131.008C169.231 131.328 169.055 131.728 169.055 132.208C169.055 132.752 169.271 133.184 169.703 133.504C170.135 133.824 170.735 133.984 171.503 133.984C172.239 133.984 172.895 133.816 173.471 133.48C174.063 133.144 174.487 132.648 174.743 131.992L175.247 133.792C174.959 134.544 174.439 135.128 173.687 135.544C172.951 135.96 172.015 136.168 170.879 136.168ZM186.417 136.168C185.009 136.168 183.921 135.808 183.153 135.088C182.385 134.352 182.001 133.272 182.001 131.848V120.352H185.001V131.776C185.001 132.384 185.153 132.856 185.457 133.192C185.777 133.528 186.217 133.696 186.777 133.696C187.449 133.696 188.009 133.52 188.457 133.168L189.297 135.304C188.945 135.592 188.513 135.808 188.001 135.952C187.489 136.096 186.961 136.168 186.417 136.168ZM179.889 125.68V123.28H188.433V125.68H179.889ZM195.725 136.168C194.653 136.168 193.621 136.032 192.629 135.76C191.653 135.472 190.877 135.128 190.301 134.728L191.453 132.448C192.029 132.816 192.717 133.12 193.517 133.36C194.317 133.6 195.117 133.72 195.917 133.72C196.861 133.72 197.541 133.592 197.957 133.336C198.389 133.08 198.605 132.736 198.605 132.304C198.605 131.952 198.461 131.688 198.173 131.512C197.885 131.32 197.509 131.176 197.045 131.08C196.581 130.984 196.061 130.896 195.485 130.816C194.925 130.736 194.357 130.632 193.781 130.504C193.221 130.36 192.709 130.16 192.245 129.904C191.781 129.632 191.405 129.272 191.117 128.824C190.829 128.376 190.685 127.784 190.685 127.048C190.685 126.232 190.917 125.528 191.381 124.936C191.845 124.328 192.493 123.864 193.325 123.544C194.173 123.208 195.173 123.04 196.325 123.04C197.189 123.04 198.061 123.136 198.941 123.328C199.821 123.52 200.549 123.792 201.125 124.144L199.973 126.424C199.365 126.056 198.749 125.808 198.125 125.68C197.517 125.536 196.909 125.464 196.301 125.464C195.389 125.464 194.709 125.6 194.261 125.872C193.829 126.144 193.613 126.488 193.613 126.904C193.613 127.288 193.757 127.576 194.045 127.768C194.333 127.96 194.709 128.112 195.173 128.224C195.637 128.336 196.149 128.432 196.709 128.512C197.285 128.576 197.853 128.68 198.413 128.824C198.973 128.968 199.485 129.168 199.949 129.424C200.429 129.664 200.813 130.008 201.101 130.456C201.389 130.904 201.533 131.488 201.533 132.208C201.533 133.008 201.293 133.704 200.813 134.296C200.349 134.888 199.685 135.352 198.821 135.688C197.957 136.008 196.925 136.168 195.725 136.168Z" fill="black"/>
<mask id="mask0_1802_3170" style="mask-type:alpha" maskUnits="userSpaceOnUse" x="101" y="63" width="40" height="40">
<rect x="101" y="63" width="40" height="40" fill="#D9D9D9"/>
</mask>
<g mask="url(#mask0_1802_3170)">
<path d="M132.833 79.3743L130.75 77.9993L131.125 77.4577C131.208 77.3188 131.278 77.173 131.333 77.0202C131.389 76.8674 131.417 76.7077 131.417 76.541C131.417 76.3188 131.375 76.1105 131.292 75.916C131.208 75.7216 131.055 75.5132 130.833 75.291C130.5 74.9577 130.229 74.541 130.021 74.041C129.812 73.541 129.708 73.0132 129.708 72.4577C129.708 72.041 129.771 71.6452 129.896 71.2702C130.021 70.8952 130.194 70.541 130.417 70.2077L130.792 69.666L132.875 71.041L132.5 71.5827C132.417 71.7216 132.347 71.8674 132.292 72.0202C132.236 72.173 132.208 72.3327 132.208 72.4993C132.208 72.7216 132.257 72.9368 132.354 73.1452C132.451 73.3535 132.597 73.5549 132.792 73.7493C133.097 74.0549 133.347 74.416 133.542 74.8327C133.736 75.2493 133.861 75.6938 133.917 76.166C133.972 76.6382 133.937 77.1035 133.812 77.5618C133.687 78.0202 133.486 78.4438 133.208 78.8327L132.833 79.3743ZM127.792 79.2493L125.542 78.1243L125.875 77.4993C125.958 77.3605 126.014 77.2077 126.042 77.041C126.069 76.8743 126.083 76.7077 126.083 76.541C126.083 76.3188 126.042 76.0896 125.958 75.8535C125.875 75.6174 125.75 75.3882 125.583 75.166C125.305 74.8049 125.097 74.3882 124.958 73.916C124.819 73.4438 124.75 72.9716 124.75 72.4993C124.75 72.1382 124.792 71.7771 124.875 71.416C124.958 71.0549 125.083 70.7216 125.25 70.416L125.542 69.791L127.792 70.916L127.458 71.541C127.375 71.6799 127.319 71.8327 127.292 71.9993C127.264 72.166 127.25 72.3327 127.25 72.4993C127.25 72.7216 127.292 72.9507 127.375 73.1868C127.458 73.423 127.583 73.6521 127.75 73.8743C128.028 74.2355 128.236 74.6521 128.375 75.1243C128.514 75.5966 128.583 76.0688 128.583 76.541C128.583 76.9021 128.542 77.2563 128.458 77.6035C128.375 77.9507 128.25 78.2771 128.083 78.5827L127.792 79.2493ZM120.792 76.3327L119.333 66.3327C120.222 66.0271 121.208 65.7493 122.292 65.4993C123.208 65.2771 124.271 65.0827 125.479 64.916C126.687 64.7493 127.972 64.666 129.333 64.666C132.083 64.666 134.437 64.9438 136.396 65.4993L139.333 66.3327L137.875 76.3327H135.333L136.542 68.1243C135.347 67.8188 134.153 67.5827 132.958 67.416C131.764 67.2493 130.555 67.166 129.333 67.166C128.111 67.166 126.903 67.2493 125.708 67.416C124.514 67.5827 123.319 67.8188 122.125 68.1243L123.333 76.3327H120.792ZM131.458 99.666L126.625 91.3327H116.25C115.444 91.3327 114.729 91.0827 114.104 90.5827C113.479 90.0827 113.097 89.4438 112.958 88.666L111.167 79.7077C110.917 78.3743 111.215 77.2007 112.062 76.1868C112.91 75.173 114 74.666 115.333 74.666C116.278 74.666 117.125 74.9716 117.875 75.5827C118.625 76.1938 119.139 76.9855 119.417 77.9577L121.833 86.3327H125.667C126.278 86.3327 126.84 86.4785 127.354 86.7702C127.868 87.0618 128.278 87.4716 128.583 87.9993L134.333 97.9993L131.458 99.666ZM110.292 99.666C109.542 99.666 108.875 99.4368 108.292 98.9785C107.708 98.5202 107.305 97.9299 107.083 97.2077L103.083 81.666C102.944 81.1938 102.847 80.7424 102.792 80.3118C102.736 79.8813 102.708 79.4716 102.708 79.0827C102.708 78.3327 102.799 77.5827 102.979 76.8327C103.16 76.0827 103.43 75.3466 103.792 74.6243C104.042 74.1243 104.396 73.7285 104.854 73.4368C105.312 73.1452 105.819 72.9993 106.375 72.9993C107.014 72.9993 107.569 73.2355 108.042 73.7077C108.514 74.1799 108.75 74.7355 108.75 75.3743C108.75 75.6799 108.694 75.9716 108.583 76.2493C108.472 76.5271 108.305 76.7771 108.083 76.9993C107.555 77.5271 107.236 78.1591 107.125 78.8952C107.014 79.6313 107.125 80.3605 107.458 81.0827L108.292 82.8327C109.208 84.8049 109.896 86.7146 110.354 88.5618C110.812 90.4091 111.042 92.2077 111.042 93.9577V95.791C111.597 95.4021 112.139 95.1174 112.667 94.9368C113.194 94.7563 113.708 94.666 114.208 94.666H122.708C123.653 94.666 124.451 94.9924 125.104 95.6452C125.757 96.298 126.083 97.0827 126.083 97.9993V99.666H110.292ZM114.333 72.9993C113.417 72.9993 112.632 72.673 111.979 72.0202C111.326 71.3674 111 70.5827 111 69.666C111 68.7493 111.326 67.9646 111.979 67.3118C112.632 66.6591 113.417 66.3327 114.333 66.3327C115.25 66.3327 116.035 66.6591 116.687 67.3118C117.34 67.9646 117.667 68.7493 117.667 69.666C117.667 70.5827 117.34 71.3674 116.687 72.0202C116.035 72.673 115.25 72.9993 114.333 72.9993Z" fill="#1C1B1F"/>
</g>
<path opacity="0.7" d="M47.704 150.2H49.524V160H47.704V150.2ZM42.636 160H40.816V150.2H42.636V160ZM47.844 155.8H42.482V154.246H47.844V155.8ZM55.496 160.098C54.6653 160.098 53.9373 159.935 53.312 159.608C52.696 159.272 52.2153 158.815 51.87 158.236C51.534 157.657 51.366 156.999 51.366 156.262C51.366 155.515 51.5293 154.857 51.856 154.288C52.192 153.709 52.6493 153.257 53.228 152.93C53.816 152.603 54.4833 152.44 55.23 152.44C55.958 152.44 56.6067 152.599 57.176 152.916C57.7453 153.233 58.1933 153.681 58.52 154.26C58.8467 154.839 59.01 155.52 59.01 156.304C59.01 156.379 59.0053 156.463 58.996 156.556C58.996 156.649 58.9913 156.738 58.982 156.822H52.752V155.66H58.058L57.372 156.024C57.3813 155.595 57.2927 155.217 57.106 154.89C56.9193 154.563 56.6627 154.307 56.336 154.12C56.0187 153.933 55.65 153.84 55.23 153.84C54.8007 153.84 54.4227 153.933 54.096 154.12C53.7787 154.307 53.5267 154.568 53.34 154.904C53.1627 155.231 53.074 155.618 53.074 156.066V156.346C53.074 156.794 53.1767 157.191 53.382 157.536C53.5873 157.881 53.8767 158.147 54.25 158.334C54.6233 158.521 55.0527 158.614 55.538 158.614C55.958 158.614 56.336 158.549 56.672 158.418C57.008 158.287 57.3067 158.082 57.568 157.802L58.506 158.88C58.17 159.272 57.7453 159.575 57.232 159.79C56.728 159.995 56.1493 160.098 55.496 160.098ZM65.0919 160V158.488L64.9939 158.166V155.52C64.9939 155.007 64.8399 154.61 64.5319 154.33C64.2239 154.041 63.7572 153.896 63.1319 153.896C62.7119 153.896 62.2966 153.961 61.8859 154.092C61.4846 154.223 61.1439 154.405 60.8639 154.638L60.1779 153.364C60.5792 153.056 61.0552 152.827 61.6059 152.678C62.1659 152.519 62.7446 152.44 63.3419 152.44C64.4246 152.44 65.2599 152.701 65.8479 153.224C66.4452 153.737 66.7439 154.535 66.7439 155.618V160H65.0919ZM62.7399 160.098C62.1799 160.098 61.6899 160.005 61.2699 159.818C60.8499 159.622 60.5232 159.356 60.2899 159.02C60.0659 158.675 59.9539 158.287 59.9539 157.858C59.9539 157.438 60.0519 157.06 60.2479 156.724C60.4532 156.388 60.7846 156.122 61.2419 155.926C61.6992 155.73 62.3059 155.632 63.0619 155.632H65.2319V156.794H63.1879C62.5906 156.794 62.1892 156.892 61.9839 157.088C61.7786 157.275 61.6759 157.508 61.6759 157.788C61.6759 158.105 61.8019 158.357 62.0539 158.544C62.3059 158.731 62.6559 158.824 63.1039 158.824C63.5332 158.824 63.9159 158.726 64.2519 158.53C64.5972 158.334 64.8446 158.045 64.9939 157.662L65.2879 158.712C65.1199 159.151 64.8166 159.491 64.3779 159.734C63.9486 159.977 63.4026 160.098 62.7399 160.098ZM71.8038 160.098C70.9825 160.098 70.3478 159.888 69.8998 159.468C69.4518 159.039 69.2278 158.409 69.2278 157.578V150.872H70.9778V157.536C70.9778 157.891 71.0665 158.166 71.2438 158.362C71.4305 158.558 71.6871 158.656 72.0138 158.656C72.4058 158.656 72.7325 158.553 72.9938 158.348L73.4838 159.594C73.2785 159.762 73.0265 159.888 72.7278 159.972C72.4291 160.056 72.1211 160.098 71.8038 160.098ZM67.9958 153.98V152.58H72.9798V153.98H67.9958ZM78.1913 160.098C77.3606 160.098 76.6326 159.935 76.0073 159.608C75.3913 159.272 74.9106 158.815 74.5653 158.236C74.2293 157.657 74.0613 156.999 74.0613 156.262C74.0613 155.515 74.2246 154.857 74.5513 154.288C74.8873 153.709 75.3446 153.257 75.9233 152.93C76.5113 152.603 77.1786 152.44 77.9253 152.44C78.6533 152.44 79.302 152.599 79.8713 152.916C80.4406 153.233 80.8886 153.681 81.2153 154.26C81.542 154.839 81.7053 155.52 81.7053 156.304C81.7053 156.379 81.7006 156.463 81.6913 156.556C81.6913 156.649 81.6866 156.738 81.6773 156.822H75.4473V155.66H80.7533L80.0673 156.024C80.0766 155.595 79.988 155.217 79.8013 154.89C79.6146 154.563 79.358 154.307 79.0313 154.12C78.714 153.933 78.3453 153.84 77.9253 153.84C77.496 153.84 77.118 153.933 76.7913 154.12C76.474 154.307 76.222 154.568 76.0353 154.904C75.858 155.231 75.7693 155.618 75.7693 156.066V156.346C75.7693 156.794 75.872 157.191 76.0773 157.536C76.2826 157.881 76.572 158.147 76.9453 158.334C77.3186 158.521 77.748 158.614 78.2333 158.614C78.6533 158.614 79.0313 158.549 79.3673 158.418C79.7033 158.287 80.002 158.082 80.2633 157.802L81.2013 158.88C80.8653 159.272 80.4406 159.575 79.9273 159.79C79.4233 159.995 78.8446 160.098 78.1913 160.098ZM86.5503 160.098C85.8316 160.098 85.1829 159.939 84.6043 159.622C84.0349 159.295 83.5869 158.847 83.2603 158.278C82.9336 157.709 82.7703 157.037 82.7703 156.262C82.7703 155.487 82.9336 154.815 83.2603 154.246C83.5869 153.677 84.0349 153.233 84.6043 152.916C85.1829 152.599 85.8316 152.44 86.5503 152.44C87.1756 152.44 87.7356 152.58 88.2303 152.86C88.7249 153.131 89.1169 153.546 89.4063 154.106C89.6956 154.666 89.8403 155.385 89.8403 156.262C89.8403 157.13 89.7003 157.849 89.4203 158.418C89.1403 158.978 88.7529 159.398 88.2583 159.678C87.7636 159.958 87.1943 160.098 86.5503 160.098ZM86.7603 158.6C87.1803 158.6 87.5536 158.507 87.8803 158.32C88.2163 158.133 88.4823 157.863 88.6783 157.508C88.8836 157.153 88.9863 156.738 88.9863 156.262C88.9863 155.777 88.8836 155.361 88.6783 155.016C88.4823 154.661 88.2163 154.391 87.8803 154.204C87.5536 154.017 87.1803 153.924 86.7603 153.924C86.3403 153.924 85.9623 154.017 85.6263 154.204C85.2996 154.391 85.0336 154.661 84.8283 155.016C84.6323 155.361 84.5343 155.777 84.5343 156.262C84.5343 156.738 84.6323 157.153 84.8283 157.508C85.0336 157.863 85.2996 158.133 85.6263 158.32C85.9623 158.507 86.3403 158.6 86.7603 158.6ZM89.0283 160V158.236L89.0983 156.248L88.9583 154.26V149.612H90.6943V160H89.0283ZM100.073 160.14C99.3074 160.14 98.5748 160.033 97.8748 159.818C97.1748 159.594 96.6194 159.309 96.2088 158.964L96.8388 157.55C97.2308 157.858 97.7161 158.115 98.2948 158.32C98.8734 158.525 99.4661 158.628 100.073 158.628C100.586 158.628 101.001 158.572 101.319 158.46C101.636 158.348 101.869 158.199 102.019 158.012C102.168 157.816 102.243 157.597 102.243 157.354C102.243 157.055 102.135 156.817 101.921 156.64C101.706 156.453 101.426 156.309 101.081 156.206C100.745 156.094 100.367 155.991 99.9468 155.898C99.5361 155.805 99.1208 155.697 98.7008 155.576C98.2901 155.445 97.9121 155.282 97.5667 155.086C97.2308 154.881 96.9554 154.61 96.7408 154.274C96.5261 153.938 96.4188 153.509 96.4188 152.986C96.4188 152.454 96.5588 151.969 96.8388 151.53C97.1281 151.082 97.5621 150.727 98.1408 150.466C98.7288 150.195 99.4708 150.06 100.367 150.06C100.955 150.06 101.538 150.135 102.117 150.284C102.695 150.433 103.199 150.648 103.629 150.928L103.055 152.342C102.616 152.081 102.163 151.889 101.697 151.768C101.23 151.637 100.782 151.572 100.353 151.572C99.8488 151.572 99.4381 151.633 99.1208 151.754C98.8128 151.875 98.5841 152.034 98.4348 152.23C98.2948 152.426 98.2248 152.65 98.2248 152.902C98.2248 153.201 98.3274 153.443 98.5328 153.63C98.7474 153.807 99.0228 153.947 99.3588 154.05C99.7041 154.153 100.087 154.255 100.507 154.358C100.927 154.451 101.342 154.559 101.753 154.68C102.173 154.801 102.551 154.96 102.887 155.156C103.232 155.352 103.507 155.618 103.713 155.954C103.927 156.29 104.035 156.715 104.035 157.228C104.035 157.751 103.89 158.236 103.601 158.684C103.321 159.123 102.887 159.477 102.299 159.748C101.711 160.009 100.969 160.14 100.073 160.14ZM109.185 160.098C108.355 160.098 107.627 159.935 107.001 159.608C106.385 159.272 105.905 158.815 105.559 158.236C105.223 157.657 105.055 156.999 105.055 156.262C105.055 155.515 105.219 154.857 105.545 154.288C105.881 153.709 106.339 153.257 106.917 152.93C107.505 152.603 108.173 152.44 108.919 152.44C109.647 152.44 110.296 152.599 110.865 152.916C111.435 153.233 111.883 153.681 112.209 154.26C112.536 154.839 112.699 155.52 112.699 156.304C112.699 156.379 112.695 156.463 112.685 156.556C112.685 156.649 112.681 156.738 112.671 156.822H106.441V155.66H111.747L111.061 156.024C111.071 155.595 110.982 155.217 110.795 154.89C110.609 154.563 110.352 154.307 110.025 154.12C109.708 153.933 109.339 153.84 108.919 153.84C108.49 153.84 108.112 153.933 107.785 154.12C107.468 154.307 107.216 154.568 107.029 154.904C106.852 155.231 106.763 155.618 106.763 156.066V156.346C106.763 156.794 106.866 157.191 107.071 157.536C107.277 157.881 107.566 158.147 107.939 158.334C108.313 158.521 108.742 158.614 109.227 158.614C109.647 158.614 110.025 158.549 110.361 158.418C110.697 158.287 110.996 158.082 111.257 157.802L112.195 158.88C111.859 159.272 111.435 159.575 110.921 159.79C110.417 159.995 109.839 160.098 109.185 160.098ZM118.781 160V158.488L118.683 158.166V155.52C118.683 155.007 118.529 154.61 118.221 154.33C117.913 154.041 117.447 153.896 116.821 153.896C116.401 153.896 115.986 153.961 115.575 154.092C115.174 154.223 114.833 154.405 114.553 154.638L113.867 153.364C114.269 153.056 114.745 152.827 115.295 152.678C115.855 152.519 116.434 152.44 117.031 152.44C118.114 152.44 118.949 152.701 119.537 153.224C120.135 153.737 120.433 154.535 120.433 155.618V160H118.781ZM116.429 160.098C115.869 160.098 115.379 160.005 114.959 159.818C114.539 159.622 114.213 159.356 113.979 159.02C113.755 158.675 113.643 158.287 113.643 157.858C113.643 157.438 113.741 157.06 113.937 156.724C114.143 156.388 114.474 156.122 114.931 155.926C115.389 155.73 115.995 155.632 116.751 155.632H118.921V156.794H116.877C116.28 156.794 115.879 156.892 115.673 157.088C115.468 157.275 115.365 157.508 115.365 157.788C115.365 158.105 115.491 158.357 115.743 158.544C115.995 158.731 116.345 158.824 116.793 158.824C117.223 158.824 117.605 158.726 117.941 158.53C118.287 158.334 118.534 158.045 118.683 157.662L118.977 158.712C118.809 159.151 118.506 159.491 118.067 159.734C117.638 159.977 117.092 160.098 116.429 160.098ZM125.493 160.098C124.672 160.098 124.037 159.888 123.589 159.468C123.141 159.039 122.917 158.409 122.917 157.578V150.872H124.667V157.536C124.667 157.891 124.756 158.166 124.933 158.362C125.12 158.558 125.377 158.656 125.703 158.656C126.095 158.656 126.422 158.553 126.683 158.348L127.173 159.594C126.968 159.762 126.716 159.888 126.417 159.972C126.119 160.056 125.811 160.098 125.493 160.098ZM121.685 153.98V152.58H126.669V153.98H121.685ZM130.923 160.098C130.298 160.098 129.696 160.019 129.117 159.86C128.548 159.692 128.095 159.491 127.759 159.258L128.431 157.928C128.767 158.143 129.168 158.32 129.635 158.46C130.102 158.6 130.568 158.67 131.035 158.67C131.586 158.67 131.982 158.595 132.225 158.446C132.477 158.297 132.603 158.096 132.603 157.844C132.603 157.639 132.519 157.485 132.351 157.382C132.183 157.27 131.964 157.186 131.693 157.13C131.422 157.074 131.119 157.023 130.783 156.976C130.456 156.929 130.125 156.869 129.789 156.794C129.462 156.71 129.164 156.593 128.893 156.444C128.622 156.285 128.403 156.075 128.235 155.814C128.067 155.553 127.983 155.207 127.983 154.778C127.983 154.302 128.118 153.891 128.389 153.546C128.66 153.191 129.038 152.921 129.523 152.734C130.018 152.538 130.601 152.44 131.273 152.44C131.777 152.44 132.286 152.496 132.799 152.608C133.312 152.72 133.737 152.879 134.073 153.084L133.401 154.414C133.046 154.199 132.687 154.055 132.323 153.98C131.968 153.896 131.614 153.854 131.259 153.854C130.727 153.854 130.33 153.933 130.069 154.092C129.817 154.251 129.691 154.451 129.691 154.694C129.691 154.918 129.775 155.086 129.943 155.198C130.111 155.31 130.33 155.399 130.601 155.464C130.872 155.529 131.17 155.585 131.497 155.632C131.833 155.669 132.164 155.73 132.491 155.814C132.818 155.898 133.116 156.015 133.387 156.164C133.667 156.304 133.891 156.505 134.059 156.766C134.227 157.027 134.311 157.368 134.311 157.788C134.311 158.255 134.171 158.661 133.891 159.006C133.62 159.351 133.233 159.622 132.729 159.818C132.225 160.005 131.623 160.098 130.923 160.098ZM144.293 160V158.488L144.195 158.166V155.52C144.195 155.007 144.041 154.61 143.733 154.33C143.425 154.041 142.958 153.896 142.333 153.896C141.913 153.896 141.498 153.961 141.087 154.092C140.686 154.223 140.345 154.405 140.065 154.638L139.379 153.364C139.78 153.056 140.256 152.827 140.807 152.678C141.367 152.519 141.946 152.44 142.543 152.44C143.626 152.44 144.461 152.701 145.049 153.224C145.646 153.737 145.945 154.535 145.945 155.618V160H144.293ZM141.941 160.098C141.381 160.098 140.891 160.005 140.471 159.818C140.051 159.622 139.724 159.356 139.491 159.02C139.267 158.675 139.155 158.287 139.155 157.858C139.155 157.438 139.253 157.06 139.449 156.724C139.654 156.388 139.986 156.122 140.443 155.926C140.9 155.73 141.507 155.632 142.263 155.632H144.433V156.794H142.389C141.792 156.794 141.39 156.892 141.185 157.088C140.98 157.275 140.877 157.508 140.877 157.788C140.877 158.105 141.003 158.357 141.255 158.544C141.507 158.731 141.857 158.824 142.305 158.824C142.734 158.824 143.117 158.726 143.453 158.53C143.798 158.334 144.046 158.045 144.195 157.662L144.489 158.712C144.321 159.151 144.018 159.491 143.579 159.734C143.15 159.977 142.604 160.098 141.941 160.098ZM150.042 160L146.836 152.524H148.656L151.414 159.118H150.518L153.374 152.524H155.054L151.848 160H150.042ZM160.522 160V158.488L160.424 158.166V155.52C160.424 155.007 160.27 154.61 159.962 154.33C159.654 154.041 159.187 153.896 158.562 153.896C158.142 153.896 157.726 153.961 157.316 154.092C156.914 154.223 156.574 154.405 156.294 154.638L155.608 153.364C156.009 153.056 156.485 152.827 157.036 152.678C157.596 152.519 158.174 152.44 158.772 152.44C159.854 152.44 160.69 152.701 161.278 153.224C161.875 153.737 162.174 154.535 162.174 155.618V160H160.522ZM158.17 160.098C157.61 160.098 157.12 160.005 156.7 159.818C156.28 159.622 155.953 159.356 155.72 159.02C155.496 158.675 155.384 158.287 155.384 157.858C155.384 157.438 155.482 157.06 155.678 156.724C155.883 156.388 156.214 156.122 156.672 155.926C157.129 155.73 157.736 155.632 158.492 155.632H160.662V156.794H158.618C158.02 156.794 157.619 156.892 157.414 157.088C157.208 157.275 157.106 157.508 157.106 157.788C157.106 158.105 157.232 158.357 157.484 158.544C157.736 158.731 158.086 158.824 158.534 158.824C158.963 158.824 159.346 158.726 159.682 158.53C160.027 158.334 160.274 158.045 160.424 157.662L160.718 158.712C160.55 159.151 160.246 159.491 159.808 159.734C159.378 159.977 158.832 160.098 158.17 160.098ZM164.419 160V152.524H166.169V160H164.419ZM165.301 151.292C164.975 151.292 164.704 151.189 164.489 150.984C164.284 150.779 164.181 150.531 164.181 150.242C164.181 149.943 164.284 149.696 164.489 149.5C164.704 149.295 164.975 149.192 165.301 149.192C165.628 149.192 165.894 149.29 166.099 149.486C166.314 149.673 166.421 149.911 166.421 150.2C166.421 150.508 166.319 150.769 166.113 150.984C165.908 151.189 165.637 151.292 165.301 151.292ZM168.466 160V149.612H170.216V160H168.466ZM177.119 160V158.488L177.021 158.166V155.52C177.021 155.007 176.867 154.61 176.559 154.33C176.251 154.041 175.785 153.896 175.159 153.896C174.739 153.896 174.324 153.961 173.913 154.092C173.512 154.223 173.171 154.405 172.891 154.638L172.205 153.364C172.607 153.056 173.083 152.827 173.633 152.678C174.193 152.519 174.772 152.44 175.369 152.44C176.452 152.44 177.287 152.701 177.875 153.224C178.473 153.737 178.771 154.535 178.771 155.618V160H177.119ZM174.767 160.098C174.207 160.098 173.717 160.005 173.297 159.818C172.877 159.622 172.551 159.356 172.317 159.02C172.093 158.675 171.981 158.287 171.981 157.858C171.981 157.438 172.079 157.06 172.275 156.724C172.481 156.388 172.812 156.122 173.269 155.926C173.727 155.73 174.333 155.632 175.089 155.632H177.259V156.794H175.215C174.618 156.794 174.217 156.892 174.011 157.088C173.806 157.275 173.703 157.508 173.703 157.788C173.703 158.105 173.829 158.357 174.081 158.544C174.333 158.731 174.683 158.824 175.131 158.824C175.561 158.824 175.943 158.726 176.279 158.53C176.625 158.334 176.872 158.045 177.021 157.662L177.315 158.712C177.147 159.151 176.844 159.491 176.405 159.734C175.976 159.977 175.43 160.098 174.767 160.098ZM185.161 160.098C184.526 160.098 183.962 159.958 183.467 159.678C182.972 159.398 182.58 158.978 182.291 158.418C182.011 157.849 181.871 157.13 181.871 156.262C181.871 155.385 182.016 154.666 182.305 154.106C182.604 153.546 183 153.131 183.495 152.86C183.999 152.58 184.554 152.44 185.161 152.44C185.898 152.44 186.547 152.599 187.107 152.916C187.676 153.233 188.124 153.677 188.451 154.246C188.787 154.815 188.955 155.487 188.955 156.262C188.955 157.037 188.787 157.709 188.451 158.278C188.124 158.847 187.676 159.295 187.107 159.622C186.547 159.939 185.898 160.098 185.161 160.098ZM181.017 160V149.612H182.767V154.26L182.627 156.248L182.683 158.236V160H181.017ZM184.965 158.6C185.385 158.6 185.758 158.507 186.085 158.32C186.421 158.133 186.687 157.863 186.883 157.508C187.079 157.153 187.177 156.738 187.177 156.262C187.177 155.777 187.079 155.361 186.883 155.016C186.687 154.661 186.421 154.391 186.085 154.204C185.758 154.017 185.385 153.924 184.965 153.924C184.545 153.924 184.167 154.017 183.831 154.204C183.495 154.391 183.229 154.661 183.033 155.016C182.837 155.361 182.739 155.777 182.739 156.262C182.739 156.738 182.837 157.153 183.033 157.508C183.229 157.863 183.495 158.133 183.831 158.32C184.167 158.507 184.545 158.6 184.965 158.6ZM190.615 160V149.612H192.365V160H190.615ZM198.176 160.098C197.345 160.098 196.617 159.935 195.992 159.608C195.376 159.272 194.895 158.815 194.55 158.236C194.214 157.657 194.046 156.999 194.046 156.262C194.046 155.515 194.209 154.857 194.536 154.288C194.872 153.709 195.329 153.257 195.908 152.93C196.496 152.603 197.163 152.44 197.91 152.44C198.638 152.44 199.286 152.599 199.856 152.916C200.425 153.233 200.873 153.681 201.2 154.26C201.526 154.839 201.69 155.52 201.69 156.304C201.69 156.379 201.685 156.463 201.676 156.556C201.676 156.649 201.671 156.738 201.662 156.822H195.432V155.66H200.738L200.052 156.024C200.061 155.595 199.972 155.217 199.786 154.89C199.599 154.563 199.342 154.307 199.016 154.12C198.698 153.933 198.33 153.84 197.91 153.84C197.48 153.84 197.102 153.933 196.776 154.12C196.458 154.307 196.206 154.568 196.02 154.904C195.842 155.231 195.754 155.618 195.754 156.066V156.346C195.754 156.794 195.856 157.191 196.062 157.536C196.267 157.881 196.556 158.147 196.93 158.334C197.303 158.521 197.732 158.614 198.218 158.614C198.638 158.614 199.016 158.549 199.352 158.418C199.688 158.287 199.986 158.082 200.248 157.802L201.186 158.88C200.85 159.272 200.425 159.575 199.912 159.79C199.408 159.995 198.829 160.098 198.176 160.098Z" fill="black"/>
</g>
<defs>
<filter id="filter0_d_1802_3170" x="0" y="0" width="243" height="243" filterUnits="userSpaceOnUse" color-interpolation-filters="sRGB">
<feFlood flood-opacity="0" result="BackgroundImageFix"/>
<feColorMatrix in="SourceAlpha" type="matrix" values="0 0 0 0 0 0 0 0 0 0 0 0 0 0 0 0 0 0 127 0" result="hardAlpha"/>
<feOffset dy="4"/>
<feGaussianBlur stdDeviation="2"/>
<feComposite in2="hardAlpha" operator="out"/>
<feColorMatrix type="matrix" values="0 0 0 0 0 0 0 0 0 0 0 0 0 0 0 0 0 0 0.25 0"/>
<feBlend mode="normal" in2="BackgroundImageFix" result="effect1_dropShadow_1802_3170"/>
<feBlend mode="normal" in="SourceGraphic" in2="effect1_dropShadow_1802_3170" result="shape"/>
</filter>
</defs>
</svg>
