<svg width="243" height="243" viewBox="0 0 243 243" fill="none" xmlns="http://www.w3.org/2000/svg">
<g filter="url(#filter0_d_1802_3068)">
<rect x="4" width="235" height="235" rx="15" fill="#BAEBDA"/>
<path d="M76.464 136.24C75.152 136.24 73.896 136.056 72.696 135.688C71.496 135.304 70.544 134.816 69.84 134.224L70.92 131.8C71.592 132.328 72.424 132.768 73.416 133.12C74.408 133.472 75.424 133.648 76.464 133.648C77.344 133.648 78.056 133.552 78.6 133.36C79.144 133.168 79.544 132.912 79.8 132.592C80.056 132.256 80.184 131.88 80.184 131.464C80.184 130.952 80 130.544 79.632 130.24C79.264 129.92 78.784 129.672 78.192 129.496C77.616 129.304 76.968 129.128 76.248 128.968C75.544 128.808 74.832 128.624 74.112 128.416C73.408 128.192 72.76 127.912 72.168 127.576C71.592 127.224 71.12 126.76 70.752 126.184C70.384 125.608 70.2 124.872 70.2 123.976C70.2 123.064 70.44 122.232 70.92 121.48C71.416 120.712 72.16 120.104 73.152 119.656C74.16 119.192 75.432 118.96 76.968 118.96C77.976 118.96 78.976 119.088 79.968 119.344C80.96 119.6 81.824 119.968 82.56 120.448L81.576 122.872C80.824 122.424 80.048 122.096 79.248 121.888C78.448 121.664 77.68 121.552 76.944 121.552C76.08 121.552 75.376 121.656 74.832 121.864C74.304 122.072 73.912 122.344 73.656 122.68C73.416 123.016 73.296 123.4 73.296 123.832C73.296 124.344 73.472 124.76 73.824 125.08C74.192 125.384 74.664 125.624 75.24 125.8C75.832 125.976 76.488 126.152 77.208 126.328C77.928 126.488 78.64 126.672 79.344 126.88C80.064 127.088 80.712 127.36 81.288 127.696C81.88 128.032 82.352 128.488 82.704 129.064C83.072 129.64 83.256 130.368 83.256 131.248C83.256 132.144 83.008 132.976 82.512 133.744C82.032 134.496 81.288 135.104 80.28 135.568C79.272 136.016 78 136.24 76.464 136.24ZM91.4858 136.168C90.3978 136.168 89.4378 135.968 88.6058 135.568C87.7738 135.152 87.1258 134.528 86.6618 133.696C86.1978 132.848 85.9658 131.784 85.9658 130.504V123.184H88.9658V130.096C88.9658 131.248 89.2218 132.112 89.7338 132.688C90.2618 133.248 91.0058 133.528 91.9658 133.528C92.6698 133.528 93.2778 133.384 93.7898 133.096C94.3178 132.808 94.7258 132.376 95.0138 131.8C95.3178 131.224 95.4698 130.512 95.4698 129.664V123.184H98.4698V136H95.6138V132.544L96.1178 133.6C95.6858 134.432 95.0538 135.072 94.2218 135.52C93.3898 135.952 92.4778 136.168 91.4858 136.168ZM109.67 123.04C110.694 123.04 111.606 123.24 112.406 123.64C113.222 124.04 113.862 124.656 114.326 125.488C114.79 126.304 115.022 127.36 115.022 128.656V136H112.022V129.04C112.022 127.904 111.75 127.056 111.206 126.496C110.678 125.936 109.934 125.656 108.974 125.656C108.27 125.656 107.646 125.8 107.102 126.088C106.558 126.376 106.134 126.808 105.83 127.384C105.542 127.944 105.398 128.656 105.398 129.52V136H102.398V123.184H105.254V126.64L104.75 125.584C105.198 124.768 105.846 124.144 106.694 123.712C107.558 123.264 108.55 123.04 109.67 123.04ZM125.46 136V123.184H128.316V126.712L127.98 125.68C128.364 124.816 128.964 124.16 129.78 123.712C130.612 123.264 131.644 123.04 132.876 123.04V125.896C132.748 125.864 132.628 125.848 132.516 125.848C132.404 125.832 132.292 125.824 132.18 125.824C131.044 125.824 130.14 126.16 129.468 126.832C128.796 127.488 128.46 128.472 128.46 129.784V136H125.46ZM141.064 136.168C139.752 136.168 138.584 135.888 137.56 135.328C136.536 134.752 135.728 133.968 135.136 132.976C134.544 131.984 134.248 130.856 134.248 129.592C134.248 128.312 134.544 127.184 135.136 126.208C135.728 125.216 136.536 124.44 137.56 123.88C138.584 123.32 139.752 123.04 141.064 123.04C142.392 123.04 143.568 123.32 144.592 123.88C145.632 124.44 146.44 125.208 147.016 126.184C147.608 127.16 147.904 128.296 147.904 129.592C147.904 130.856 147.608 131.984 147.016 132.976C146.44 133.968 145.632 134.752 144.592 135.328C143.568 135.888 142.392 136.168 141.064 136.168ZM141.064 133.6C141.8 133.6 142.456 133.44 143.032 133.12C143.608 132.8 144.056 132.336 144.376 131.728C144.712 131.12 144.88 130.408 144.88 129.592C144.88 128.76 144.712 128.048 144.376 127.456C144.056 126.848 143.608 126.384 143.032 126.064C142.456 125.744 141.808 125.584 141.088 125.584C140.352 125.584 139.696 125.744 139.12 126.064C138.56 126.384 138.112 126.848 137.776 127.456C137.44 128.048 137.272 128.76 137.272 129.592C137.272 130.408 137.44 131.12 137.776 131.728C138.112 132.336 138.56 132.8 139.12 133.12C139.696 133.44 140.344 133.6 141.064 133.6ZM156.533 136.168C155.221 136.168 154.053 135.888 153.029 135.328C152.005 134.752 151.197 133.968 150.605 132.976C150.013 131.984 149.717 130.856 149.717 129.592C149.717 128.312 150.013 127.184 150.605 126.208C151.197 125.216 152.005 124.44 153.029 123.88C154.053 123.32 155.221 123.04 156.533 123.04C157.861 123.04 159.037 123.32 160.061 123.88C161.101 124.44 161.909 125.208 162.485 126.184C163.077 127.16 163.373 128.296 163.373 129.592C163.373 130.856 163.077 131.984 162.485 132.976C161.909 133.968 161.101 134.752 160.061 135.328C159.037 135.888 157.861 136.168 156.533 136.168ZM156.533 133.6C157.269 133.6 157.925 133.44 158.501 133.12C159.077 132.8 159.525 132.336 159.845 131.728C160.181 131.12 160.349 130.408 160.349 129.592C160.349 128.76 160.181 128.048 159.845 127.456C159.525 126.848 159.077 126.384 158.501 126.064C157.925 125.744 157.277 125.584 156.557 125.584C155.821 125.584 155.165 125.744 154.589 126.064C154.029 126.384 153.581 126.848 153.245 127.456C152.909 128.048 152.741 128.76 152.741 129.592C152.741 130.408 152.909 131.12 153.245 131.728C153.581 132.336 154.029 132.8 154.589 133.12C155.165 133.44 155.813 133.6 156.533 133.6ZM166.649 136V122.464C166.649 121.12 167.041 120.048 167.825 119.248C168.625 118.432 169.761 118.024 171.233 118.024C171.761 118.024 172.257 118.08 172.721 118.192C173.201 118.304 173.601 118.48 173.921 118.72L173.105 120.976C172.881 120.8 172.625 120.672 172.337 120.592C172.049 120.496 171.753 120.448 171.449 120.448C170.825 120.448 170.353 120.624 170.033 120.976C169.713 121.312 169.553 121.824 169.553 122.512V123.952L169.649 125.296V136H166.649ZM164.537 125.68V123.28H173.081V125.68H164.537Z" fill="black"/>
<mask id="mask0_1802_3068" style="mask-type:alpha" maskUnits="userSpaceOnUse" x="101" y="63" width="40" height="40">
<rect x="101" y="63" width="40" height="40" fill="#D9D9D9"/>
</mask>
<g mask="url(#mask0_1802_3068)">
<path d="M121 101.833L115.417 96.3327H107.667V88.5827L102.167 82.9994L107.667 77.416V69.666H115.417L121 64.166L126.583 69.666H134.333V77.416L139.833 82.9994L134.333 88.5827V96.3327H126.583L121 101.833ZM121 91.3327C123.306 91.3327 125.271 90.5202 126.896 88.8952C128.521 87.2702 129.333 85.3049 129.333 82.9994C129.333 80.6938 128.521 78.7285 126.896 77.1035C125.271 75.4785 123.306 74.666 121 74.666C118.695 74.666 116.729 75.4785 115.104 77.1035C113.479 78.7285 112.667 80.6938 112.667 82.9994C112.667 85.3049 113.479 87.2702 115.104 88.8952C116.729 90.5202 118.695 91.3327 121 91.3327ZM121 87.9994C119.611 87.9994 118.431 87.5132 117.458 86.541C116.486 85.5688 116 84.3882 116 82.9994C116 81.6105 116.486 80.4299 117.458 79.4577C118.431 78.4855 119.611 77.9993 121 77.9993C122.389 77.9993 123.57 78.4855 124.542 79.4577C125.514 80.4299 126 81.6105 126 82.9994C126 84.3882 125.514 85.5688 124.542 86.541C123.57 87.5132 122.389 87.9994 121 87.9994ZM121 97.166L125.167 92.9994H131V87.166L135.167 82.9994L131 78.8327V72.9993H125.167L121 68.8327L116.833 72.9993H111V78.8327L106.833 82.9994L111 87.166V92.9994H116.833L121 97.166Z" fill="#1C1B1F"/>
</g>
<path opacity="0.7" d="M44.354 160.14C43.5887 160.14 42.856 160.033 42.156 159.818C41.456 159.594 40.9007 159.309 40.49 158.964L41.12 157.55C41.512 157.858 41.9973 158.115 42.576 158.32C43.1547 158.525 43.7473 158.628 44.354 158.628C44.8673 158.628 45.2827 158.572 45.6 158.46C45.9173 158.348 46.1507 158.199 46.3 158.012C46.4493 157.816 46.524 157.597 46.524 157.354C46.524 157.055 46.4167 156.817 46.202 156.64C45.9873 156.453 45.7073 156.309 45.362 156.206C45.026 156.094 44.648 155.991 44.228 155.898C43.8173 155.805 43.402 155.697 42.982 155.576C42.5713 155.445 42.1933 155.282 41.848 155.086C41.512 154.881 41.2367 154.61 41.022 154.274C40.8073 153.938 40.7 153.509 40.7 152.986C40.7 152.454 40.84 151.969 41.12 151.53C41.4093 151.082 41.8433 150.727 42.422 150.466C43.01 150.195 43.752 150.06 44.648 150.06C45.236 150.06 45.8193 150.135 46.398 150.284C46.9767 150.433 47.4807 150.648 47.91 150.928L47.336 152.342C46.8973 152.081 46.4447 151.889 45.978 151.768C45.5113 151.637 45.0633 151.572 44.634 151.572C44.13 151.572 43.7193 151.633 43.402 151.754C43.094 151.875 42.8653 152.034 42.716 152.23C42.576 152.426 42.506 152.65 42.506 152.902C42.506 153.201 42.6087 153.443 42.814 153.63C43.0287 153.807 43.304 153.947 43.64 154.05C43.9853 154.153 44.368 154.255 44.788 154.358C45.208 154.451 45.6233 154.559 46.034 154.68C46.454 154.801 46.832 154.96 47.168 155.156C47.5133 155.352 47.7887 155.618 47.994 155.954C48.2087 156.29 48.316 156.715 48.316 157.228C48.316 157.751 48.1713 158.236 47.882 158.684C47.602 159.123 47.168 159.477 46.58 159.748C45.992 160.009 45.25 160.14 44.354 160.14ZM53.1167 160.098C52.482 160.098 51.922 159.981 51.4367 159.748C50.9514 159.505 50.5734 159.141 50.3027 158.656C50.032 158.161 49.8967 157.541 49.8967 156.794V152.524H51.6467V156.556C51.6467 157.228 51.796 157.732 52.0947 158.068C52.4027 158.395 52.8367 158.558 53.3967 158.558C53.8074 158.558 54.162 158.474 54.4607 158.306C54.7687 158.138 55.0067 157.886 55.1747 157.55C55.352 157.214 55.4407 156.799 55.4407 156.304V152.524H57.1907V160H55.5247V157.984L55.8187 158.6C55.5667 159.085 55.198 159.459 54.7127 159.72C54.2274 159.972 53.6954 160.098 53.1167 160.098ZM63.724 152.44C64.3213 152.44 64.8533 152.557 65.32 152.79C65.796 153.023 66.1693 153.383 66.44 153.868C66.7107 154.344 66.846 154.96 66.846 155.716V160H65.096V155.94C65.096 155.277 64.9373 154.783 64.62 154.456C64.312 154.129 63.878 153.966 63.318 153.966C62.9073 153.966 62.5433 154.05 62.226 154.218C61.9087 154.386 61.6613 154.638 61.484 154.974C61.316 155.301 61.232 155.716 61.232 156.22V160H59.482V152.524H61.148V154.54L60.854 153.924C61.1153 153.448 61.4933 153.084 61.988 152.832C62.492 152.571 63.0707 152.44 63.724 152.44ZM72.9351 160V152.524H74.6011V154.582L74.4051 153.98C74.6291 153.476 74.9791 153.093 75.4551 152.832C75.9404 152.571 76.5424 152.44 77.2611 152.44V154.106C77.1864 154.087 77.1164 154.078 77.0511 154.078C76.9858 154.069 76.9204 154.064 76.8551 154.064C76.1924 154.064 75.6651 154.26 75.2731 154.652C74.8811 155.035 74.6851 155.609 74.6851 156.374V160H72.9351ZM82.0373 160.098C81.272 160.098 80.5906 159.935 79.9933 159.608C79.396 159.272 78.9246 158.815 78.5793 158.236C78.234 157.657 78.0613 156.999 78.0613 156.262C78.0613 155.515 78.234 154.857 78.5793 154.288C78.9246 153.709 79.396 153.257 79.9933 152.93C80.5906 152.603 81.272 152.44 82.0373 152.44C82.812 152.44 83.498 152.603 84.0953 152.93C84.702 153.257 85.1733 153.705 85.5093 154.274C85.8546 154.843 86.0273 155.506 86.0273 156.262C86.0273 156.999 85.8546 157.657 85.5093 158.236C85.1733 158.815 84.702 159.272 84.0953 159.608C83.498 159.935 82.812 160.098 82.0373 160.098ZM82.0373 158.6C82.4666 158.6 82.8493 158.507 83.1853 158.32C83.5213 158.133 83.7826 157.863 83.9693 157.508C84.1653 157.153 84.2633 156.738 84.2633 156.262C84.2633 155.777 84.1653 155.361 83.9693 155.016C83.7826 154.661 83.5213 154.391 83.1853 154.204C82.8493 154.017 82.4713 153.924 82.0513 153.924C81.622 153.924 81.2393 154.017 80.9033 154.204C80.5766 154.391 80.3153 154.661 80.1193 155.016C79.9233 155.361 79.8253 155.777 79.8253 156.262C79.8253 156.738 79.9233 157.153 80.1193 157.508C80.3153 157.863 80.5766 158.133 80.9033 158.32C81.2393 158.507 81.6173 158.6 82.0373 158.6ZM91.0607 160.098C90.2954 160.098 89.6141 159.935 89.0167 159.608C88.4194 159.272 87.9481 158.815 87.6027 158.236C87.2574 157.657 87.0847 156.999 87.0847 156.262C87.0847 155.515 87.2574 154.857 87.6027 154.288C87.9481 153.709 88.4194 153.257 89.0167 152.93C89.6141 152.603 90.2954 152.44 91.0607 152.44C91.8354 152.44 92.5214 152.603 93.1187 152.93C93.7254 153.257 94.1967 153.705 94.5327 154.274C94.8781 154.843 95.0507 155.506 95.0507 156.262C95.0507 156.999 94.8781 157.657 94.5327 158.236C94.1967 158.815 93.7254 159.272 93.1187 159.608C92.5214 159.935 91.8354 160.098 91.0607 160.098ZM91.0607 158.6C91.4901 158.6 91.8727 158.507 92.2087 158.32C92.5447 158.133 92.8061 157.863 92.9927 157.508C93.1887 157.153 93.2867 156.738 93.2867 156.262C93.2867 155.777 93.1887 155.361 92.9927 155.016C92.8061 154.661 92.5447 154.391 92.2087 154.204C91.8727 154.017 91.4947 153.924 91.0747 153.924C90.6454 153.924 90.2627 154.017 89.9267 154.204C89.6001 154.391 89.3387 154.661 89.1427 155.016C88.9467 155.361 88.8487 155.777 88.8487 156.262C88.8487 156.738 88.9467 157.153 89.1427 157.508C89.3387 157.863 89.6001 158.133 89.9267 158.32C90.2627 158.507 90.6407 158.6 91.0607 158.6ZM96.9622 160V152.104C96.9622 151.32 97.1908 150.695 97.6482 150.228C98.1148 149.752 98.7775 149.514 99.6362 149.514C99.9442 149.514 100.234 149.547 100.504 149.612C100.784 149.677 101.018 149.78 101.204 149.92L100.728 151.236C100.598 151.133 100.448 151.059 100.28 151.012C100.112 150.956 99.9395 150.928 99.7622 150.928C99.3982 150.928 99.1228 151.031 98.9362 151.236C98.7495 151.432 98.6562 151.731 98.6562 152.132V152.972L98.7122 153.756V160H96.9622ZM95.7302 153.98V152.58H100.714V153.98H95.7302ZM104.202 160.098C103.577 160.098 102.975 160.019 102.396 159.86C101.827 159.692 101.374 159.491 101.038 159.258L101.71 157.928C102.046 158.143 102.447 158.32 102.914 158.46C103.381 158.6 103.847 158.67 104.314 158.67C104.865 158.67 105.261 158.595 105.504 158.446C105.756 158.297 105.882 158.096 105.882 157.844C105.882 157.639 105.798 157.485 105.63 157.382C105.462 157.27 105.243 157.186 104.972 157.13C104.701 157.074 104.398 157.023 104.062 156.976C103.735 156.929 103.404 156.869 103.068 156.794C102.741 156.71 102.443 156.593 102.172 156.444C101.901 156.285 101.682 156.075 101.514 155.814C101.346 155.553 101.262 155.207 101.262 154.778C101.262 154.302 101.397 153.891 101.668 153.546C101.939 153.191 102.317 152.921 102.802 152.734C103.297 152.538 103.88 152.44 104.552 152.44C105.056 152.44 105.565 152.496 106.078 152.608C106.591 152.72 107.016 152.879 107.352 153.084L106.68 154.414C106.325 154.199 105.966 154.055 105.602 153.98C105.247 153.896 104.893 153.854 104.538 153.854C104.006 153.854 103.609 153.933 103.348 154.092C103.096 154.251 102.97 154.451 102.97 154.694C102.97 154.918 103.054 155.086 103.222 155.198C103.39 155.31 103.609 155.399 103.88 155.464C104.151 155.529 104.449 155.585 104.776 155.632C105.112 155.669 105.443 155.73 105.77 155.814C106.097 155.898 106.395 156.015 106.666 156.164C106.946 156.304 107.17 156.505 107.338 156.766C107.506 157.027 107.59 157.368 107.59 157.788C107.59 158.255 107.45 158.661 107.17 159.006C106.899 159.351 106.512 159.622 106.008 159.818C105.504 160.005 104.902 160.098 104.202 160.098ZM117.572 160V158.488L117.474 158.166V155.52C117.474 155.007 117.32 154.61 117.012 154.33C116.704 154.041 116.238 153.896 115.612 153.896C115.192 153.896 114.777 153.961 114.366 154.092C113.965 154.223 113.624 154.405 113.344 154.638L112.658 153.364C113.06 153.056 113.536 152.827 114.086 152.678C114.646 152.519 115.225 152.44 115.822 152.44C116.905 152.44 117.74 152.701 118.328 153.224C118.926 153.737 119.224 154.535 119.224 155.618V160H117.572ZM115.22 160.098C114.66 160.098 114.17 160.005 113.75 159.818C113.33 159.622 113.004 159.356 112.77 159.02C112.546 158.675 112.434 158.287 112.434 157.858C112.434 157.438 112.532 157.06 112.728 156.724C112.934 156.388 113.265 156.122 113.722 155.926C114.18 155.73 114.786 155.632 115.542 155.632H117.712V156.794H115.668C115.071 156.794 114.67 156.892 114.464 157.088C114.259 157.275 114.156 157.508 114.156 157.788C114.156 158.105 114.282 158.357 114.534 158.544C114.786 158.731 115.136 158.824 115.584 158.824C116.014 158.824 116.396 158.726 116.732 158.53C117.078 158.334 117.325 158.045 117.474 157.662L117.768 158.712C117.6 159.151 117.297 159.491 116.858 159.734C116.429 159.977 115.883 160.098 115.22 160.098ZM121.47 160V152.524H123.136V154.582L122.94 153.98C123.164 153.476 123.514 153.093 123.99 152.832C124.476 152.571 125.078 152.44 125.796 152.44V154.106C125.722 154.087 125.652 154.078 125.586 154.078C125.521 154.069 125.456 154.064 125.39 154.064C124.728 154.064 124.2 154.26 123.808 154.652C123.416 155.035 123.22 155.609 123.22 156.374V160H121.47ZM130.726 160.098C129.896 160.098 129.168 159.935 128.542 159.608C127.926 159.272 127.446 158.815 127.1 158.236C126.764 157.657 126.596 156.999 126.596 156.262C126.596 155.515 126.76 154.857 127.086 154.288C127.422 153.709 127.88 153.257 128.458 152.93C129.046 152.603 129.714 152.44 130.46 152.44C131.188 152.44 131.837 152.599 132.406 152.916C132.976 153.233 133.424 153.681 133.75 154.26C134.077 154.839 134.24 155.52 134.24 156.304C134.24 156.379 134.236 156.463 134.226 156.556C134.226 156.649 134.222 156.738 134.212 156.822H127.982V155.66H133.288L132.602 156.024C132.612 155.595 132.523 155.217 132.336 154.89C132.15 154.563 131.893 154.307 131.566 154.12C131.249 153.933 130.88 153.84 130.46 153.84C130.031 153.84 129.653 153.933 129.326 154.12C129.009 154.307 128.757 154.568 128.57 154.904C128.393 155.231 128.304 155.618 128.304 156.066V156.346C128.304 156.794 128.407 157.191 128.612 157.536C128.818 157.881 129.107 158.147 129.48 158.334C129.854 158.521 130.283 158.614 130.768 158.614C131.188 158.614 131.566 158.549 131.902 158.418C132.238 158.287 132.537 158.082 132.798 157.802L133.736 158.88C133.4 159.272 132.976 159.575 132.462 159.79C131.958 159.995 131.38 160.098 130.726 160.098ZM144.397 160V158.488L144.299 158.166V155.52C144.299 155.007 144.145 154.61 143.837 154.33C143.529 154.041 143.062 153.896 142.437 153.896C142.017 153.896 141.601 153.961 141.191 154.092C140.789 154.223 140.449 154.405 140.169 154.638L139.483 153.364C139.884 153.056 140.36 152.827 140.911 152.678C141.471 152.519 142.049 152.44 142.647 152.44C143.729 152.44 144.565 152.701 145.153 153.224C145.75 153.737 146.049 154.535 146.049 155.618V160H144.397ZM142.045 160.098C141.485 160.098 140.995 160.005 140.575 159.818C140.155 159.622 139.828 159.356 139.595 159.02C139.371 158.675 139.259 158.287 139.259 157.858C139.259 157.438 139.357 157.06 139.553 156.724C139.758 156.388 140.089 156.122 140.547 155.926C141.004 155.73 141.611 155.632 142.367 155.632H144.537V156.794H142.493C141.895 156.794 141.494 156.892 141.289 157.088C141.083 157.275 140.981 157.508 140.981 157.788C140.981 158.105 141.107 158.357 141.359 158.544C141.611 158.731 141.961 158.824 142.409 158.824C142.838 158.824 143.221 158.726 143.557 158.53C143.902 158.334 144.149 158.045 144.299 157.662L144.593 158.712C144.425 159.151 144.121 159.491 143.683 159.734C143.253 159.977 142.707 160.098 142.045 160.098ZM150.146 160L146.94 152.524H148.76L151.518 159.118H150.622L153.478 152.524H155.158L151.952 160H150.146ZM160.625 160V158.488L160.527 158.166V155.52C160.527 155.007 160.373 154.61 160.065 154.33C159.757 154.041 159.29 153.896 158.665 153.896C158.245 153.896 157.83 153.961 157.419 154.092C157.018 154.223 156.677 154.405 156.397 154.638L155.711 153.364C156.112 153.056 156.588 152.827 157.139 152.678C157.699 152.519 158.278 152.44 158.875 152.44C159.958 152.44 160.793 152.701 161.381 153.224C161.978 153.737 162.277 154.535 162.277 155.618V160H160.625ZM158.273 160.098C157.713 160.098 157.223 160.005 156.803 159.818C156.383 159.622 156.056 159.356 155.823 159.02C155.599 158.675 155.487 158.287 155.487 157.858C155.487 157.438 155.585 157.06 155.781 156.724C155.986 156.388 156.318 156.122 156.775 155.926C157.232 155.73 157.839 155.632 158.595 155.632H160.765V156.794H158.721C158.124 156.794 157.722 156.892 157.517 157.088C157.312 157.275 157.209 157.508 157.209 157.788C157.209 158.105 157.335 158.357 157.587 158.544C157.839 158.731 158.189 158.824 158.637 158.824C159.066 158.824 159.449 158.726 159.785 158.53C160.13 158.334 160.378 158.045 160.527 157.662L160.821 158.712C160.653 159.151 160.35 159.491 159.911 159.734C159.482 159.977 158.936 160.098 158.273 160.098ZM164.523 160V152.524H166.273V160H164.523ZM165.405 151.292C165.078 151.292 164.808 151.189 164.593 150.984C164.388 150.779 164.285 150.531 164.285 150.242C164.285 149.943 164.388 149.696 164.593 149.5C164.808 149.295 165.078 149.192 165.405 149.192C165.732 149.192 165.998 149.29 166.203 149.486C166.418 149.673 166.525 149.911 166.525 150.2C166.525 150.508 166.422 150.769 166.217 150.984C166.012 151.189 165.741 151.292 165.405 151.292ZM168.57 160V149.612H170.32V160H168.57ZM177.223 160V158.488L177.125 158.166V155.52C177.125 155.007 176.971 154.61 176.663 154.33C176.355 154.041 175.888 153.896 175.263 153.896C174.843 153.896 174.427 153.961 174.017 154.092C173.615 154.223 173.275 154.405 172.995 154.638L172.309 153.364C172.71 153.056 173.186 152.827 173.737 152.678C174.297 152.519 174.875 152.44 175.473 152.44C176.555 152.44 177.391 152.701 177.979 153.224C178.576 153.737 178.875 154.535 178.875 155.618V160H177.223ZM174.871 160.098C174.311 160.098 173.821 160.005 173.401 159.818C172.981 159.622 172.654 159.356 172.421 159.02C172.197 158.675 172.085 158.287 172.085 157.858C172.085 157.438 172.183 157.06 172.379 156.724C172.584 156.388 172.915 156.122 173.373 155.926C173.83 155.73 174.437 155.632 175.193 155.632H177.363V156.794H175.319C174.721 156.794 174.32 156.892 174.115 157.088C173.909 157.275 173.807 157.508 173.807 157.788C173.807 158.105 173.933 158.357 174.185 158.544C174.437 158.731 174.787 158.824 175.235 158.824C175.664 158.824 176.047 158.726 176.383 158.53C176.728 158.334 176.975 158.045 177.125 157.662L177.419 158.712C177.251 159.151 176.947 159.491 176.509 159.734C176.079 159.977 175.533 160.098 174.871 160.098ZM185.265 160.098C184.63 160.098 184.065 159.958 183.571 159.678C183.076 159.398 182.684 158.978 182.395 158.418C182.115 157.849 181.975 157.13 181.975 156.262C181.975 155.385 182.119 154.666 182.409 154.106C182.707 153.546 183.104 153.131 183.599 152.86C184.103 152.58 184.658 152.44 185.265 152.44C186.002 152.44 186.651 152.599 187.211 152.916C187.78 153.233 188.228 153.677 188.555 154.246C188.891 154.815 189.059 155.487 189.059 156.262C189.059 157.037 188.891 157.709 188.555 158.278C188.228 158.847 187.78 159.295 187.211 159.622C186.651 159.939 186.002 160.098 185.265 160.098ZM181.121 160V149.612H182.871V154.26L182.731 156.248L182.787 158.236V160H181.121ZM185.069 158.6C185.489 158.6 185.862 158.507 186.189 158.32C186.525 158.133 186.791 157.863 186.987 157.508C187.183 157.153 187.281 156.738 187.281 156.262C187.281 155.777 187.183 155.361 186.987 155.016C186.791 154.661 186.525 154.391 186.189 154.204C185.862 154.017 185.489 153.924 185.069 153.924C184.649 153.924 184.271 154.017 183.935 154.204C183.599 154.391 183.333 154.661 183.137 155.016C182.941 155.361 182.843 155.777 182.843 156.262C182.843 156.738 182.941 157.153 183.137 157.508C183.333 157.863 183.599 158.133 183.935 158.32C184.271 158.507 184.649 158.6 185.069 158.6ZM190.718 160V149.612H192.468V160H190.718ZM198.279 160.098C197.449 160.098 196.721 159.935 196.095 159.608C195.479 159.272 194.999 158.815 194.653 158.236C194.317 157.657 194.149 156.999 194.149 156.262C194.149 155.515 194.313 154.857 194.639 154.288C194.975 153.709 195.433 153.257 196.011 152.93C196.599 152.603 197.267 152.44 198.013 152.44C198.741 152.44 199.39 152.599 199.959 152.916C200.529 153.233 200.977 153.681 201.303 154.26C201.63 154.839 201.793 155.52 201.793 156.304C201.793 156.379 201.789 156.463 201.779 156.556C201.779 156.649 201.775 156.738 201.765 156.822H195.535V155.66H200.841L200.155 156.024C200.165 155.595 200.076 155.217 199.889 154.89C199.703 154.563 199.446 154.307 199.119 154.12C198.802 153.933 198.433 153.84 198.013 153.84C197.584 153.84 197.206 153.933 196.879 154.12C196.562 154.307 196.31 154.568 196.123 154.904C195.946 155.231 195.857 155.618 195.857 156.066V156.346C195.857 156.794 195.96 157.191 196.165 157.536C196.371 157.881 196.66 158.147 197.033 158.334C197.407 158.521 197.836 158.614 198.321 158.614C198.741 158.614 199.119 158.549 199.455 158.418C199.791 158.287 200.09 158.082 200.351 157.802L201.289 158.88C200.953 159.272 200.529 159.575 200.015 159.79C199.511 159.995 198.933 160.098 198.279 160.098Z" fill="black"/>
</g>
<defs>
<filter id="filter0_d_1802_3068" x="0" y="0" width="243" height="243" filterUnits="userSpaceOnUse" color-interpolation-filters="sRGB">
<feFlood flood-opacity="0" result="BackgroundImageFix"/>
<feColorMatrix in="SourceAlpha" type="matrix" values="0 0 0 0 0 0 0 0 0 0 0 0 0 0 0 0 0 0 127 0" result="hardAlpha"/>
<feOffset dy="4"/>
<feGaussianBlur stdDeviation="2"/>
<feComposite in2="hardAlpha" operator="out"/>
<feColorMatrix type="matrix" values="0 0 0 0 0 0 0 0 0 0 0 0 0 0 0 0 0 0 0.25 0"/>
<feBlend mode="normal" in2="BackgroundImageFix" result="effect1_dropShadow_1802_3068"/>
<feBlend mode="normal" in="SourceGraphic" in2="effect1_dropShadow_1802_3068" result="shape"/>
</filter>
</defs>
</svg>
