<svg width="243" height="243" viewBox="0 0 243 243" fill="none" xmlns="http://www.w3.org/2000/svg">
<g filter="url(#filter0_d_1802_3059)">
<rect x="4" width="235" height="235" rx="15" fill="#BAEBDA"/>
<path d="M60.756 136V119.2H67.668C69.156 119.2 70.428 119.44 71.484 119.92C72.556 120.4 73.38 121.088 73.956 121.984C74.532 122.88 74.82 123.944 74.82 125.176C74.82 126.408 74.532 127.472 73.956 128.368C73.38 129.248 72.556 129.928 71.484 130.408C70.428 130.872 69.156 131.104 67.668 131.104H62.484L63.876 129.688V136H60.756ZM71.748 136L67.5 129.904H70.836L75.108 136H71.748ZM63.876 130.024L62.484 128.536H67.524C68.9 128.536 69.932 128.24 70.62 127.648C71.324 127.056 71.676 126.232 71.676 125.176C71.676 124.104 71.324 123.28 70.62 122.704C69.932 122.128 68.9 121.84 67.524 121.84H62.484L63.876 120.304V130.024ZM83.7827 136.168C82.4707 136.168 81.3027 135.888 80.2787 135.328C79.2547 134.752 78.4467 133.968 77.8547 132.976C77.2627 131.984 76.9667 130.856 76.9667 129.592C76.9667 128.312 77.2627 127.184 77.8547 126.208C78.4467 125.216 79.2547 124.44 80.2787 123.88C81.3027 123.32 82.4707 123.04 83.7827 123.04C85.1107 123.04 86.2867 123.32 87.3107 123.88C88.3507 124.44 89.1587 125.208 89.7347 126.184C90.3267 127.16 90.6227 128.296 90.6227 129.592C90.6227 130.856 90.3267 131.984 89.7347 132.976C89.1587 133.968 88.3507 134.752 87.3107 135.328C86.2867 135.888 85.1107 136.168 83.7827 136.168ZM83.7827 133.6C84.5187 133.6 85.1747 133.44 85.7507 133.12C86.3267 132.8 86.7747 132.336 87.0947 131.728C87.4307 131.12 87.5987 130.408 87.5987 129.592C87.5987 128.76 87.4307 128.048 87.0947 127.456C86.7747 126.848 86.3267 126.384 85.7507 126.064C85.1747 125.744 84.5267 125.584 83.8067 125.584C83.0707 125.584 82.4147 125.744 81.8387 126.064C81.2787 126.384 80.8307 126.848 80.4947 127.456C80.1587 128.048 79.9907 128.76 79.9907 129.592C79.9907 130.408 80.1587 131.12 80.4947 131.728C80.8307 132.336 81.2787 132.8 81.8387 133.12C82.4147 133.44 83.0627 133.6 83.7827 133.6ZM99.2514 136.168C97.9394 136.168 96.7714 135.888 95.7474 135.328C94.7234 134.752 93.9154 133.968 93.3234 132.976C92.7314 131.984 92.4354 130.856 92.4354 129.592C92.4354 128.312 92.7314 127.184 93.3234 126.208C93.9154 125.216 94.7234 124.44 95.7474 123.88C96.7714 123.32 97.9394 123.04 99.2514 123.04C100.579 123.04 101.755 123.32 102.779 123.88C103.819 124.44 104.627 125.208 105.203 126.184C105.795 127.16 106.091 128.296 106.091 129.592C106.091 130.856 105.795 131.984 105.203 132.976C104.627 133.968 103.819 134.752 102.779 135.328C101.755 135.888 100.579 136.168 99.2514 136.168ZM99.2514 133.6C99.9874 133.6 100.643 133.44 101.219 133.12C101.795 132.8 102.243 132.336 102.563 131.728C102.899 131.12 103.067 130.408 103.067 129.592C103.067 128.76 102.899 128.048 102.563 127.456C102.243 126.848 101.795 126.384 101.219 126.064C100.643 125.744 99.9954 125.584 99.2754 125.584C98.5394 125.584 97.8834 125.744 97.3074 126.064C96.7474 126.384 96.2994 126.848 95.9634 127.456C95.6274 128.048 95.4594 128.76 95.4594 129.592C95.4594 130.408 95.6274 131.12 95.9634 131.728C96.2994 132.336 96.7474 132.8 97.3074 133.12C97.8834 133.44 98.5314 133.6 99.2514 133.6ZM109.368 136V122.464C109.368 121.12 109.76 120.048 110.544 119.248C111.344 118.432 112.48 118.024 113.952 118.024C114.48 118.024 114.976 118.08 115.44 118.192C115.92 118.304 116.32 118.48 116.64 118.72L115.824 120.976C115.6 120.8 115.344 120.672 115.056 120.592C114.768 120.496 114.472 120.448 114.168 120.448C113.544 120.448 113.072 120.624 112.752 120.976C112.432 121.312 112.272 121.824 112.272 122.512V123.952L112.368 125.296V136H109.368ZM107.256 125.68V123.28H115.8V125.68H107.256ZM124.74 136V119.2H131.652C133.14 119.2 134.412 119.44 135.468 119.92C136.54 120.4 137.364 121.088 137.94 121.984C138.516 122.88 138.804 123.944 138.804 125.176C138.804 126.408 138.516 127.472 137.94 128.368C137.364 129.248 136.54 129.928 135.468 130.408C134.412 130.872 133.14 131.104 131.652 131.104H126.468L127.86 129.688V136H124.74ZM135.732 136L131.484 129.904H134.82L139.092 136H135.732ZM127.86 130.024L126.468 128.536H131.508C132.884 128.536 133.916 128.24 134.604 127.648C135.308 127.056 135.66 126.232 135.66 125.176C135.66 124.104 135.308 123.28 134.604 122.704C133.916 122.128 132.884 121.84 131.508 121.84H126.468L127.86 120.304V130.024ZM149.786 136V133.408L149.618 132.856V128.32C149.618 127.44 149.354 126.76 148.826 126.28C148.298 125.784 147.498 125.536 146.426 125.536C145.706 125.536 144.994 125.648 144.29 125.872C143.602 126.096 143.018 126.408 142.538 126.808L141.362 124.624C142.05 124.096 142.866 123.704 143.81 123.448C144.77 123.176 145.762 123.04 146.786 123.04C148.642 123.04 150.074 123.488 151.082 124.384C152.106 125.264 152.618 126.632 152.618 128.488V136H149.786ZM145.754 136.168C144.794 136.168 143.954 136.008 143.234 135.688C142.514 135.352 141.954 134.896 141.554 134.32C141.17 133.728 140.978 133.064 140.978 132.328C140.978 131.608 141.146 130.96 141.482 130.384C141.834 129.808 142.402 129.352 143.186 129.016C143.97 128.68 145.01 128.512 146.306 128.512H150.026V130.504H146.522C145.498 130.504 144.81 130.672 144.458 131.008C144.106 131.328 143.93 131.728 143.93 132.208C143.93 132.752 144.146 133.184 144.578 133.504C145.01 133.824 145.61 133.984 146.378 133.984C147.114 133.984 147.77 133.816 148.346 133.48C148.938 133.144 149.362 132.648 149.618 131.992L150.122 133.792C149.834 134.544 149.314 135.128 148.562 135.544C147.826 135.96 146.89 136.168 145.754 136.168ZM162.371 136.168C161.027 136.168 159.827 135.888 158.771 135.328C157.731 134.752 156.915 133.968 156.323 132.976C155.731 131.984 155.435 130.856 155.435 129.592C155.435 128.312 155.731 127.184 156.323 126.208C156.915 125.216 157.731 124.44 158.771 123.88C159.827 123.32 161.027 123.04 162.371 123.04C163.619 123.04 164.715 123.296 165.659 123.808C166.619 124.304 167.347 125.04 167.843 126.016L165.539 127.36C165.155 126.752 164.683 126.304 164.123 126.016C163.579 125.728 162.987 125.584 162.347 125.584C161.611 125.584 160.947 125.744 160.355 126.064C159.763 126.384 159.299 126.848 158.963 127.456C158.627 128.048 158.459 128.76 158.459 129.592C158.459 130.424 158.627 131.144 158.963 131.752C159.299 132.344 159.763 132.8 160.355 133.12C160.947 133.44 161.611 133.6 162.347 133.6C162.987 133.6 163.579 133.456 164.123 133.168C164.683 132.88 165.155 132.432 165.539 131.824L167.843 133.168C167.347 134.128 166.619 134.872 165.659 135.4C164.715 135.912 163.619 136.168 162.371 136.168ZM172.768 133.144L172.84 129.376L179.536 123.184H183.136L177.448 128.896L175.864 130.216L172.768 133.144ZM170.32 136V118.192H173.32V136H170.32ZM179.992 136L175.312 130.216L177.208 127.816L183.64 136H179.992Z" fill="black"/>
<mask id="mask0_1802_3059" style="mask-type:alpha" maskUnits="userSpaceOnUse" x="101" y="63" width="40" height="40">
<rect x="101" y="63" width="40" height="40" fill="#D9D9D9"/>
</mask>
<g mask="url(#mask0_1802_3059)">
<path d="M104.333 101.333V98H106C106.889 98 107.75 97.8611 108.583 97.5833C109.417 97.3056 110.222 96.8889 111 96.3333C111.778 96.8889 112.583 97.2986 113.417 97.5625C114.25 97.8264 115.111 97.9583 116 97.9583C116.889 97.9583 117.757 97.8264 118.604 97.5625C119.451 97.2986 120.25 96.8889 121 96.3333C121.778 96.8889 122.583 97.2986 123.417 97.5625C124.25 97.8264 125.111 97.9583 126 97.9583C126.889 97.9583 127.757 97.8264 128.604 97.5625C129.451 97.2986 130.25 96.8889 131 96.3333C131.75 96.8889 132.549 97.3056 133.396 97.5833C134.243 97.8611 135.111 98 136 98H137.667V101.333H136C135.139 101.333 134.292 101.229 133.458 101.021C132.625 100.812 131.805 100.5 131 100.083C130.194 100.5 129.375 100.812 128.542 101.021C127.708 101.229 126.861 101.333 126 101.333C125.139 101.333 124.292 101.229 123.458 101.021C122.625 100.812 121.805 100.5 121 100.083C120.194 100.5 119.375 100.812 118.542 101.021C117.708 101.229 116.861 101.333 116 101.333C115.139 101.333 114.292 101.229 113.458 101.021C112.625 100.812 111.805 100.5 111 100.083C110.194 100.5 109.375 100.812 108.542 101.021C107.708 101.229 106.861 101.333 106 101.333H104.333ZM115.167 69.6667L124.417 71.375C124.805 71.4306 125.18 71.5833 125.542 71.8333C125.903 72.0833 126.208 72.4306 126.458 72.875L127.917 75.4583C128.639 76.7083 129.639 77.7222 130.917 78.5C132.194 79.2778 133.611 79.6667 135.167 79.6667V83C133 83 131.028 82.4583 129.25 81.375C127.472 80.2917 126.069 78.875 125.042 77.125L121.292 79.6667L127.667 84.6667V91.0833C128.111 91.3889 128.542 91.7083 128.958 92.0417C129.375 92.375 129.778 92.6944 130.167 93C129.583 93.5 128.944 93.9028 128.25 94.2083C127.555 94.5139 126.805 94.6667 126 94.6667C125 94.6667 124.069 94.4306 123.208 93.9583C122.347 93.4861 121.611 92.8889 121 92.1667C120.389 92.8889 119.653 93.4861 118.792 93.9583C117.93 94.4306 117 94.6667 116 94.6667C115.722 94.6667 115.451 94.6458 115.187 94.6042C114.924 94.5625 114.667 94.5 114.417 94.4167C112.028 92.7778 110.028 91.125 108.417 89.4583C106.805 87.7917 106 86.3472 106 85.125C106 84.2639 106.333 83.6944 107 83.4167C107.667 83.1389 108.361 83 109.083 83C109.889 83 110.819 83.1181 111.875 83.3542C112.93 83.5903 114.055 83.9306 115.25 84.375L114.375 79.2083C114.264 78.6528 114.326 78.1042 114.562 77.5625C114.799 77.0208 115.167 76.5833 115.667 76.25L119.25 73.8333C119.167 73.8333 118.965 73.7986 118.646 73.7292C118.326 73.6597 117.972 73.5903 117.583 73.5208C117.194 73.4514 116.84 73.3819 116.521 73.3125C116.201 73.2431 116 73.2083 115.917 73.2083L111.208 76.4167L109.333 73.6667L115.167 69.6667ZM118.167 81.5L118.917 85.9167C119.667 86.2778 120.597 86.7569 121.708 87.3542C122.819 87.9514 123.694 88.4444 124.333 88.8333V86.3333L118.167 81.5ZM129.333 72.1667C128.417 72.1667 127.632 71.8403 126.979 71.1875C126.326 70.5347 126 69.75 126 68.8333C126 67.9167 126.326 67.1319 126.979 66.4792C127.632 65.8264 128.417 65.5 129.333 65.5C130.25 65.5 131.035 65.8264 131.687 66.4792C132.34 67.1319 132.667 67.9167 132.667 68.8333C132.667 69.75 132.34 70.5347 131.687 71.1875C131.035 71.8403 130.25 72.1667 129.333 72.1667Z" fill="#1C1B1F"/>
</g>
<path opacity="0.7" d="M54.482 154.708H59.368V156.248H54.482V154.708ZM54.636 160H52.816V150.2H59.97V151.726H54.636V160ZM64.717 160.098C63.9517 160.098 63.2703 159.935 62.673 159.608C62.0757 159.272 61.6043 158.815 61.259 158.236C60.9137 157.657 60.741 156.999 60.741 156.262C60.741 155.515 60.9137 154.857 61.259 154.288C61.6043 153.709 62.0757 153.257 62.673 152.93C63.2703 152.603 63.9517 152.44 64.717 152.44C65.4917 152.44 66.1777 152.603 66.775 152.93C67.3817 153.257 67.853 153.705 68.189 154.274C68.5343 154.843 68.707 155.506 68.707 156.262C68.707 156.999 68.5343 157.657 68.189 158.236C67.853 158.815 67.3817 159.272 66.775 159.608C66.1777 159.935 65.4917 160.098 64.717 160.098ZM64.717 158.6C65.1463 158.6 65.529 158.507 65.865 158.32C66.201 158.133 66.4623 157.863 66.649 157.508C66.845 157.153 66.943 156.738 66.943 156.262C66.943 155.777 66.845 155.361 66.649 155.016C66.4623 154.661 66.201 154.391 65.865 154.204C65.529 154.017 65.151 153.924 64.731 153.924C64.3017 153.924 63.919 154.017 63.583 154.204C63.2563 154.391 62.995 154.661 62.799 155.016C62.603 155.361 62.505 155.777 62.505 156.262C62.505 156.738 62.603 157.153 62.799 157.508C62.995 157.863 63.2563 158.133 63.583 158.32C63.919 158.507 64.297 158.6 64.717 158.6ZM70.3804 160V152.524H72.0464V154.582L71.8504 153.98C72.0744 153.476 72.4244 153.093 72.9004 152.832C73.3858 152.571 73.9878 152.44 74.7064 152.44V154.106C74.6318 154.087 74.5618 154.078 74.4964 154.078C74.4311 154.069 74.3658 154.064 74.3004 154.064C73.6378 154.064 73.1104 154.26 72.7184 154.652C72.3264 155.035 72.1304 155.609 72.1304 156.374V160H70.3804ZM82.9425 160.098C82.1211 160.098 81.4865 159.888 81.0385 159.468C80.5905 159.039 80.3665 158.409 80.3665 157.578V150.872H82.1165V157.536C82.1165 157.891 82.2051 158.166 82.3825 158.362C82.5691 158.558 82.8258 158.656 83.1525 158.656C83.5445 158.656 83.8711 158.553 84.1325 158.348L84.6225 159.594C84.4171 159.762 84.1651 159.888 83.8665 159.972C83.5678 160.056 83.2598 160.098 82.9425 160.098ZM79.1345 153.98V152.58H84.1185V153.98H79.1345ZM90.3041 152.44C90.9014 152.44 91.4334 152.557 91.9001 152.79C92.3761 153.023 92.7494 153.383 93.0201 153.868C93.2907 154.344 93.4261 154.96 93.4261 155.716V160H91.6761V155.94C91.6761 155.277 91.5174 154.783 91.2001 154.456C90.8921 154.129 90.4581 153.966 89.8981 153.966C89.4874 153.966 89.1234 154.05 88.8061 154.218C88.4887 154.386 88.2414 154.638 88.0641 154.974C87.8961 155.301 87.8121 155.716 87.8121 156.22V160H86.0621V149.612H87.8121V154.54L87.4341 153.924C87.6954 153.448 88.0734 153.084 88.5681 152.832C89.0721 152.571 89.6507 152.44 90.3041 152.44ZM99.1737 160.098C98.3431 160.098 97.6151 159.935 96.9897 159.608C96.3737 159.272 95.8931 158.815 95.5477 158.236C95.2117 157.657 95.0437 156.999 95.0437 156.262C95.0437 155.515 95.2071 154.857 95.5337 154.288C95.8697 153.709 96.3271 153.257 96.9057 152.93C97.4937 152.603 98.1611 152.44 98.9077 152.44C99.6357 152.44 100.284 152.599 100.854 152.916C101.423 153.233 101.871 153.681 102.198 154.26C102.524 154.839 102.688 155.52 102.688 156.304C102.688 156.379 102.683 156.463 102.674 156.556C102.674 156.649 102.669 156.738 102.66 156.822H96.4297V155.66H101.736L101.05 156.024C101.059 155.595 100.97 155.217 100.784 154.89C100.597 154.563 100.34 154.307 100.014 154.12C99.6964 153.933 99.3277 153.84 98.9077 153.84C98.4784 153.84 98.1004 153.933 97.7737 154.12C97.4564 154.307 97.2044 154.568 97.0177 154.904C96.8404 155.231 96.7517 155.618 96.7517 156.066V156.346C96.7517 156.794 96.8544 157.191 97.0597 157.536C97.2651 157.881 97.5544 158.147 97.9277 158.334C98.3011 158.521 98.7304 158.614 99.2157 158.614C99.6357 158.614 100.014 158.549 100.35 158.418C100.686 158.287 100.984 158.082 101.246 157.802L102.184 158.88C101.848 159.272 101.423 159.575 100.91 159.79C100.406 159.995 99.8271 160.098 99.1737 160.098ZM111.444 160.14C110.679 160.14 109.946 160.033 109.246 159.818C108.546 159.594 107.991 159.309 107.58 158.964L108.21 157.55C108.602 157.858 109.087 158.115 109.666 158.32C110.245 158.525 110.837 158.628 111.444 158.628C111.957 158.628 112.373 158.572 112.69 158.46C113.007 158.348 113.241 158.199 113.39 158.012C113.539 157.816 113.614 157.597 113.614 157.354C113.614 157.055 113.507 156.817 113.292 156.64C113.077 156.453 112.797 156.309 112.452 156.206C112.116 156.094 111.738 155.991 111.318 155.898C110.907 155.805 110.492 155.697 110.072 155.576C109.661 155.445 109.283 155.282 108.938 155.086C108.602 154.881 108.327 154.61 108.112 154.274C107.897 153.938 107.79 153.509 107.79 152.986C107.79 152.454 107.93 151.969 108.21 151.53C108.499 151.082 108.933 150.727 109.512 150.466C110.1 150.195 110.842 150.06 111.738 150.06C112.326 150.06 112.909 150.135 113.488 150.284C114.067 150.433 114.571 150.648 115 150.928L114.426 152.342C113.987 152.081 113.535 151.889 113.068 151.768C112.601 151.637 112.153 151.572 111.724 151.572C111.22 151.572 110.809 151.633 110.492 151.754C110.184 151.875 109.955 152.034 109.806 152.23C109.666 152.426 109.596 152.65 109.596 152.902C109.596 153.201 109.699 153.443 109.904 153.63C110.119 153.807 110.394 153.947 110.73 154.05C111.075 154.153 111.458 154.255 111.878 154.358C112.298 154.451 112.713 154.559 113.124 154.68C113.544 154.801 113.922 154.96 114.258 155.156C114.603 155.352 114.879 155.618 115.084 155.954C115.299 156.29 115.406 156.715 115.406 157.228C115.406 157.751 115.261 158.236 114.972 158.684C114.692 159.123 114.258 159.477 113.67 159.748C113.082 160.009 112.34 160.14 111.444 160.14ZM120.207 160.098C119.572 160.098 119.012 159.981 118.527 159.748C118.041 159.505 117.663 159.141 117.393 158.656C117.122 158.161 116.987 157.541 116.987 156.794V152.524H118.737V156.556C118.737 157.228 118.886 157.732 119.185 158.068C119.493 158.395 119.927 158.558 120.487 158.558C120.897 158.558 121.252 158.474 121.551 158.306C121.859 158.138 122.097 157.886 122.265 157.55C122.442 157.214 122.531 156.799 122.531 156.304V152.524H124.281V160H122.615V157.984L122.909 158.6C122.657 159.085 122.288 159.459 121.803 159.72C121.317 159.972 120.785 160.098 120.207 160.098ZM126.572 160V152.524H128.238V154.582L128.042 153.98C128.266 153.476 128.616 153.093 129.092 152.832C129.577 152.571 130.179 152.44 130.898 152.44V154.106C130.823 154.087 130.753 154.078 130.688 154.078C130.622 154.069 130.557 154.064 130.492 154.064C129.829 154.064 129.302 154.26 128.91 154.652C128.518 155.035 128.322 155.609 128.322 156.374V160H126.572ZM132.689 160V152.104C132.689 151.32 132.917 150.695 133.375 150.228C133.841 149.752 134.504 149.514 135.363 149.514C135.671 149.514 135.96 149.547 136.231 149.612C136.511 149.677 136.744 149.78 136.931 149.92L136.455 151.236C136.324 151.133 136.175 151.059 136.007 151.012C135.839 150.956 135.666 150.928 135.489 150.928C135.125 150.928 134.849 151.031 134.663 151.236C134.476 151.432 134.383 151.731 134.383 152.132V152.972L134.439 153.756V160H132.689ZM131.457 153.98V152.58H136.441V153.98H131.457ZM141.656 160V150.2H146.248C147.424 150.2 148.32 150.433 148.936 150.9C149.552 151.357 149.86 151.973 149.86 152.748C149.86 153.271 149.739 153.719 149.496 154.092C149.253 154.456 148.927 154.741 148.516 154.946C148.115 155.142 147.676 155.24 147.2 155.24L147.452 154.736C148.003 154.736 148.497 154.839 148.936 155.044C149.375 155.24 149.72 155.529 149.972 155.912C150.233 156.295 150.364 156.771 150.364 157.34C150.364 158.18 150.042 158.833 149.398 159.3C148.754 159.767 147.797 160 146.528 160H141.656ZM143.476 158.572H146.416C147.097 158.572 147.62 158.46 147.984 158.236C148.348 158.012 148.53 157.653 148.53 157.158C148.53 156.673 148.348 156.318 147.984 156.094C147.62 155.861 147.097 155.744 146.416 155.744H143.336V154.33H146.052C146.687 154.33 147.172 154.218 147.508 153.994C147.853 153.77 148.026 153.434 148.026 152.986C148.026 152.529 147.853 152.188 147.508 151.964C147.172 151.74 146.687 151.628 146.052 151.628H143.476V158.572ZM155.498 160.098C154.733 160.098 154.052 159.935 153.454 159.608C152.857 159.272 152.386 158.815 152.04 158.236C151.695 157.657 151.522 156.999 151.522 156.262C151.522 155.515 151.695 154.857 152.04 154.288C152.386 153.709 152.857 153.257 153.454 152.93C154.052 152.603 154.733 152.44 155.498 152.44C156.273 152.44 156.959 152.603 157.556 152.93C158.163 153.257 158.634 153.705 158.97 154.274C159.316 154.843 159.488 155.506 159.488 156.262C159.488 156.999 159.316 157.657 158.97 158.236C158.634 158.815 158.163 159.272 157.556 159.608C156.959 159.935 156.273 160.098 155.498 160.098ZM155.498 158.6C155.928 158.6 156.31 158.507 156.646 158.32C156.982 158.133 157.244 157.863 157.43 157.508C157.626 157.153 157.724 156.738 157.724 156.262C157.724 155.777 157.626 155.361 157.43 155.016C157.244 154.661 156.982 154.391 156.646 154.204C156.31 154.017 155.932 153.924 155.512 153.924C155.083 153.924 154.7 154.017 154.364 154.204C154.038 154.391 153.776 154.661 153.58 155.016C153.384 155.361 153.286 155.777 153.286 156.262C153.286 156.738 153.384 157.153 153.58 157.508C153.776 157.863 154.038 158.133 154.364 158.32C154.7 158.507 155.078 158.6 155.498 158.6ZM165.672 160V158.488L165.574 158.166V155.52C165.574 155.007 165.42 154.61 165.112 154.33C164.804 154.041 164.337 153.896 163.712 153.896C163.292 153.896 162.877 153.961 162.466 154.092C162.065 154.223 161.724 154.405 161.444 154.638L160.758 153.364C161.159 153.056 161.635 152.827 162.186 152.678C162.746 152.519 163.325 152.44 163.922 152.44C165.005 152.44 165.84 152.701 166.428 153.224C167.025 153.737 167.324 154.535 167.324 155.618V160H165.672ZM163.32 160.098C162.76 160.098 162.27 160.005 161.85 159.818C161.43 159.622 161.103 159.356 160.87 159.02C160.646 158.675 160.534 158.287 160.534 157.858C160.534 157.438 160.632 157.06 160.828 156.724C161.033 156.388 161.365 156.122 161.822 155.926C162.279 155.73 162.886 155.632 163.642 155.632H165.812V156.794H163.768C163.171 156.794 162.769 156.892 162.564 157.088C162.359 157.275 162.256 157.508 162.256 157.788C162.256 158.105 162.382 158.357 162.634 158.544C162.886 158.731 163.236 158.824 163.684 158.824C164.113 158.824 164.496 158.726 164.832 158.53C165.177 158.334 165.425 158.045 165.574 157.662L165.868 158.712C165.7 159.151 165.397 159.491 164.958 159.734C164.529 159.977 163.983 160.098 163.32 160.098ZM169.57 160V152.524H171.236V154.582L171.04 153.98C171.264 153.476 171.614 153.093 172.09 152.832C172.575 152.571 173.177 152.44 173.896 152.44V154.106C173.821 154.087 173.751 154.078 173.686 154.078C173.621 154.069 173.555 154.064 173.49 154.064C172.827 154.064 172.3 154.26 171.908 154.652C171.516 155.035 171.32 155.609 171.32 156.374V160H169.57ZM178.476 160.098C177.757 160.098 177.109 159.939 176.53 159.622C175.961 159.295 175.513 158.847 175.186 158.278C174.859 157.709 174.696 157.037 174.696 156.262C174.696 155.487 174.859 154.815 175.186 154.246C175.513 153.677 175.961 153.233 176.53 152.916C177.109 152.599 177.757 152.44 178.476 152.44C179.101 152.44 179.661 152.58 180.156 152.86C180.651 153.131 181.043 153.546 181.332 154.106C181.621 154.666 181.766 155.385 181.766 156.262C181.766 157.13 181.626 157.849 181.346 158.418C181.066 158.978 180.679 159.398 180.184 159.678C179.689 159.958 179.12 160.098 178.476 160.098ZM178.686 158.6C179.106 158.6 179.479 158.507 179.806 158.32C180.142 158.133 180.408 157.863 180.604 157.508C180.809 157.153 180.912 156.738 180.912 156.262C180.912 155.777 180.809 155.361 180.604 155.016C180.408 154.661 180.142 154.391 179.806 154.204C179.479 154.017 179.106 153.924 178.686 153.924C178.266 153.924 177.888 154.017 177.552 154.204C177.225 154.391 176.959 154.661 176.754 155.016C176.558 155.361 176.46 155.777 176.46 156.262C176.46 156.738 176.558 157.153 176.754 157.508C176.959 157.863 177.225 158.133 177.552 158.32C177.888 158.507 178.266 158.6 178.686 158.6ZM180.954 160V158.236L181.024 156.248L180.884 154.26V149.612H182.62V160H180.954ZM187.233 160.098C186.608 160.098 186.006 160.019 185.427 159.86C184.858 159.692 184.405 159.491 184.069 159.258L184.741 157.928C185.077 158.143 185.479 158.32 185.945 158.46C186.412 158.6 186.879 158.67 187.345 158.67C187.896 158.67 188.293 158.595 188.535 158.446C188.787 158.297 188.913 158.096 188.913 157.844C188.913 157.639 188.829 157.485 188.661 157.382C188.493 157.27 188.274 157.186 188.003 157.13C187.733 157.074 187.429 157.023 187.093 156.976C186.767 156.929 186.435 156.869 186.099 156.794C185.773 156.71 185.474 156.593 185.203 156.444C184.933 156.285 184.713 156.075 184.545 155.814C184.377 155.553 184.293 155.207 184.293 154.778C184.293 154.302 184.429 153.891 184.699 153.546C184.97 153.191 185.348 152.921 185.833 152.734C186.328 152.538 186.911 152.44 187.583 152.44C188.087 152.44 188.596 152.496 189.109 152.608C189.623 152.72 190.047 152.879 190.383 153.084L189.711 154.414C189.357 154.199 188.997 154.055 188.633 153.98C188.279 153.896 187.924 153.854 187.569 153.854C187.037 153.854 186.641 153.933 186.379 154.092C186.127 154.251 186.001 154.451 186.001 154.694C186.001 154.918 186.085 155.086 186.253 155.198C186.421 155.31 186.641 155.399 186.911 155.464C187.182 155.529 187.481 155.585 187.807 155.632C188.143 155.669 188.475 155.73 188.801 155.814C189.128 155.898 189.427 156.015 189.697 156.164C189.977 156.304 190.201 156.505 190.369 156.766C190.537 157.027 190.621 157.368 190.621 157.788C190.621 158.255 190.481 158.661 190.201 159.006C189.931 159.351 189.543 159.622 189.039 159.818C188.535 160.005 187.933 160.098 187.233 160.098Z" fill="black"/>
</g>
<defs>
<filter id="filter0_d_1802_3059" x="0" y="0" width="243" height="243" filterUnits="userSpaceOnUse" color-interpolation-filters="sRGB">
<feFlood flood-opacity="0" result="BackgroundImageFix"/>
<feColorMatrix in="SourceAlpha" type="matrix" values="0 0 0 0 0 0 0 0 0 0 0 0 0 0 0 0 0 0 127 0" result="hardAlpha"/>
<feOffset dy="4"/>
<feGaussianBlur stdDeviation="2"/>
<feComposite in2="hardAlpha" operator="out"/>
<feColorMatrix type="matrix" values="0 0 0 0 0 0 0 0 0 0 0 0 0 0 0 0 0 0 0.25 0"/>
<feBlend mode="normal" in2="BackgroundImageFix" result="effect1_dropShadow_1802_3059"/>
<feBlend mode="normal" in="SourceGraphic" in2="effect1_dropShadow_1802_3059" result="shape"/>
</filter>
</defs>
</svg>
