<svg width="243" height="243" viewBox="0 0 243 243" fill="none" xmlns="http://www.w3.org/2000/svg">
<g filter="url(#filter0_d_1802_2990)">
<rect x="4" width="235" height="235" rx="15" fill="#BAEBDA"/>
<path d="M84.828 136.24C83.308 136.24 82.004 135.92 80.916 135.28C79.828 134.624 78.996 133.68 78.42 132.448C77.844 131.216 77.556 129.696 77.556 127.888C77.556 125.968 77.9 124.344 78.588 123.016C79.292 121.688 80.26 120.68 81.492 119.992C82.74 119.304 84.172 118.96 85.788 118.96C86.636 118.96 87.444 119.048 88.212 119.224C88.996 119.4 89.66 119.672 90.204 120.04L89.052 122.392C88.588 122.088 88.084 121.88 87.54 121.768C87.012 121.64 86.452 121.576 85.86 121.576C84.276 121.576 83.02 122.064 82.092 123.04C81.164 124.016 80.7 125.456 80.7 127.36C80.7 127.664 80.708 128.024 80.724 128.44C80.74 128.84 80.796 129.248 80.892 129.664L79.932 128.608C80.22 127.952 80.612 127.408 81.108 126.976C81.62 126.528 82.22 126.192 82.908 125.968C83.612 125.744 84.372 125.632 85.188 125.632C86.292 125.632 87.276 125.848 88.14 126.28C89.004 126.696 89.692 127.296 90.204 128.08C90.716 128.848 90.972 129.752 90.972 130.792C90.972 131.896 90.7 132.856 90.156 133.672C89.612 134.488 88.876 135.12 87.948 135.568C87.02 136.016 85.98 136.24 84.828 136.24ZM84.66 133.792C85.3 133.792 85.868 133.68 86.364 133.456C86.86 133.216 87.244 132.88 87.516 132.448C87.804 132.016 87.948 131.512 87.948 130.936C87.948 130.056 87.644 129.36 87.036 128.848C86.428 128.336 85.612 128.08 84.588 128.08C83.916 128.08 83.324 128.208 82.812 128.464C82.316 128.704 81.916 129.04 81.612 129.472C81.324 129.904 81.18 130.4 81.18 130.96C81.18 131.472 81.316 131.944 81.588 132.376C81.86 132.808 82.252 133.152 82.764 133.408C83.292 133.664 83.924 133.792 84.66 133.792ZM105.644 136.24C104.332 136.24 103.076 136.056 101.876 135.688C100.676 135.304 99.7237 134.816 99.0197 134.224L100.1 131.8C100.772 132.328 101.604 132.768 102.596 133.12C103.588 133.472 104.604 133.648 105.644 133.648C106.524 133.648 107.236 133.552 107.78 133.36C108.324 133.168 108.724 132.912 108.98 132.592C109.236 132.256 109.364 131.88 109.364 131.464C109.364 130.952 109.18 130.544 108.812 130.24C108.444 129.92 107.964 129.672 107.372 129.496C106.796 129.304 106.148 129.128 105.428 128.968C104.724 128.808 104.012 128.624 103.292 128.416C102.588 128.192 101.94 127.912 101.348 127.576C100.772 127.224 100.3 126.76 99.9317 126.184C99.5637 125.608 99.3797 124.872 99.3797 123.976C99.3797 123.064 99.6197 122.232 100.1 121.48C100.596 120.712 101.34 120.104 102.332 119.656C103.34 119.192 104.612 118.96 106.148 118.96C107.156 118.96 108.156 119.088 109.148 119.344C110.14 119.6 111.004 119.968 111.74 120.448L110.756 122.872C110.004 122.424 109.228 122.096 108.428 121.888C107.628 121.664 106.86 121.552 106.124 121.552C105.26 121.552 104.556 121.656 104.012 121.864C103.484 122.072 103.092 122.344 102.836 122.68C102.596 123.016 102.476 123.4 102.476 123.832C102.476 124.344 102.652 124.76 103.004 125.08C103.372 125.384 103.844 125.624 104.42 125.8C105.012 125.976 105.668 126.152 106.388 126.328C107.108 126.488 107.82 126.672 108.524 126.88C109.244 127.088 109.892 127.36 110.468 127.696C111.06 128.032 111.532 128.488 111.884 129.064C112.252 129.64 112.436 130.368 112.436 131.248C112.436 132.144 112.188 132.976 111.692 133.744C111.212 134.496 110.468 135.104 109.46 135.568C108.452 136.016 107.18 136.24 105.644 136.24ZM121.265 136.168C119.841 136.168 118.593 135.888 117.521 135.328C116.465 134.752 115.641 133.968 115.049 132.976C114.473 131.984 114.185 130.856 114.185 129.592C114.185 128.312 114.465 127.184 115.025 126.208C115.601 125.216 116.385 124.44 117.377 123.88C118.385 123.32 119.529 123.04 120.809 123.04C122.057 123.04 123.169 123.312 124.145 123.856C125.121 124.4 125.889 125.168 126.449 126.16C127.009 127.152 127.289 128.32 127.289 129.664C127.289 129.792 127.281 129.936 127.265 130.096C127.265 130.256 127.257 130.408 127.241 130.552H116.561V128.56H125.657L124.481 129.184C124.497 128.448 124.345 127.8 124.025 127.24C123.705 126.68 123.265 126.24 122.705 125.92C122.161 125.6 121.529 125.44 120.809 125.44C120.073 125.44 119.425 125.6 118.865 125.92C118.321 126.24 117.889 126.688 117.569 127.264C117.265 127.824 117.113 128.488 117.113 129.256V129.736C117.113 130.504 117.289 131.184 117.641 131.776C117.993 132.368 118.489 132.824 119.129 133.144C119.769 133.464 120.505 133.624 121.337 133.624C122.057 133.624 122.705 133.512 123.281 133.288C123.857 133.064 124.369 132.712 124.817 132.232L126.425 134.08C125.849 134.752 125.121 135.272 124.241 135.64C123.377 135.992 122.385 136.168 121.265 136.168ZM137.716 136V133.408L137.548 132.856V128.32C137.548 127.44 137.284 126.76 136.756 126.28C136.228 125.784 135.428 125.536 134.356 125.536C133.636 125.536 132.924 125.648 132.22 125.872C131.532 126.096 130.948 126.408 130.468 126.808L129.292 124.624C129.98 124.096 130.796 123.704 131.74 123.448C132.7 123.176 133.692 123.04 134.716 123.04C136.572 123.04 138.004 123.488 139.012 124.384C140.036 125.264 140.548 126.632 140.548 128.488V136H137.716ZM133.684 136.168C132.724 136.168 131.884 136.008 131.164 135.688C130.444 135.352 129.884 134.896 129.484 134.32C129.1 133.728 128.908 133.064 128.908 132.328C128.908 131.608 129.076 130.96 129.412 130.384C129.764 129.808 130.332 129.352 131.116 129.016C131.9 128.68 132.94 128.512 134.236 128.512H137.956V130.504H134.452C133.428 130.504 132.74 130.672 132.388 131.008C132.036 131.328 131.86 131.728 131.86 132.208C131.86 132.752 132.076 133.184 132.508 133.504C132.94 133.824 133.54 133.984 134.308 133.984C135.044 133.984 135.7 133.816 136.276 133.48C136.868 133.144 137.292 132.648 137.548 131.992L138.052 133.792C137.764 134.544 137.244 135.128 136.492 135.544C135.756 135.96 134.82 136.168 133.684 136.168ZM149.222 136.168C147.814 136.168 146.726 135.808 145.958 135.088C145.19 134.352 144.806 133.272 144.806 131.848V120.352H147.806V131.776C147.806 132.384 147.958 132.856 148.262 133.192C148.582 133.528 149.022 133.696 149.582 133.696C150.254 133.696 150.814 133.52 151.262 133.168L152.102 135.304C151.75 135.592 151.318 135.808 150.806 135.952C150.294 136.096 149.766 136.168 149.222 136.168ZM142.694 125.68V123.28H151.238V125.68H142.694ZM158.53 136.168C157.458 136.168 156.426 136.032 155.434 135.76C154.458 135.472 153.682 135.128 153.106 134.728L154.258 132.448C154.834 132.816 155.522 133.12 156.322 133.36C157.122 133.6 157.922 133.72 158.722 133.72C159.666 133.72 160.346 133.592 160.762 133.336C161.194 133.08 161.41 132.736 161.41 132.304C161.41 131.952 161.266 131.688 160.978 131.512C160.69 131.32 160.314 131.176 159.85 131.08C159.386 130.984 158.866 130.896 158.29 130.816C157.73 130.736 157.162 130.632 156.586 130.504C156.026 130.36 155.514 130.16 155.05 129.904C154.586 129.632 154.21 129.272 153.922 128.824C153.634 128.376 153.49 127.784 153.49 127.048C153.49 126.232 153.722 125.528 154.186 124.936C154.65 124.328 155.298 123.864 156.13 123.544C156.978 123.208 157.978 123.04 159.13 123.04C159.994 123.04 160.866 123.136 161.746 123.328C162.626 123.52 163.354 123.792 163.93 124.144L162.778 126.424C162.17 126.056 161.554 125.808 160.93 125.68C160.322 125.536 159.714 125.464 159.106 125.464C158.194 125.464 157.514 125.6 157.066 125.872C156.634 126.144 156.418 126.488 156.418 126.904C156.418 127.288 156.562 127.576 156.85 127.768C157.138 127.96 157.514 128.112 157.978 128.224C158.442 128.336 158.954 128.432 159.514 128.512C160.09 128.576 160.658 128.68 161.218 128.824C161.778 128.968 162.29 129.168 162.754 129.424C163.234 129.664 163.618 130.008 163.906 130.456C164.194 130.904 164.338 131.488 164.338 132.208C164.338 133.008 164.098 133.704 163.618 134.296C163.154 134.888 162.49 135.352 161.626 135.688C160.762 136.008 159.73 136.168 158.53 136.168Z" fill="black"/>
<mask id="mask0_1802_2990" style="mask-type:alpha" maskUnits="userSpaceOnUse" x="101" y="63" width="40" height="40">
<rect x="101" y="63" width="40" height="40" fill="#D9D9D9"/>
</mask>
<g mask="url(#mask0_1802_2990)">
<path d="M126 96.334H114.333C113.417 96.334 112.632 96.0076 111.979 95.3548C111.326 94.702 111 93.9173 111 93.0007V74.6673H114.333V93.0007H126V96.334ZM120.167 73.0007C119.25 73.0007 118.465 72.6743 117.812 72.0215C117.16 71.3687 116.833 70.584 116.833 69.6673C116.833 68.7507 117.16 67.9659 117.812 67.3132C118.465 66.6604 119.25 66.334 120.167 66.334C121.083 66.334 121.868 66.6604 122.521 67.3132C123.174 67.9659 123.5 68.7507 123.5 69.6673C123.5 70.584 123.174 71.3687 122.521 72.0215C121.868 72.6743 121.083 73.0007 120.167 73.0007ZM127.667 99.6673V91.334H119.333C118.417 91.334 117.632 91.0076 116.979 90.3548C116.326 89.702 116 88.9173 116 88.0007V78.834C116 77.6673 116.403 76.6812 117.208 75.8757C118.014 75.0701 119 74.6673 120.167 74.6673C121.333 74.6673 122.319 75.0701 123.125 75.8757C123.931 76.6812 124.333 77.6673 124.333 78.834V86.334H127.667C128.583 86.334 129.368 86.6604 130.021 87.3132C130.674 87.9659 131 88.7507 131 89.6673V99.6673H127.667Z" fill="#1C1B1F"/>
</g>
<path opacity="0.7" d="M50.852 160.14C50.1053 160.14 49.41 160.019 48.766 159.776C48.1313 159.524 47.576 159.174 47.1 158.726C46.6333 158.269 46.2693 157.732 46.008 157.116C45.7467 156.5 45.616 155.828 45.616 155.1C45.616 154.372 45.7467 153.7 46.008 153.084C46.2693 152.468 46.638 151.936 47.114 151.488C47.59 151.031 48.1453 150.681 48.78 150.438C49.4147 150.186 50.11 150.06 50.866 150.06C51.6687 150.06 52.4013 150.2 53.064 150.48C53.7267 150.751 54.2867 151.157 54.744 151.698L53.568 152.804C53.2133 152.421 52.8167 152.137 52.378 151.95C51.9393 151.754 51.4633 151.656 50.95 151.656C50.4367 151.656 49.9653 151.74 49.536 151.908C49.116 152.076 48.7473 152.314 48.43 152.622C48.122 152.93 47.8793 153.294 47.702 153.714C47.534 154.134 47.45 154.596 47.45 155.1C47.45 155.604 47.534 156.066 47.702 156.486C47.8793 156.906 48.122 157.27 48.43 157.578C48.7473 157.886 49.116 158.124 49.536 158.292C49.9653 158.46 50.4367 158.544 50.95 158.544C51.4633 158.544 51.9393 158.451 52.378 158.264C52.8167 158.068 53.2133 157.774 53.568 157.382L54.744 158.502C54.2867 159.034 53.7267 159.44 53.064 159.72C52.4013 160 51.664 160.14 50.852 160.14ZM59.3928 160.098C58.6274 160.098 57.9461 159.935 57.3488 159.608C56.7514 159.272 56.2801 158.815 55.9348 158.236C55.5894 157.657 55.4168 156.999 55.4168 156.262C55.4168 155.515 55.5894 154.857 55.9348 154.288C56.2801 153.709 56.7514 153.257 57.3488 152.93C57.9461 152.603 58.6274 152.44 59.3928 152.44C60.1674 152.44 60.8534 152.603 61.4508 152.93C62.0574 153.257 62.5288 153.705 62.8648 154.274C63.2101 154.843 63.3828 155.506 63.3828 156.262C63.3828 156.999 63.2101 157.657 62.8648 158.236C62.5288 158.815 62.0574 159.272 61.4508 159.608C60.8534 159.935 60.1674 160.098 59.3928 160.098ZM59.3928 158.6C59.8221 158.6 60.2048 158.507 60.5408 158.32C60.8768 158.133 61.1381 157.863 61.3248 157.508C61.5208 157.153 61.6188 156.738 61.6188 156.262C61.6188 155.777 61.5208 155.361 61.3248 155.016C61.1381 154.661 60.8768 154.391 60.5408 154.204C60.2048 154.017 59.8268 153.924 59.4068 153.924C58.9774 153.924 58.5948 154.017 58.2588 154.204C57.9321 154.391 57.6708 154.661 57.4748 155.016C57.2788 155.361 57.1808 155.777 57.1808 156.262C57.1808 156.738 57.2788 157.153 57.4748 157.508C57.6708 157.863 57.9321 158.133 58.2588 158.32C58.5948 158.507 58.9728 158.6 59.3928 158.6ZM74.4922 152.44C75.0895 152.44 75.6169 152.557 76.0742 152.79C76.5409 153.023 76.9049 153.383 77.1662 153.868C77.4275 154.344 77.5582 154.96 77.5582 155.716V160H75.8082V155.94C75.8082 155.277 75.6635 154.783 75.3742 154.456C75.0849 154.129 74.6695 153.966 74.1282 153.966C73.7455 153.966 73.4049 154.05 73.1062 154.218C72.8169 154.386 72.5882 154.633 72.4202 154.96C72.2615 155.287 72.1822 155.702 72.1822 156.206V160H70.4322V155.94C70.4322 155.277 70.2875 154.783 69.9982 154.456C69.7089 154.129 69.2935 153.966 68.7522 153.966C68.3695 153.966 68.0289 154.05 67.7302 154.218C67.4409 154.386 67.2122 154.633 67.0442 154.96C66.8855 155.287 66.8062 155.702 66.8062 156.206V160H65.0562V152.524H66.7222V154.512L66.4282 153.924C66.6802 153.439 67.0442 153.07 67.5202 152.818C68.0055 152.566 68.5562 152.44 69.1722 152.44C69.8722 152.44 70.4789 152.613 70.9922 152.958C71.5149 153.303 71.8602 153.826 72.0282 154.526L71.3422 154.288C71.5849 153.728 71.9862 153.28 72.5462 152.944C73.1062 152.608 73.7549 152.44 74.4922 152.44ZM80.0325 160V152.104C80.0325 151.32 80.2612 150.695 80.7185 150.228C81.1852 149.752 81.8478 149.514 82.7065 149.514C83.0145 149.514 83.3038 149.547 83.5745 149.612C83.8545 149.677 84.0878 149.78 84.2745 149.92L83.7985 151.236C83.6678 151.133 83.5185 151.059 83.3505 151.012C83.1825 150.956 83.0098 150.928 82.8325 150.928C82.4685 150.928 82.1932 151.031 82.0065 151.236C81.8198 151.432 81.7265 151.731 81.7265 152.132V152.972L81.7825 153.756V160H80.0325ZM78.8005 153.98V152.58H83.7845V153.98H78.8005ZM88.2131 160.098C87.4477 160.098 86.7664 159.935 86.1691 159.608C85.5717 159.272 85.1004 158.815 84.7551 158.236C84.4097 157.657 84.2371 156.999 84.2371 156.262C84.2371 155.515 84.4097 154.857 84.7551 154.288C85.1004 153.709 85.5717 153.257 86.1691 152.93C86.7664 152.603 87.4477 152.44 88.2131 152.44C88.9877 152.44 89.6737 152.603 90.2711 152.93C90.8777 153.257 91.3491 153.705 91.6851 154.274C92.0304 154.843 92.2031 155.506 92.2031 156.262C92.2031 156.999 92.0304 157.657 91.6851 158.236C91.3491 158.815 90.8777 159.272 90.2711 159.608C89.6737 159.935 88.9877 160.098 88.2131 160.098ZM88.2131 158.6C88.6424 158.6 89.0251 158.507 89.3611 158.32C89.6971 158.133 89.9584 157.863 90.1451 157.508C90.3411 157.153 90.4391 156.738 90.4391 156.262C90.4391 155.777 90.3411 155.361 90.1451 155.016C89.9584 154.661 89.6971 154.391 89.3611 154.204C89.0251 154.017 88.6471 153.924 88.2271 153.924C87.7977 153.924 87.4151 154.017 87.0791 154.204C86.7524 154.391 86.4911 154.661 86.2951 155.016C86.0991 155.361 86.0011 155.777 86.0011 156.262C86.0011 156.738 86.0991 157.153 86.2951 157.508C86.4911 157.863 86.7524 158.133 87.0791 158.32C87.4151 158.507 87.7931 158.6 88.2131 158.6ZM93.8765 160V152.524H95.5425V154.582L95.3465 153.98C95.5705 153.476 95.9205 153.093 96.3965 152.832C96.8818 152.571 97.4838 152.44 98.2025 152.44V154.106C98.1278 154.087 98.0578 154.078 97.9925 154.078C97.9272 154.069 97.8618 154.064 97.7965 154.064C97.1338 154.064 96.6065 154.26 96.2145 154.652C95.8225 155.035 95.6265 155.609 95.6265 156.374V160H93.8765ZM102.775 160.098C101.953 160.098 101.319 159.888 100.87 159.468C100.423 159.039 100.199 158.409 100.199 157.578V150.872H101.949V157.536C101.949 157.891 102.037 158.166 102.215 158.362C102.401 158.558 102.658 158.656 102.985 158.656C103.377 158.656 103.703 158.553 103.965 158.348L104.455 159.594C104.249 159.762 103.997 159.888 103.699 159.972C103.4 160.056 103.092 160.098 102.775 160.098ZM98.9665 153.98V152.58H103.951V153.98H98.9665ZM110.5 160V158.488L110.402 158.166V155.52C110.402 155.007 110.248 154.61 109.94 154.33C109.632 154.041 109.165 153.896 108.54 153.896C108.12 153.896 107.705 153.961 107.294 154.092C106.893 154.223 106.552 154.405 106.272 154.638L105.586 153.364C105.987 153.056 106.463 152.827 107.014 152.678C107.574 152.519 108.153 152.44 108.75 152.44C109.833 152.44 110.668 152.701 111.256 153.224C111.853 153.737 112.152 154.535 112.152 155.618V160H110.5ZM108.148 160.098C107.588 160.098 107.098 160.005 106.678 159.818C106.258 159.622 105.931 159.356 105.698 159.02C105.474 158.675 105.362 158.287 105.362 157.858C105.362 157.438 105.46 157.06 105.656 156.724C105.861 156.388 106.193 156.122 106.65 155.926C107.107 155.73 107.714 155.632 108.47 155.632H110.64V156.794H108.596C107.999 156.794 107.597 156.892 107.392 157.088C107.187 157.275 107.084 157.508 107.084 157.788C107.084 158.105 107.21 158.357 107.462 158.544C107.714 158.731 108.064 158.824 108.512 158.824C108.941 158.824 109.324 158.726 109.66 158.53C110.005 158.334 110.253 158.045 110.402 157.662L110.696 158.712C110.528 159.151 110.225 159.491 109.786 159.734C109.357 159.977 108.811 160.098 108.148 160.098ZM118.542 160.098C117.907 160.098 117.343 159.958 116.848 159.678C116.353 159.398 115.961 158.978 115.672 158.418C115.392 157.849 115.252 157.13 115.252 156.262C115.252 155.385 115.397 154.666 115.686 154.106C115.985 153.546 116.381 153.131 116.876 152.86C117.38 152.58 117.935 152.44 118.542 152.44C119.279 152.44 119.928 152.599 120.488 152.916C121.057 153.233 121.505 153.677 121.832 154.246C122.168 154.815 122.336 155.487 122.336 156.262C122.336 157.037 122.168 157.709 121.832 158.278C121.505 158.847 121.057 159.295 120.488 159.622C119.928 159.939 119.279 160.098 118.542 160.098ZM114.398 160V149.612H116.148V154.26L116.008 156.248L116.064 158.236V160H114.398ZM118.346 158.6C118.766 158.6 119.139 158.507 119.466 158.32C119.802 158.133 120.068 157.863 120.264 157.508C120.46 157.153 120.558 156.738 120.558 156.262C120.558 155.777 120.46 155.361 120.264 155.016C120.068 154.661 119.802 154.391 119.466 154.204C119.139 154.017 118.766 153.924 118.346 153.924C117.926 153.924 117.548 154.017 117.212 154.204C116.876 154.391 116.61 154.661 116.414 155.016C116.218 155.361 116.12 155.777 116.12 156.262C116.12 156.738 116.218 157.153 116.414 157.508C116.61 157.863 116.876 158.133 117.212 158.32C117.548 158.507 117.926 158.6 118.346 158.6ZM123.996 160V149.612H125.746V160H123.996ZM131.557 160.098C130.726 160.098 129.998 159.935 129.373 159.608C128.757 159.272 128.276 158.815 127.931 158.236C127.595 157.657 127.427 156.999 127.427 156.262C127.427 155.515 127.59 154.857 127.917 154.288C128.253 153.709 128.71 153.257 129.289 152.93C129.877 152.603 130.544 152.44 131.291 152.44C132.019 152.44 132.667 152.599 133.237 152.916C133.806 153.233 134.254 153.681 134.581 154.26C134.907 154.839 135.071 155.52 135.071 156.304C135.071 156.379 135.066 156.463 135.057 156.556C135.057 156.649 135.052 156.738 135.043 156.822H128.813V155.66H134.119L133.433 156.024C133.442 155.595 133.353 155.217 133.167 154.89C132.98 154.563 132.723 154.307 132.397 154.12C132.079 153.933 131.711 153.84 131.291 153.84C130.861 153.84 130.483 153.933 130.157 154.12C129.839 154.307 129.587 154.568 129.401 154.904C129.223 155.231 129.135 155.618 129.135 156.066V156.346C129.135 156.794 129.237 157.191 129.443 157.536C129.648 157.881 129.937 158.147 130.311 158.334C130.684 158.521 131.113 158.614 131.599 158.614C132.019 158.614 132.397 158.549 132.733 158.418C133.069 158.287 133.367 158.082 133.629 157.802L134.567 158.88C134.231 159.272 133.806 159.575 133.293 159.79C132.789 159.995 132.21 160.098 131.557 160.098ZM144.331 160.14C143.444 160.14 142.683 159.953 142.049 159.58C141.414 159.197 140.929 158.647 140.593 157.928C140.257 157.209 140.089 156.323 140.089 155.268C140.089 154.148 140.289 153.201 140.691 152.426C141.101 151.651 141.666 151.063 142.385 150.662C143.113 150.261 143.948 150.06 144.891 150.06C145.385 150.06 145.857 150.111 146.305 150.214C146.762 150.317 147.149 150.475 147.467 150.69L146.795 152.062C146.524 151.885 146.23 151.763 145.913 151.698C145.605 151.623 145.278 151.586 144.933 151.586C144.009 151.586 143.276 151.871 142.735 152.44C142.193 153.009 141.923 153.849 141.923 154.96C141.923 155.137 141.927 155.347 141.937 155.59C141.946 155.823 141.979 156.061 142.035 156.304L141.475 155.688C141.643 155.305 141.871 154.988 142.161 154.736C142.459 154.475 142.809 154.279 143.211 154.148C143.621 154.017 144.065 153.952 144.541 153.952C145.185 153.952 145.759 154.078 146.263 154.33C146.767 154.573 147.168 154.923 147.467 155.38C147.765 155.828 147.915 156.355 147.915 156.962C147.915 157.606 147.756 158.166 147.439 158.642C147.121 159.118 146.692 159.487 146.151 159.748C145.609 160.009 145.003 160.14 144.331 160.14ZM144.233 158.712C144.606 158.712 144.937 158.647 145.227 158.516C145.516 158.376 145.74 158.18 145.899 157.928C146.067 157.676 146.151 157.382 146.151 157.046C146.151 156.533 145.973 156.127 145.619 155.828C145.264 155.529 144.788 155.38 144.191 155.38C143.799 155.38 143.453 155.455 143.155 155.604C142.865 155.744 142.632 155.94 142.455 156.192C142.287 156.444 142.203 156.733 142.203 157.06C142.203 157.359 142.282 157.634 142.441 157.886C142.599 158.138 142.828 158.339 143.127 158.488C143.435 158.637 143.803 158.712 144.233 158.712ZM155.577 160.098C154.952 160.098 154.35 160.019 153.771 159.86C153.202 159.692 152.749 159.491 152.413 159.258L153.085 157.928C153.421 158.143 153.822 158.32 154.289 158.46C154.756 158.6 155.222 158.67 155.689 158.67C156.24 158.67 156.636 158.595 156.879 158.446C157.131 158.297 157.257 158.096 157.257 157.844C157.257 157.639 157.173 157.485 157.005 157.382C156.837 157.27 156.618 157.186 156.347 157.13C156.076 157.074 155.773 157.023 155.437 156.976C155.11 156.929 154.779 156.869 154.443 156.794C154.116 156.71 153.818 156.593 153.547 156.444C153.276 156.285 153.057 156.075 152.889 155.814C152.721 155.553 152.637 155.207 152.637 154.778C152.637 154.302 152.772 153.891 153.043 153.546C153.314 153.191 153.692 152.921 154.177 152.734C154.672 152.538 155.255 152.44 155.927 152.44C156.431 152.44 156.94 152.496 157.453 152.608C157.966 152.72 158.391 152.879 158.727 153.084L158.055 154.414C157.7 154.199 157.341 154.055 156.977 153.98C156.622 153.896 156.268 153.854 155.913 153.854C155.381 153.854 154.984 153.933 154.723 154.092C154.471 154.251 154.345 154.451 154.345 154.694C154.345 154.918 154.429 155.086 154.597 155.198C154.765 155.31 154.984 155.399 155.255 155.464C155.526 155.529 155.824 155.585 156.151 155.632C156.487 155.669 156.818 155.73 157.145 155.814C157.472 155.898 157.77 156.015 158.041 156.164C158.321 156.304 158.545 156.505 158.713 156.766C158.881 157.027 158.965 157.368 158.965 157.788C158.965 158.255 158.825 158.661 158.545 159.006C158.274 159.351 157.887 159.622 157.383 159.818C156.879 160.005 156.277 160.098 155.577 160.098ZM163.986 160.098C163.156 160.098 162.428 159.935 161.802 159.608C161.186 159.272 160.706 158.815 160.36 158.236C160.024 157.657 159.856 156.999 159.856 156.262C159.856 155.515 160.02 154.857 160.346 154.288C160.682 153.709 161.14 153.257 161.718 152.93C162.306 152.603 162.974 152.44 163.72 152.44C164.448 152.44 165.097 152.599 165.666 152.916C166.236 153.233 166.684 153.681 167.01 154.26C167.337 154.839 167.5 155.52 167.5 156.304C167.5 156.379 167.496 156.463 167.486 156.556C167.486 156.649 167.482 156.738 167.472 156.822H161.242V155.66H166.548L165.862 156.024C165.872 155.595 165.783 155.217 165.596 154.89C165.41 154.563 165.153 154.307 164.826 154.12C164.509 153.933 164.14 153.84 163.72 153.84C163.291 153.84 162.913 153.933 162.586 154.12C162.269 154.307 162.017 154.568 161.83 154.904C161.653 155.231 161.564 155.618 161.564 156.066V156.346C161.564 156.794 161.667 157.191 161.872 157.536C162.078 157.881 162.367 158.147 162.74 158.334C163.114 158.521 163.543 158.614 164.028 158.614C164.448 158.614 164.826 158.549 165.162 158.418C165.498 158.287 165.797 158.082 166.058 157.802L166.996 158.88C166.66 159.272 166.236 159.575 165.722 159.79C165.218 159.995 164.64 160.098 163.986 160.098ZM173.582 160V158.488L173.484 158.166V155.52C173.484 155.007 173.33 154.61 173.022 154.33C172.714 154.041 172.247 153.896 171.622 153.896C171.202 153.896 170.787 153.961 170.376 154.092C169.975 154.223 169.634 154.405 169.354 154.638L168.668 153.364C169.069 153.056 169.545 152.827 170.096 152.678C170.656 152.519 171.235 152.44 171.832 152.44C172.915 152.44 173.75 152.701 174.338 153.224C174.935 153.737 175.234 154.535 175.234 155.618V160H173.582ZM171.23 160.098C170.67 160.098 170.18 160.005 169.76 159.818C169.34 159.622 169.013 159.356 168.78 159.02C168.556 158.675 168.444 158.287 168.444 157.858C168.444 157.438 168.542 157.06 168.738 156.724C168.943 156.388 169.275 156.122 169.732 155.926C170.189 155.73 170.796 155.632 171.552 155.632H173.722V156.794H171.678C171.081 156.794 170.679 156.892 170.474 157.088C170.269 157.275 170.166 157.508 170.166 157.788C170.166 158.105 170.292 158.357 170.544 158.544C170.796 158.731 171.146 158.824 171.594 158.824C172.023 158.824 172.406 158.726 172.742 158.53C173.087 158.334 173.335 158.045 173.484 157.662L173.778 158.712C173.61 159.151 173.307 159.491 172.868 159.734C172.439 159.977 171.893 160.098 171.23 160.098ZM180.294 160.098C179.473 160.098 178.838 159.888 178.39 159.468C177.942 159.039 177.718 158.409 177.718 157.578V150.872H179.468V157.536C179.468 157.891 179.557 158.166 179.734 158.362C179.921 158.558 180.177 158.656 180.504 158.656C180.896 158.656 181.223 158.553 181.484 158.348L181.974 159.594C181.769 159.762 181.517 159.888 181.218 159.972C180.919 160.056 180.611 160.098 180.294 160.098ZM176.486 153.98V152.58H181.47V153.98H176.486ZM186.682 160.098C185.851 160.098 185.123 159.935 184.498 159.608C183.882 159.272 183.401 158.815 183.056 158.236C182.72 157.657 182.552 156.999 182.552 156.262C182.552 155.515 182.715 154.857 183.042 154.288C183.378 153.709 183.835 153.257 184.414 152.93C185.002 152.603 185.669 152.44 186.416 152.44C187.144 152.44 187.792 152.599 188.362 152.916C188.931 153.233 189.379 153.681 189.706 154.26C190.032 154.839 190.196 155.52 190.196 156.304C190.196 156.379 190.191 156.463 190.182 156.556C190.182 156.649 190.177 156.738 190.168 156.822H183.938V155.66H189.244L188.558 156.024C188.567 155.595 188.478 155.217 188.292 154.89C188.105 154.563 187.848 154.307 187.522 154.12C187.204 153.933 186.836 153.84 186.416 153.84C185.986 153.84 185.608 153.933 185.282 154.12C184.964 154.307 184.712 154.568 184.526 154.904C184.348 155.231 184.26 155.618 184.26 156.066V156.346C184.26 156.794 184.362 157.191 184.568 157.536C184.773 157.881 185.062 158.147 185.436 158.334C185.809 158.521 186.238 158.614 186.724 158.614C187.144 158.614 187.522 158.549 187.858 158.418C188.194 158.287 188.492 158.082 188.754 157.802L189.692 158.88C189.356 159.272 188.931 159.575 188.418 159.79C187.914 159.995 187.335 160.098 186.682 160.098ZM191.877 160V152.524H193.543V154.582L193.347 153.98C193.571 153.476 193.921 153.093 194.397 152.832C194.882 152.571 195.484 152.44 196.203 152.44V154.106C196.128 154.087 196.058 154.078 195.993 154.078C195.927 154.069 195.862 154.064 195.797 154.064C195.134 154.064 194.607 154.26 194.215 154.652C193.823 155.035 193.627 155.609 193.627 156.374V160H191.877Z" fill="black"/>
</g>
<defs>
<filter id="filter0_d_1802_2990" x="0" y="0" width="243" height="243" filterUnits="userSpaceOnUse" color-interpolation-filters="sRGB">
<feFlood flood-opacity="0" result="BackgroundImageFix"/>
<feColorMatrix in="SourceAlpha" type="matrix" values="0 0 0 0 0 0 0 0 0 0 0 0 0 0 0 0 0 0 127 0" result="hardAlpha"/>
<feOffset dy="4"/>
<feGaussianBlur stdDeviation="2"/>
<feComposite in2="hardAlpha" operator="out"/>
<feColorMatrix type="matrix" values="0 0 0 0 0 0 0 0 0 0 0 0 0 0 0 0 0 0 0.25 0"/>
<feBlend mode="normal" in2="BackgroundImageFix" result="effect1_dropShadow_1802_2990"/>
<feBlend mode="normal" in="SourceGraphic" in2="effect1_dropShadow_1802_2990" result="shape"/>
</filter>
</defs>
</svg>
