<svg width="243" height="243" viewBox="0 0 243 243" fill="none" xmlns="http://www.w3.org/2000/svg">
<g filter="url(#filter0_d_1802_3017)">
<rect x="4" width="235" height="235" rx="15" fill="#BAEBDA"/>
<path d="M39.464 136.24C38.152 136.24 36.896 136.056 35.696 135.688C34.496 135.304 33.544 134.816 32.84 134.224L33.92 131.8C34.592 132.328 35.424 132.768 36.416 133.12C37.408 133.472 38.424 133.648 39.464 133.648C40.344 133.648 41.056 133.552 41.6 133.36C42.144 133.168 42.544 132.912 42.8 132.592C43.056 132.256 43.184 131.88 43.184 131.464C43.184 130.952 43 130.544 42.632 130.24C42.264 129.92 41.784 129.672 41.192 129.496C40.616 129.304 39.968 129.128 39.248 128.968C38.544 128.808 37.832 128.624 37.112 128.416C36.408 128.192 35.76 127.912 35.168 127.576C34.592 127.224 34.12 126.76 33.752 126.184C33.384 125.608 33.2 124.872 33.2 123.976C33.2 123.064 33.44 122.232 33.92 121.48C34.416 120.712 35.16 120.104 36.152 119.656C37.16 119.192 38.432 118.96 39.968 118.96C40.976 118.96 41.976 119.088 42.968 119.344C43.96 119.6 44.824 119.968 45.56 120.448L44.576 122.872C43.824 122.424 43.048 122.096 42.248 121.888C41.448 121.664 40.68 121.552 39.944 121.552C39.08 121.552 38.376 121.656 37.832 121.864C37.304 122.072 36.912 122.344 36.656 122.68C36.416 123.016 36.296 123.4 36.296 123.832C36.296 124.344 36.472 124.76 36.824 125.08C37.192 125.384 37.664 125.624 38.24 125.8C38.832 125.976 39.488 126.152 40.208 126.328C40.928 126.488 41.64 126.672 42.344 126.88C43.064 127.088 43.712 127.36 44.288 127.696C44.88 128.032 45.352 128.488 45.704 129.064C46.072 129.64 46.256 130.368 46.256 131.248C46.256 132.144 46.008 132.976 45.512 133.744C45.032 134.496 44.288 135.104 43.28 135.568C42.272 136.016 41 136.24 39.464 136.24ZM65.2378 123.04C66.2618 123.04 67.1658 123.24 67.9498 123.64C68.7498 124.04 69.3738 124.656 69.8218 125.488C70.2698 126.304 70.4938 127.36 70.4938 128.656V136H67.4938V129.04C67.4938 127.904 67.2458 127.056 66.7498 126.496C66.2538 125.936 65.5418 125.656 64.6138 125.656C63.9578 125.656 63.3738 125.8 62.8618 126.088C62.3658 126.376 61.9738 126.8 61.6858 127.36C61.4138 127.92 61.2778 128.632 61.2778 129.496V136H58.2778V129.04C58.2778 127.904 58.0298 127.056 57.5338 126.496C57.0378 125.936 56.3258 125.656 55.3978 125.656C54.7418 125.656 54.1578 125.8 53.6458 126.088C53.1498 126.376 52.7578 126.8 52.4698 127.36C52.1978 127.92 52.0618 128.632 52.0618 129.496V136H49.0618V123.184H51.9178V126.592L51.4138 125.584C51.8458 124.752 52.4698 124.12 53.2858 123.688C54.1178 123.256 55.0618 123.04 56.1178 123.04C57.3178 123.04 58.3578 123.336 59.2378 123.928C60.1338 124.52 60.7258 125.416 61.0138 126.616L59.8378 126.208C60.2538 125.248 60.9418 124.48 61.9018 123.904C62.8618 123.328 63.9738 123.04 65.2378 123.04ZM82.2234 136V133.408L82.0554 132.856V128.32C82.0554 127.44 81.7914 126.76 81.2634 126.28C80.7354 125.784 79.9354 125.536 78.8634 125.536C78.1434 125.536 77.4314 125.648 76.7274 125.872C76.0394 126.096 75.4554 126.408 74.9754 126.808L73.7994 124.624C74.4874 124.096 75.3034 123.704 76.2474 123.448C77.2074 123.176 78.1994 123.04 79.2234 123.04C81.0794 123.04 82.5114 123.488 83.5194 124.384C84.5434 125.264 85.0554 126.632 85.0554 128.488V136H82.2234ZM78.1914 136.168C77.2314 136.168 76.3914 136.008 75.6714 135.688C74.9514 135.352 74.3914 134.896 73.9914 134.32C73.6074 133.728 73.4154 133.064 73.4154 132.328C73.4154 131.608 73.5834 130.96 73.9194 130.384C74.2714 129.808 74.8394 129.352 75.6234 129.016C76.4074 128.68 77.4474 128.512 78.7434 128.512H82.4634V130.504H78.9594C77.9354 130.504 77.2474 130.672 76.8954 131.008C76.5434 131.328 76.3674 131.728 76.3674 132.208C76.3674 132.752 76.5834 133.184 77.0154 133.504C77.4474 133.824 78.0474 133.984 78.8154 133.984C79.5514 133.984 80.2074 133.816 80.7834 133.48C81.3754 133.144 81.7994 132.648 82.0554 131.992L82.5594 133.792C82.2714 134.544 81.7514 135.128 80.9994 135.544C80.2634 135.96 79.3274 136.168 78.1914 136.168ZM88.9055 136V118.192H91.9055V136H88.9055ZM95.843 136V118.192H98.843V136H95.843ZM109.413 136V118.192H112.413V136H109.413ZM121.775 136.168C120.687 136.168 119.727 135.968 118.895 135.568C118.063 135.152 117.415 134.528 116.951 133.696C116.487 132.848 116.255 131.784 116.255 130.504V123.184H119.255V130.096C119.255 131.248 119.511 132.112 120.023 132.688C120.551 133.248 121.295 133.528 122.255 133.528C122.959 133.528 123.567 133.384 124.079 133.096C124.607 132.808 125.015 132.376 125.303 131.8C125.607 131.224 125.759 130.512 125.759 129.664V123.184H128.759V136H125.903V132.544L126.407 133.6C125.975 134.432 125.343 135.072 124.511 135.52C123.679 135.952 122.767 136.168 121.775 136.168ZM138.495 140.824C137.311 140.824 136.151 140.664 135.015 140.344C133.895 140.04 132.975 139.592 132.255 139L133.599 136.744C134.159 137.208 134.863 137.576 135.711 137.848C136.575 138.136 137.447 138.28 138.327 138.28C139.735 138.28 140.767 137.952 141.423 137.296C142.079 136.656 142.407 135.688 142.407 134.392V132.112L142.647 129.208L142.551 126.304V123.184H145.407V134.056C145.407 136.376 144.815 138.08 143.631 139.168C142.447 140.272 140.735 140.824 138.495 140.824ZM138.111 135.424C136.895 135.424 135.791 135.168 134.799 134.656C133.823 134.128 133.047 133.4 132.471 132.472C131.911 131.544 131.631 130.456 131.631 129.208C131.631 127.976 131.911 126.896 132.471 125.968C133.047 125.04 133.823 124.32 134.799 123.808C135.791 123.296 136.895 123.04 138.111 123.04C139.199 123.04 140.175 123.256 141.039 123.688C141.903 124.12 142.591 124.792 143.103 125.704C143.631 126.616 143.895 127.784 143.895 129.208C143.895 130.632 143.631 131.808 143.103 132.736C142.591 133.648 141.903 134.328 141.039 134.776C140.175 135.208 139.199 135.424 138.111 135.424ZM138.567 132.88C139.319 132.88 139.991 132.728 140.583 132.424C141.175 132.104 141.631 131.672 141.951 131.128C142.287 130.568 142.455 129.928 142.455 129.208C142.455 128.488 142.287 127.856 141.951 127.312C141.631 126.752 141.175 126.328 140.583 126.04C139.991 125.736 139.319 125.584 138.567 125.584C137.815 125.584 137.135 125.736 136.527 126.04C135.935 126.328 135.471 126.752 135.135 127.312C134.815 127.856 134.655 128.488 134.655 129.208C134.655 129.928 134.815 130.568 135.135 131.128C135.471 131.672 135.935 132.104 136.527 132.424C137.135 132.728 137.815 132.88 138.567 132.88ZM155.159 140.824C153.975 140.824 152.815 140.664 151.679 140.344C150.559 140.04 149.639 139.592 148.919 139L150.263 136.744C150.823 137.208 151.527 137.576 152.375 137.848C153.239 138.136 154.111 138.28 154.991 138.28C156.399 138.28 157.431 137.952 158.087 137.296C158.743 136.656 159.071 135.688 159.071 134.392V132.112L159.311 129.208L159.215 126.304V123.184H162.071V134.056C162.071 136.376 161.479 138.08 160.295 139.168C159.111 140.272 157.399 140.824 155.159 140.824ZM154.775 135.424C153.559 135.424 152.455 135.168 151.463 134.656C150.487 134.128 149.711 133.4 149.135 132.472C148.575 131.544 148.295 130.456 148.295 129.208C148.295 127.976 148.575 126.896 149.135 125.968C149.711 125.04 150.487 124.32 151.463 123.808C152.455 123.296 153.559 123.04 154.775 123.04C155.863 123.04 156.839 123.256 157.703 123.688C158.567 124.12 159.255 124.792 159.767 125.704C160.295 126.616 160.559 127.784 160.559 129.208C160.559 130.632 160.295 131.808 159.767 132.736C159.255 133.648 158.567 134.328 157.703 134.776C156.839 135.208 155.863 135.424 154.775 135.424ZM155.231 132.88C155.983 132.88 156.655 132.728 157.247 132.424C157.839 132.104 158.295 131.672 158.615 131.128C158.951 130.568 159.119 129.928 159.119 129.208C159.119 128.488 158.951 127.856 158.615 127.312C158.295 126.752 157.839 126.328 157.247 126.04C156.655 125.736 155.983 125.584 155.231 125.584C154.479 125.584 153.799 125.736 153.191 126.04C152.599 126.328 152.135 126.752 151.799 127.312C151.479 127.856 151.319 128.488 151.319 129.208C151.319 129.928 151.479 130.568 151.799 131.128C152.135 131.672 152.599 132.104 153.191 132.424C153.799 132.728 154.479 132.88 155.231 132.88ZM173.911 136V133.408L173.743 132.856V128.32C173.743 127.44 173.479 126.76 172.951 126.28C172.423 125.784 171.623 125.536 170.551 125.536C169.831 125.536 169.119 125.648 168.415 125.872C167.727 126.096 167.143 126.408 166.663 126.808L165.487 124.624C166.175 124.096 166.991 123.704 167.935 123.448C168.895 123.176 169.887 123.04 170.911 123.04C172.767 123.04 174.199 123.488 175.207 124.384C176.231 125.264 176.743 126.632 176.743 128.488V136H173.911ZM169.879 136.168C168.919 136.168 168.079 136.008 167.359 135.688C166.639 135.352 166.079 134.896 165.679 134.32C165.295 133.728 165.103 133.064 165.103 132.328C165.103 131.608 165.271 130.96 165.607 130.384C165.959 129.808 166.527 129.352 167.311 129.016C168.095 128.68 169.135 128.512 170.431 128.512H174.151V130.504H170.647C169.623 130.504 168.935 130.672 168.583 131.008C168.231 131.328 168.055 131.728 168.055 132.208C168.055 132.752 168.271 133.184 168.703 133.504C169.135 133.824 169.735 133.984 170.503 133.984C171.239 133.984 171.895 133.816 172.471 133.48C173.063 133.144 173.487 132.648 173.743 131.992L174.247 133.792C173.959 134.544 173.439 135.128 172.687 135.544C171.951 135.96 171.015 136.168 169.879 136.168ZM186.424 140.824C185.24 140.824 184.08 140.664 182.944 140.344C181.824 140.04 180.904 139.592 180.184 139L181.528 136.744C182.088 137.208 182.792 137.576 183.64 137.848C184.504 138.136 185.376 138.28 186.256 138.28C187.664 138.28 188.696 137.952 189.352 137.296C190.008 136.656 190.336 135.688 190.336 134.392V132.112L190.576 129.208L190.48 126.304V123.184H193.336V134.056C193.336 136.376 192.744 138.08 191.56 139.168C190.376 140.272 188.664 140.824 186.424 140.824ZM186.04 135.424C184.824 135.424 183.72 135.168 182.728 134.656C181.752 134.128 180.976 133.4 180.4 132.472C179.84 131.544 179.56 130.456 179.56 129.208C179.56 127.976 179.84 126.896 180.4 125.968C180.976 125.04 181.752 124.32 182.728 123.808C183.72 123.296 184.824 123.04 186.04 123.04C187.128 123.04 188.104 123.256 188.968 123.688C189.832 124.12 190.52 124.792 191.032 125.704C191.56 126.616 191.824 127.784 191.824 129.208C191.824 130.632 191.56 131.808 191.032 132.736C190.52 133.648 189.832 134.328 188.968 134.776C188.104 135.208 187.128 135.424 186.04 135.424ZM186.496 132.88C187.248 132.88 187.92 132.728 188.512 132.424C189.104 132.104 189.56 131.672 189.88 131.128C190.216 130.568 190.384 129.928 190.384 129.208C190.384 128.488 190.216 127.856 189.88 127.312C189.56 126.752 189.104 126.328 188.512 126.04C187.92 125.736 187.248 125.584 186.496 125.584C185.744 125.584 185.064 125.736 184.456 126.04C183.864 126.328 183.4 126.752 183.064 127.312C182.744 127.856 182.584 128.488 182.584 129.208C182.584 129.928 182.744 130.568 183.064 131.128C183.4 131.672 183.864 132.104 184.456 132.424C185.064 132.728 185.744 132.88 186.496 132.88ZM203.305 136.168C201.881 136.168 200.633 135.888 199.561 135.328C198.505 134.752 197.681 133.968 197.089 132.976C196.513 131.984 196.225 130.856 196.225 129.592C196.225 128.312 196.505 127.184 197.065 126.208C197.641 125.216 198.425 124.44 199.417 123.88C200.425 123.32 201.569 123.04 202.849 123.04C204.097 123.04 205.209 123.312 206.185 123.856C207.161 124.4 207.929 125.168 208.489 126.16C209.049 127.152 209.329 128.32 209.329 129.664C209.329 129.792 209.321 129.936 209.305 130.096C209.305 130.256 209.297 130.408 209.281 130.552H198.601V128.56H207.697L206.521 129.184C206.537 128.448 206.385 127.8 206.065 127.24C205.745 126.68 205.305 126.24 204.745 125.92C204.201 125.6 203.569 125.44 202.849 125.44C202.113 125.44 201.465 125.6 200.905 125.92C200.361 126.24 199.929 126.688 199.609 127.264C199.305 127.824 199.153 128.488 199.153 129.256V129.736C199.153 130.504 199.329 131.184 199.681 131.776C200.033 132.368 200.529 132.824 201.169 133.144C201.809 133.464 202.545 133.624 203.377 133.624C204.097 133.624 204.745 133.512 205.321 133.288C205.897 133.064 206.409 132.712 206.857 132.232L208.465 134.08C207.889 134.752 207.161 135.272 206.281 135.64C205.417 135.992 204.425 136.168 203.305 136.168Z" fill="black"/>
<mask id="mask0_1802_3017" style="mask-type:alpha" maskUnits="userSpaceOnUse" x="101" y="63" width="40" height="40">
<rect x="101" y="63" width="40" height="40" fill="#D9D9D9"/>
</mask>
<g mask="url(#mask0_1802_3017)">
<path d="M127.667 91.334C129.056 91.334 130.236 91.8201 131.208 92.7923C132.181 93.7645 132.667 94.9451 132.667 96.334C132.667 97.7229 132.181 98.9034 131.208 99.8757C130.236 100.848 129.056 101.334 127.667 101.334C126.611 101.334 125.66 101.028 124.813 100.417C123.965 99.8062 123.347 99.0007 122.958 98.0007H114.333C113.417 98.0007 112.632 97.6743 111.979 97.0215C111.326 96.3687 111 95.584 111 94.6673V78.0007C111 77.084 111.326 76.2993 111.979 75.6465C112.632 74.9937 113.417 74.6673 114.333 74.6673H124.333V69.6673C123.417 69.6673 122.632 69.3409 121.979 68.6882C121.326 68.0354 121 67.2507 121 66.334H127.667V91.334ZM116 94.6673V78.0007H114.333V94.6673H116ZM119.333 78.0007V94.6673H122.958C123.069 94.2507 123.25 93.8687 123.5 93.5215C123.75 93.1743 124.028 92.8618 124.333 92.584V78.0007H119.333ZM127.667 98.834C128.361 98.834 128.951 98.5909 129.437 98.1048C129.924 97.6187 130.167 97.0284 130.167 96.334C130.167 95.6395 129.924 95.0493 129.437 94.5632C128.951 94.077 128.361 93.834 127.667 93.834C126.972 93.834 126.382 94.077 125.896 94.5632C125.41 95.0493 125.167 95.6395 125.167 96.334C125.167 97.0284 125.41 97.6187 125.896 98.1048C126.382 98.5909 126.972 98.834 127.667 98.834Z" fill="#1C1B1F"/>
</g>
<path opacity="0.7" d="M26.754 160V158.488L26.656 158.166V155.52C26.656 155.007 26.502 154.61 26.194 154.33C25.886 154.041 25.4193 153.896 24.794 153.896C24.374 153.896 23.9587 153.961 23.548 154.092C23.1467 154.223 22.806 154.405 22.526 154.638L21.84 153.364C22.2413 153.056 22.7173 152.827 23.268 152.678C23.828 152.519 24.4067 152.44 25.004 152.44C26.0867 152.44 26.922 152.701 27.51 153.224C28.1073 153.737 28.406 154.535 28.406 155.618V160H26.754ZM24.402 160.098C23.842 160.098 23.352 160.005 22.932 159.818C22.512 159.622 22.1853 159.356 21.952 159.02C21.728 158.675 21.616 158.287 21.616 157.858C21.616 157.438 21.714 157.06 21.91 156.724C22.1153 156.388 22.4467 156.122 22.904 155.926C23.3613 155.73 23.968 155.632 24.724 155.632H26.894V156.794H24.85C24.2527 156.794 23.8513 156.892 23.646 157.088C23.4407 157.275 23.338 157.508 23.338 157.788C23.338 158.105 23.464 158.357 23.716 158.544C23.968 158.731 24.318 158.824 24.766 158.824C25.1953 158.824 25.578 158.726 25.914 158.53C26.2593 158.334 26.5067 158.045 26.656 157.662L26.95 158.712C26.782 159.151 26.4787 159.491 26.04 159.734C25.6107 159.977 25.0647 160.098 24.402 160.098ZM32.5032 160L29.2972 152.524H31.1172L33.8752 159.118H32.9792L35.8352 152.524H37.5152L34.3092 160H32.5032ZM42.9825 160V158.488L42.8845 158.166V155.52C42.8845 155.007 42.7305 154.61 42.4225 154.33C42.1145 154.041 41.6478 153.896 41.0225 153.896C40.6025 153.896 40.1872 153.961 39.7765 154.092C39.3752 154.223 39.0345 154.405 38.7545 154.638L38.0685 153.364C38.4698 153.056 38.9458 152.827 39.4965 152.678C40.0565 152.519 40.6352 152.44 41.2325 152.44C42.3152 152.44 43.1505 152.701 43.7385 153.224C44.3358 153.737 44.6345 154.535 44.6345 155.618V160H42.9825ZM40.6305 160.098C40.0705 160.098 39.5805 160.005 39.1605 159.818C38.7405 159.622 38.4138 159.356 38.1805 159.02C37.9565 158.675 37.8445 158.287 37.8445 157.858C37.8445 157.438 37.9425 157.06 38.1385 156.724C38.3438 156.388 38.6752 156.122 39.1325 155.926C39.5898 155.73 40.1965 155.632 40.9525 155.632H43.1225V156.794H41.0785C40.4812 156.794 40.0798 156.892 39.8745 157.088C39.6692 157.275 39.5665 157.508 39.5665 157.788C39.5665 158.105 39.6925 158.357 39.9445 158.544C40.1965 158.731 40.5465 158.824 40.9945 158.824C41.4238 158.824 41.8065 158.726 42.1425 158.53C42.4878 158.334 42.7352 158.045 42.8845 157.662L43.1785 158.712C43.0105 159.151 42.7072 159.491 42.2685 159.734C41.8392 159.977 41.2932 160.098 40.6305 160.098ZM46.8804 160V152.524H48.6304V160H46.8804ZM47.7624 151.292C47.4358 151.292 47.1651 151.189 46.9504 150.984C46.7451 150.779 46.6424 150.531 46.6424 150.242C46.6424 149.943 46.7451 149.696 46.9504 149.5C47.1651 149.295 47.4358 149.192 47.7624 149.192C48.0891 149.192 48.3551 149.29 48.5604 149.486C48.7751 149.673 48.8824 149.911 48.8824 150.2C48.8824 150.508 48.7798 150.769 48.5744 150.984C48.3691 151.189 48.0984 151.292 47.7624 151.292ZM50.9273 160V149.612H52.6773V160H50.9273ZM59.5802 160V158.488L59.4822 158.166V155.52C59.4822 155.007 59.3282 154.61 59.0202 154.33C58.7122 154.041 58.2455 153.896 57.6202 153.896C57.2002 153.896 56.7848 153.961 56.3742 154.092C55.9728 154.223 55.6322 154.405 55.3522 154.638L54.6662 153.364C55.0675 153.056 55.5435 152.827 56.0942 152.678C56.6542 152.519 57.2328 152.44 57.8302 152.44C58.9128 152.44 59.7482 152.701 60.3362 153.224C60.9335 153.737 61.2322 154.535 61.2322 155.618V160H59.5802ZM57.2282 160.098C56.6682 160.098 56.1782 160.005 55.7582 159.818C55.3382 159.622 55.0115 159.356 54.7782 159.02C54.5542 158.675 54.4422 158.287 54.4422 157.858C54.4422 157.438 54.5402 157.06 54.7362 156.724C54.9415 156.388 55.2728 156.122 55.7302 155.926C56.1875 155.73 56.7942 155.632 57.5502 155.632H59.7202V156.794H57.6762C57.0788 156.794 56.6775 156.892 56.4722 157.088C56.2668 157.275 56.1642 157.508 56.1642 157.788C56.1642 158.105 56.2902 158.357 56.5422 158.544C56.7942 158.731 57.1442 158.824 57.5922 158.824C58.0215 158.824 58.4042 158.726 58.7402 158.53C59.0855 158.334 59.3328 158.045 59.4822 157.662L59.7762 158.712C59.6082 159.151 59.3048 159.491 58.8662 159.734C58.4368 159.977 57.8908 160.098 57.2282 160.098ZM67.6221 160.098C66.9874 160.098 66.4227 159.958 65.9281 159.678C65.4334 159.398 65.0414 158.978 64.7521 158.418C64.4721 157.849 64.3321 157.13 64.3321 156.262C64.3321 155.385 64.4767 154.666 64.7661 154.106C65.0647 153.546 65.4614 153.131 65.9561 152.86C66.4601 152.58 67.0154 152.44 67.6221 152.44C68.3594 152.44 69.0081 152.599 69.5681 152.916C70.1374 153.233 70.5854 153.677 70.9121 154.246C71.2481 154.815 71.4161 155.487 71.4161 156.262C71.4161 157.037 71.2481 157.709 70.9121 158.278C70.5854 158.847 70.1374 159.295 69.5681 159.622C69.0081 159.939 68.3594 160.098 67.6221 160.098ZM63.4781 160V149.612H65.2281V154.26L65.0881 156.248L65.1441 158.236V160H63.4781ZM67.4261 158.6C67.8461 158.6 68.2194 158.507 68.5461 158.32C68.8821 158.133 69.1481 157.863 69.3441 157.508C69.5401 157.153 69.6381 156.738 69.6381 156.262C69.6381 155.777 69.5401 155.361 69.3441 155.016C69.1481 154.661 68.8821 154.391 68.5461 154.204C68.2194 154.017 67.8461 153.924 67.4261 153.924C67.0061 153.924 66.6281 154.017 66.2921 154.204C65.9561 154.391 65.6901 154.661 65.4941 155.016C65.2981 155.361 65.2001 155.777 65.2001 156.262C65.2001 156.738 65.2981 157.153 65.4941 157.508C65.6901 157.863 65.9561 158.133 66.2921 158.32C66.6281 158.507 67.0061 158.6 67.4261 158.6ZM73.0757 160V149.612H74.8257V160H73.0757ZM80.6366 160.098C79.8059 160.098 79.0779 159.935 78.4526 159.608C77.8366 159.272 77.3559 158.815 77.0106 158.236C76.6746 157.657 76.5066 156.999 76.5066 156.262C76.5066 155.515 76.6699 154.857 76.9966 154.288C77.3326 153.709 77.7899 153.257 78.3686 152.93C78.9566 152.603 79.6239 152.44 80.3706 152.44C81.0986 152.44 81.7473 152.599 82.3166 152.916C82.8859 153.233 83.3339 153.681 83.6606 154.26C83.9873 154.839 84.1506 155.52 84.1506 156.304C84.1506 156.379 84.1459 156.463 84.1366 156.556C84.1366 156.649 84.1319 156.738 84.1226 156.822H77.8926V155.66H83.1986L82.5126 156.024C82.5219 155.595 82.4333 155.217 82.2466 154.89C82.0599 154.563 81.8033 154.307 81.4766 154.12C81.1593 153.933 80.7906 153.84 80.3706 153.84C79.9413 153.84 79.5633 153.933 79.2366 154.12C78.9193 154.307 78.6673 154.568 78.4806 154.904C78.3033 155.231 78.2146 155.618 78.2146 156.066V156.346C78.2146 156.794 78.3173 157.191 78.5226 157.536C78.7279 157.881 79.0173 158.147 79.3906 158.334C79.7639 158.521 80.1933 158.614 80.6786 158.614C81.0986 158.614 81.4766 158.549 81.8126 158.418C82.1486 158.287 82.4473 158.082 82.7086 157.802L83.6466 158.88C83.3106 159.272 82.8859 159.575 82.3726 159.79C81.8686 159.995 81.2899 160.098 80.6366 160.098ZM89.9387 160V152.104C89.9387 151.32 90.1674 150.695 90.6247 150.228C91.0914 149.752 91.7541 149.514 92.6127 149.514C92.9207 149.514 93.2101 149.547 93.4807 149.612C93.7607 149.677 93.9941 149.78 94.1807 149.92L93.7047 151.236C93.5741 151.133 93.4247 151.059 93.2567 151.012C93.0887 150.956 92.9161 150.928 92.7387 150.928C92.3747 150.928 92.0994 151.031 91.9127 151.236C91.7261 151.432 91.6327 151.731 91.6327 152.132V152.972L91.6887 153.756V160H89.9387ZM88.7067 153.98V152.58H93.6907V153.98H88.7067ZM98.1193 160.098C97.354 160.098 96.6727 159.935 96.0753 159.608C95.478 159.272 95.0067 158.815 94.6613 158.236C94.316 157.657 94.1433 156.999 94.1433 156.262C94.1433 155.515 94.316 154.857 94.6613 154.288C95.0067 153.709 95.478 153.257 96.0753 152.93C96.6727 152.603 97.354 152.44 98.1193 152.44C98.894 152.44 99.58 152.603 100.177 152.93C100.784 153.257 101.255 153.705 101.591 154.274C101.937 154.843 102.109 155.506 102.109 156.262C102.109 156.999 101.937 157.657 101.591 158.236C101.255 158.815 100.784 159.272 100.177 159.608C99.58 159.935 98.894 160.098 98.1193 160.098ZM98.1193 158.6C98.5487 158.6 98.9313 158.507 99.2673 158.32C99.6033 158.133 99.8647 157.863 100.051 157.508C100.247 157.153 100.345 156.738 100.345 156.262C100.345 155.777 100.247 155.361 100.051 155.016C99.8647 154.661 99.6033 154.391 99.2673 154.204C98.9313 154.017 98.5533 153.924 98.1333 153.924C97.704 153.924 97.3213 154.017 96.9853 154.204C96.6587 154.391 96.3973 154.661 96.2013 155.016C96.0053 155.361 95.9073 155.777 95.9073 156.262C95.9073 156.738 96.0053 157.153 96.2013 157.508C96.3973 157.863 96.6587 158.133 96.9853 158.32C97.3213 158.507 97.6993 158.6 98.1193 158.6ZM103.783 160V152.524H105.449V154.582L105.253 153.98C105.477 153.476 105.827 153.093 106.303 152.832C106.788 152.571 107.39 152.44 108.109 152.44V154.106C108.034 154.087 107.964 154.078 107.899 154.078C107.833 154.069 107.768 154.064 107.703 154.064C107.04 154.064 106.513 154.26 106.121 154.652C105.729 155.035 105.533 155.609 105.533 156.374V160H103.783ZM115.841 160.098C115.215 160.098 114.613 160.019 114.035 159.86C113.465 159.692 113.013 159.491 112.677 159.258L113.349 157.928C113.685 158.143 114.086 158.32 114.553 158.46C115.019 158.6 115.486 158.67 115.953 158.67C116.503 158.67 116.9 158.595 117.143 158.446C117.395 158.297 117.521 158.096 117.521 157.844C117.521 157.639 117.437 157.485 117.269 157.382C117.101 157.27 116.881 157.186 116.611 157.13C116.34 157.074 116.037 157.023 115.701 156.976C115.374 156.929 115.043 156.869 114.707 156.794C114.38 156.71 114.081 156.593 113.811 156.444C113.54 156.285 113.321 156.075 113.153 155.814C112.985 155.553 112.901 155.207 112.901 154.778C112.901 154.302 113.036 153.891 113.307 153.546C113.577 153.191 113.955 152.921 114.441 152.734C114.935 152.538 115.519 152.44 116.191 152.44C116.695 152.44 117.203 152.496 117.717 152.608C118.23 152.72 118.655 152.879 118.991 153.084L118.319 154.414C117.964 154.199 117.605 154.055 117.241 153.98C116.886 153.896 116.531 153.854 116.177 153.854C115.645 153.854 115.248 153.933 114.987 154.092C114.735 154.251 114.609 154.451 114.609 154.694C114.609 154.918 114.693 155.086 114.861 155.198C115.029 155.31 115.248 155.399 115.519 155.464C115.789 155.529 116.088 155.585 116.415 155.632C116.751 155.669 117.082 155.73 117.409 155.814C117.735 155.898 118.034 156.015 118.305 156.164C118.585 156.304 118.809 156.505 118.977 156.766C119.145 157.027 119.229 157.368 119.229 157.788C119.229 158.255 119.089 158.661 118.809 159.006C118.538 159.351 118.151 159.622 117.647 159.818C117.143 160.005 116.541 160.098 115.841 160.098ZM130.172 152.44C130.769 152.44 131.297 152.557 131.754 152.79C132.221 153.023 132.585 153.383 132.846 153.868C133.107 154.344 133.238 154.96 133.238 155.716V160H131.488V155.94C131.488 155.277 131.343 154.783 131.054 154.456C130.765 154.129 130.349 153.966 129.808 153.966C129.425 153.966 129.085 154.05 128.786 154.218C128.497 154.386 128.268 154.633 128.1 154.96C127.941 155.287 127.862 155.702 127.862 156.206V160H126.112V155.94C126.112 155.277 125.967 154.783 125.678 154.456C125.389 154.129 124.973 153.966 124.432 153.966C124.049 153.966 123.709 154.05 123.41 154.218C123.121 154.386 122.892 154.633 122.724 154.96C122.565 155.287 122.486 155.702 122.486 156.206V160H120.736V152.524H122.402V154.512L122.108 153.924C122.36 153.439 122.724 153.07 123.2 152.818C123.685 152.566 124.236 152.44 124.852 152.44C125.552 152.44 126.159 152.613 126.672 152.958C127.195 153.303 127.54 153.826 127.708 154.526L127.022 154.288C127.265 153.728 127.666 153.28 128.226 152.944C128.786 152.608 129.435 152.44 130.172 152.44ZM140.08 160V158.488L139.982 158.166V155.52C139.982 155.007 139.828 154.61 139.52 154.33C139.212 154.041 138.746 153.896 138.12 153.896C137.7 153.896 137.285 153.961 136.874 154.092C136.473 154.223 136.132 154.405 135.852 154.638L135.166 153.364C135.568 153.056 136.044 152.827 136.594 152.678C137.154 152.519 137.733 152.44 138.33 152.44C139.413 152.44 140.248 152.701 140.836 153.224C141.434 153.737 141.732 154.535 141.732 155.618V160H140.08ZM137.728 160.098C137.168 160.098 136.678 160.005 136.258 159.818C135.838 159.622 135.512 159.356 135.278 159.02C135.054 158.675 134.942 158.287 134.942 157.858C134.942 157.438 135.04 157.06 135.236 156.724C135.442 156.388 135.773 156.122 136.23 155.926C136.688 155.73 137.294 155.632 138.05 155.632H140.22V156.794H138.176C137.579 156.794 137.178 156.892 136.972 157.088C136.767 157.275 136.664 157.508 136.664 157.788C136.664 158.105 136.79 158.357 137.042 158.544C137.294 158.731 137.644 158.824 138.092 158.824C138.522 158.824 138.904 158.726 139.24 158.53C139.586 158.334 139.833 158.045 139.982 157.662L140.276 158.712C140.108 159.151 139.805 159.491 139.366 159.734C138.937 159.977 138.391 160.098 137.728 160.098ZM143.978 160V149.612H145.728V160H143.978ZM148.025 160V149.612H149.775V160H148.025ZM155.941 160V149.612H157.691V160H155.941ZM163.152 160.098C162.517 160.098 161.957 159.981 161.472 159.748C160.987 159.505 160.609 159.141 160.338 158.656C160.067 158.161 159.932 157.541 159.932 156.794V152.524H161.682V156.556C161.682 157.228 161.831 157.732 162.13 158.068C162.438 158.395 162.872 158.558 163.432 158.558C163.843 158.558 164.197 158.474 164.496 158.306C164.804 158.138 165.042 157.886 165.21 157.55C165.387 157.214 165.476 156.799 165.476 156.304V152.524H167.226V160H165.56V157.984L165.854 158.6C165.602 159.085 165.233 159.459 164.748 159.72C164.263 159.972 163.731 160.098 163.152 160.098ZM172.905 162.814C172.214 162.814 171.538 162.721 170.875 162.534C170.222 162.357 169.685 162.095 169.265 161.75L170.049 160.434C170.376 160.705 170.786 160.919 171.281 161.078C171.785 161.246 172.294 161.33 172.807 161.33C173.628 161.33 174.23 161.139 174.613 160.756C174.996 160.383 175.187 159.818 175.187 159.062V157.732L175.327 156.038L175.271 154.344V152.524H176.937V158.866C176.937 160.219 176.592 161.213 175.901 161.848C175.21 162.492 174.212 162.814 172.905 162.814ZM172.681 159.664C171.972 159.664 171.328 159.515 170.749 159.216C170.18 158.908 169.727 158.483 169.391 157.942C169.064 157.401 168.901 156.766 168.901 156.038C168.901 155.319 169.064 154.689 169.391 154.148C169.727 153.607 170.18 153.187 170.749 152.888C171.328 152.589 171.972 152.44 172.681 152.44C173.316 152.44 173.885 152.566 174.389 152.818C174.893 153.07 175.294 153.462 175.593 153.994C175.901 154.526 176.055 155.207 176.055 156.038C176.055 156.869 175.901 157.555 175.593 158.096C175.294 158.628 174.893 159.025 174.389 159.286C173.885 159.538 173.316 159.664 172.681 159.664ZM172.947 158.18C173.386 158.18 173.778 158.091 174.123 157.914C174.468 157.727 174.734 157.475 174.921 157.158C175.117 156.831 175.215 156.458 175.215 156.038C175.215 155.618 175.117 155.249 174.921 154.932C174.734 154.605 174.468 154.358 174.123 154.19C173.778 154.013 173.386 153.924 172.947 153.924C172.508 153.924 172.112 154.013 171.757 154.19C171.412 154.358 171.141 154.605 170.945 154.932C170.758 155.249 170.665 155.618 170.665 156.038C170.665 156.458 170.758 156.831 170.945 157.158C171.141 157.475 171.412 157.727 171.757 157.914C172.112 158.091 172.508 158.18 172.947 158.18ZM182.626 162.814C181.935 162.814 181.259 162.721 180.596 162.534C179.943 162.357 179.406 162.095 178.986 161.75L179.77 160.434C180.097 160.705 180.507 160.919 181.002 161.078C181.506 161.246 182.015 161.33 182.528 161.33C183.349 161.33 183.951 161.139 184.334 160.756C184.717 160.383 184.908 159.818 184.908 159.062V157.732L185.048 156.038L184.992 154.344V152.524H186.658V158.866C186.658 160.219 186.313 161.213 185.622 161.848C184.931 162.492 183.933 162.814 182.626 162.814ZM182.402 159.664C181.693 159.664 181.049 159.515 180.47 159.216C179.901 158.908 179.448 158.483 179.112 157.942C178.785 157.401 178.622 156.766 178.622 156.038C178.622 155.319 178.785 154.689 179.112 154.148C179.448 153.607 179.901 153.187 180.47 152.888C181.049 152.589 181.693 152.44 182.402 152.44C183.037 152.44 183.606 152.566 184.11 152.818C184.614 153.07 185.015 153.462 185.314 153.994C185.622 154.526 185.776 155.207 185.776 156.038C185.776 156.869 185.622 157.555 185.314 158.096C185.015 158.628 184.614 159.025 184.11 159.286C183.606 159.538 183.037 159.664 182.402 159.664ZM182.668 158.18C183.107 158.18 183.499 158.091 183.844 157.914C184.189 157.727 184.455 157.475 184.642 157.158C184.838 156.831 184.936 156.458 184.936 156.038C184.936 155.618 184.838 155.249 184.642 154.932C184.455 154.605 184.189 154.358 183.844 154.19C183.499 154.013 183.107 153.924 182.668 153.924C182.229 153.924 181.833 154.013 181.478 154.19C181.133 154.358 180.862 154.605 180.666 154.932C180.479 155.249 180.386 155.618 180.386 156.038C180.386 156.458 180.479 156.831 180.666 157.158C180.862 157.475 181.133 157.727 181.478 157.914C181.833 158.091 182.229 158.18 182.668 158.18ZM193.565 160V158.488L193.467 158.166V155.52C193.467 155.007 193.313 154.61 193.005 154.33C192.697 154.041 192.23 153.896 191.605 153.896C191.185 153.896 190.769 153.961 190.359 154.092C189.957 154.223 189.617 154.405 189.337 154.638L188.651 153.364C189.052 153.056 189.528 152.827 190.079 152.678C190.639 152.519 191.217 152.44 191.815 152.44C192.897 152.44 193.733 152.701 194.321 153.224C194.918 153.737 195.217 154.535 195.217 155.618V160H193.565ZM191.213 160.098C190.653 160.098 190.163 160.005 189.743 159.818C189.323 159.622 188.996 159.356 188.763 159.02C188.539 158.675 188.427 158.287 188.427 157.858C188.427 157.438 188.525 157.06 188.721 156.724C188.926 156.388 189.257 156.122 189.715 155.926C190.172 155.73 190.779 155.632 191.535 155.632H193.705V156.794H191.661C191.063 156.794 190.662 156.892 190.457 157.088C190.251 157.275 190.149 157.508 190.149 157.788C190.149 158.105 190.275 158.357 190.527 158.544C190.779 158.731 191.129 158.824 191.577 158.824C192.006 158.824 192.389 158.726 192.725 158.53C193.07 158.334 193.317 158.045 193.467 157.662L193.761 158.712C193.593 159.151 193.289 159.491 192.851 159.734C192.421 159.977 191.875 160.098 191.213 160.098ZM200.864 162.814C200.173 162.814 199.497 162.721 198.834 162.534C198.181 162.357 197.644 162.095 197.224 161.75L198.008 160.434C198.335 160.705 198.745 160.919 199.24 161.078C199.744 161.246 200.253 161.33 200.766 161.33C201.587 161.33 202.189 161.139 202.572 160.756C202.955 160.383 203.146 159.818 203.146 159.062V157.732L203.286 156.038L203.23 154.344V152.524H204.896V158.866C204.896 160.219 204.551 161.213 203.86 161.848C203.169 162.492 202.171 162.814 200.864 162.814ZM200.64 159.664C199.931 159.664 199.287 159.515 198.708 159.216C198.139 158.908 197.686 158.483 197.35 157.942C197.023 157.401 196.86 156.766 196.86 156.038C196.86 155.319 197.023 154.689 197.35 154.148C197.686 153.607 198.139 153.187 198.708 152.888C199.287 152.589 199.931 152.44 200.64 152.44C201.275 152.44 201.844 152.566 202.348 152.818C202.852 153.07 203.253 153.462 203.552 153.994C203.86 154.526 204.014 155.207 204.014 156.038C204.014 156.869 203.86 157.555 203.552 158.096C203.253 158.628 202.852 159.025 202.348 159.286C201.844 159.538 201.275 159.664 200.64 159.664ZM200.906 158.18C201.345 158.18 201.737 158.091 202.082 157.914C202.427 157.727 202.693 157.475 202.88 157.158C203.076 156.831 203.174 156.458 203.174 156.038C203.174 155.618 203.076 155.249 202.88 154.932C202.693 154.605 202.427 154.358 202.082 154.19C201.737 154.013 201.345 153.924 200.906 153.924C200.467 153.924 200.071 154.013 199.716 154.19C199.371 154.358 199.1 154.605 198.904 154.932C198.717 155.249 198.624 155.618 198.624 156.038C198.624 156.458 198.717 156.831 198.904 157.158C199.1 157.475 199.371 157.727 199.716 157.914C200.071 158.091 200.467 158.18 200.906 158.18ZM210.711 160.098C209.88 160.098 209.152 159.935 208.527 159.608C207.911 159.272 207.43 158.815 207.085 158.236C206.749 157.657 206.581 156.999 206.581 156.262C206.581 155.515 206.744 154.857 207.071 154.288C207.407 153.709 207.864 153.257 208.443 152.93C209.031 152.603 209.698 152.44 210.445 152.44C211.173 152.44 211.821 152.599 212.391 152.916C212.96 153.233 213.408 153.681 213.735 154.26C214.061 154.839 214.225 155.52 214.225 156.304C214.225 156.379 214.22 156.463 214.211 156.556C214.211 156.649 214.206 156.738 214.197 156.822H207.967V155.66H213.273L212.587 156.024C212.596 155.595 212.507 155.217 212.321 154.89C212.134 154.563 211.877 154.307 211.551 154.12C211.233 153.933 210.865 153.84 210.445 153.84C210.015 153.84 209.637 153.933 209.311 154.12C208.993 154.307 208.741 154.568 208.555 154.904C208.377 155.231 208.289 155.618 208.289 156.066V156.346C208.289 156.794 208.391 157.191 208.597 157.536C208.802 157.881 209.091 158.147 209.465 158.334C209.838 158.521 210.267 158.614 210.753 158.614C211.173 158.614 211.551 158.549 211.887 158.418C212.223 158.287 212.521 158.082 212.783 157.802L213.721 158.88C213.385 159.272 212.96 159.575 212.447 159.79C211.943 159.995 211.364 160.098 210.711 160.098ZM218.216 160.098C217.59 160.098 216.988 160.019 216.41 159.86C215.84 159.692 215.388 159.491 215.052 159.258L215.724 157.928C216.06 158.143 216.461 158.32 216.928 158.46C217.394 158.6 217.861 158.67 218.328 158.67C218.878 158.67 219.275 158.595 219.518 158.446C219.77 158.297 219.896 158.096 219.896 157.844C219.896 157.639 219.812 157.485 219.644 157.382C219.476 157.27 219.256 157.186 218.986 157.13C218.715 157.074 218.412 157.023 218.076 156.976C217.749 156.929 217.418 156.869 217.082 156.794C216.755 156.71 216.456 156.593 216.186 156.444C215.915 156.285 215.696 156.075 215.528 155.814C215.36 155.553 215.276 155.207 215.276 154.778C215.276 154.302 215.411 153.891 215.682 153.546C215.952 153.191 216.33 152.921 216.816 152.734C217.31 152.538 217.894 152.44 218.566 152.44C219.07 152.44 219.578 152.496 220.092 152.608C220.605 152.72 221.03 152.879 221.366 153.084L220.694 154.414C220.339 154.199 219.98 154.055 219.616 153.98C219.261 153.896 218.906 153.854 218.552 153.854C218.02 153.854 217.623 153.933 217.362 154.092C217.11 154.251 216.984 154.451 216.984 154.694C216.984 154.918 217.068 155.086 217.236 155.198C217.404 155.31 217.623 155.399 217.894 155.464C218.164 155.529 218.463 155.585 218.79 155.632C219.126 155.669 219.457 155.73 219.784 155.814C220.11 155.898 220.409 156.015 220.68 156.164C220.96 156.304 221.184 156.505 221.352 156.766C221.52 157.027 221.604 157.368 221.604 157.788C221.604 158.255 221.464 158.661 221.184 159.006C220.913 159.351 220.526 159.622 220.022 159.818C219.518 160.005 218.916 160.098 218.216 160.098Z" fill="black"/>
</g>
<defs>
<filter id="filter0_d_1802_3017" x="0" y="0" width="243" height="243" filterUnits="userSpaceOnUse" color-interpolation-filters="sRGB">
<feFlood flood-opacity="0" result="BackgroundImageFix"/>
<feColorMatrix in="SourceAlpha" type="matrix" values="0 0 0 0 0 0 0 0 0 0 0 0 0 0 0 0 0 0 127 0" result="hardAlpha"/>
<feOffset dy="4"/>
<feGaussianBlur stdDeviation="2"/>
<feComposite in2="hardAlpha" operator="out"/>
<feColorMatrix type="matrix" values="0 0 0 0 0 0 0 0 0 0 0 0 0 0 0 0 0 0 0.25 0"/>
<feBlend mode="normal" in2="BackgroundImageFix" result="effect1_dropShadow_1802_3017"/>
<feBlend mode="normal" in="SourceGraphic" in2="effect1_dropShadow_1802_3017" result="shape"/>
</filter>
</defs>
</svg>
