<svg width="243" height="243" viewBox="0 0 243 243" fill="none" xmlns="http://www.w3.org/2000/svg">
<g filter="url(#filter0_d_1802_3044)">
<rect x="4" width="235" height="235" rx="15" fill="#BAEBDA"/>
<path d="M35.256 136V119.2H37.824L45.168 131.464H43.824L51.048 119.2H53.616L53.64 136H50.688L50.664 123.832H51.288L45.144 134.08H43.752L37.512 123.832H38.232V136H35.256ZM63.6499 136.168C62.3379 136.168 61.1699 135.888 60.1459 135.328C59.1219 134.752 58.3139 133.968 57.7219 132.976C57.1299 131.984 56.8339 130.856 56.8339 129.592C56.8339 128.312 57.1299 127.184 57.7219 126.208C58.3139 125.216 59.1219 124.44 60.1459 123.88C61.1699 123.32 62.3379 123.04 63.6499 123.04C64.9779 123.04 66.1539 123.32 67.1779 123.88C68.2179 124.44 69.0259 125.208 69.6019 126.184C70.1939 127.16 70.4899 128.296 70.4899 129.592C70.4899 130.856 70.1939 131.984 69.6019 132.976C69.0259 133.968 68.2179 134.752 67.1779 135.328C66.1539 135.888 64.9779 136.168 63.6499 136.168ZM63.6499 133.6C64.3859 133.6 65.0419 133.44 65.6179 133.12C66.1939 132.8 66.6419 132.336 66.9619 131.728C67.2979 131.12 67.4659 130.408 67.4659 129.592C67.4659 128.76 67.2979 128.048 66.9619 127.456C66.6419 126.848 66.1939 126.384 65.6179 126.064C65.0419 125.744 64.3939 125.584 63.6739 125.584C62.9379 125.584 62.2819 125.744 61.7059 126.064C61.1459 126.384 60.6979 126.848 60.3619 127.456C60.0259 128.048 59.8579 128.76 59.8579 129.592C59.8579 130.408 60.0259 131.12 60.3619 131.728C60.6979 132.336 61.1459 132.8 61.7059 133.12C62.2819 133.44 62.9299 133.6 63.6499 133.6ZM73.3586 136V123.184H76.2146V126.712L75.8786 125.68C76.2626 124.816 76.8626 124.16 77.6786 123.712C78.5106 123.264 79.5426 123.04 80.7746 123.04V125.896C80.6466 125.864 80.5266 125.848 80.4146 125.848C80.3026 125.832 80.1906 125.824 80.0786 125.824C78.9426 125.824 78.0386 126.16 77.3666 126.832C76.6946 127.488 76.3586 128.472 76.3586 129.784V136H73.3586ZM89.2264 136.168C87.8024 136.168 86.5544 135.888 85.4824 135.328C84.4264 134.752 83.6024 133.968 83.0104 132.976C82.4344 131.984 82.1464 130.856 82.1464 129.592C82.1464 128.312 82.4264 127.184 82.9864 126.208C83.5624 125.216 84.3464 124.44 85.3384 123.88C86.3464 123.32 87.4904 123.04 88.7704 123.04C90.0184 123.04 91.1304 123.312 92.1064 123.856C93.0824 124.4 93.8504 125.168 94.4104 126.16C94.9704 127.152 95.2504 128.32 95.2504 129.664C95.2504 129.792 95.2424 129.936 95.2264 130.096C95.2264 130.256 95.2184 130.408 95.2024 130.552H84.5224V128.56H93.6184L92.4424 129.184C92.4584 128.448 92.3064 127.8 91.9864 127.24C91.6664 126.68 91.2264 126.24 90.6664 125.92C90.1224 125.6 89.4904 125.44 88.7704 125.44C88.0344 125.44 87.3864 125.6 86.8264 125.92C86.2824 126.24 85.8504 126.688 85.5304 127.264C85.2264 127.824 85.0744 128.488 85.0744 129.256V129.736C85.0744 130.504 85.2504 131.184 85.6024 131.776C85.9544 132.368 86.4504 132.824 87.0904 133.144C87.7304 133.464 88.4664 133.624 89.2984 133.624C90.0184 133.624 90.6664 133.512 91.2424 133.288C91.8184 133.064 92.3304 132.712 92.7784 132.232L94.3864 134.08C93.8104 134.752 93.0824 135.272 92.2024 135.64C91.3384 135.992 90.3464 136.168 89.2264 136.168ZM105.053 136V119.2H112.397C114.221 119.2 115.821 119.552 117.197 120.256C118.573 120.96 119.645 121.936 120.413 123.184C121.181 124.432 121.565 125.904 121.565 127.6C121.565 129.28 121.181 130.752 120.413 132.016C119.645 133.264 118.573 134.24 117.197 134.944C115.821 135.648 114.221 136 112.397 136H105.053ZM108.173 133.36H112.253C113.517 133.36 114.605 133.12 115.517 132.64C116.445 132.16 117.157 131.488 117.653 130.624C118.165 129.76 118.421 128.752 118.421 127.6C118.421 126.432 118.165 125.424 117.653 124.576C117.157 123.712 116.445 123.04 115.517 122.56C114.605 122.08 113.517 121.84 112.253 121.84H108.173V133.36ZM124.593 136V123.184H127.593V136H124.593ZM126.105 121.072C125.545 121.072 125.081 120.896 124.713 120.544C124.361 120.192 124.185 119.768 124.185 119.272C124.185 118.76 124.361 118.336 124.713 118C125.081 117.648 125.545 117.472 126.105 117.472C126.665 117.472 127.121 117.64 127.473 117.976C127.841 118.296 128.025 118.704 128.025 119.2C128.025 119.728 127.849 120.176 127.497 120.544C127.145 120.896 126.681 121.072 126.105 121.072ZM135.491 136.168C134.419 136.168 133.387 136.032 132.395 135.76C131.419 135.472 130.643 135.128 130.067 134.728L131.219 132.448C131.795 132.816 132.483 133.12 133.283 133.36C134.083 133.6 134.883 133.72 135.683 133.72C136.627 133.72 137.307 133.592 137.723 133.336C138.155 133.08 138.371 132.736 138.371 132.304C138.371 131.952 138.227 131.688 137.939 131.512C137.651 131.32 137.275 131.176 136.811 131.08C136.347 130.984 135.827 130.896 135.251 130.816C134.691 130.736 134.123 130.632 133.547 130.504C132.987 130.36 132.475 130.16 132.011 129.904C131.547 129.632 131.171 129.272 130.883 128.824C130.595 128.376 130.451 127.784 130.451 127.048C130.451 126.232 130.683 125.528 131.146 124.936C131.611 124.328 132.259 123.864 133.09 123.544C133.939 123.208 134.939 123.04 136.091 123.04C136.955 123.04 137.827 123.136 138.707 123.328C139.587 123.52 140.315 123.792 140.891 124.144L139.739 126.424C139.131 126.056 138.515 125.808 137.891 125.68C137.283 125.536 136.675 125.464 136.067 125.464C135.155 125.464 134.475 125.6 134.027 125.872C133.595 126.144 133.379 126.488 133.379 126.904C133.379 127.288 133.523 127.576 133.811 127.768C134.099 127.96 134.475 128.112 134.939 128.224C135.403 128.336 135.915 128.432 136.475 128.512C137.051 128.576 137.619 128.68 138.179 128.824C138.739 128.968 139.251 129.168 139.715 129.424C140.195 129.664 140.579 130.008 140.867 130.456C141.155 130.904 141.299 131.488 141.299 132.208C141.299 133.008 141.059 133.704 140.579 134.296C140.115 134.888 139.451 135.352 138.587 135.688C137.723 136.008 136.691 136.168 135.491 136.168ZM148.706 136.168C147.298 136.168 146.21 135.808 145.442 135.088C144.674 134.352 144.29 133.272 144.29 131.848V120.352H147.29V131.776C147.29 132.384 147.442 132.856 147.746 133.192C148.066 133.528 148.506 133.696 149.066 133.696C149.738 133.696 150.298 133.52 150.746 133.168L151.586 135.304C151.234 135.592 150.802 135.808 150.29 135.952C149.778 136.096 149.25 136.168 148.706 136.168ZM142.178 125.68V123.28H150.722V125.68H142.178ZM161.95 136V133.408L161.782 132.856V128.32C161.782 127.44 161.518 126.76 160.99 126.28C160.462 125.784 159.662 125.536 158.59 125.536C157.87 125.536 157.158 125.648 156.454 125.872C155.766 126.096 155.182 126.408 154.702 126.808L153.526 124.624C154.214 124.096 155.03 123.704 155.974 123.448C156.934 123.176 157.926 123.04 158.95 123.04C160.806 123.04 162.238 123.488 163.246 124.384C164.27 125.264 164.782 126.632 164.782 128.488V136H161.95ZM157.918 136.168C156.958 136.168 156.118 136.008 155.398 135.688C154.678 135.352 154.118 134.896 153.718 134.32C153.334 133.728 153.142 133.064 153.142 132.328C153.142 131.608 153.31 130.96 153.646 130.384C153.998 129.808 154.566 129.352 155.35 129.016C156.134 128.68 157.174 128.512 158.47 128.512H162.19V130.504H158.686C157.662 130.504 156.974 130.672 156.622 131.008C156.27 131.328 156.094 131.728 156.094 132.208C156.094 132.752 156.31 133.184 156.742 133.504C157.174 133.824 157.774 133.984 158.542 133.984C159.278 133.984 159.934 133.816 160.51 133.48C161.102 133.144 161.526 132.648 161.782 131.992L162.286 133.792C161.998 134.544 161.478 135.128 160.726 135.544C159.99 135.96 159.054 136.168 157.918 136.168ZM175.904 123.04C176.928 123.04 177.84 123.24 178.64 123.64C179.456 124.04 180.096 124.656 180.56 125.488C181.024 126.304 181.256 127.36 181.256 128.656V136H178.256V129.04C178.256 127.904 177.984 127.056 177.44 126.496C176.912 125.936 176.168 125.656 175.208 125.656C174.504 125.656 173.88 125.8 173.336 126.088C172.792 126.376 172.368 126.808 172.064 127.384C171.776 127.944 171.632 128.656 171.632 129.52V136H168.632V123.184H171.488V126.64L170.984 125.584C171.432 124.768 172.08 124.144 172.928 123.712C173.792 123.264 174.784 123.04 175.904 123.04ZM190.965 136.168C189.621 136.168 188.421 135.888 187.365 135.328C186.325 134.752 185.509 133.968 184.917 132.976C184.325 131.984 184.029 130.856 184.029 129.592C184.029 128.312 184.325 127.184 184.917 126.208C185.509 125.216 186.325 124.44 187.365 123.88C188.421 123.32 189.621 123.04 190.965 123.04C192.213 123.04 193.309 123.296 194.253 123.808C195.213 124.304 195.941 125.04 196.437 126.016L194.133 127.36C193.749 126.752 193.277 126.304 192.717 126.016C192.173 125.728 191.581 125.584 190.941 125.584C190.205 125.584 189.541 125.744 188.949 126.064C188.357 126.384 187.893 126.848 187.557 127.456C187.221 128.048 187.053 128.76 187.053 129.592C187.053 130.424 187.221 131.144 187.557 131.752C187.893 132.344 188.357 132.8 188.949 133.12C189.541 133.44 190.205 133.6 190.941 133.6C191.581 133.6 192.173 133.456 192.717 133.168C193.277 132.88 193.749 132.432 194.133 131.824L196.437 133.168C195.941 134.128 195.213 134.872 194.253 135.4C193.309 135.912 192.213 136.168 190.965 136.168ZM204.867 136.168C203.443 136.168 202.195 135.888 201.123 135.328C200.067 134.752 199.243 133.968 198.651 132.976C198.075 131.984 197.787 130.856 197.787 129.592C197.787 128.312 198.067 127.184 198.627 126.208C199.203 125.216 199.987 124.44 200.979 123.88C201.987 123.32 203.131 123.04 204.411 123.04C205.659 123.04 206.771 123.312 207.747 123.856C208.723 124.4 209.491 125.168 210.051 126.16C210.611 127.152 210.891 128.32 210.891 129.664C210.891 129.792 210.883 129.936 210.867 130.096C210.867 130.256 210.859 130.408 210.843 130.552H200.163V128.56H209.259L208.083 129.184C208.099 128.448 207.947 127.8 207.627 127.24C207.307 126.68 206.867 126.24 206.307 125.92C205.763 125.6 205.131 125.44 204.411 125.44C203.675 125.44 203.027 125.6 202.467 125.92C201.923 126.24 201.491 126.688 201.171 127.264C200.867 127.824 200.715 128.488 200.715 129.256V129.736C200.715 130.504 200.891 131.184 201.243 131.776C201.595 132.368 202.091 132.824 202.731 133.144C203.371 133.464 204.107 133.624 204.939 133.624C205.659 133.624 206.307 133.512 206.883 133.288C207.459 133.064 207.971 132.712 208.419 132.232L210.027 134.08C209.451 134.752 208.723 135.272 207.843 135.64C206.979 135.992 205.987 136.168 204.867 136.168Z" fill="black"/>
<mask id="mask0_1802_3044" style="mask-type:alpha" maskUnits="userSpaceOnUse" x="95" y="63" width="40" height="40">
<rect x="95" y="63" width="40" height="40" fill="#D9D9D9"/>
</mask>
<g mask="url(#mask0_1802_3044)">
<path d="M110 98C108.167 98 106.597 97.3472 105.292 96.0417C103.986 94.7361 103.333 93.1667 103.333 91.3333V77.7083C102.361 77.3472 101.562 76.7431 100.937 75.8958C100.312 75.0486 100 74.0833 100 73C100 71.6111 100.486 70.4306 101.458 69.4583C102.431 68.4861 103.611 68 105 68C106.389 68 107.569 68.4861 108.542 69.4583C109.514 70.4306 110 71.6111 110 73C110 74.0833 109.687 75.0486 109.062 75.8958C108.437 76.7431 107.639 77.3472 106.667 77.7083V91.3333C106.667 92.25 106.993 93.0347 107.646 93.6875C108.299 94.3403 109.083 94.6667 110 94.6667C110.917 94.6667 111.701 94.3403 112.354 93.6875C113.007 93.0347 113.333 92.25 113.333 91.3333V74.6667C113.333 72.8333 113.986 71.2639 115.292 69.9583C116.597 68.6528 118.167 68 120 68C121.833 68 123.403 68.6528 124.708 69.9583C126.014 71.2639 126.667 72.8333 126.667 74.6667V88.2917C127.639 88.6528 128.437 89.2569 129.062 90.1042C129.687 90.9514 130 91.9167 130 93C130 94.3889 129.514 95.5694 128.542 96.5417C127.569 97.5139 126.389 98 125 98C123.611 98 122.431 97.5139 121.458 96.5417C120.486 95.5694 120 94.3889 120 93C120 91.9167 120.312 90.9444 120.937 90.0833C121.562 89.2222 122.361 88.625 123.333 88.2917V74.6667C123.333 73.75 123.007 72.9653 122.354 72.3125C121.701 71.6597 120.917 71.3333 120 71.3333C119.083 71.3333 118.299 71.6597 117.646 72.3125C116.993 72.9653 116.667 73.75 116.667 74.6667V91.3333C116.667 93.1667 116.014 94.7361 114.708 96.0417C113.403 97.3472 111.833 98 110 98ZM105 74.6667C105.472 74.6667 105.868 74.5069 106.188 74.1875C106.507 73.8681 106.667 73.4722 106.667 73C106.667 72.5278 106.507 72.1319 106.188 71.8125C105.868 71.4931 105.472 71.3333 105 71.3333C104.528 71.3333 104.132 71.4931 103.813 71.8125C103.493 72.1319 103.333 72.5278 103.333 73C103.333 73.4722 103.493 73.8681 103.813 74.1875C104.132 74.5069 104.528 74.6667 105 74.6667ZM125 94.6667C125.472 94.6667 125.868 94.5069 126.188 94.1875C126.507 93.8681 126.667 93.4722 126.667 93C126.667 92.5278 126.507 92.1319 126.188 91.8125C125.868 91.4931 125.472 91.3333 125 91.3333C124.528 91.3333 124.132 91.4931 123.813 91.8125C123.493 92.1319 123.333 92.5278 123.333 93C123.333 93.4722 123.493 93.8681 123.813 94.1875C124.132 94.5069 124.528 94.6667 125 94.6667Z" fill="#1C1B1F"/>
</g>
<path opacity="0.7" d="M59.53 160.14C58.186 160.14 57.1313 159.762 56.366 159.006C55.61 158.25 55.232 157.158 55.232 155.73V150.2H57.052V155.66C57.052 156.668 57.2667 157.401 57.696 157.858C58.1347 158.315 58.7507 158.544 59.544 158.544C60.3373 158.544 60.9487 158.315 61.378 157.858C61.8073 157.401 62.022 156.668 62.022 155.66V150.2H63.814V155.73C63.814 157.158 63.4313 158.25 62.666 159.006C61.91 159.762 60.8647 160.14 59.53 160.14ZM70.4369 152.44C71.0342 152.44 71.5662 152.557 72.0329 152.79C72.5089 153.023 72.8822 153.383 73.1529 153.868C73.4235 154.344 73.5589 154.96 73.5589 155.716V160H71.8089V155.94C71.8089 155.277 71.6502 154.783 71.3329 154.456C71.0249 154.129 70.5909 153.966 70.0309 153.966C69.6202 153.966 69.2562 154.05 68.9389 154.218C68.6215 154.386 68.3742 154.638 68.1969 154.974C68.0289 155.301 67.9449 155.716 67.9449 156.22V160H66.1949V152.524H67.8609V154.54L67.5669 153.924C67.8282 153.448 68.2062 153.084 68.7009 152.832C69.2049 152.571 69.7835 152.44 70.4369 152.44ZM75.7789 160V149.612H77.5289V160H75.7789ZM79.8257 160V152.524H81.5757V160H79.8257ZM80.7077 151.292C80.3811 151.292 80.1104 151.189 79.8957 150.984C79.6904 150.779 79.5877 150.531 79.5877 150.242C79.5877 149.943 79.6904 149.696 79.8957 149.5C80.1104 149.295 80.3811 149.192 80.7077 149.192C81.0344 149.192 81.3004 149.29 81.5057 149.486C81.7204 149.673 81.8277 149.911 81.8277 150.2C81.8277 150.508 81.7251 150.769 81.5197 150.984C81.3144 151.189 81.0437 151.292 80.7077 151.292ZM93.3086 152.44C93.9059 152.44 94.4333 152.557 94.8906 152.79C95.3573 153.023 95.7213 153.383 95.9826 153.868C96.2439 154.344 96.3746 154.96 96.3746 155.716V160H94.6246V155.94C94.6246 155.277 94.4799 154.783 94.1906 154.456C93.9013 154.129 93.4859 153.966 92.9446 153.966C92.5619 153.966 92.2213 154.05 91.9226 154.218C91.6333 154.386 91.4046 154.633 91.2366 154.96C91.0779 155.287 90.9986 155.702 90.9986 156.206V160H89.2486V155.94C89.2486 155.277 89.1039 154.783 88.8146 154.456C88.5253 154.129 88.1099 153.966 87.5686 153.966C87.1859 153.966 86.8453 154.05 86.5466 154.218C86.2573 154.386 86.0286 154.633 85.8606 154.96C85.7019 155.287 85.6226 155.702 85.6226 156.206V160H83.8726V152.524H85.5386V154.512L85.2446 153.924C85.4966 153.439 85.8606 153.07 86.3366 152.818C86.8219 152.566 87.3726 152.44 87.9886 152.44C88.6886 152.44 89.2953 152.613 89.8086 152.958C90.3313 153.303 90.6766 153.826 90.8446 154.526L90.1586 154.288C90.4013 153.728 90.8026 153.28 91.3626 152.944C91.9226 152.608 92.5713 152.44 93.3086 152.44ZM98.6109 160V152.524H100.361V160H98.6109ZM99.4929 151.292C99.1662 151.292 98.8956 151.189 98.6809 150.984C98.4756 150.779 98.3729 150.531 98.3729 150.242C98.3729 149.943 98.4756 149.696 98.6809 149.5C98.8956 149.295 99.1662 149.192 99.4929 149.192C99.8196 149.192 100.086 149.29 100.291 149.486C100.506 149.673 100.613 149.911 100.613 150.2C100.613 150.508 100.51 150.769 100.305 150.984C100.1 151.189 99.8289 151.292 99.4929 151.292ZM105.472 160.098C104.65 160.098 104.016 159.888 103.568 159.468C103.12 159.039 102.896 158.409 102.896 157.578V150.872H104.646V157.536C104.646 157.891 104.734 158.166 104.912 158.362C105.098 158.558 105.355 158.656 105.682 158.656C106.074 158.656 106.4 158.553 106.662 158.348L107.152 159.594C106.946 159.762 106.694 159.888 106.396 159.972C106.097 160.056 105.789 160.098 105.472 160.098ZM101.664 153.98V152.58H106.648V153.98H101.664ZM111.859 160.098C111.029 160.098 110.301 159.935 109.675 159.608C109.059 159.272 108.579 158.815 108.233 158.236C107.897 157.657 107.729 156.999 107.729 156.262C107.729 155.515 107.893 154.857 108.219 154.288C108.555 153.709 109.013 153.257 109.591 152.93C110.179 152.603 110.847 152.44 111.593 152.44C112.321 152.44 112.97 152.599 113.539 152.916C114.109 153.233 114.557 153.681 114.883 154.26C115.21 154.839 115.373 155.52 115.373 156.304C115.373 156.379 115.369 156.463 115.359 156.556C115.359 156.649 115.355 156.738 115.345 156.822H109.115V155.66H114.421L113.735 156.024C113.745 155.595 113.656 155.217 113.469 154.89C113.283 154.563 113.026 154.307 112.699 154.12C112.382 153.933 112.013 153.84 111.593 153.84C111.164 153.84 110.786 153.933 110.459 154.12C110.142 154.307 109.89 154.568 109.703 154.904C109.526 155.231 109.437 155.618 109.437 156.066V156.346C109.437 156.794 109.54 157.191 109.745 157.536C109.951 157.881 110.24 158.147 110.613 158.334C110.987 158.521 111.416 158.614 111.901 158.614C112.321 158.614 112.699 158.549 113.035 158.418C113.371 158.287 113.67 158.082 113.931 157.802L114.869 158.88C114.533 159.272 114.109 159.575 113.595 159.79C113.091 159.995 112.513 160.098 111.859 160.098ZM120.218 160.098C119.5 160.098 118.851 159.939 118.272 159.622C117.703 159.295 117.255 158.847 116.928 158.278C116.602 157.709 116.438 157.037 116.438 156.262C116.438 155.487 116.602 154.815 116.928 154.246C117.255 153.677 117.703 153.233 118.272 152.916C118.851 152.599 119.5 152.44 120.218 152.44C120.844 152.44 121.404 152.58 121.898 152.86C122.393 153.131 122.785 153.546 123.074 154.106C123.364 154.666 123.508 155.385 123.508 156.262C123.508 157.13 123.368 157.849 123.088 158.418C122.808 158.978 122.421 159.398 121.926 159.678C121.432 159.958 120.862 160.098 120.218 160.098ZM120.428 158.6C120.848 158.6 121.222 158.507 121.548 158.32C121.884 158.133 122.15 157.863 122.346 157.508C122.552 157.153 122.654 156.738 122.654 156.262C122.654 155.777 122.552 155.361 122.346 155.016C122.15 154.661 121.884 154.391 121.548 154.204C121.222 154.017 120.848 153.924 120.428 153.924C120.008 153.924 119.63 154.017 119.294 154.204C118.968 154.391 118.702 154.661 118.496 155.016C118.3 155.361 118.202 155.777 118.202 156.262C118.202 156.738 118.3 157.153 118.496 157.508C118.702 157.863 118.968 158.133 119.294 158.32C119.63 158.507 120.008 158.6 120.428 158.6ZM122.696 160V158.236L122.766 156.248L122.626 154.26V149.612H124.362V160H122.696ZM139.971 152.44C140.568 152.44 141.095 152.557 141.553 152.79C142.019 153.023 142.383 153.383 142.645 153.868C142.906 154.344 143.037 154.96 143.037 155.716V160H141.287V155.94C141.287 155.277 141.142 154.783 140.853 154.456C140.563 154.129 140.148 153.966 139.607 153.966C139.224 153.966 138.883 154.05 138.585 154.218C138.295 154.386 138.067 154.633 137.899 154.96C137.74 155.287 137.661 155.702 137.661 156.206V160H135.911V155.94C135.911 155.277 135.766 154.783 135.477 154.456C135.187 154.129 134.772 153.966 134.231 153.966C133.848 153.966 133.507 154.05 133.209 154.218C132.919 154.386 132.691 154.633 132.523 154.96C132.364 155.287 132.285 155.702 132.285 156.206V160H130.535V152.524H132.201V154.512L131.907 153.924C132.159 153.439 132.523 153.07 132.999 152.818C133.484 152.566 134.035 152.44 134.651 152.44C135.351 152.44 135.957 152.613 136.471 152.958C136.993 153.303 137.339 153.826 137.507 154.526L136.821 154.288C137.063 153.728 137.465 153.28 138.025 152.944C138.585 152.608 139.233 152.44 139.971 152.44ZM145.273 160V152.524H147.023V160H145.273ZM146.155 151.292C145.828 151.292 145.558 151.189 145.343 150.984C145.138 150.779 145.035 150.531 145.035 150.242C145.035 149.943 145.138 149.696 145.343 149.5C145.558 149.295 145.828 149.192 146.155 149.192C146.482 149.192 146.748 149.29 146.953 149.486C147.168 149.673 147.275 149.911 147.275 150.2C147.275 150.508 147.172 150.769 146.967 150.984C146.762 151.189 146.491 151.292 146.155 151.292ZM149.32 160V149.612H151.07V160H149.32ZM156.881 160.098C156.05 160.098 155.322 159.935 154.697 159.608C154.081 159.272 153.6 158.815 153.255 158.236C152.919 157.657 152.751 156.999 152.751 156.262C152.751 155.515 152.914 154.857 153.241 154.288C153.577 153.709 154.034 153.257 154.613 152.93C155.201 152.603 155.868 152.44 156.615 152.44C157.343 152.44 157.991 152.599 158.561 152.916C159.13 153.233 159.578 153.681 159.905 154.26C160.231 154.839 160.395 155.52 160.395 156.304C160.395 156.379 160.39 156.463 160.381 156.556C160.381 156.649 160.376 156.738 160.367 156.822H154.137V155.66H159.443L158.757 156.024C158.766 155.595 158.677 155.217 158.491 154.89C158.304 154.563 158.047 154.307 157.721 154.12C157.403 153.933 157.035 153.84 156.615 153.84C156.185 153.84 155.807 153.933 155.481 154.12C155.163 154.307 154.911 154.568 154.725 154.904C154.547 155.231 154.459 155.618 154.459 156.066V156.346C154.459 156.794 154.561 157.191 154.767 157.536C154.972 157.881 155.261 158.147 155.635 158.334C156.008 158.521 156.437 158.614 156.923 158.614C157.343 158.614 157.721 158.549 158.057 158.418C158.393 158.287 158.691 158.082 158.953 157.802L159.891 158.88C159.555 159.272 159.13 159.575 158.617 159.79C158.113 159.995 157.534 160.098 156.881 160.098ZM166.477 160V158.488L166.379 158.166V155.52C166.379 155.007 166.225 154.61 165.917 154.33C165.609 154.041 165.142 153.896 164.517 153.896C164.097 153.896 163.681 153.961 163.271 154.092C162.869 154.223 162.529 154.405 162.249 154.638L161.563 153.364C161.964 153.056 162.44 152.827 162.991 152.678C163.551 152.519 164.129 152.44 164.727 152.44C165.809 152.44 166.645 152.701 167.233 153.224C167.83 153.737 168.129 154.535 168.129 155.618V160H166.477ZM164.125 160.098C163.565 160.098 163.075 160.005 162.655 159.818C162.235 159.622 161.908 159.356 161.675 159.02C161.451 158.675 161.339 158.287 161.339 157.858C161.339 157.438 161.437 157.06 161.633 156.724C161.838 156.388 162.169 156.122 162.627 155.926C163.084 155.73 163.691 155.632 164.447 155.632H166.617V156.794H164.573C163.975 156.794 163.574 156.892 163.369 157.088C163.163 157.275 163.061 157.508 163.061 157.788C163.061 158.105 163.187 158.357 163.439 158.544C163.691 158.731 164.041 158.824 164.489 158.824C164.918 158.824 165.301 158.726 165.637 158.53C165.982 158.334 166.229 158.045 166.379 157.662L166.673 158.712C166.505 159.151 166.201 159.491 165.763 159.734C165.333 159.977 164.787 160.098 164.125 160.098ZM173.776 162.814C173.086 162.814 172.409 162.721 171.746 162.534C171.093 162.357 170.556 162.095 170.136 161.75L170.92 160.434C171.247 160.705 171.658 160.919 172.152 161.078C172.656 161.246 173.165 161.33 173.678 161.33C174.5 161.33 175.102 161.139 175.484 160.756C175.867 160.383 176.058 159.818 176.058 159.062V157.732L176.198 156.038L176.142 154.344V152.524H177.808V158.866C177.808 160.219 177.463 161.213 176.772 161.848C176.082 162.492 175.083 162.814 173.776 162.814ZM173.552 159.664C172.843 159.664 172.199 159.515 171.62 159.216C171.051 158.908 170.598 158.483 170.262 157.942C169.936 157.401 169.772 156.766 169.772 156.038C169.772 155.319 169.936 154.689 170.262 154.148C170.598 153.607 171.051 153.187 171.62 152.888C172.199 152.589 172.843 152.44 173.552 152.44C174.187 152.44 174.756 152.566 175.26 152.818C175.764 153.07 176.166 153.462 176.464 153.994C176.772 154.526 176.926 155.207 176.926 156.038C176.926 156.869 176.772 157.555 176.464 158.096C176.166 158.628 175.764 159.025 175.26 159.286C174.756 159.538 174.187 159.664 173.552 159.664ZM173.818 158.18C174.257 158.18 174.649 158.091 174.994 157.914C175.34 157.727 175.606 157.475 175.792 157.158C175.988 156.831 176.086 156.458 176.086 156.038C176.086 155.618 175.988 155.249 175.792 154.932C175.606 154.605 175.34 154.358 174.994 154.19C174.649 154.013 174.257 153.924 173.818 153.924C173.38 153.924 172.983 154.013 172.628 154.19C172.283 154.358 172.012 154.605 171.816 154.932C171.63 155.249 171.536 155.618 171.536 156.038C171.536 156.458 171.63 156.831 171.816 157.158C172.012 157.475 172.283 157.727 172.628 157.914C172.983 158.091 173.38 158.18 173.818 158.18ZM183.623 160.098C182.792 160.098 182.064 159.935 181.439 159.608C180.823 159.272 180.342 158.815 179.997 158.236C179.661 157.657 179.493 156.999 179.493 156.262C179.493 155.515 179.656 154.857 179.983 154.288C180.319 153.709 180.776 153.257 181.355 152.93C181.943 152.603 182.61 152.44 183.357 152.44C184.085 152.44 184.734 152.599 185.303 152.916C185.872 153.233 186.32 153.681 186.647 154.26C186.974 154.839 187.137 155.52 187.137 156.304C187.137 156.379 187.132 156.463 187.123 156.556C187.123 156.649 187.118 156.738 187.109 156.822H180.879V155.66H186.185L185.499 156.024C185.508 155.595 185.42 155.217 185.233 154.89C185.046 154.563 184.79 154.307 184.463 154.12C184.146 153.933 183.777 153.84 183.357 153.84C182.928 153.84 182.55 153.933 182.223 154.12C181.906 154.307 181.654 154.568 181.467 154.904C181.29 155.231 181.201 155.618 181.201 156.066V156.346C181.201 156.794 181.304 157.191 181.509 157.536C181.714 157.881 182.004 158.147 182.377 158.334C182.75 158.521 183.18 158.614 183.665 158.614C184.085 158.614 184.463 158.549 184.799 158.418C185.135 158.287 185.434 158.082 185.695 157.802L186.633 158.88C186.297 159.272 185.872 159.575 185.359 159.79C184.855 159.995 184.276 160.098 183.623 160.098Z" fill="black"/>
</g>
<defs>
<filter id="filter0_d_1802_3044" x="0" y="0" width="243" height="243" filterUnits="userSpaceOnUse" color-interpolation-filters="sRGB">
<feFlood flood-opacity="0" result="BackgroundImageFix"/>
<feColorMatrix in="SourceAlpha" type="matrix" values="0 0 0 0 0 0 0 0 0 0 0 0 0 0 0 0 0 0 127 0" result="hardAlpha"/>
<feOffset dy="4"/>
<feGaussianBlur stdDeviation="2"/>
<feComposite in2="hardAlpha" operator="out"/>
<feColorMatrix type="matrix" values="0 0 0 0 0 0 0 0 0 0 0 0 0 0 0 0 0 0 0.25 0"/>
<feBlend mode="normal" in2="BackgroundImageFix" result="effect1_dropShadow_1802_3044"/>
<feBlend mode="normal" in="SourceGraphic" in2="effect1_dropShadow_1802_3044" result="shape"/>
</filter>
</defs>
</svg>
