<svg width="243" height="243" viewBox="0 0 243 243" fill="none" xmlns="http://www.w3.org/2000/svg">
<g filter="url(#filter0_d_1802_3152)">
<rect x="4" width="235" height="235" rx="15" fill="#BAEBDA"/>
<path d="M45.48 136.24C43.176 136.24 41.368 135.592 40.056 134.296C38.76 133 38.112 131.128 38.112 128.68V119.2H41.232V128.56C41.232 130.288 41.6 131.544 42.336 132.328C43.088 133.112 44.144 133.504 45.504 133.504C46.864 133.504 47.912 133.112 48.648 132.328C49.384 131.544 49.752 130.288 49.752 128.56V119.2H52.824V128.68C52.824 131.128 52.168 133 50.856 134.296C49.56 135.592 47.768 136.24 45.48 136.24ZM62.4015 136.24C61.0895 136.24 59.8335 136.056 58.6335 135.688C57.4335 135.304 56.4815 134.816 55.7775 134.224L56.8575 131.8C57.5295 132.328 58.3615 132.768 59.3535 133.12C60.3455 133.472 61.3615 133.648 62.4015 133.648C63.2815 133.648 63.9935 133.552 64.5375 133.36C65.0815 133.168 65.4815 132.912 65.7375 132.592C65.9935 132.256 66.1215 131.88 66.1215 131.464C66.1215 130.952 65.9375 130.544 65.5695 130.24C65.2015 129.92 64.7215 129.672 64.1295 129.496C63.5535 129.304 62.9055 129.128 62.1855 128.968C61.4815 128.808 60.7695 128.624 60.0495 128.416C59.3455 128.192 58.6975 127.912 58.1055 127.576C57.5295 127.224 57.0575 126.76 56.6895 126.184C56.3215 125.608 56.1375 124.872 56.1375 123.976C56.1375 123.064 56.3775 122.232 56.8575 121.48C57.3535 120.712 58.0975 120.104 59.0895 119.656C60.0975 119.192 61.3695 118.96 62.9055 118.96C63.9135 118.96 64.9135 119.088 65.9055 119.344C66.8975 119.6 67.7615 119.968 68.4975 120.448L67.5135 122.872C66.7615 122.424 65.9855 122.096 65.1855 121.888C64.3855 121.664 63.6175 121.552 62.8815 121.552C62.0175 121.552 61.3135 121.656 60.7695 121.864C60.2415 122.072 59.8495 122.344 59.5935 122.68C59.3535 123.016 59.2335 123.4 59.2335 123.832C59.2335 124.344 59.4095 124.76 59.7615 125.08C60.1295 125.384 60.6015 125.624 61.1775 125.8C61.7695 125.976 62.4255 126.152 63.1455 126.328C63.8655 126.488 64.5775 126.672 65.2815 126.88C66.0015 127.088 66.6495 127.36 67.2255 127.696C67.8175 128.032 68.2895 128.488 68.6415 129.064C69.0095 129.64 69.1935 130.368 69.1935 131.248C69.1935 132.144 68.9455 132.976 68.4495 133.744C67.9695 134.496 67.2255 135.104 66.2175 135.568C65.2095 136.016 63.9375 136.24 62.4015 136.24ZM72.2873 136V119.2H80.1593C82.1753 119.2 83.7113 119.6 84.7673 120.4C85.8233 121.184 86.3513 122.24 86.3513 123.568C86.3513 124.464 86.1433 125.232 85.7273 125.872C85.3113 126.496 84.7513 126.984 84.0473 127.336C83.3593 127.672 82.6073 127.84 81.7913 127.84L82.2233 126.976C83.1673 126.976 84.0153 127.152 84.7673 127.504C85.5193 127.84 86.1113 128.336 86.5433 128.992C86.9913 129.648 87.2153 130.464 87.2153 131.44C87.2153 132.88 86.6633 134 85.5593 134.8C84.4553 135.6 82.8153 136 80.6393 136H72.2873ZM75.4073 133.552H80.4473C81.6153 133.552 82.5113 133.36 83.1353 132.976C83.7593 132.592 84.0713 131.976 84.0713 131.128C84.0713 130.296 83.7593 129.688 83.1353 129.304C82.5113 128.904 81.6153 128.704 80.4473 128.704H75.1673V126.28H79.8233C80.9113 126.28 81.7433 126.088 82.3193 125.704C82.9113 125.32 83.2073 124.744 83.2073 123.976C83.2073 123.192 82.9113 122.608 82.3193 122.224C81.7433 121.84 80.9113 121.648 79.8233 121.648H75.4073V133.552ZM102.77 136.168C101.426 136.168 100.226 135.888 99.1699 135.328C98.1299 134.752 97.3139 133.968 96.7219 132.976C96.1299 131.984 95.8339 130.856 95.8339 129.592C95.8339 128.312 96.1299 127.184 96.7219 126.208C97.3139 125.216 98.1299 124.44 99.1699 123.88C100.226 123.32 101.426 123.04 102.77 123.04C104.018 123.04 105.114 123.296 106.058 123.808C107.018 124.304 107.746 125.04 108.242 126.016L105.938 127.36C105.554 126.752 105.082 126.304 104.522 126.016C103.978 125.728 103.386 125.584 102.746 125.584C102.01 125.584 101.346 125.744 100.754 126.064C100.162 126.384 99.6979 126.848 99.3619 127.456C99.0259 128.048 98.8579 128.76 98.8579 129.592C98.8579 130.424 99.0259 131.144 99.3619 131.752C99.6979 132.344 100.162 132.8 100.754 133.12C101.346 133.44 102.01 133.6 102.746 133.6C103.386 133.6 103.978 133.456 104.522 133.168C105.082 132.88 105.554 132.432 105.938 131.824L108.242 133.168C107.746 134.128 107.018 134.872 106.058 135.4C105.114 135.912 104.018 136.168 102.77 136.168ZM117.99 123.04C119.014 123.04 119.926 123.24 120.726 123.64C121.542 124.04 122.182 124.656 122.646 125.488C123.11 126.304 123.342 127.36 123.342 128.656V136H120.342V129.04C120.342 127.904 120.07 127.056 119.526 126.496C118.998 125.936 118.254 125.656 117.294 125.656C116.59 125.656 115.966 125.8 115.422 126.088C114.878 126.376 114.454 126.808 114.15 127.384C113.862 127.944 113.718 128.656 113.718 129.52V136H110.718V118.192H113.718V126.64L113.07 125.584C113.518 124.768 114.166 124.144 115.014 123.712C115.878 123.264 116.87 123.04 117.99 123.04ZM135.044 136V133.408L134.876 132.856V128.32C134.876 127.44 134.612 126.76 134.084 126.28C133.556 125.784 132.756 125.536 131.684 125.536C130.964 125.536 130.252 125.648 129.548 125.872C128.86 126.096 128.276 126.408 127.796 126.808L126.62 124.624C127.308 124.096 128.124 123.704 129.068 123.448C130.028 123.176 131.02 123.04 132.044 123.04C133.9 123.04 135.332 123.488 136.34 124.384C137.364 125.264 137.876 126.632 137.876 128.488V136H135.044ZM131.012 136.168C130.052 136.168 129.212 136.008 128.492 135.688C127.772 135.352 127.212 134.896 126.812 134.32C126.428 133.728 126.236 133.064 126.236 132.328C126.236 131.608 126.404 130.96 126.74 130.384C127.092 129.808 127.66 129.352 128.444 129.016C129.228 128.68 130.268 128.512 131.564 128.512H135.284V130.504H131.78C130.756 130.504 130.068 130.672 129.716 131.008C129.364 131.328 129.188 131.728 129.188 132.208C129.188 132.752 129.404 133.184 129.836 133.504C130.268 133.824 130.868 133.984 131.636 133.984C132.372 133.984 133.028 133.816 133.604 133.48C134.196 133.144 134.62 132.648 134.876 131.992L135.38 133.792C135.092 134.544 134.572 135.128 133.82 135.544C133.084 135.96 132.148 136.168 131.012 136.168ZM141.726 136V123.184H144.582V126.712L144.246 125.68C144.63 124.816 145.23 124.16 146.046 123.712C146.878 123.264 147.91 123.04 149.142 123.04V125.896C149.014 125.864 148.894 125.848 148.782 125.848C148.67 125.832 148.558 125.824 148.446 125.824C147.31 125.824 146.406 126.16 145.734 126.832C145.062 127.488 144.726 128.472 144.726 129.784V136H141.726ZM157.378 140.824C156.194 140.824 155.034 140.664 153.898 140.344C152.778 140.04 151.858 139.592 151.138 139L152.482 136.744C153.042 137.208 153.746 137.576 154.594 137.848C155.458 138.136 156.33 138.28 157.21 138.28C158.618 138.28 159.65 137.952 160.306 137.296C160.962 136.656 161.29 135.688 161.29 134.392V132.112L161.53 129.208L161.434 126.304V123.184H164.29V134.056C164.29 136.376 163.698 138.08 162.514 139.168C161.33 140.272 159.618 140.824 157.378 140.824ZM156.994 135.424C155.778 135.424 154.674 135.168 153.682 134.656C152.706 134.128 151.93 133.4 151.354 132.472C150.794 131.544 150.514 130.456 150.514 129.208C150.514 127.976 150.794 126.896 151.354 125.968C151.93 125.04 152.706 124.32 153.682 123.808C154.674 123.296 155.778 123.04 156.994 123.04C158.082 123.04 159.058 123.256 159.922 123.688C160.786 124.12 161.474 124.792 161.986 125.704C162.514 126.616 162.778 127.784 162.778 129.208C162.778 130.632 162.514 131.808 161.986 132.736C161.474 133.648 160.786 134.328 159.922 134.776C159.058 135.208 158.082 135.424 156.994 135.424ZM157.45 132.88C158.202 132.88 158.874 132.728 159.466 132.424C160.058 132.104 160.514 131.672 160.834 131.128C161.17 130.568 161.338 129.928 161.338 129.208C161.338 128.488 161.17 127.856 160.834 127.312C160.514 126.752 160.058 126.328 159.466 126.04C158.874 125.736 158.202 125.584 157.45 125.584C156.698 125.584 156.018 125.736 155.41 126.04C154.818 126.328 154.354 126.752 154.018 127.312C153.698 127.856 153.538 128.488 153.538 129.208C153.538 129.928 153.698 130.568 154.018 131.128C154.354 131.672 154.818 132.104 155.41 132.424C156.018 132.728 156.698 132.88 157.45 132.88ZM168.234 136V123.184H171.234V136H168.234ZM169.746 121.072C169.186 121.072 168.722 120.896 168.354 120.544C168.002 120.192 167.826 119.768 167.826 119.272C167.826 118.76 168.002 118.336 168.354 118C168.722 117.648 169.186 117.472 169.746 117.472C170.306 117.472 170.762 117.64 171.114 117.976C171.482 118.296 171.666 118.704 171.666 119.2C171.666 119.728 171.49 120.176 171.138 120.544C170.786 120.896 170.322 121.072 169.746 121.072ZM182.443 123.04C183.467 123.04 184.379 123.24 185.179 123.64C185.995 124.04 186.635 124.656 187.099 125.488C187.563 126.304 187.795 127.36 187.795 128.656V136H184.795V129.04C184.795 127.904 184.523 127.056 183.979 126.496C183.451 125.936 182.707 125.656 181.747 125.656C181.043 125.656 180.419 125.8 179.875 126.088C179.331 126.376 178.907 126.808 178.603 127.384C178.315 127.944 178.171 128.656 178.171 129.52V136H175.171V123.184H178.027V126.64L177.523 125.584C177.971 124.768 178.619 124.144 179.467 123.712C180.331 123.264 181.323 123.04 182.443 123.04ZM197.432 140.824C196.248 140.824 195.088 140.664 193.952 140.344C192.832 140.04 191.912 139.592 191.192 139L192.536 136.744C193.096 137.208 193.8 137.576 194.648 137.848C195.512 138.136 196.384 138.28 197.264 138.28C198.672 138.28 199.704 137.952 200.36 137.296C201.016 136.656 201.344 135.688 201.344 134.392V132.112L201.584 129.208L201.488 126.304V123.184H204.344V134.056C204.344 136.376 203.752 138.08 202.568 139.168C201.384 140.272 199.672 140.824 197.432 140.824ZM197.048 135.424C195.832 135.424 194.728 135.168 193.736 134.656C192.76 134.128 191.984 133.4 191.408 132.472C190.848 131.544 190.568 130.456 190.568 129.208C190.568 127.976 190.848 126.896 191.408 125.968C191.984 125.04 192.76 124.32 193.736 123.808C194.728 123.296 195.832 123.04 197.048 123.04C198.136 123.04 199.112 123.256 199.976 123.688C200.84 124.12 201.528 124.792 202.04 125.704C202.568 126.616 202.832 127.784 202.832 129.208C202.832 130.632 202.568 131.808 202.04 132.736C201.528 133.648 200.84 134.328 199.976 134.776C199.112 135.208 198.136 135.424 197.048 135.424ZM197.504 132.88C198.256 132.88 198.928 132.728 199.52 132.424C200.112 132.104 200.568 131.672 200.888 131.128C201.224 130.568 201.392 129.928 201.392 129.208C201.392 128.488 201.224 127.856 200.888 127.312C200.568 126.752 200.112 126.328 199.52 126.04C198.928 125.736 198.256 125.584 197.504 125.584C196.752 125.584 196.072 125.736 195.464 126.04C194.872 126.328 194.408 126.752 194.072 127.312C193.752 127.856 193.592 128.488 193.592 129.208C193.592 129.928 193.752 130.568 194.072 131.128C194.408 131.672 194.872 132.104 195.464 132.424C196.072 132.728 196.752 132.88 197.504 132.88Z" fill="black"/>
<mask id="mask0_1802_3152" style="mask-type:alpha" maskUnits="userSpaceOnUse" x="101" y="63" width="40" height="40">
<rect x="101" y="63" width="40" height="40" fill="#D9D9D9"/>
</mask>
<g mask="url(#mask0_1802_3152)">
<path d="M128.5 99.6673V94.6673H124.333L130.167 86.334V91.334H134.333L128.5 99.6673ZM114.333 99.6673C113.861 99.6673 113.465 99.5076 113.146 99.1881C112.826 98.8687 112.667 98.4729 112.667 98.0007V71.334C112.667 70.8618 112.826 70.4659 113.146 70.1465C113.465 69.827 113.861 69.6673 114.333 69.6673H117.667V66.334H124.333V69.6673H127.667C128.139 69.6673 128.535 69.827 128.854 70.1465C129.174 70.4659 129.333 70.8618 129.333 71.334V83.0007C128.75 83.0007 128.181 83.0493 127.625 83.1465C127.07 83.2437 126.528 83.3895 126 83.584V73.0007H116V86.334H121.917C121.111 87.2229 120.479 88.2298 120.021 89.3548C119.563 90.4798 119.333 91.6951 119.333 93.0007C119.333 94.2784 119.556 95.4868 120 96.6257C120.445 97.7645 121.07 98.7784 121.875 99.6673H114.333Z" fill="#1C1B1F"/>
</g>
<path opacity="0.7" d="M53.852 160.14C53.1053 160.14 52.41 160.019 51.766 159.776C51.1313 159.524 50.576 159.174 50.1 158.726C49.6333 158.269 49.2693 157.732 49.008 157.116C48.7467 156.5 48.616 155.828 48.616 155.1C48.616 154.372 48.7467 153.7 49.008 153.084C49.2693 152.468 49.638 151.936 50.114 151.488C50.59 151.031 51.1453 150.681 51.78 150.438C52.4147 150.186 53.11 150.06 53.866 150.06C54.6687 150.06 55.4013 150.2 56.064 150.48C56.7267 150.751 57.2867 151.157 57.744 151.698L56.568 152.804C56.2133 152.421 55.8167 152.137 55.378 151.95C54.9393 151.754 54.4633 151.656 53.95 151.656C53.4367 151.656 52.9653 151.74 52.536 151.908C52.116 152.076 51.7473 152.314 51.43 152.622C51.122 152.93 50.8793 153.294 50.702 153.714C50.534 154.134 50.45 154.596 50.45 155.1C50.45 155.604 50.534 156.066 50.702 156.486C50.8793 156.906 51.122 157.27 51.43 157.578C51.7473 157.886 52.116 158.124 52.536 158.292C52.9653 158.46 53.4367 158.544 53.95 158.544C54.4633 158.544 54.9393 158.451 55.378 158.264C55.8167 158.068 56.2133 157.774 56.568 157.382L57.744 158.502C57.2867 159.034 56.7267 159.44 56.064 159.72C55.4013 160 54.664 160.14 53.852 160.14ZM63.5619 152.44C64.1592 152.44 64.6912 152.557 65.1579 152.79C65.6339 153.023 66.0072 153.383 66.2779 153.868C66.5485 154.344 66.6839 154.96 66.6839 155.716V160H64.9339V155.94C64.9339 155.277 64.7752 154.783 64.4579 154.456C64.1499 154.129 63.7159 153.966 63.1559 153.966C62.7452 153.966 62.3812 154.05 62.0639 154.218C61.7465 154.386 61.4992 154.638 61.3219 154.974C61.1539 155.301 61.0699 155.716 61.0699 156.22V160H59.3199V149.612H61.0699V154.54L60.6919 153.924C60.9532 153.448 61.3312 153.084 61.8259 152.832C62.3299 152.571 62.9085 152.44 63.5619 152.44ZM73.5099 160V158.488L73.4119 158.166V155.52C73.4119 155.007 73.2579 154.61 72.9499 154.33C72.6419 154.041 72.1752 153.896 71.5499 153.896C71.1299 153.896 70.7145 153.961 70.3039 154.092C69.9025 154.223 69.5619 154.405 69.2819 154.638L68.5959 153.364C68.9972 153.056 69.4732 152.827 70.0239 152.678C70.5839 152.519 71.1625 152.44 71.7599 152.44C72.8425 152.44 73.6779 152.701 74.2659 153.224C74.8632 153.737 75.1619 154.535 75.1619 155.618V160H73.5099ZM71.1579 160.098C70.5979 160.098 70.1079 160.005 69.6879 159.818C69.2679 159.622 68.9412 159.356 68.7079 159.02C68.4839 158.675 68.3719 158.287 68.3719 157.858C68.3719 157.438 68.4699 157.06 68.6659 156.724C68.8712 156.388 69.2025 156.122 69.6599 155.926C70.1172 155.73 70.7239 155.632 71.4799 155.632H73.6499V156.794H71.6059C71.0085 156.794 70.6072 156.892 70.4019 157.088C70.1965 157.275 70.0939 157.508 70.0939 157.788C70.0939 158.105 70.2199 158.357 70.4719 158.544C70.7239 158.731 71.0739 158.824 71.5219 158.824C71.9512 158.824 72.3339 158.726 72.6699 158.53C73.0152 158.334 73.2625 158.045 73.4119 157.662L73.7059 158.712C73.5379 159.151 73.2345 159.491 72.7959 159.734C72.3665 159.977 71.8205 160.098 71.1579 160.098ZM77.4078 160V152.524H79.0738V154.582L78.8778 153.98C79.1018 153.476 79.4518 153.093 79.9278 152.832C80.4131 152.571 81.0151 152.44 81.7338 152.44V154.106C81.6591 154.087 81.5891 154.078 81.5238 154.078C81.4584 154.069 81.3931 154.064 81.3278 154.064C80.6651 154.064 80.1378 154.26 79.7458 154.652C79.3538 155.035 79.1578 155.609 79.1578 156.374V160H77.4078ZM86.538 162.814C85.8473 162.814 85.1706 162.721 84.508 162.534C83.8546 162.357 83.318 162.095 82.898 161.75L83.682 160.434C84.0086 160.705 84.4193 160.919 84.914 161.078C85.418 161.246 85.9266 161.33 86.44 161.33C87.2613 161.33 87.8633 161.139 88.246 160.756C88.6286 160.383 88.82 159.818 88.82 159.062V157.732L88.96 156.038L88.904 154.344V152.524H90.57V158.866C90.57 160.219 90.2246 161.213 89.534 161.848C88.8433 162.492 87.8446 162.814 86.538 162.814ZM86.314 159.664C85.6046 159.664 84.9606 159.515 84.382 159.216C83.8126 158.908 83.36 158.483 83.024 157.942C82.6973 157.401 82.534 156.766 82.534 156.038C82.534 155.319 82.6973 154.689 83.024 154.148C83.36 153.607 83.8126 153.187 84.382 152.888C84.9606 152.589 85.6046 152.44 86.314 152.44C86.9486 152.44 87.518 152.566 88.022 152.818C88.526 153.07 88.9273 153.462 89.226 153.994C89.534 154.526 89.688 155.207 89.688 156.038C89.688 156.869 89.534 157.555 89.226 158.096C88.9273 158.628 88.526 159.025 88.022 159.286C87.518 159.538 86.9486 159.664 86.314 159.664ZM86.58 158.18C87.0186 158.18 87.4106 158.091 87.756 157.914C88.1013 157.727 88.3673 157.475 88.554 157.158C88.75 156.831 88.848 156.458 88.848 156.038C88.848 155.618 88.75 155.249 88.554 154.932C88.3673 154.605 88.1013 154.358 87.756 154.19C87.4106 154.013 87.0186 153.924 86.58 153.924C86.1413 153.924 85.7446 154.013 85.39 154.19C85.0446 154.358 84.774 154.605 84.578 154.932C84.3913 155.249 84.298 155.618 84.298 156.038C84.298 156.458 84.3913 156.831 84.578 157.158C84.774 157.475 85.0446 157.727 85.39 157.914C85.7446 158.091 86.1413 158.18 86.58 158.18ZM96.3847 160.098C95.554 160.098 94.826 159.935 94.2007 159.608C93.5847 159.272 93.104 158.815 92.7587 158.236C92.4227 157.657 92.2547 156.999 92.2547 156.262C92.2547 155.515 92.418 154.857 92.7447 154.288C93.0807 153.709 93.538 153.257 94.1167 152.93C94.7047 152.603 95.372 152.44 96.1187 152.44C96.8467 152.44 97.4953 152.599 98.0647 152.916C98.634 153.233 99.082 153.681 99.4087 154.26C99.7353 154.839 99.8987 155.52 99.8987 156.304C99.8987 156.379 99.894 156.463 99.8847 156.556C99.8847 156.649 99.88 156.738 99.8707 156.822H93.6407V155.66H98.9467L98.2607 156.024C98.27 155.595 98.1813 155.217 97.9947 154.89C97.808 154.563 97.5513 154.307 97.2247 154.12C96.9073 153.933 96.5387 153.84 96.1187 153.84C95.6893 153.84 95.3113 153.933 94.9847 154.12C94.6673 154.307 94.4153 154.568 94.2287 154.904C94.0513 155.231 93.9627 155.618 93.9627 156.066V156.346C93.9627 156.794 94.0653 157.191 94.2707 157.536C94.476 157.881 94.7653 158.147 95.1387 158.334C95.512 158.521 95.9413 158.614 96.4267 158.614C96.8467 158.614 97.2247 158.549 97.5607 158.418C97.8967 158.287 98.1953 158.082 98.4567 157.802L99.3947 158.88C99.0587 159.272 98.634 159.575 98.1207 159.79C97.6167 159.995 97.038 160.098 96.3847 160.098ZM106.065 162.814C105.701 162.814 105.337 162.753 104.973 162.632C104.609 162.511 104.305 162.343 104.063 162.128L104.763 160.84C104.94 160.999 105.141 161.125 105.365 161.218C105.589 161.311 105.817 161.358 106.051 161.358C106.368 161.358 106.625 161.279 106.821 161.12C107.017 160.961 107.199 160.695 107.367 160.322L107.801 159.342L107.941 159.132L110.769 152.524H112.449L108.949 160.602C108.715 161.162 108.454 161.605 108.165 161.932C107.885 162.259 107.567 162.487 107.213 162.618C106.867 162.749 106.485 162.814 106.065 162.814ZM107.605 160.266L104.231 152.524H106.051L108.795 158.978L107.605 160.266ZM116.697 160.098C115.932 160.098 115.251 159.935 114.653 159.608C114.056 159.272 113.585 158.815 113.239 158.236C112.894 157.657 112.721 156.999 112.721 156.262C112.721 155.515 112.894 154.857 113.239 154.288C113.585 153.709 114.056 153.257 114.653 152.93C115.251 152.603 115.932 152.44 116.697 152.44C117.472 152.44 118.158 152.603 118.755 152.93C119.362 153.257 119.833 153.705 120.169 154.274C120.515 154.843 120.687 155.506 120.687 156.262C120.687 156.999 120.515 157.657 120.169 158.236C119.833 158.815 119.362 159.272 118.755 159.608C118.158 159.935 117.472 160.098 116.697 160.098ZM116.697 158.6C117.127 158.6 117.509 158.507 117.845 158.32C118.181 158.133 118.443 157.863 118.629 157.508C118.825 157.153 118.923 156.738 118.923 156.262C118.923 155.777 118.825 155.361 118.629 155.016C118.443 154.661 118.181 154.391 117.845 154.204C117.509 154.017 117.131 153.924 116.711 153.924C116.282 153.924 115.899 154.017 115.563 154.204C115.237 154.391 114.975 154.661 114.779 155.016C114.583 155.361 114.485 155.777 114.485 156.262C114.485 156.738 114.583 157.153 114.779 157.508C114.975 157.863 115.237 158.133 115.563 158.32C115.899 158.507 116.277 158.6 116.697 158.6ZM125.525 160.098C124.89 160.098 124.33 159.981 123.845 159.748C123.36 159.505 122.982 159.141 122.711 158.656C122.44 158.161 122.305 157.541 122.305 156.794V152.524H124.055V156.556C124.055 157.228 124.204 157.732 124.503 158.068C124.811 158.395 125.245 158.558 125.805 158.558C126.216 158.558 126.57 158.474 126.869 158.306C127.177 158.138 127.415 157.886 127.583 157.55C127.76 157.214 127.849 156.799 127.849 156.304V152.524H129.599V160H127.933V157.984L128.227 158.6C127.975 159.085 127.606 159.459 127.121 159.72C126.636 159.972 126.104 160.098 125.525 160.098ZM131.89 160V152.524H133.556V154.582L133.36 153.98C133.584 153.476 133.934 153.093 134.41 152.832C134.896 152.571 135.498 152.44 136.216 152.44V154.106C136.142 154.087 136.072 154.078 136.006 154.078C135.941 154.069 135.876 154.064 135.81 154.064C135.148 154.064 134.62 154.26 134.228 154.652C133.836 155.035 133.64 155.609 133.64 156.374V160H131.89ZM144.802 160.098C144.084 160.098 143.435 159.939 142.856 159.622C142.287 159.295 141.839 158.847 141.512 158.278C141.186 157.709 141.022 157.037 141.022 156.262C141.022 155.487 141.186 154.815 141.512 154.246C141.839 153.677 142.287 153.233 142.856 152.916C143.435 152.599 144.084 152.44 144.802 152.44C145.428 152.44 145.988 152.58 146.482 152.86C146.977 153.131 147.369 153.546 147.658 154.106C147.948 154.666 148.092 155.385 148.092 156.262C148.092 157.13 147.952 157.849 147.672 158.418C147.392 158.978 147.005 159.398 146.51 159.678C146.016 159.958 145.446 160.098 144.802 160.098ZM145.012 158.6C145.432 158.6 145.806 158.507 146.132 158.32C146.468 158.133 146.734 157.863 146.93 157.508C147.136 157.153 147.238 156.738 147.238 156.262C147.238 155.777 147.136 155.361 146.93 155.016C146.734 154.661 146.468 154.391 146.132 154.204C145.806 154.017 145.432 153.924 145.012 153.924C144.592 153.924 144.214 154.017 143.878 154.204C143.552 154.391 143.286 154.661 143.08 155.016C142.884 155.361 142.786 155.777 142.786 156.262C142.786 156.738 142.884 157.153 143.08 157.508C143.286 157.863 143.552 158.133 143.878 158.32C144.214 158.507 144.592 158.6 145.012 158.6ZM147.28 160V158.236L147.35 156.248L147.21 154.26V149.612H148.946V160H147.28ZM154.764 160.098C153.933 160.098 153.205 159.935 152.58 159.608C151.964 159.272 151.483 158.815 151.138 158.236C150.802 157.657 150.634 156.999 150.634 156.262C150.634 155.515 150.797 154.857 151.124 154.288C151.46 153.709 151.917 153.257 152.496 152.93C153.084 152.603 153.751 152.44 154.498 152.44C155.226 152.44 155.874 152.599 156.444 152.916C157.013 153.233 157.461 153.681 157.788 154.26C158.114 154.839 158.278 155.52 158.278 156.304C158.278 156.379 158.273 156.463 158.264 156.556C158.264 156.649 158.259 156.738 158.25 156.822H152.02V155.66H157.326L156.64 156.024C156.649 155.595 156.56 155.217 156.374 154.89C156.187 154.563 155.93 154.307 155.604 154.12C155.286 153.933 154.918 153.84 154.498 153.84C154.068 153.84 153.69 153.933 153.364 154.12C153.046 154.307 152.794 154.568 152.608 154.904C152.43 155.231 152.342 155.618 152.342 156.066V156.346C152.342 156.794 152.444 157.191 152.65 157.536C152.855 157.881 153.144 158.147 153.518 158.334C153.891 158.521 154.32 158.614 154.806 158.614C155.226 158.614 155.604 158.549 155.94 158.418C156.276 158.287 156.574 158.082 156.836 157.802L157.774 158.88C157.438 159.272 157.013 159.575 156.5 159.79C155.996 159.995 155.417 160.098 154.764 160.098ZM161.81 160L158.604 152.524H160.424L163.182 159.118H162.286L165.142 152.524H166.822L163.616 160H161.81ZM167.916 160V152.524H169.666V160H167.916ZM168.798 151.292C168.471 151.292 168.2 151.189 167.986 150.984C167.78 150.779 167.678 150.531 167.678 150.242C167.678 149.943 167.78 149.696 167.986 149.5C168.2 149.295 168.471 149.192 168.798 149.192C169.124 149.192 169.39 149.29 169.596 149.486C169.81 149.673 169.918 149.911 169.918 150.2C169.918 150.508 169.815 150.769 169.61 150.984C169.404 151.189 169.134 151.292 168.798 151.292ZM175.392 160.098C174.608 160.098 173.908 159.935 173.292 159.608C172.686 159.272 172.21 158.815 171.864 158.236C171.519 157.657 171.346 156.999 171.346 156.262C171.346 155.515 171.519 154.857 171.864 154.288C172.21 153.709 172.686 153.257 173.292 152.93C173.908 152.603 174.608 152.44 175.392 152.44C176.12 152.44 176.76 152.589 177.31 152.888C177.87 153.177 178.295 153.607 178.584 154.176L177.24 154.96C177.016 154.605 176.741 154.344 176.414 154.176C176.097 154.008 175.752 153.924 175.378 153.924C174.949 153.924 174.562 154.017 174.216 154.204C173.871 154.391 173.6 154.661 173.404 155.016C173.208 155.361 173.11 155.777 173.11 156.262C173.11 156.747 173.208 157.167 173.404 157.522C173.6 157.867 173.871 158.133 174.216 158.32C174.562 158.507 174.949 158.6 175.378 158.6C175.752 158.6 176.097 158.516 176.414 158.348C176.741 158.18 177.016 157.919 177.24 157.564L178.584 158.348C178.295 158.908 177.87 159.342 177.31 159.65C176.76 159.949 176.12 160.098 175.392 160.098ZM183.502 160.098C182.671 160.098 181.943 159.935 181.318 159.608C180.702 159.272 180.221 158.815 179.876 158.236C179.54 157.657 179.372 156.999 179.372 156.262C179.372 155.515 179.535 154.857 179.862 154.288C180.198 153.709 180.655 153.257 181.234 152.93C181.822 152.603 182.489 152.44 183.236 152.44C183.964 152.44 184.613 152.599 185.182 152.916C185.751 153.233 186.199 153.681 186.526 154.26C186.853 154.839 187.016 155.52 187.016 156.304C187.016 156.379 187.011 156.463 187.002 156.556C187.002 156.649 186.997 156.738 186.988 156.822H180.758V155.66H186.064L185.378 156.024C185.387 155.595 185.299 155.217 185.112 154.89C184.925 154.563 184.669 154.307 184.342 154.12C184.025 153.933 183.656 153.84 183.236 153.84C182.807 153.84 182.429 153.933 182.102 154.12C181.785 154.307 181.533 154.568 181.346 154.904C181.169 155.231 181.08 155.618 181.08 156.066V156.346C181.08 156.794 181.183 157.191 181.388 157.536C181.593 157.881 181.883 158.147 182.256 158.334C182.629 158.521 183.059 158.614 183.544 158.614C183.964 158.614 184.342 158.549 184.678 158.418C185.014 158.287 185.313 158.082 185.574 157.802L186.512 158.88C186.176 159.272 185.751 159.575 185.238 159.79C184.734 159.995 184.155 160.098 183.502 160.098ZM191.007 160.098C190.381 160.098 189.779 160.019 189.201 159.86C188.631 159.692 188.179 159.491 187.843 159.258L188.515 157.928C188.851 158.143 189.252 158.32 189.719 158.46C190.185 158.6 190.652 158.67 191.119 158.67C191.669 158.67 192.066 158.595 192.309 158.446C192.561 158.297 192.687 158.096 192.687 157.844C192.687 157.639 192.603 157.485 192.435 157.382C192.267 157.27 192.047 157.186 191.777 157.13C191.506 157.074 191.203 157.023 190.867 156.976C190.54 156.929 190.209 156.869 189.873 156.794C189.546 156.71 189.247 156.593 188.977 156.444C188.706 156.285 188.487 156.075 188.319 155.814C188.151 155.553 188.067 155.207 188.067 154.778C188.067 154.302 188.202 153.891 188.473 153.546C188.743 153.191 189.121 152.921 189.607 152.734C190.101 152.538 190.685 152.44 191.357 152.44C191.861 152.44 192.369 152.496 192.883 152.608C193.396 152.72 193.821 152.879 194.157 153.084L193.485 154.414C193.13 154.199 192.771 154.055 192.407 153.98C192.052 153.896 191.697 153.854 191.343 153.854C190.811 153.854 190.414 153.933 190.153 154.092C189.901 154.251 189.775 154.451 189.775 154.694C189.775 154.918 189.859 155.086 190.027 155.198C190.195 155.31 190.414 155.399 190.685 155.464C190.955 155.529 191.254 155.585 191.581 155.632C191.917 155.669 192.248 155.73 192.575 155.814C192.901 155.898 193.2 156.015 193.471 156.164C193.751 156.304 193.975 156.505 194.143 156.766C194.311 157.027 194.395 157.368 194.395 157.788C194.395 158.255 194.255 158.661 193.975 159.006C193.704 159.351 193.317 159.622 192.813 159.818C192.309 160.005 191.707 160.098 191.007 160.098Z" fill="black"/>
</g>
<defs>
<filter id="filter0_d_1802_3152" x="0" y="0" width="243" height="243" filterUnits="userSpaceOnUse" color-interpolation-filters="sRGB">
<feFlood flood-opacity="0" result="BackgroundImageFix"/>
<feColorMatrix in="SourceAlpha" type="matrix" values="0 0 0 0 0 0 0 0 0 0 0 0 0 0 0 0 0 0 127 0" result="hardAlpha"/>
<feOffset dy="4"/>
<feGaussianBlur stdDeviation="2"/>
<feComposite in2="hardAlpha" operator="out"/>
<feColorMatrix type="matrix" values="0 0 0 0 0 0 0 0 0 0 0 0 0 0 0 0 0 0 0.25 0"/>
<feBlend mode="normal" in2="BackgroundImageFix" result="effect1_dropShadow_1802_3152"/>
<feBlend mode="normal" in="SourceGraphic" in2="effect1_dropShadow_1802_3152" result="shape"/>
</filter>
</defs>
</svg>
