<svg width="243" height="243" viewBox="0 0 243 243" fill="none" xmlns="http://www.w3.org/2000/svg">
<g filter="url(#filter0_d_1802_3185)">
<rect x="4" width="235" height="235" rx="15" fill="#BAEBDA"/>
<path d="M44.216 136L38.648 119.2H41.888L46.856 134.392H45.248L50.408 119.2H53.288L58.304 134.392H56.744L61.832 119.2H64.808L59.24 136H55.928L51.344 122.296H52.208L47.552 136H44.216ZM74.6853 123.04C75.7093 123.04 76.6213 123.24 77.4213 123.64C78.2373 124.04 78.8773 124.656 79.3413 125.488C79.8053 126.304 80.0373 127.36 80.0373 128.656V136H77.0373V129.04C77.0373 127.904 76.7653 127.056 76.2213 126.496C75.6933 125.936 74.9493 125.656 73.9893 125.656C73.2853 125.656 72.6613 125.8 72.1173 126.088C71.5733 126.376 71.1493 126.808 70.8453 127.384C70.5573 127.944 70.4133 128.656 70.4133 129.52V136H67.4133V118.192H70.4133V126.64L69.7653 125.584C70.2133 124.768 70.8613 124.144 71.7093 123.712C72.5733 123.264 73.5653 123.04 74.6853 123.04ZM89.8904 136.168C88.4664 136.168 87.2184 135.888 86.1464 135.328C85.0904 134.752 84.2664 133.968 83.6744 132.976C83.0984 131.984 82.8104 130.856 82.8104 129.592C82.8104 128.312 83.0904 127.184 83.6504 126.208C84.2264 125.216 85.0104 124.44 86.0024 123.88C87.0104 123.32 88.1544 123.04 89.4344 123.04C90.6824 123.04 91.7944 123.312 92.7704 123.856C93.7464 124.4 94.5144 125.168 95.0744 126.16C95.6344 127.152 95.9144 128.32 95.9144 129.664C95.9144 129.792 95.9064 129.936 95.8904 130.096C95.8904 130.256 95.8824 130.408 95.8664 130.552H85.1864V128.56H94.2824L93.1064 129.184C93.1224 128.448 92.9704 127.8 92.6504 127.24C92.3304 126.68 91.8904 126.24 91.3304 125.92C90.7864 125.6 90.1544 125.44 89.4344 125.44C88.6984 125.44 88.0504 125.6 87.4904 125.92C86.9464 126.24 86.5144 126.688 86.1944 127.264C85.8904 127.824 85.7384 128.488 85.7384 129.256V129.736C85.7384 130.504 85.9144 131.184 86.2664 131.776C86.6184 132.368 87.1144 132.824 87.7544 133.144C88.3944 133.464 89.1304 133.624 89.9624 133.624C90.6824 133.624 91.3304 133.512 91.9064 133.288C92.4824 133.064 92.9944 132.712 93.4424 132.232L95.0504 134.08C94.4744 134.752 93.7464 135.272 92.8664 135.64C92.0024 135.992 91.0104 136.168 89.8904 136.168ZM104.82 136.168C103.396 136.168 102.148 135.888 101.076 135.328C100.02 134.752 99.1961 133.968 98.6041 132.976C98.0281 131.984 97.7401 130.856 97.7401 129.592C97.7401 128.312 98.0201 127.184 98.5801 126.208C99.1561 125.216 99.9401 124.44 100.932 123.88C101.94 123.32 103.084 123.04 104.364 123.04C105.612 123.04 106.724 123.312 107.7 123.856C108.676 124.4 109.444 125.168 110.004 126.16C110.564 127.152 110.844 128.32 110.844 129.664C110.844 129.792 110.836 129.936 110.82 130.096C110.82 130.256 110.812 130.408 110.796 130.552H100.116V128.56H109.212L108.036 129.184C108.052 128.448 107.9 127.8 107.58 127.24C107.26 126.68 106.82 126.24 106.26 125.92C105.716 125.6 105.084 125.44 104.364 125.44C103.628 125.44 102.98 125.6 102.42 125.92C101.876 126.24 101.444 126.688 101.124 127.264C100.82 127.824 100.668 128.488 100.668 129.256V129.736C100.668 130.504 100.844 131.184 101.196 131.776C101.548 132.368 102.044 132.824 102.684 133.144C103.324 133.464 104.06 133.624 104.892 133.624C105.612 133.624 106.26 133.512 106.836 133.288C107.412 133.064 107.924 132.712 108.372 132.232L109.98 134.08C109.404 134.752 108.676 135.272 107.796 135.64C106.932 135.992 105.94 136.168 104.82 136.168ZM113.726 136V118.192H116.726V136H113.726ZM135.36 136.24C134.08 136.24 132.888 136.032 131.784 135.616C130.696 135.184 129.744 134.584 128.928 133.816C128.128 133.032 127.504 132.112 127.056 131.056C126.608 130 126.384 128.848 126.384 127.6C126.384 126.352 126.608 125.2 127.056 124.144C127.504 123.088 128.136 122.176 128.952 121.408C129.768 120.624 130.72 120.024 131.808 119.608C132.896 119.176 134.088 118.96 135.384 118.96C136.76 118.96 138.016 119.2 139.152 119.68C140.288 120.144 141.248 120.84 142.032 121.768L140.016 123.664C139.408 123.008 138.728 122.52 137.976 122.2C137.224 121.864 136.408 121.696 135.528 121.696C134.648 121.696 133.84 121.84 133.104 122.128C132.384 122.416 131.752 122.824 131.208 123.352C130.68 123.88 130.264 124.504 129.96 125.224C129.672 125.944 129.528 126.736 129.528 127.6C129.528 128.464 129.672 129.256 129.96 129.976C130.264 130.696 130.68 131.32 131.208 131.848C131.752 132.376 132.384 132.784 133.104 133.072C133.84 133.36 134.648 133.504 135.528 133.504C136.408 133.504 137.224 133.344 137.976 133.024C138.728 132.688 139.408 132.184 140.016 131.512L142.032 133.432C141.248 134.344 140.288 135.04 139.152 135.52C138.016 136 136.752 136.24 135.36 136.24ZM152.006 123.04C153.03 123.04 153.942 123.24 154.742 123.64C155.558 124.04 156.198 124.656 156.662 125.488C157.126 126.304 157.358 127.36 157.358 128.656V136H154.358V129.04C154.358 127.904 154.086 127.056 153.542 126.496C153.014 125.936 152.27 125.656 151.31 125.656C150.606 125.656 149.982 125.8 149.438 126.088C148.894 126.376 148.47 126.808 148.166 127.384C147.878 127.944 147.734 128.656 147.734 129.52V136H144.734V118.192H147.734V126.64L147.086 125.584C147.534 124.768 148.182 124.144 149.03 123.712C149.894 123.264 150.886 123.04 152.006 123.04ZM169.059 136V133.408L168.891 132.856V128.32C168.891 127.44 168.627 126.76 168.099 126.28C167.571 125.784 166.771 125.536 165.699 125.536C164.979 125.536 164.267 125.648 163.563 125.872C162.875 126.096 162.291 126.408 161.811 126.808L160.635 124.624C161.323 124.096 162.139 123.704 163.083 123.448C164.043 123.176 165.035 123.04 166.059 123.04C167.915 123.04 169.347 123.488 170.355 124.384C171.379 125.264 171.891 126.632 171.891 128.488V136H169.059ZM165.027 136.168C164.067 136.168 163.227 136.008 162.507 135.688C161.787 135.352 161.227 134.896 160.827 134.32C160.443 133.728 160.251 133.064 160.251 132.328C160.251 131.608 160.419 130.96 160.755 130.384C161.107 129.808 161.675 129.352 162.459 129.016C163.243 128.68 164.283 128.512 165.579 128.512H169.299V130.504H165.795C164.771 130.504 164.083 130.672 163.731 131.008C163.379 131.328 163.203 131.728 163.203 132.208C163.203 132.752 163.419 133.184 163.851 133.504C164.283 133.824 164.883 133.984 165.651 133.984C166.387 133.984 167.043 133.816 167.619 133.48C168.211 133.144 168.635 132.648 168.891 131.992L169.395 133.792C169.107 134.544 168.587 135.128 167.835 135.544C167.099 135.96 166.163 136.168 165.027 136.168ZM175.741 136V123.184H178.741V136H175.741ZM177.253 121.072C176.693 121.072 176.229 120.896 175.861 120.544C175.509 120.192 175.333 119.768 175.333 119.272C175.333 118.76 175.509 118.336 175.861 118C176.229 117.648 176.693 117.472 177.253 117.472C177.813 117.472 178.269 117.64 178.621 117.976C178.989 118.296 179.173 118.704 179.173 119.2C179.173 119.728 178.997 120.176 178.645 120.544C178.293 120.896 177.829 121.072 177.253 121.072ZM182.679 136V123.184H185.535V126.712L185.199 125.68C185.583 124.816 186.183 124.16 186.999 123.712C187.831 123.264 188.863 123.04 190.095 123.04V125.896C189.967 125.864 189.847 125.848 189.735 125.848C189.623 125.832 189.511 125.824 189.399 125.824C188.263 125.824 187.359 126.16 186.687 126.832C186.015 127.488 185.679 128.472 185.679 129.784V136H182.679ZM196.717 136.168C195.645 136.168 194.613 136.032 193.621 135.76C192.645 135.472 191.869 135.128 191.293 134.728L192.445 132.448C193.021 132.816 193.709 133.12 194.509 133.36C195.309 133.6 196.109 133.72 196.909 133.72C197.853 133.72 198.533 133.592 198.949 133.336C199.381 133.08 199.597 132.736 199.597 132.304C199.597 131.952 199.453 131.688 199.165 131.512C198.877 131.32 198.501 131.176 198.037 131.08C197.573 130.984 197.053 130.896 196.477 130.816C195.917 130.736 195.349 130.632 194.773 130.504C194.213 130.36 193.701 130.16 193.237 129.904C192.773 129.632 192.397 129.272 192.109 128.824C191.821 128.376 191.677 127.784 191.677 127.048C191.677 126.232 191.909 125.528 192.373 124.936C192.837 124.328 193.485 123.864 194.317 123.544C195.165 123.208 196.165 123.04 197.317 123.04C198.181 123.04 199.053 123.136 199.933 123.328C200.813 123.52 201.541 123.792 202.117 124.144L200.965 126.424C200.357 126.056 199.741 125.808 199.117 125.68C198.509 125.536 197.901 125.464 197.293 125.464C196.381 125.464 195.701 125.6 195.253 125.872C194.821 126.144 194.605 126.488 194.605 126.904C194.605 127.288 194.749 127.576 195.037 127.768C195.325 127.96 195.701 128.112 196.165 128.224C196.629 128.336 197.141 128.432 197.701 128.512C198.277 128.576 198.845 128.68 199.405 128.824C199.965 128.968 200.477 129.168 200.941 129.424C201.421 129.664 201.805 130.008 202.093 130.456C202.381 130.904 202.525 131.488 202.525 132.208C202.525 133.008 202.285 133.704 201.805 134.296C201.341 134.888 200.677 135.352 199.813 135.688C198.949 136.008 197.917 136.168 196.717 136.168Z" fill="black"/>
<mask id="mask0_1802_3185" style="mask-type:alpha" maskUnits="userSpaceOnUse" x="101" y="63" width="40" height="40">
<rect x="101" y="63" width="40" height="40" fill="#D9D9D9"/>
</mask>
<g mask="url(#mask0_1802_3185)">
<path d="M121 73.0007C120.083 73.0007 119.299 72.6743 118.646 72.0215C117.993 71.3687 117.667 70.584 117.667 69.6673C117.667 68.7507 117.993 67.9659 118.646 67.3132C119.299 66.6604 120.083 66.334 121 66.334C121.917 66.334 122.701 66.6604 123.354 67.3132C124.007 67.9659 124.333 68.7507 124.333 69.6673C124.333 70.584 124.007 71.3687 123.354 72.0215C122.701 72.6743 121.917 73.0007 121 73.0007ZM129.333 99.6673V91.334H121C120.083 91.334 119.299 91.0076 118.646 90.3548C117.993 89.702 117.667 88.9173 117.667 88.0007V78.0007C117.667 77.084 117.993 76.2993 118.646 75.6465C119.299 74.9937 120.083 74.6673 121 74.6673C121.667 74.6673 122.243 74.8132 122.729 75.1048C123.215 75.3965 123.736 75.8618 124.292 76.5007C125.819 78.334 127.201 79.5909 128.438 80.2715C129.674 80.952 131.083 81.3062 132.667 81.334V84.6673C131.194 84.6673 129.708 84.3479 128.208 83.709C126.708 83.0701 125.417 82.3062 124.333 81.4173V87.1673H129.333C130.25 87.1673 131.035 87.4937 131.688 88.1465C132.34 88.7993 132.667 89.584 132.667 90.5007V99.6673H129.333ZM117.667 99.6673C115.361 99.6673 113.396 98.8548 111.771 97.2298C110.146 95.6048 109.333 93.6395 109.333 91.334C109.333 89.334 109.965 87.5701 111.229 86.0423C112.493 84.5145 114.083 83.5562 116 83.1673V86.584C115.028 86.9729 114.229 87.5909 113.604 88.4382C112.979 89.2854 112.667 90.2507 112.667 91.334C112.667 92.7229 113.153 93.9034 114.125 94.8757C115.097 95.8479 116.278 96.334 117.667 96.334C118.75 96.334 119.715 96.0215 120.563 95.3965C121.41 94.7715 122.028 93.9729 122.417 93.0007H125.833C125.444 94.9173 124.486 96.5076 122.958 97.7715C121.431 99.0354 119.667 99.6673 117.667 99.6673Z" fill="#1C1B1F"/>
</g>
<path opacity="0.7" d="M41.126 160L37.878 150.2H39.768L42.666 159.062H41.728L44.738 150.2H46.418L49.344 159.062H48.434L51.402 150.2H53.138L49.89 160H47.958L45.284 152.006H45.788L43.072 160H41.126ZM58.8998 152.44C59.4971 152.44 60.0291 152.557 60.4958 152.79C60.9718 153.023 61.3451 153.383 61.6158 153.868C61.8864 154.344 62.0218 154.96 62.0218 155.716V160H60.2718V155.94C60.2718 155.277 60.1131 154.783 59.7958 154.456C59.4878 154.129 59.0538 153.966 58.4938 153.966C58.0831 153.966 57.7191 154.05 57.4018 154.218C57.0844 154.386 56.8371 154.638 56.6598 154.974C56.4918 155.301 56.4078 155.716 56.4078 156.22V160H54.6578V149.612H56.4078V154.54L56.0298 153.924C56.2911 153.448 56.6691 153.084 57.1638 152.832C57.6678 152.571 58.2464 152.44 58.8998 152.44ZM67.7694 160.098C66.9388 160.098 66.2108 159.935 65.5854 159.608C64.9694 159.272 64.4888 158.815 64.1434 158.236C63.8074 157.657 63.6394 156.999 63.6394 156.262C63.6394 155.515 63.8028 154.857 64.1294 154.288C64.4654 153.709 64.9228 153.257 65.5014 152.93C66.0894 152.603 66.7568 152.44 67.5034 152.44C68.2314 152.44 68.8801 152.599 69.4494 152.916C70.0188 153.233 70.4668 153.681 70.7934 154.26C71.1201 154.839 71.2834 155.52 71.2834 156.304C71.2834 156.379 71.2788 156.463 71.2694 156.556C71.2694 156.649 71.2648 156.738 71.2554 156.822H65.0254V155.66H70.3314L69.6454 156.024C69.6548 155.595 69.5661 155.217 69.3794 154.89C69.1928 154.563 68.9361 154.307 68.6094 154.12C68.2921 153.933 67.9234 153.84 67.5034 153.84C67.0741 153.84 66.6961 153.933 66.3694 154.12C66.0521 154.307 65.8001 154.568 65.6134 154.904C65.4361 155.231 65.3474 155.618 65.3474 156.066V156.346C65.3474 156.794 65.4501 157.191 65.6554 157.536C65.8608 157.881 66.1501 158.147 66.5234 158.334C66.8968 158.521 67.3261 158.614 67.8114 158.614C68.2314 158.614 68.6094 158.549 68.9454 158.418C69.2814 158.287 69.5801 158.082 69.8414 157.802L70.7794 158.88C70.4434 159.272 70.0188 159.575 69.5054 159.79C69.0014 159.995 68.4228 160.098 67.7694 160.098ZM76.4784 160.098C75.6477 160.098 74.9197 159.935 74.2944 159.608C73.6784 159.272 73.1977 158.815 72.8524 158.236C72.5164 157.657 72.3484 156.999 72.3484 156.262C72.3484 155.515 72.5117 154.857 72.8384 154.288C73.1744 153.709 73.6317 153.257 74.2104 152.93C74.7984 152.603 75.4657 152.44 76.2124 152.44C76.9404 152.44 77.5891 152.599 78.1584 152.916C78.7277 153.233 79.1757 153.681 79.5024 154.26C79.8291 154.839 79.9924 155.52 79.9924 156.304C79.9924 156.379 79.9877 156.463 79.9784 156.556C79.9784 156.649 79.9737 156.738 79.9644 156.822H73.7344V155.66H79.0404L78.3544 156.024C78.3637 155.595 78.2751 155.217 78.0884 154.89C77.9017 154.563 77.6451 154.307 77.3184 154.12C77.0011 153.933 76.6324 153.84 76.2124 153.84C75.7831 153.84 75.4051 153.933 75.0784 154.12C74.7611 154.307 74.5091 154.568 74.3224 154.904C74.1451 155.231 74.0564 155.618 74.0564 156.066V156.346C74.0564 156.794 74.1591 157.191 74.3644 157.536C74.5697 157.881 74.8591 158.147 75.2324 158.334C75.6057 158.521 76.0351 158.614 76.5204 158.614C76.9404 158.614 77.3184 158.549 77.6544 158.418C77.9904 158.287 78.2891 158.082 78.5504 157.802L79.4884 158.88C79.1524 159.272 78.7277 159.575 78.2144 159.79C77.7104 159.995 77.1317 160.098 76.4784 160.098ZM81.6734 160V149.612H83.4234V160H81.6734ZM93.0194 160.098C92.2354 160.098 91.5354 159.935 90.9194 159.608C90.3127 159.272 89.8367 158.815 89.4914 158.236C89.1461 157.657 88.9734 156.999 88.9734 156.262C88.9734 155.515 89.1461 154.857 89.4914 154.288C89.8367 153.709 90.3127 153.257 90.9194 152.93C91.5354 152.603 92.2354 152.44 93.0194 152.44C93.7474 152.44 94.3867 152.589 94.9374 152.888C95.4974 153.177 95.9221 153.607 96.2114 154.176L94.8674 154.96C94.6434 154.605 94.3681 154.344 94.0414 154.176C93.7241 154.008 93.3787 153.924 93.0054 153.924C92.5761 153.924 92.1887 154.017 91.8434 154.204C91.4981 154.391 91.2274 154.661 91.0314 155.016C90.8354 155.361 90.7374 155.777 90.7374 156.262C90.7374 156.747 90.8354 157.167 91.0314 157.522C91.2274 157.867 91.4981 158.133 91.8434 158.32C92.1887 158.507 92.5761 158.6 93.0054 158.6C93.3787 158.6 93.7241 158.516 94.0414 158.348C94.3681 158.18 94.6434 157.919 94.8674 157.564L96.2114 158.348C95.9221 158.908 95.4974 159.342 94.9374 159.65C94.3867 159.949 93.7474 160.098 93.0194 160.098ZM101.898 152.44C102.495 152.44 103.027 152.557 103.494 152.79C103.97 153.023 104.343 153.383 104.614 153.868C104.884 154.344 105.02 154.96 105.02 155.716V160H103.27V155.94C103.27 155.277 103.111 154.783 102.794 154.456C102.486 154.129 102.052 153.966 101.492 153.966C101.081 153.966 100.717 154.05 100.4 154.218C100.082 154.386 99.8351 154.638 99.6578 154.974C99.4898 155.301 99.4058 155.716 99.4058 156.22V160H97.6558V149.612H99.4058V154.54L99.0278 153.924C99.2891 153.448 99.6671 153.084 100.162 152.832C100.666 152.571 101.244 152.44 101.898 152.44ZM111.846 160V158.488L111.748 158.166V155.52C111.748 155.007 111.594 154.61 111.286 154.33C110.978 154.041 110.511 153.896 109.886 153.896C109.466 153.896 109.05 153.961 108.64 154.092C108.238 154.223 107.898 154.405 107.618 154.638L106.932 153.364C107.333 153.056 107.809 152.827 108.36 152.678C108.92 152.519 109.498 152.44 110.096 152.44C111.178 152.44 112.014 152.701 112.602 153.224C113.199 153.737 113.498 154.535 113.498 155.618V160H111.846ZM109.494 160.098C108.934 160.098 108.444 160.005 108.024 159.818C107.604 159.622 107.277 159.356 107.044 159.02C106.82 158.675 106.708 158.287 106.708 157.858C106.708 157.438 106.806 157.06 107.002 156.724C107.207 156.388 107.538 156.122 107.996 155.926C108.453 155.73 109.06 155.632 109.816 155.632H111.986V156.794H109.942C109.344 156.794 108.943 156.892 108.738 157.088C108.532 157.275 108.43 157.508 108.43 157.788C108.43 158.105 108.556 158.357 108.808 158.544C109.06 158.731 109.41 158.824 109.858 158.824C110.287 158.824 110.67 158.726 111.006 158.53C111.351 158.334 111.598 158.045 111.748 157.662L112.042 158.712C111.874 159.151 111.57 159.491 111.132 159.734C110.702 159.977 110.156 160.098 109.494 160.098ZM115.744 160V152.524H117.494V160H115.744ZM116.626 151.292C116.299 151.292 116.028 151.189 115.814 150.984C115.608 150.779 115.506 150.531 115.506 150.242C115.506 149.943 115.608 149.696 115.814 149.5C116.028 149.295 116.299 149.192 116.626 149.192C116.952 149.192 117.218 149.29 117.424 149.486C117.638 149.673 117.746 149.911 117.746 150.2C117.746 150.508 117.643 150.769 117.438 150.984C117.232 151.189 116.962 151.292 116.626 151.292ZM119.791 160V152.524H121.457V154.582L121.261 153.98C121.485 153.476 121.835 153.093 122.311 152.832C122.796 152.571 123.398 152.44 124.117 152.44V154.106C124.042 154.087 123.972 154.078 123.907 154.078C123.841 154.069 123.776 154.064 123.711 154.064C123.048 154.064 122.521 154.26 122.129 154.652C121.737 155.035 121.541 155.609 121.541 156.374V160H119.791ZM125.182 156.836V155.38H129.032V156.836H125.182ZM135.553 160V158.488L135.455 158.166V155.52C135.455 155.007 135.301 154.61 134.993 154.33C134.685 154.041 134.218 153.896 133.593 153.896C133.173 153.896 132.757 153.961 132.347 154.092C131.945 154.223 131.605 154.405 131.325 154.638L130.639 153.364C131.04 153.056 131.516 152.827 132.067 152.678C132.627 152.519 133.205 152.44 133.803 152.44C134.885 152.44 135.721 152.701 136.309 153.224C136.906 153.737 137.205 154.535 137.205 155.618V160H135.553ZM133.201 160.098C132.641 160.098 132.151 160.005 131.731 159.818C131.311 159.622 130.984 159.356 130.751 159.02C130.527 158.675 130.415 158.287 130.415 157.858C130.415 157.438 130.513 157.06 130.709 156.724C130.914 156.388 131.245 156.122 131.703 155.926C132.16 155.73 132.767 155.632 133.523 155.632H135.693V156.794H133.649C133.051 156.794 132.65 156.892 132.445 157.088C132.239 157.275 132.137 157.508 132.137 157.788C132.137 158.105 132.263 158.357 132.515 158.544C132.767 158.731 133.117 158.824 133.565 158.824C133.994 158.824 134.377 158.726 134.713 158.53C135.058 158.334 135.305 158.045 135.455 157.662L135.749 158.712C135.581 159.151 135.277 159.491 134.839 159.734C134.409 159.977 133.863 160.098 133.201 160.098ZM142.894 160.098C142.11 160.098 141.41 159.935 140.794 159.608C140.188 159.272 139.712 158.815 139.366 158.236C139.021 157.657 138.848 156.999 138.848 156.262C138.848 155.515 139.021 154.857 139.366 154.288C139.712 153.709 140.188 153.257 140.794 152.93C141.41 152.603 142.11 152.44 142.894 152.44C143.622 152.44 144.262 152.589 144.812 152.888C145.372 153.177 145.797 153.607 146.086 154.176L144.742 154.96C144.518 154.605 144.243 154.344 143.916 154.176C143.599 154.008 143.254 153.924 142.88 153.924C142.451 153.924 142.064 154.017 141.718 154.204C141.373 154.391 141.102 154.661 140.906 155.016C140.71 155.361 140.612 155.777 140.612 156.262C140.612 156.747 140.71 157.167 140.906 157.522C141.102 157.867 141.373 158.133 141.718 158.32C142.064 158.507 142.451 158.6 142.88 158.6C143.254 158.6 143.599 158.516 143.916 158.348C144.243 158.18 144.518 157.919 144.742 157.564L146.086 158.348C145.797 158.908 145.372 159.342 144.812 159.65C144.262 159.949 143.622 160.098 142.894 160.098ZM150.92 160.098C150.136 160.098 149.436 159.935 148.82 159.608C148.213 159.272 147.737 158.815 147.392 158.236C147.046 157.657 146.874 156.999 146.874 156.262C146.874 155.515 147.046 154.857 147.392 154.288C147.737 153.709 148.213 153.257 148.82 152.93C149.436 152.603 150.136 152.44 150.92 152.44C151.648 152.44 152.287 152.589 152.838 152.888C153.398 153.177 153.822 153.607 154.112 154.176L152.768 154.96C152.544 154.605 152.268 154.344 151.942 154.176C151.624 154.008 151.279 153.924 150.906 153.924C150.476 153.924 150.089 154.017 149.744 154.204C149.398 154.391 149.128 154.661 148.932 155.016C148.736 155.361 148.638 155.777 148.638 156.262C148.638 156.747 148.736 157.167 148.932 157.522C149.128 157.867 149.398 158.133 149.744 158.32C150.089 158.507 150.476 158.6 150.906 158.6C151.279 158.6 151.624 158.516 151.942 158.348C152.268 158.18 152.544 157.919 152.768 157.564L154.112 158.348C153.822 158.908 153.398 159.342 152.838 159.65C152.287 159.949 151.648 160.098 150.92 160.098ZM159.029 160.098C158.199 160.098 157.471 159.935 156.845 159.608C156.229 159.272 155.749 158.815 155.403 158.236C155.067 157.657 154.899 156.999 154.899 156.262C154.899 155.515 155.063 154.857 155.389 154.288C155.725 153.709 156.183 153.257 156.761 152.93C157.349 152.603 158.017 152.44 158.763 152.44C159.491 152.44 160.14 152.599 160.709 152.916C161.279 153.233 161.727 153.681 162.053 154.26C162.38 154.839 162.543 155.52 162.543 156.304C162.543 156.379 162.539 156.463 162.529 156.556C162.529 156.649 162.525 156.738 162.515 156.822H156.285V155.66H161.591L160.905 156.024C160.915 155.595 160.826 155.217 160.639 154.89C160.453 154.563 160.196 154.307 159.869 154.12C159.552 153.933 159.183 153.84 158.763 153.84C158.334 153.84 157.956 153.933 157.629 154.12C157.312 154.307 157.06 154.568 156.873 154.904C156.696 155.231 156.607 155.618 156.607 156.066V156.346C156.607 156.794 156.71 157.191 156.915 157.536C157.121 157.881 157.41 158.147 157.783 158.334C158.157 158.521 158.586 158.614 159.071 158.614C159.491 158.614 159.869 158.549 160.205 158.418C160.541 158.287 160.84 158.082 161.101 157.802L162.039 158.88C161.703 159.272 161.279 159.575 160.765 159.79C160.261 159.995 159.683 160.098 159.029 160.098ZM166.534 160.098C165.909 160.098 165.307 160.019 164.728 159.86C164.159 159.692 163.706 159.491 163.37 159.258L164.042 157.928C164.378 158.143 164.78 158.32 165.246 158.46C165.713 158.6 166.18 158.67 166.646 158.67C167.197 158.67 167.594 158.595 167.836 158.446C168.088 158.297 168.214 158.096 168.214 157.844C168.214 157.639 168.13 157.485 167.962 157.382C167.794 157.27 167.575 157.186 167.304 157.13C167.034 157.074 166.73 157.023 166.394 156.976C166.068 156.929 165.736 156.869 165.4 156.794C165.074 156.71 164.775 156.593 164.504 156.444C164.234 156.285 164.014 156.075 163.846 155.814C163.678 155.553 163.594 155.207 163.594 154.778C163.594 154.302 163.73 153.891 164 153.546C164.271 153.191 164.649 152.921 165.134 152.734C165.629 152.538 166.212 152.44 166.884 152.44C167.388 152.44 167.897 152.496 168.41 152.608C168.924 152.72 169.348 152.879 169.684 153.084L169.012 154.414C168.658 154.199 168.298 154.055 167.934 153.98C167.58 153.896 167.225 153.854 166.87 153.854C166.338 153.854 165.942 153.933 165.68 154.092C165.428 154.251 165.302 154.451 165.302 154.694C165.302 154.918 165.386 155.086 165.554 155.198C165.722 155.31 165.942 155.399 166.212 155.464C166.483 155.529 166.782 155.585 167.108 155.632C167.444 155.669 167.776 155.73 168.102 155.814C168.429 155.898 168.728 156.015 168.998 156.164C169.278 156.304 169.502 156.505 169.67 156.766C169.838 157.027 169.922 157.368 169.922 157.788C169.922 158.255 169.782 158.661 169.502 159.006C169.232 159.351 168.844 159.622 168.34 159.818C167.836 160.005 167.234 160.098 166.534 160.098ZM173.739 160.098C173.114 160.098 172.512 160.019 171.933 159.86C171.364 159.692 170.911 159.491 170.575 159.258L171.247 157.928C171.583 158.143 171.985 158.32 172.451 158.46C172.918 158.6 173.385 158.67 173.851 158.67C174.402 158.67 174.799 158.595 175.041 158.446C175.293 158.297 175.419 158.096 175.419 157.844C175.419 157.639 175.335 157.485 175.167 157.382C174.999 157.27 174.78 157.186 174.509 157.13C174.239 157.074 173.935 157.023 173.599 156.976C173.273 156.929 172.941 156.869 172.605 156.794C172.279 156.71 171.98 156.593 171.709 156.444C171.439 156.285 171.219 156.075 171.051 155.814C170.883 155.553 170.799 155.207 170.799 154.778C170.799 154.302 170.935 153.891 171.205 153.546C171.476 153.191 171.854 152.921 172.339 152.734C172.834 152.538 173.417 152.44 174.089 152.44C174.593 152.44 175.102 152.496 175.615 152.608C176.129 152.72 176.553 152.879 176.889 153.084L176.217 154.414C175.863 154.199 175.503 154.055 175.139 153.98C174.785 153.896 174.43 153.854 174.075 153.854C173.543 153.854 173.147 153.933 172.885 154.092C172.633 154.251 172.507 154.451 172.507 154.694C172.507 154.918 172.591 155.086 172.759 155.198C172.927 155.31 173.147 155.399 173.417 155.464C173.688 155.529 173.987 155.585 174.313 155.632C174.649 155.669 174.981 155.73 175.307 155.814C175.634 155.898 175.933 156.015 176.203 156.164C176.483 156.304 176.707 156.505 176.875 156.766C177.043 157.027 177.127 157.368 177.127 157.788C177.127 158.255 176.987 158.661 176.707 159.006C176.437 159.351 176.049 159.622 175.545 159.818C175.041 160.005 174.439 160.098 173.739 160.098ZM178.634 160V152.524H180.384V160H178.634ZM179.516 151.292C179.19 151.292 178.919 151.189 178.704 150.984C178.499 150.779 178.396 150.531 178.396 150.242C178.396 149.943 178.499 149.696 178.704 149.5C178.919 149.295 179.19 149.192 179.516 149.192C179.843 149.192 180.109 149.29 180.314 149.486C180.529 149.673 180.636 149.911 180.636 150.2C180.636 150.508 180.534 150.769 180.328 150.984C180.123 151.189 179.852 151.292 179.516 151.292ZM186.825 160.098C186.191 160.098 185.626 159.958 185.131 159.678C184.637 159.398 184.245 158.978 183.955 158.418C183.675 157.849 183.535 157.13 183.535 156.262C183.535 155.385 183.68 154.666 183.969 154.106C184.268 153.546 184.665 153.131 185.159 152.86C185.663 152.58 186.219 152.44 186.825 152.44C187.563 152.44 188.211 152.599 188.771 152.916C189.341 153.233 189.789 153.677 190.115 154.246C190.451 154.815 190.619 155.487 190.619 156.262C190.619 157.037 190.451 157.709 190.115 158.278C189.789 158.847 189.341 159.295 188.771 159.622C188.211 159.939 187.563 160.098 186.825 160.098ZM182.681 160V149.612H184.431V154.26L184.291 156.248L184.347 158.236V160H182.681ZM186.629 158.6C187.049 158.6 187.423 158.507 187.749 158.32C188.085 158.133 188.351 157.863 188.547 157.508C188.743 157.153 188.841 156.738 188.841 156.262C188.841 155.777 188.743 155.361 188.547 155.016C188.351 154.661 188.085 154.391 187.749 154.204C187.423 154.017 187.049 153.924 186.629 153.924C186.209 153.924 185.831 154.017 185.495 154.204C185.159 154.391 184.893 154.661 184.697 155.016C184.501 155.361 184.403 155.777 184.403 156.262C184.403 156.738 184.501 157.153 184.697 157.508C184.893 157.863 185.159 158.133 185.495 158.32C185.831 158.507 186.209 158.6 186.629 158.6ZM192.279 160V149.612H194.029V160H192.279ZM199.84 160.098C199.009 160.098 198.281 159.935 197.656 159.608C197.04 159.272 196.559 158.815 196.214 158.236C195.878 157.657 195.71 156.999 195.71 156.262C195.71 155.515 195.873 154.857 196.2 154.288C196.536 153.709 196.993 153.257 197.572 152.93C198.16 152.603 198.827 152.44 199.574 152.44C200.302 152.44 200.95 152.599 201.52 152.916C202.089 153.233 202.537 153.681 202.864 154.26C203.19 154.839 203.354 155.52 203.354 156.304C203.354 156.379 203.349 156.463 203.34 156.556C203.34 156.649 203.335 156.738 203.326 156.822H197.096V155.66H202.402L201.716 156.024C201.725 155.595 201.636 155.217 201.45 154.89C201.263 154.563 201.006 154.307 200.68 154.12C200.362 153.933 199.994 153.84 199.574 153.84C199.144 153.84 198.766 153.933 198.44 154.12C198.122 154.307 197.87 154.568 197.684 154.904C197.506 155.231 197.418 155.618 197.418 156.066V156.346C197.418 156.794 197.52 157.191 197.726 157.536C197.931 157.881 198.22 158.147 198.594 158.334C198.967 158.521 199.396 158.614 199.882 158.614C200.302 158.614 200.68 158.549 201.016 158.418C201.352 158.287 201.65 158.082 201.912 157.802L202.85 158.88C202.514 159.272 202.089 159.575 201.576 159.79C201.072 159.995 200.493 160.098 199.84 160.098Z" fill="black"/>
</g>
<defs>
<filter id="filter0_d_1802_3185" x="0" y="0" width="243" height="243" filterUnits="userSpaceOnUse" color-interpolation-filters="sRGB">
<feFlood flood-opacity="0" result="BackgroundImageFix"/>
<feColorMatrix in="SourceAlpha" type="matrix" values="0 0 0 0 0 0 0 0 0 0 0 0 0 0 0 0 0 0 127 0" result="hardAlpha"/>
<feOffset dy="4"/>
<feGaussianBlur stdDeviation="2"/>
<feComposite in2="hardAlpha" operator="out"/>
<feColorMatrix type="matrix" values="0 0 0 0 0 0 0 0 0 0 0 0 0 0 0 0 0 0 0.25 0"/>
<feBlend mode="normal" in2="BackgroundImageFix" result="effect1_dropShadow_1802_3185"/>
<feBlend mode="normal" in="SourceGraphic" in2="effect1_dropShadow_1802_3185" result="shape"/>
</filter>
</defs>
</svg>
