<svg width="60" height="60" viewBox="0 0 60 60" fill="none" xmlns="http://www.w3.org/2000/svg">
<g opacity="0.8">
<mask id="mask0_39_1700" style="mask-type:alpha" maskUnits="userSpaceOnUse" x="0" y="0" width="60" height="60">
<rect width="60" height="60" fill="#D9D9D9"/>
</mask>
<g mask="url(#mask0_39_1700)">
<path d="M23.75 13.75C22.375 13.75 21.1979 13.2604 20.2187 12.2812C19.2396 11.3021 18.75 10.125 18.75 8.75C18.75 7.375 19.2396 6.19792 20.2187 5.21875C21.1979 4.23958 22.375 3.75 23.75 3.75C25.125 3.75 26.3021 4.23958 27.2812 5.21875C28.2604 6.19792 28.75 7.375 28.75 8.75C28.75 10.125 28.2604 11.3021 27.2812 12.2812C26.3021 13.2604 25.125 13.75 23.75 13.75ZM7.5 57.5L14.375 22.25L10 24.125V32.5H5V20.75L18.125 15.375C19.25 14.9167 20.3958 14.8646 21.5625 15.2188C22.7292 15.5729 23.625 16.2917 24.25 17.375L26.625 21.375C27.75 23.2083 29.2604 24.6875 31.1562 25.8125C33.0521 26.9375 35.1667 27.5 37.5 27.5V32.5C34.75 32.5 32.1979 31.9167 29.8437 30.75C27.4896 29.5833 25.5 28 23.875 26L22.375 33.5L27.5 38.625V57.5H22.5V42.5L17.125 37.5L12.75 57.5H7.5ZM41.875 57.5V22.5H32.5V5H55V22.5H45.625V57.5H41.875ZM45.0625 19.9375L51.25 13.75L45.0625 7.5625L42.375 10.25L44 11.875H36.25V15.625H44L42.375 17.25L45.0625 19.9375Z" fill="#1C1B1F"/>
</g>
</g>
</svg>
