<svg width="80" height="80" viewBox="0 0 80 80" fill="none" xmlns="http://www.w3.org/2000/svg">
<g opacity="0.7">
<mask id="mask0_124_687" style="mask-type:alpha" maskUnits="userSpaceOnUse" x="0" y="0" width="80" height="80">
<rect width="80" height="80" fill="#D9D9D9"/>
</mask>
<g mask="url(#mask0_124_687)">
<path d="M14.2471 63.4362H10.9137L8.74707 56.7695H4.24707V40.0195C4.24707 38.1862 4.89985 36.6306 6.2054 35.3529C7.51096 34.0751 9.0804 33.4362 10.9137 33.4362V23.4362C10.9137 21.6029 11.5665 20.0334 12.8721 18.7279C14.1776 17.4223 15.7471 16.7695 17.5804 16.7695H57.5804C59.4137 16.7695 60.9832 17.4223 62.2887 18.7279C63.5943 20.0334 64.2471 21.6029 64.2471 23.4362V33.4362C66.0804 33.4362 67.6498 34.089 68.9554 35.3945C70.261 36.7001 70.9137 38.2695 70.9137 40.1029V56.7695H66.4137L64.2471 63.4362H60.9137L58.7471 56.7695H16.4137L14.2471 63.4362ZM40.9137 33.4362H57.5804V23.4362H40.9137H34.2471H17.5804V33.4362H34.2471V23.4362H40.9137V33.4362ZM10.9137 50.1029H64.2471V40.1029H10.9137V50.1029Z" fill="#1C1B1F"/>
</g>
</g>
</svg>
