<svg width="19" height="20" viewBox="0 0 19 20" fill="none" xmlns="http://www.w3.org/2000/svg">
<path d="M2.52889 20C1.97846 20 1.50727 19.8042 1.1153 19.4125C0.723329 19.0208 0.527344 18.55 0.527344 18V4C0.527344 3.45 0.723329 2.97917 1.1153 2.5875C1.50727 2.19583 1.97846 2 2.52889 2H3.52966V0H5.53121V2H13.5374V0H15.5389V2H16.5397C17.0901 2 17.5613 2.19583 17.9533 2.5875C18.3453 2.97917 18.5413 3.45 18.5413 4V18C18.5413 18.55 18.3453 19.0208 17.9533 19.4125C17.5613 19.8042 17.0901 20 16.5397 20H2.52889ZM2.52889 18H16.5397V8H2.52889V18ZM2.52889 6H16.5397V4H2.52889V6ZM9.5343 12C9.25075 12 9.01307 11.9042 8.82125 11.7125C8.62944 11.5208 8.53353 11.2833 8.53353 11C8.53353 10.7167 8.62944 10.4792 8.82125 10.2875C9.01307 10.0958 9.25075 10 9.5343 10C9.81785 10 10.0555 10.0958 10.2474 10.2875C10.4392 10.4792 10.5351 10.7167 10.5351 11C10.5351 11.2833 10.4392 11.5208 10.2474 11.7125C10.0555 11.9042 9.81785 12 9.5343 12ZM5.53121 12C5.24766 12 5.00997 11.9042 4.81816 11.7125C4.62634 11.5208 4.53044 11.2833 4.53044 11C4.53044 10.7167 4.62634 10.4792 4.81816 10.2875C5.00997 10.0958 5.24766 10 5.53121 10C5.81476 10 6.05245 10.0958 6.24426 10.2875C6.43607 10.4792 6.53198 10.7167 6.53198 11C6.53198 11.2833 6.43607 11.5208 6.24426 11.7125C6.05245 11.9042 5.81476 12 5.53121 12ZM13.5374 12C13.2538 12 13.0162 11.9042 12.8243 11.7125C12.6325 11.5208 12.5366 11.2833 12.5366 11C12.5366 10.7167 12.6325 10.4792 12.8243 10.2875C13.0162 10.0958 13.2538 10 13.5374 10C13.8209 10 14.0586 10.0958 14.2504 10.2875C14.4423 10.4792 14.5382 10.7167 14.5382 11C14.5382 11.2833 14.4423 11.5208 14.2504 11.7125C14.0586 11.9042 13.8209 12 13.5374 12ZM9.5343 16C9.25075 16 9.01307 15.9042 8.82125 15.7125C8.62944 15.5208 8.53353 15.2833 8.53353 15C8.53353 14.7167 8.62944 14.4792 8.82125 14.2875C9.01307 14.0958 9.25075 14 9.5343 14C9.81785 14 10.0555 14.0958 10.2474 14.2875C10.4392 14.4792 10.5351 14.7167 10.5351 15C10.5351 15.2833 10.4392 15.5208 10.2474 15.7125C10.0555 15.9042 9.81785 16 9.5343 16ZM5.53121 16C5.24766 16 5.00997 15.9042 4.81816 15.7125C4.62634 15.5208 4.53044 15.2833 4.53044 15C4.53044 14.7167 4.62634 14.4792 4.81816 14.2875C5.00997 14.0958 5.24766 14 5.53121 14C5.81476 14 6.05245 14.0958 6.24426 14.2875C6.43607 14.4792 6.53198 14.7167 6.53198 15C6.53198 15.2833 6.43607 15.5208 6.24426 15.7125C6.05245 15.9042 5.81476 16 5.53121 16ZM13.5374 16C13.2538 16 13.0162 15.9042 12.8243 15.7125C12.6325 15.5208 12.5366 15.2833 12.5366 15C12.5366 14.7167 12.6325 14.4792 12.8243 14.2875C13.0162 14.0958 13.2538 14 13.5374 14C13.8209 14 14.0586 14.0958 14.2504 14.2875C14.4423 14.4792 14.5382 14.7167 14.5382 15C14.5382 15.2833 14.4423 15.5208 14.2504 15.7125C14.0586 15.9042 13.8209 16 13.5374 16Z" fill="#1C1B1F"/>
</svg>
