<svg width="246" height="37" viewBox="0 0 246 37" fill="none" xmlns="http://www.w3.org/2000/svg">
<path d="M11.096 29.304C8.68933 29.304 6.81467 28.696 5.472 27.48C4.12933 26.2387 3.458 24.402 3.458 21.97V4.034H9.386V21.894C9.386 22.7553 9.614 23.4267 10.07 23.908C10.526 24.364 11.1467 24.592 11.932 24.592C12.8693 24.592 13.6673 24.3387 14.326 23.832L15.922 28.012C15.314 28.4427 14.5793 28.772 13.718 29C12.882 29.2027 12.008 29.304 11.096 29.304ZM0.304 13.572V9.012H14.478V13.572H0.304ZM19.2497 29V8.556H24.9117V14.332L24.1137 12.66C24.7217 11.216 25.697 10.1267 27.0397 9.392C28.3823 8.632 30.0163 8.252 31.9417 8.252V13.724C31.6883 13.6987 31.4603 13.686 31.2577 13.686C31.055 13.6607 30.8397 13.648 30.6117 13.648C28.9903 13.648 27.673 14.1167 26.6597 15.054C25.6717 15.966 25.1777 17.3973 25.1777 19.348V29H19.2497ZM46.6705 29V25.01L46.2905 24.136V16.992C46.2905 15.7253 45.8979 14.7373 45.1125 14.028C44.3525 13.3187 43.1745 12.964 41.5785 12.964C40.4892 12.964 39.4125 13.1413 38.3485 13.496C37.3099 13.8253 36.4232 14.2813 35.6885 14.864L33.5605 10.722C34.6752 9.93667 36.0179 9.32867 37.5885 8.898C39.1592 8.46733 40.7552 8.252 42.3765 8.252C45.4925 8.252 47.9119 8.98667 49.6345 10.456C51.3572 11.9253 52.2185 14.218 52.2185 17.334V29H46.6705ZM40.4385 29.304C38.8425 29.304 37.4745 29.038 36.3345 28.506C35.1945 27.9487 34.3205 27.2013 33.7125 26.264C33.1045 25.3267 32.8005 24.2753 32.8005 23.11C32.8005 21.894 33.0919 20.83 33.6745 19.918C34.2825 19.006 35.2325 18.2967 36.5245 17.79C37.8165 17.258 39.5012 16.992 41.5785 16.992H47.0125V20.45H42.2245C40.8312 20.45 39.8685 20.678 39.3365 21.134C38.8299 21.59 38.5765 22.16 38.5765 22.844C38.5765 23.604 38.8679 24.212 39.4505 24.668C40.0585 25.0987 40.8819 25.314 41.9205 25.314C42.9085 25.314 43.7952 25.086 44.5805 24.63C45.3659 24.1487 45.9359 23.452 46.2905 22.54L47.2025 25.276C46.7719 26.5933 45.9865 27.594 44.8465 28.278C43.7065 28.962 42.2372 29.304 40.4385 29.304ZM62.7606 29L54.1726 8.556H60.2906L67.4346 26.15H64.3946L71.8046 8.556H77.5046L68.8786 29H62.7606ZM89.5129 29.304C87.1822 29.304 85.1302 28.848 83.3569 27.936C81.6089 27.024 80.2535 25.7827 79.2909 24.212C78.3282 22.616 77.8469 20.8047 77.8469 18.778C77.8469 16.726 78.3155 14.9147 79.2529 13.344C80.2155 11.748 81.5202 10.5067 83.1669 9.62C84.8135 8.708 86.6755 8.252 88.7529 8.252C90.7542 8.252 92.5529 8.68267 94.1489 9.544C95.7702 10.38 97.0495 11.596 97.9869 13.192C98.9242 14.7627 99.3929 16.65 99.3929 18.854C99.3929 19.082 99.3802 19.348 99.3549 19.652C99.3295 19.9307 99.3042 20.1967 99.2789 20.45H82.6729V16.992H96.1629L93.8829 18.018C93.8829 16.954 93.6675 16.0293 93.2369 15.244C92.8062 14.4587 92.2109 13.8507 91.4509 13.42C90.6909 12.964 89.8042 12.736 88.7909 12.736C87.7775 12.736 86.8782 12.964 86.0929 13.42C85.3329 13.8507 84.7375 14.4713 84.3069 15.282C83.8762 16.0673 83.6609 17.0047 83.6609 18.094V19.006C83.6609 20.1207 83.9015 21.1087 84.3829 21.97C84.8895 22.806 85.5862 23.452 86.4729 23.908C87.3849 24.3387 88.4489 24.554 89.6649 24.554C90.7542 24.554 91.7042 24.3893 92.5149 24.06C93.3509 23.7307 94.1109 23.2367 94.7949 22.578L97.9489 25.998C97.0115 27.062 95.8335 27.8853 94.4149 28.468C92.9962 29.0253 91.3622 29.304 89.5129 29.304ZM103.34 29V0.803998H109.268V29H103.34Z" fill="black"/>
<path d="M127.917 29.456C125.865 29.456 123.953 29.1267 122.179 28.468C120.431 27.784 118.911 26.8213 117.619 25.58C116.327 24.3387 115.314 22.882 114.579 21.21C113.87 19.538 113.515 17.7013 113.515 15.7C113.515 13.6987 113.87 11.862 114.579 10.19C115.314 8.518 116.327 7.06133 117.619 5.82C118.937 4.57867 120.469 3.62866 122.217 2.97C123.965 2.286 125.878 1.944 127.955 1.944C130.261 1.944 132.338 2.34933 134.187 3.16C136.062 3.94533 137.633 5.11067 138.899 6.656L134.947 10.304C134.035 9.26533 133.022 8.49266 131.907 7.986C130.793 7.454 129.577 7.188 128.259 7.188C127.018 7.188 125.878 7.39067 124.839 7.796C123.801 8.20133 122.901 8.784 122.141 9.544C121.381 10.304 120.786 11.2033 120.355 12.242C119.95 13.2807 119.747 14.4333 119.747 15.7C119.747 16.9667 119.95 18.1193 120.355 19.158C120.786 20.1967 121.381 21.096 122.141 21.856C122.901 22.616 123.801 23.1987 124.839 23.604C125.878 24.0093 127.018 24.212 128.259 24.212C129.577 24.212 130.793 23.9587 131.907 23.452C133.022 22.92 134.035 22.122 134.947 21.058L138.899 24.706C137.633 26.2513 136.062 27.4293 134.187 28.24C132.338 29.0507 130.248 29.456 127.917 29.456ZM152.079 29.304C149.749 29.304 147.697 28.848 145.923 27.936C144.175 27.024 142.82 25.7827 141.857 24.212C140.895 22.616 140.413 20.8047 140.413 18.778C140.413 16.726 140.882 14.9147 141.819 13.344C142.782 11.748 144.087 10.5067 145.733 9.62C147.38 8.708 149.242 8.252 151.319 8.252C153.321 8.252 155.119 8.68267 156.715 9.544C158.337 10.38 159.616 11.596 160.553 13.192C161.491 14.7627 161.959 16.65 161.959 18.854C161.959 19.082 161.947 19.348 161.921 19.652C161.896 19.9307 161.871 20.1967 161.845 20.45H145.239V16.992H158.729L156.449 18.018C156.449 16.954 156.234 16.0293 155.803 15.244C155.373 14.4587 154.777 13.8507 154.017 13.42C153.257 12.964 152.371 12.736 151.357 12.736C150.344 12.736 149.445 12.964 148.659 13.42C147.899 13.8507 147.304 14.4713 146.873 15.282C146.443 16.0673 146.227 17.0047 146.227 18.094V19.006C146.227 20.1207 146.468 21.1087 146.949 21.97C147.456 22.806 148.153 23.452 149.039 23.908C149.951 24.3387 151.015 24.554 152.231 24.554C153.321 24.554 154.271 24.3893 155.081 24.06C155.917 23.7307 156.677 23.2367 157.361 22.578L160.515 25.998C159.578 27.062 158.4 27.8853 156.981 28.468C155.563 29.0253 153.929 29.304 152.079 29.304ZM168.119 36.676C167.055 36.676 166.003 36.5113 164.965 36.182C163.926 35.8527 163.077 35.3967 162.419 34.814L164.585 30.596C165.041 31.0013 165.56 31.318 166.143 31.546C166.751 31.774 167.346 31.888 167.929 31.888C168.765 31.888 169.423 31.6853 169.905 31.28C170.411 30.9 170.867 30.254 171.273 29.342L172.337 26.834L172.793 26.188L180.127 8.556H185.827L176.593 30.254C175.934 31.9007 175.174 33.1927 174.313 34.13C173.477 35.0673 172.539 35.726 171.501 36.106C170.487 36.486 169.36 36.676 168.119 36.676ZM171.615 29.798L162.495 8.556H168.613L175.681 25.656L171.615 29.798ZM188.246 29V0.803998H194.174V29H188.246ZM209.403 29.304C207.225 29.304 205.287 28.848 203.589 27.936C201.917 27.024 200.587 25.7827 199.599 24.212C198.637 22.616 198.155 20.8047 198.155 18.778C198.155 16.726 198.637 14.9147 199.599 13.344C200.587 11.748 201.917 10.5067 203.589 9.62C205.287 8.708 207.225 8.252 209.403 8.252C211.557 8.252 213.482 8.708 215.179 9.62C216.877 10.5067 218.207 11.7353 219.169 13.306C220.132 14.8767 220.613 16.7007 220.613 18.778C220.613 20.8047 220.132 22.616 219.169 24.212C218.207 25.7827 216.877 27.024 215.179 27.936C213.482 28.848 211.557 29.304 209.403 29.304ZM209.403 24.44C210.391 24.44 211.278 24.212 212.063 23.756C212.849 23.3 213.469 22.654 213.925 21.818C214.381 20.9567 214.609 19.9433 214.609 18.778C214.609 17.5873 214.381 16.574 213.925 15.738C213.469 14.902 212.849 14.256 212.063 13.8C211.278 13.344 210.391 13.116 209.403 13.116C208.415 13.116 207.529 13.344 206.743 13.8C205.958 14.256 205.325 14.902 204.843 15.738C204.387 16.574 204.159 17.5873 204.159 18.778C204.159 19.9433 204.387 20.9567 204.843 21.818C205.325 22.654 205.958 23.3 206.743 23.756C207.529 24.212 208.415 24.44 209.403 24.44ZM237.002 8.252C238.623 8.252 240.067 8.58133 241.334 9.24C242.626 9.87333 243.639 10.8613 244.374 12.204C245.109 13.5213 245.476 15.2187 245.476 17.296V29H239.548V18.208C239.548 16.5613 239.181 15.3453 238.446 14.56C237.737 13.7747 236.723 13.382 235.406 13.382C234.469 13.382 233.62 13.5847 232.86 13.99C232.125 14.37 231.543 14.9653 231.112 15.776C230.707 16.5867 230.504 17.6253 230.504 18.892V29H224.576V8.556H230.238V14.218L229.174 12.508C229.909 11.14 230.96 10.0887 232.328 9.354C233.696 8.61933 235.254 8.252 237.002 8.252Z" fill="white"/>
</svg>
