<svg width="250" height="56" viewBox="0 0 250 56" fill="none" xmlns="http://www.w3.org/2000/svg">
<path d="M11.096 37.304C8.68933 37.304 6.81467 36.696 5.472 35.48C4.12933 34.2387 3.458 32.402 3.458 29.97V12.034H9.386V29.894C9.386 30.7553 9.614 31.4267 10.07 31.908C10.526 32.364 11.1467 32.592 11.932 32.592C12.8693 32.592 13.6673 32.3387 14.326 31.832L15.922 36.012C15.314 36.4427 14.5793 36.772 13.718 37C12.882 37.2027 12.008 37.304 11.096 37.304ZM0.304 21.572V17.012H14.478V21.572H0.304ZM19.2497 37V16.556H24.9117V22.332L24.1137 20.66C24.7217 19.216 25.697 18.1267 27.0397 17.392C28.3823 16.632 30.0163 16.252 31.9417 16.252V21.724C31.6883 21.6987 31.4603 21.686 31.2577 21.686C31.055 21.6607 30.8397 21.648 30.6117 21.648C28.9903 21.648 27.673 22.1167 26.6597 23.054C25.6717 23.966 25.1777 25.3973 25.1777 27.348V37H19.2497ZM46.6705 37V33.01L46.2905 32.136V24.992C46.2905 23.7253 45.8979 22.7373 45.1125 22.028C44.3525 21.3187 43.1745 20.964 41.5785 20.964C40.4892 20.964 39.4125 21.1413 38.3485 21.496C37.3099 21.8253 36.4232 22.2813 35.6885 22.864L33.5605 18.722C34.6752 17.9367 36.0179 17.3287 37.5885 16.898C39.1592 16.4673 40.7552 16.252 42.3765 16.252C45.4925 16.252 47.9119 16.9867 49.6345 18.456C51.3572 19.9253 52.2185 22.218 52.2185 25.334V37H46.6705ZM40.4385 37.304C38.8425 37.304 37.4745 37.038 36.3345 36.506C35.1945 35.9487 34.3205 35.2013 33.7125 34.264C33.1045 33.3267 32.8005 32.2753 32.8005 31.11C32.8005 29.894 33.0919 28.83 33.6745 27.918C34.2825 27.006 35.2325 26.2967 36.5245 25.79C37.8165 25.258 39.5012 24.992 41.5785 24.992H47.0125V28.45H42.2245C40.8312 28.45 39.8685 28.678 39.3365 29.134C38.8299 29.59 38.5765 30.16 38.5765 30.844C38.5765 31.604 38.8679 32.212 39.4505 32.668C40.0585 33.0987 40.8819 33.314 41.9205 33.314C42.9085 33.314 43.7952 33.086 44.5805 32.63C45.3659 32.1487 45.9359 31.452 46.2905 30.54L47.2025 33.276C46.7719 34.5933 45.9865 35.594 44.8465 36.278C43.7065 36.962 42.2372 37.304 40.4385 37.304ZM62.7606 37L54.1726 16.556H60.2906L67.4346 34.15H64.3946L71.8046 16.556H77.5046L68.8786 37H62.7606ZM89.5129 37.304C87.1822 37.304 85.1302 36.848 83.3569 35.936C81.6089 35.024 80.2535 33.7827 79.2909 32.212C78.3282 30.616 77.8469 28.8047 77.8469 26.778C77.8469 24.726 78.3155 22.9147 79.2529 21.344C80.2155 19.748 81.5202 18.5067 83.1669 17.62C84.8135 16.708 86.6755 16.252 88.7529 16.252C90.7542 16.252 92.5529 16.6827 94.1489 17.544C95.7702 18.38 97.0495 19.596 97.9869 21.192C98.9242 22.7627 99.3929 24.65 99.3929 26.854C99.3929 27.082 99.3802 27.348 99.3549 27.652C99.3295 27.9307 99.3042 28.1967 99.2789 28.45H82.6729V24.992H96.1629L93.8829 26.018C93.8829 24.954 93.6675 24.0293 93.2369 23.244C92.8062 22.4587 92.2109 21.8507 91.4509 21.42C90.6909 20.964 89.8042 20.736 88.7909 20.736C87.7775 20.736 86.8782 20.964 86.0929 21.42C85.3329 21.8507 84.7375 22.4713 84.3069 23.282C83.8762 24.0673 83.6609 25.0047 83.6609 26.094V27.006C83.6609 28.1207 83.9015 29.1087 84.3829 29.97C84.8895 30.806 85.5862 31.452 86.4729 31.908C87.3849 32.3387 88.4489 32.554 89.6649 32.554C90.7542 32.554 91.7042 32.3893 92.5149 32.06C93.3509 31.7307 94.1109 31.2367 94.7949 30.578L97.9489 33.998C97.0115 35.062 95.8335 35.8853 94.4149 36.468C92.9962 37.0253 91.3622 37.304 89.5129 37.304ZM103.34 37V8.804H109.268V37H103.34Z" fill="black"/>
<path d="M127.917 37.456C125.865 37.456 123.953 37.1267 122.179 36.468C120.431 35.784 118.911 34.8213 117.619 33.58C116.327 32.3387 115.314 30.882 114.579 29.21C113.87 27.538 113.515 25.7013 113.515 23.7C113.515 21.6987 113.87 19.862 114.579 18.19C115.314 16.518 116.327 15.0613 117.619 13.82C118.937 12.5787 120.469 11.6287 122.217 10.97C123.965 10.286 125.878 9.944 127.955 9.944C130.261 9.944 132.338 10.3493 134.187 11.16C136.062 11.9453 137.633 13.1107 138.899 14.656L134.947 18.304C134.035 17.2653 133.022 16.4927 131.907 15.986C130.793 15.454 129.577 15.188 128.259 15.188C127.018 15.188 125.878 15.3907 124.839 15.796C123.801 16.2013 122.901 16.784 122.141 17.544C121.381 18.304 120.786 19.2033 120.355 20.242C119.95 21.2807 119.747 22.4333 119.747 23.7C119.747 24.9667 119.95 26.1193 120.355 27.158C120.786 28.1967 121.381 29.096 122.141 29.856C122.901 30.616 123.801 31.1987 124.839 31.604C125.878 32.0093 127.018 32.212 128.259 32.212C129.577 32.212 130.793 31.9587 131.907 31.452C133.022 30.92 134.035 30.122 134.947 29.058L138.899 32.706C137.633 34.2513 136.062 35.4293 134.187 36.24C132.338 37.0507 130.248 37.456 127.917 37.456ZM152.079 37.304C149.749 37.304 147.697 36.848 145.923 35.936C144.175 35.024 142.82 33.7827 141.857 32.212C140.895 30.616 140.413 28.8047 140.413 26.778C140.413 24.726 140.882 22.9147 141.819 21.344C142.782 19.748 144.087 18.5067 145.733 17.62C147.38 16.708 149.242 16.252 151.319 16.252C153.321 16.252 155.119 16.6827 156.715 17.544C158.337 18.38 159.616 19.596 160.553 21.192C161.491 22.7627 161.959 24.65 161.959 26.854C161.959 27.082 161.947 27.348 161.921 27.652C161.896 27.9307 161.871 28.1967 161.845 28.45H145.239V24.992H158.729L156.449 26.018C156.449 24.954 156.234 24.0293 155.803 23.244C155.373 22.4587 154.777 21.8507 154.017 21.42C153.257 20.964 152.371 20.736 151.357 20.736C150.344 20.736 149.445 20.964 148.659 21.42C147.899 21.8507 147.304 22.4713 146.873 23.282C146.443 24.0673 146.227 25.0047 146.227 26.094V27.006C146.227 28.1207 146.468 29.1087 146.949 29.97C147.456 30.806 148.153 31.452 149.039 31.908C149.951 32.3387 151.015 32.554 152.231 32.554C153.321 32.554 154.271 32.3893 155.081 32.06C155.917 31.7307 156.677 31.2367 157.361 30.578L160.515 33.998C159.578 35.062 158.4 35.8853 156.981 36.468C155.563 37.0253 153.929 37.304 152.079 37.304ZM168.119 44.676C167.055 44.676 166.003 44.5113 164.965 44.182C163.926 43.8527 163.077 43.3967 162.419 42.814L164.585 38.596C165.041 39.0013 165.56 39.318 166.143 39.546C166.751 39.774 167.346 39.888 167.929 39.888C168.765 39.888 169.423 39.6853 169.905 39.28C170.411 38.9 170.867 38.254 171.273 37.342L172.337 34.834L172.793 34.188L180.127 16.556H185.827L176.593 38.254C175.934 39.9007 175.174 41.1927 174.313 42.13C173.477 43.0673 172.539 43.726 171.501 44.106C170.487 44.486 169.36 44.676 168.119 44.676ZM171.615 37.798L162.495 16.556H168.613L175.681 33.656L171.615 37.798ZM188.246 37V8.804H194.174V37H188.246ZM209.403 37.304C207.225 37.304 205.287 36.848 203.589 35.936C201.917 35.024 200.587 33.7827 199.599 32.212C198.637 30.616 198.155 28.8047 198.155 26.778C198.155 24.726 198.637 22.9147 199.599 21.344C200.587 19.748 201.917 18.5067 203.589 17.62C205.287 16.708 207.225 16.252 209.403 16.252C211.557 16.252 213.482 16.708 215.179 17.62C216.877 18.5067 218.207 19.7353 219.169 21.306C220.132 22.8767 220.613 24.7007 220.613 26.778C220.613 28.8047 220.132 30.616 219.169 32.212C218.207 33.7827 216.877 35.024 215.179 35.936C213.482 36.848 211.557 37.304 209.403 37.304ZM209.403 32.44C210.391 32.44 211.278 32.212 212.063 31.756C212.849 31.3 213.469 30.654 213.925 29.818C214.381 28.9567 214.609 27.9433 214.609 26.778C214.609 25.5873 214.381 24.574 213.925 23.738C213.469 22.902 212.849 22.256 212.063 21.8C211.278 21.344 210.391 21.116 209.403 21.116C208.415 21.116 207.529 21.344 206.743 21.8C205.958 22.256 205.325 22.902 204.843 23.738C204.387 24.574 204.159 25.5873 204.159 26.778C204.159 27.9433 204.387 28.9567 204.843 29.818C205.325 30.654 205.958 31.3 206.743 31.756C207.529 32.212 208.415 32.44 209.403 32.44ZM237.002 16.252C238.623 16.252 240.067 16.5813 241.334 17.24C242.626 17.8733 243.639 18.8613 244.374 20.204C245.109 21.5213 245.476 23.2187 245.476 25.296V37H239.548V26.208C239.548 24.5613 239.181 23.3453 238.446 22.56C237.737 21.7747 236.723 21.382 235.406 21.382C234.469 21.382 233.62 21.5847 232.86 21.99C232.125 22.37 231.543 22.9653 231.112 23.776C230.707 24.5867 230.504 25.6253 230.504 26.892V37H224.576V16.556H230.238V22.218L229.174 20.508C229.909 19.14 230.96 18.0887 232.328 17.354C233.696 16.6193 235.254 16.252 237.002 16.252Z" fill="#8DD3BB"/>
</svg>
