<svg width="207" height="31" viewBox="0 0 207 31" fill="none" xmlns="http://www.w3.org/2000/svg">
<path d="M9.344 24.256C7.31733 24.256 5.73867 23.744 4.608 22.72C3.47733 21.6747 2.912 20.128 2.912 18.08V2.976H7.904V18.016C7.904 18.7413 8.096 19.3067 8.48 19.712C8.864 20.096 9.38667 20.288 10.048 20.288C10.8373 20.288 11.5093 20.0747 12.064 19.648L13.408 23.168C12.896 23.5307 12.2773 23.808 11.552 24C10.848 24.1707 10.112 24.256 9.344 24.256ZM0.256 11.008V7.168H12.192V11.008H0.256ZM16.2103 24V6.784H20.9783V11.648L20.3063 10.24C20.8183 9.024 21.6396 8.10667 22.7703 7.488C23.9009 6.848 25.2769 6.528 26.8983 6.528V11.136C26.6849 11.1147 26.4929 11.104 26.3223 11.104C26.1516 11.0827 25.9703 11.072 25.7783 11.072C24.4129 11.072 23.3036 11.4667 22.4503 12.256C21.6183 13.024 21.2023 14.2293 21.2023 15.872V24H16.2103ZM39.3015 24V20.64L38.9815 19.904V13.888C38.9815 12.8213 38.6508 11.9893 37.9895 11.392C37.3495 10.7947 36.3575 10.496 35.0135 10.496C34.0962 10.496 33.1895 10.6453 32.2935 10.944C31.4188 11.2213 30.6722 11.6053 30.0535 12.096L28.2615 8.608C29.2002 7.94667 30.3308 7.43467 31.6535 7.072C32.9762 6.70933 34.3202 6.528 35.6855 6.528C38.3095 6.528 40.3468 7.14667 41.7975 8.384C43.2482 9.62133 43.9735 11.552 43.9735 14.176V24H39.3015ZM34.0535 24.256C32.7095 24.256 31.5575 24.032 30.5975 23.584C29.6375 23.1147 28.9015 22.4853 28.3895 21.696C27.8775 20.9067 27.6215 20.0213 27.6215 19.04C27.6215 18.016 27.8668 17.12 28.3575 16.352C28.8695 15.584 29.6695 14.9867 30.7575 14.56C31.8455 14.112 33.2642 13.888 35.0135 13.888H39.5895V16.8H35.5575C34.3842 16.8 33.5735 16.992 33.1255 17.376C32.6988 17.76 32.4855 18.24 32.4855 18.816C32.4855 19.456 32.7308 19.968 33.2215 20.352C33.7335 20.7147 34.4268 20.896 35.3015 20.896C36.1335 20.896 36.8802 20.704 37.5415 20.32C38.2028 19.9147 38.6828 19.328 38.9815 18.56L39.7495 20.864C39.3868 21.9733 38.7255 22.816 37.7655 23.392C36.8055 23.968 35.5682 24.256 34.0535 24.256ZM52.851 24L45.619 6.784H50.771L56.787 21.6H54.227L60.467 6.784H65.267L58.003 24H52.851ZM75.3793 24.256C73.4166 24.256 71.6886 23.872 70.1953 23.104C68.7233 22.336 67.5819 21.2907 66.7713 19.968C65.9606 18.624 65.5553 17.0987 65.5553 15.392C65.5553 13.664 65.9499 12.1387 66.7393 10.816C67.5499 9.472 68.6486 8.42667 70.0353 7.68C71.4219 6.912 72.9899 6.528 74.7393 6.528C76.4246 6.528 77.9393 6.89067 79.2833 7.616C80.6486 8.32 81.7259 9.344 82.5153 10.688C83.3046 12.0107 83.6993 13.6 83.6993 15.456C83.6993 15.648 83.6886 15.872 83.6673 16.128C83.6459 16.3627 83.6246 16.5867 83.6033 16.8H69.6193V13.888H80.9792L79.0593 14.752C79.0593 13.856 78.8779 13.0773 78.5153 12.416C78.1526 11.7547 77.6513 11.2427 77.0113 10.88C76.3713 10.496 75.6246 10.304 74.7713 10.304C73.9179 10.304 73.1606 10.496 72.4993 10.88C71.8593 11.2427 71.3579 11.7653 70.9953 12.448C70.6326 13.1093 70.4513 13.8987 70.4513 14.816V15.584C70.4513 16.5227 70.6539 17.3547 71.0593 18.08C71.4859 18.784 72.0726 19.328 72.8193 19.712C73.5873 20.0747 74.4833 20.256 75.5073 20.256C76.4246 20.256 77.2246 20.1173 77.9073 19.84C78.6113 19.5627 79.2513 19.1467 79.8273 18.592L82.4833 21.472C81.6939 22.368 80.7019 23.0613 79.5073 23.552C78.3126 24.0213 76.9366 24.256 75.3793 24.256ZM87.0228 24V0.255999H92.0148V24H87.0228Z" fill="white"/>
<path d="M107.72 24.384C105.992 24.384 104.381 24.1067 102.888 23.552C101.416 22.976 100.136 22.1653 99.0477 21.12C97.9598 20.0747 97.1064 18.848 96.4878 17.44C95.8904 16.032 95.5918 14.4853 95.5918 12.8C95.5918 11.1147 95.8904 9.568 96.4878 8.16C97.1064 6.752 97.9598 5.52533 99.0477 4.48C100.157 3.43467 101.448 2.63467 102.92 2.08C104.392 1.504 106.002 1.216 107.752 1.216C109.693 1.216 111.442 1.55733 113 2.24C114.578 2.90133 115.901 3.88267 116.968 5.184L113.64 8.256C112.872 7.38133 112.018 6.73067 111.08 6.304C110.141 5.856 109.117 5.632 108.008 5.632C106.962 5.632 106.002 5.80267 105.128 6.144C104.253 6.48533 103.496 6.976 102.856 7.616C102.216 8.256 101.714 9.01333 101.352 9.888C101.01 10.7627 100.84 11.7333 100.84 12.8C100.84 13.8667 101.01 14.8373 101.352 15.712C101.714 16.5867 102.216 17.344 102.856 17.984C103.496 18.624 104.253 19.1147 105.128 19.456C106.002 19.7973 106.962 19.968 108.008 19.968C109.117 19.968 110.141 19.7547 111.08 19.328C112.018 18.88 112.872 18.208 113.64 17.312L116.968 20.384C115.901 21.6853 114.578 22.6773 113 23.36C111.442 24.0427 109.682 24.384 107.72 24.384ZM128.067 24.256C126.104 24.256 124.376 23.872 122.883 23.104C121.411 22.336 120.269 21.2907 119.459 19.968C118.648 18.624 118.243 17.0987 118.243 15.392C118.243 13.664 118.637 12.1387 119.427 10.816C120.237 9.472 121.336 8.42667 122.723 7.68C124.109 6.912 125.677 6.528 127.427 6.528C129.112 6.528 130.627 6.89067 131.971 7.616C133.336 8.32 134.413 9.344 135.203 10.688C135.992 12.0107 136.387 13.6 136.387 15.456C136.387 15.648 136.376 15.872 136.355 16.128C136.333 16.3627 136.312 16.5867 136.291 16.8H122.307V13.888H133.667L131.747 14.752C131.747 13.856 131.565 13.0773 131.203 12.416C130.84 11.7547 130.339 11.2427 129.699 10.88C129.059 10.496 128.312 10.304 127.459 10.304C126.605 10.304 125.848 10.496 125.187 10.88C124.547 11.2427 124.045 11.7653 123.683 12.448C123.32 13.1093 123.139 13.8987 123.139 14.816V15.584C123.139 16.5227 123.341 17.3547 123.747 18.08C124.173 18.784 124.76 19.328 125.507 19.712C126.275 20.0747 127.171 20.256 128.195 20.256C129.112 20.256 129.912 20.1173 130.595 19.84C131.299 19.5627 131.939 19.1467 132.515 18.592L135.171 21.472C134.381 22.368 133.389 23.0613 132.195 23.552C131 24.0213 129.624 24.256 128.067 24.256ZM141.574 30.464C140.678 30.464 139.792 30.3253 138.918 30.048C138.043 29.7707 137.328 29.3867 136.774 28.896L138.598 25.344C138.982 25.6853 139.419 25.952 139.91 26.144C140.422 26.336 140.923 26.432 141.414 26.432C142.118 26.432 142.672 26.2613 143.078 25.92C143.504 25.6 143.888 25.056 144.23 24.288L145.126 22.176L145.51 21.632L151.686 6.784H156.486L148.71 25.056C148.155 26.4427 147.515 27.5307 146.79 28.32C146.086 29.1093 145.296 29.664 144.422 29.984C143.568 30.304 142.619 30.464 141.574 30.464ZM144.518 24.672L136.838 6.784H141.99L147.942 21.184L144.518 24.672ZM158.523 24V0.255999H163.515V24H158.523ZM176.34 24.256C174.505 24.256 172.873 23.872 171.444 23.104C170.036 22.336 168.916 21.2907 168.084 19.968C167.273 18.624 166.868 17.0987 166.868 15.392C166.868 13.664 167.273 12.1387 168.084 10.816C168.916 9.472 170.036 8.42667 171.444 7.68C172.873 6.912 174.505 6.528 176.34 6.528C178.153 6.528 179.774 6.912 181.204 7.68C182.633 8.42667 183.753 9.46133 184.564 10.784C185.374 12.1067 185.78 13.6427 185.78 15.392C185.78 17.0987 185.374 18.624 184.564 19.968C183.753 21.2907 182.633 22.336 181.204 23.104C179.774 23.872 178.153 24.256 176.34 24.256ZM176.34 20.16C177.172 20.16 177.918 19.968 178.58 19.584C179.241 19.2 179.764 18.656 180.148 17.952C180.532 17.2267 180.724 16.3733 180.724 15.392C180.724 14.3893 180.532 13.536 180.148 12.832C179.764 12.128 179.241 11.584 178.58 11.2C177.918 10.816 177.172 10.624 176.34 10.624C175.508 10.624 174.761 10.816 174.1 11.2C173.438 11.584 172.905 12.128 172.5 12.832C172.116 13.536 171.924 14.3893 171.924 15.392C171.924 16.3733 172.116 17.2267 172.5 17.952C172.905 18.656 173.438 19.2 174.1 19.584C174.761 19.968 175.508 20.16 176.34 20.16ZM199.581 6.528C200.946 6.528 202.162 6.80533 203.229 7.36C204.317 7.89333 205.17 8.72533 205.789 9.856C206.407 10.9653 206.717 12.3947 206.717 14.144V24H201.725V14.912C201.725 13.5253 201.415 12.5013 200.797 11.84C200.199 11.1787 199.346 10.848 198.237 10.848C197.447 10.848 196.733 11.0187 196.093 11.36C195.474 11.68 194.983 12.1813 194.621 12.864C194.279 13.5467 194.109 14.4213 194.109 15.488V24H189.117V6.784H193.885V11.552L192.989 10.112C193.607 8.96 194.493 8.07467 195.645 7.456C196.797 6.83733 198.109 6.528 199.581 6.528Z" fill="#8DD3BB"/>
</svg>
