<svg width="27" height="26" viewBox="0 0 27 26" fill="none" xmlns="http://www.w3.org/2000/svg">
<path d="M2.67134 23.8332L4.13601 18.4512C3.17091 16.7968 2.66386 14.9152 2.66701 12.9998C2.66701 7.01659 7.51709 2.1665 13.5003 2.1665C19.4836 2.1665 24.3337 7.01659 24.3337 12.9998C24.3337 18.9831 19.4836 23.8332 13.5003 23.8332C11.5858 23.8363 9.70505 23.3296 8.05117 22.3653L2.67134 23.8332ZM9.59059 7.91684C9.45069 7.92552 9.31399 7.96237 9.18867 8.02517C9.07116 8.09172 8.96388 8.17491 8.87017 8.27217C8.74017 8.39459 8.66651 8.50075 8.58742 8.60367C8.18704 9.12475 7.97167 9.76437 7.97534 10.4215C7.97751 10.9523 8.11617 11.4691 8.33284 11.9523C8.77592 12.9294 9.50501 13.964 10.4681 14.9228C10.6999 15.1535 10.9263 15.3853 11.1701 15.6009C12.3654 16.6533 13.7899 17.4123 15.3301 17.8174L15.9465 17.9117C16.1469 17.9225 16.3473 17.9073 16.5488 17.8976C16.8643 17.8813 17.1724 17.7959 17.4513 17.6473C17.6311 17.552 17.7156 17.5043 17.8662 17.409C17.8662 17.409 17.9128 17.3787 18.0016 17.3115C18.1478 17.2032 18.2378 17.1263 18.3591 16.9995C18.449 16.9063 18.527 16.7969 18.5866 16.6723C18.6711 16.4958 18.7556 16.1588 18.7903 15.8783C18.8163 15.6638 18.8087 15.5468 18.8054 15.4742C18.8011 15.3583 18.7047 15.238 18.5996 15.1871L17.9691 14.9043C17.9691 14.9043 17.0266 14.4938 16.4513 14.2316C16.3907 14.2051 16.3257 14.1901 16.2596 14.1872C16.1855 14.1796 16.1106 14.1879 16.0399 14.2116C15.9693 14.2354 15.9046 14.2739 15.8501 14.3248V14.3226C15.8447 14.3226 15.7721 14.3843 14.9888 15.3333C14.9439 15.3937 14.882 15.4394 14.811 15.4645C14.74 15.4896 14.6631 15.4929 14.5902 15.4742C14.5196 15.4553 14.4504 15.4314 14.3833 15.4027C14.2489 15.3463 14.2023 15.3247 14.1103 15.2846L14.1048 15.2824C13.4851 15.0118 12.9113 14.6463 12.404 14.1991C12.2675 14.0799 12.1408 13.9499 12.0108 13.8243C11.5845 13.4161 11.2131 12.9544 10.9058 12.4506L10.8418 12.3477C10.7959 12.2785 10.7588 12.2039 10.7313 12.1256C10.6902 11.9663 10.7974 11.8385 10.7974 11.8385C10.7974 11.8385 11.0607 11.5503 11.1831 11.3943C11.285 11.2647 11.3801 11.1298 11.468 10.9903C11.5958 10.7844 11.6359 10.5732 11.5688 10.4096C11.2654 9.66859 10.9513 8.93084 10.6284 8.1985C10.5645 8.05334 10.3749 7.94934 10.2027 7.92875C10.1442 7.92225 10.0857 7.91575 10.0272 7.91142C9.88169 7.90419 9.7359 7.90672 9.59059 7.91684Z" fill="black"/>
</svg>
